<svg xmlns="http://www.w3.org/2000/svg" width="720" height="577" viewBox="0 0 720 577">
    <g fill="#FFF" fill-rule="nonzero" opacity=".15" style="mix-blend-mode:overlay">
        <g opacity=".3">
            <path d="M211.06 280.871h-.332l-29.457-16.385c-.165-.165-.33-.33-.33-.662 0-.165.165-.496.33-.496l37.4-15.227c.166-.165.497 0 .663.166.165.165.33.33.165.662l-7.943 31.611c0 .166-.166.331-.331.497 0-.166-.166-.166-.166-.166zm-28.134-16.881l27.637 15.392 7.447-29.626-35.084 14.234z"/>
            <path d="M181.437 264.652c-.166 0-.331-.166-.497-.331-.165-.166-.165-.497 0-.828l45.179-49.155c.165-.165.496-.33.827-.165.331.165.331.33.331.662l-7.778 33.928c0 .166-.165.331-.33.497l-37.401 15.226c-.166 0-.166.166-.331.166zm44.185-47.666l-41.703 45.349 34.587-14.068 7.116-31.28z"/>
            <path d="M218.837 249.26h-.165c-.331-.166-.497-.497-.331-.662l7.778-33.929c0-.165.165-.165.165-.33l40.049-38.894c.165-.166.662-.166.827 0 .166.165.331.496.166.827l-47.827 72.822c-.165.166-.33.166-.662.166zm8.44-34.094l-6.95 30.287 42.862-65.043-35.912 34.756z"/>
            <path d="M218.837 249.26c-.165 0-.33 0-.496-.166a.503.503 0 0 1 0-.662l47.826-72.822c.166-.165.331-.331.662-.331l98.632 15.061c.331 0 .497.331.497.497 0 .33-.166.496-.331.662l-146.459 57.76h-.33zm48.158-72.657l-46.503 70.836 142.487-56.106-95.984-14.73z"/>
            <path d="M365.296 191.664l-98.632-15.06c-.166 0-.331-.166-.497-.332-.165-.165-.165-.331 0-.496l10.095-33.929c0-.166.166-.331.331-.331h.497l88.537 48.99c.33 0 .496.33.496.662-.165.165-.33.496-.827.496zm-97.805-16.22l94.495 14.4-84.73-47.004-9.765 32.605zM135.927 337.143c-.166 0-.331 0-.497-.165-.165-.166-.33-.497-.165-.828l45.675-72.657c.166-.33.497-.33.828-.165l29.457 16.385c.165.165.33.33.33.496 0 .166 0 .331-.165.497l-75.132 56.272c-.166.165-.331.165-.331.165zm45.84-72.326l-43.523 69.347L209.9 280.54l-28.133-15.723z"/>
            <path d="M182.76 408.476c-.165 0-.33-.166-.496-.331l-46.834-71.167c-.165-.331-.165-.662.166-.828l75.132-56.272a.503.503 0 0 1 .662 0c.166.166.331.331.331.662l-28.299 127.605c-.165.165-.33.33-.661.33.165 0 0 0 0 0zm-46.006-71.664l45.841 69.512 27.637-124.46-73.478 54.948z"/>
            <path d="M182.76 408.476c-.165 0-.33 0-.33-.166-.166-.165-.331-.33-.166-.662l28.299-127.604c0-.331.33-.497.662-.497l185.348 6.29c.331 0 .497.165.662.496 0 .331 0 .497-.33.662L183.421 408.31c-.496.166-.496.166-.661.166zm28.796-127.44l-27.803 125.62L394.256 287.16l-182.7-6.124z"/>
            <path d="M396.408 287.16c-.166 0-.166 0 0 0l-185.349-6.289c-.165 0-.33-.165-.496-.165-.166-.166-.166-.331-.166-.497l7.944-31.611c0-.331.33-.497.662-.497l177.405 37.736c.33 0 .662.33.662.662-.166.33-.331.662-.662.662zm-184.687-7.447l177.57 5.958-169.957-36.246-7.613 30.288z"/>
            <path d="M396.242 287.16l-177.405-37.9c-.33 0-.496-.331-.496-.497 0-.33.165-.496.33-.662l146.46-57.595h.496c.165 0 .33.165.33.33l30.947 95.332c0 .165.166.165.166.33-.166.332-.331.663-.828.663.166 0 0 0 0 0zM220.99 248.433l174.426 37.239-30.45-93.841-143.976 56.602z"/>
            <path d="M396.242 287.16c-.165 0-.33-.165-.496-.33-.166-.166-.166-.331 0-.662l41.372-102.614c.166-.33.331-.33.662-.33s.497.165.497.496l23.334 99.303c0 .165 0 .33-.166.496-.165.166-.33.166-.496.166l-64.707 3.476c.166 0 .166 0 0 0zm41.207-101.123l-40.214 99.8 62.886-3.145-22.672-96.655z"/>
            <path d="M396.242 287.16c-.33 0-.496-.165-.662-.496l-30.946-95.496v-.497c.165-.165.33-.331.496-.331l72.32-6.951c.165 0 .496 0 .496.165.165.166.165.331 0 .662L396.573 286.83c.166.165 0 .33-.33.33zM366.29 191.5l30.119 93.179 40.214-99.965-70.333 6.786z"/>
            <path d="M182.76 408.476c-.33 0-.496-.166-.661-.497-.166-.33 0-.662.33-.662l213.482-121.315a.503.503 0 0 1 .662 0l101.942 85.235c.165.166.33.497.165.662 0 .166-.33.331-.496.497l-315.423 36.08zm213.482-121.15L185.74 406.986l311.121-35.583-100.618-84.077z"/>
            <path d="M498.35 372.396c-.166 0-.332 0-.332-.166l-101.941-85.235c-.166-.165-.331-.496-.166-.662 0-.165.331-.331.497-.496l64.54-3.31c.166 0 .497.165.663.33l37.4 88.38a.513.513 0 0 1 .166.331c-.166.497-.497.828-.828.828zm-100.453-85.401l98.798 82.587-36.243-85.732-62.555 3.145z"/>
            <path d="M537.405 373.72l-39.056-1.324c-.165 0-.496-.166-.496-.331l-37.4-88.546c-.166-.33 0-.662.165-.827.33-.166.662-.166.827.165l76.456 89.87c.166.165.166.496.166.662-.166.165-.497.33-.662.33zm-38.725-2.648l37.236 1.324-72.981-85.732 35.745 84.408zM181.437 264.652c-.166 0-.166 0-.331-.166-.331-.165-.331-.496-.166-.827l31.112-75.305c.166-.166.331-.331.497-.331.165 0 .496.165.496.33l14.232 25.985c.166.166.166.497-.165.662l-45.179 49.155c-.165.331-.33.497-.496.497zm31.112-74.478l-29.292 70.837 42.53-46.342-13.238-24.495z"/>
            <path d="M226.78 215.331s-.165 0 0 0c-.33 0-.496-.165-.496-.33l-14.232-25.985c-.165-.166-.165-.331 0-.497 0-.165.166-.33.497-.33l54.28-12.744c.331 0 .497 0 .662.33.166.166.166.497-.165.663l-40.049 38.893h-.496zm-13.238-26.15l13.404 24.66 37.732-36.741-51.136 12.081z"/>
            <path d="M212.549 189.347c-.166 0-.497-.166-.497-.331-.165-.331 0-.662.166-.828l64.21-46.838a.503.503 0 0 1 .662 0c.165.166.33.497.165.662l-10.095 33.929c0 .166-.165.331-.496.497l-54.115 12.909zm63.217-45.845l-60.239 43.859 50.806-12.082 9.433-31.777z"/>
            <path d="M365.296 191.664h-.331l-88.537-48.99c-.166-.165-.331-.33-.331-.496 0-.166.165-.497.33-.497l85.559-42.369c.165-.165.33-.165.662 0 .165.166.33.331.33.497l2.98 91.359c0 .165-.166.496-.331.496h-.331zm-87.213-49.652l86.55 47.997-2.813-89.373-83.737 41.376z"/>
            <path d="M276.759 142.509c-.166 0-.331 0-.331-.166-.166-.165-.331-.33-.166-.662l10.592-52.961c0-.331.33-.497.662-.497l75.132 10.758c.33 0 .496.166.496.497 0 .33-.165.496-.33.662l-85.559 42.369h-.496zm11.087-52.796l-10.26 51.14 82.745-40.879-72.485-10.261z"/>
            <path d="M365.296 191.664c-.166 0-.331 0-.331-.165-.166-.166-.166-.331-.166-.497l-2.979-91.359c0-.33.166-.496.331-.662.166-.165.497 0 .662.166l75.133 84.407c.165.166.165.497.165.662-.165.166-.33.331-.496.331l-72.32 7.117c.166 0 .166 0 0 0zm-2.152-90.366l2.814 89.042 70.333-6.786-73.147-82.256z"/>
            <path d="M362.482 100.305s-.165 0 0 0L287.35 89.547c-.331 0-.496-.33-.496-.662l.662-14.564c0-.166.165-.331.33-.497.166-.165.331-.165.497 0l74.305 25.157c.33 0 .496.331.496.662s-.33.662-.662.662zm-74.47-11.916l67.85 9.6-67.354-22.84-.496 13.24z"/>
            <path d="M362.482 100.305h-.165l-74.47-25.322c-.166 0-.331-.331-.497-.497 0-.33.166-.496.331-.662l57.094-27.474h.496c.166 0 .331.166.331.331l17.211 52.466c0 .165.166.165.166.33.165.497-.166.828-.497.828zm-72.815-25.984l71.822 24.33-16.714-50.811-55.108 26.48z"/>
            <path d="M437.615 184.547c-.166 0-.331 0-.497-.165l-75.132-84.408c-.166-.165-.166-.33-.166-.496 0-.166.166-.331.166-.497L482.628.175a.503.503 0 0 1 .662 0c.165.165.33.496.33.662l-45.343 183.048c-.166.497-.331.662-.662.662.165 0 0 0 0 0zM363.31 99.643l73.974 82.918L481.966 2.326 363.31 99.643z"/>
            <path d="M362.482 100.305h-.165c-.166 0-.331-.165-.497-.33l-17.376-52.632c-.166-.33 0-.662.33-.827L482.629.506c.33-.166.662 0 .662.33.165.332 0 .663-.166.828l-120.642 98.807c.166-.331.166-.166 0-.166zm-16.549-52.962l16.88 51.307L480.146 2.657 345.933 47.343zM497.191 548.824h-.331L182.43 408.476c-.331-.166-.331-.331-.331-.662s.33-.497.496-.497l315.589-36.08c.165 0 .33 0 .496.166.166.165.166.33.166.496l-.993 176.429c0 .165-.166.33-.331.496 0-.165-.166 0-.331 0zm-312.114-140.68L496.695 547.17l.992-174.773-312.61 35.749z"/>
            <path d="M182.76 408.476s-.165 0 0 0l-19.196-4.634c-.166 0-.331-.166-.497-.331l-27.802-66.699c-.166-.33 0-.662.33-.827.332-.166.663 0 .828.165l46.834 71.333a.503.503 0 0 1 0 .662c-.166.33-.331.33-.496.33zm-18.7-5.793l17.211 4.138-42.365-64.382 25.154 60.244zM613.53 177.927c-.165 0-.33-.165-.496-.33L482.628 1.332c-.166-.165-.166-.496 0-.827.165-.166.496-.331.827-.166l171.613 101.786c.331.165.331.496.166.827l-41.042 74.643c-.165.166-.33.331-.662.331.166 0 .166 0 0 0zM485.441 2.988l128.09 173.119 40.379-73.32L485.44 2.989z"/>
            <path d="M437.615 184.547c-.166 0-.331-.165-.497-.165-.165-.166-.165-.331-.165-.497L482.463.671c0-.165.165-.331.496-.496.165 0 .496 0 .662.165l130.571 176.429a.503.503 0 0 1 0 .662c-.165.165-.33.33-.496.33l-176.081 6.786zM483.29 2.327l-44.848 181.062 173.93-6.62L483.29 2.326zM514.733 573.485c-.166 0-.331-.166-.497-.331l-17.541-24.826a.503.503 0 0 1 0-.662c.165-.166.496-.331.661-.166l18.039 5.793c.33.165.496.331.496.662l-.496 19.033c0 .331-.166.497-.497.497h-.165zm-15.887-24.164l15.39 21.681.497-16.716-15.887-4.965z"/>
            <path d="M515.23 554.617h-.166l-18.039-5.793c-.33-.165-.496-.33-.496-.662l24.658-137.369c0-.331.331-.497.662-.497.33 0 .496.331.496.662l-6.62 143.162c0 .166-.165.331-.33.497.165-.166 0 0-.166 0zm-17.212-6.951l16.715 5.296 6.123-132.9-22.838 127.604z"/>
            <path d="M497.191 548.824c-.331 0-.662-.33-.662-.662l.993-176.428c0-.331.165-.497.496-.662.331 0 .497 0 .662.33l23.5 39.06c0 .165.165.331 0 .496l-24.658 137.37c.33.165 0 .496-.331.496zm1.655-174.939l-.993 166.995 23.334-130.087-22.341-36.908z"/>
            <path d="M521.849 411.29c-.166 0-.497-.166-.497-.332l-23.5-39.059a.503.503 0 0 1 0-.662c.166-.165.332-.33.497-.33l39.056 1.323c.165 0 .331.166.496.331.166.166.166.331 0 .497l-15.556 37.57c0 .496-.165.661-.496.661zm-22.507-38.894l22.341 36.907 14.729-35.583-37.07-1.324zM651.924 223.938c-.166 0-.331 0-.497-.166l-38.228-46.01c-.165-.166-.165-.331-.165-.497 0-.165.165-.33.33-.496l89.696-55.941c.166-.166.497-.166.828 0 .165.165.33.496.165.662L652.751 223.44c-.33.331-.662.497-.827.497zm-37.4-46.507l37.234 44.852 49.978-99.138-87.213 54.286z"/>
            <path d="M613.53 177.927c-.165 0-.33 0-.496-.165-.166-.166-.331-.497-.166-.828l41.042-74.643c.165-.33.496-.33.827-.33l48.489 18.701c.165.166.33.331.33.497 0 .165-.165.496-.33.662l-89.696 55.94c.331.166.166.166 0 .166zm41.373-74.477l-39.718 71.995 86.551-53.955-46.833-18.04z"/>
            <path d="M563.221 239.66c-.165 0-.496-.165-.496-.33a.503.503 0 0 1 0-.662l50.474-61.734c.166-.165.331-.165.497-.165.165 0 .33 0 .496.165l38.228 46.01c.166.166.166.332.166.663 0 .165-.331.33-.497.33l-88.868 15.724zm50.31-61.402l-48.82 59.913 86.054-15.226-37.235-44.687z"/>
            <path d="M537.405 373.72c-.166 0-.331 0-.496-.166l-76.457-89.87c-.165-.165-.165-.33-.165-.496 0-.165.165-.33.33-.496l102.273-44.19c.166-.165.497 0 .662.166.166.165.331.33.166.662L537.9 373.389s-.165.33-.496.33zm-75.463-90.2l75.132 88.214 25.32-131.742-100.452 43.527z"/>
            <path d="M460.949 283.85h-.331a.356.356 0 0 1-.331-.33l-23.334-99.304c0-.165 0-.496.165-.662.166-.165.497-.165.662-.165l125.607 54.948c.165.165.33.33.33.496 0 .166-.165.497-.33.497l-102.273 44.19c0 .33-.165.33-.165.33zm-22.507-98.806l22.838 97.317 100.286-43.362-123.124-53.955z"/>
            <path d="M563.221 239.66h-.33l-125.607-54.947c-.331-.166-.331-.331-.331-.662s.33-.497.662-.497l175.915-6.785c.331 0 .497.165.497.33.165.166 0 .497 0 .663l-50.31 61.568c-.165.165-.33.33-.496.33zm-122.793-55.113l122.628 53.79 49.316-60.244-171.944 6.454z"/>
        </g>
        <path d="M436.787 667.16l-114.85-28.632c-.165 0-.496-.33-.496-.496l-24.99-133.067c0-.33.166-.496.332-.662.33-.165.496 0 .662.166l139.673 161.533a.503.503 0 0 1 0 .662c.166.331-.165.497-.33.497zm-114.022-29.625l112.367 27.97-136.86-158.388 24.493 130.418z"/>
        <path d="M274.11 641.01c-.165 0-.33 0-.496-.165-.165-.165-.165-.33-.165-.496l23.003-135.384c0-.33.33-.496.662-.496.33 0 .496.165.662.496l24.989 133.067c0 .165 0 .33-.166.496-.165.166-.33.166-.496.166l-47.992 2.317zm23.004-132.569l-22.341 131.246 46.502-2.317-24.161-128.929zM480.807 663.023c-.33 0-.496-.166-.661-.497l-75.464-239.982c0-.331 0-.497.331-.662.166-.166.497-.166.828 0L657.22 640.68c.165.165.33.496.165.662 0 .165-.331.33-.496.496l-176.082 21.185c.166 0 .166 0 0 0zm-74.139-238.824l74.636 237.5 174.095-21.02L406.67 424.2z"/>
        <path d="M436.787 667.16c-.33 0-.496-.165-.662-.496l-31.277-244.12c0-.331.165-.662.496-.662.331 0 .662.165.662.496l75.463 239.983v.496c-.165.166-.33.331-.496.331l-44.186 3.973zM407 429.165l30.285 236.672 42.696-3.972-72.98-232.7z"/>
        <path d="M436.787 667.16c-.165 0-.33 0-.496-.165L296.617 505.462c-.165-.166-.165-.331-.165-.497 0-.165.165-.33.165-.496l108.396-82.587c.166-.166.331-.166.662 0 .166.165.331.33.331.496l31.278 243.955v.331c.165.166-.166.497-.497.497zm-138.68-162.195L435.96 664.512l-30.947-240.975-106.906 81.428z"/>
        <path d="M405.51 423.04l-149.934-6.785c-.331 0-.496-.166-.496-.497 0-.33 0-.496.33-.662l116.67-74.477c.166-.166.332-.166.497 0 .166 0 .331.165.331.33l33.264 81.264v.662c-.331 0-.497.165-.662.165zm-147.948-7.944l146.955 6.62-32.602-79.608-114.353 72.988z"/>
        <path d="M297.114 505.627c-.331 0-.497-.165-.497-.33l-41.537-89.373c-.166-.166 0-.497 0-.662.165-.166.33-.331.496-.331l149.768 6.785c.331 0 .497.166.497.497 0 .33 0 .496-.166.662L297.28 505.462c.166 0 0 .165-.165.165zm-40.545-89.372l40.71 87.717 106.41-81.097-147.12-6.62z"/>
        <path d="M656.889 641.838c-.166 0-.331 0-.497-.165L405.013 422.875c-.165-.166-.33-.497-.165-.662l63.217-168.816c.165-.165.33-.33.496-.33.166 0 .497.165.662.33L657.22 641.011c.165.165.165.33.165.496.166 0-.165.331-.496.331zM406.172 422.213l248.73 216.48-186.175-383.64-62.555 167.16z"/>
        <path d="M405.51 423.04c-.331 0-.497-.165-.497-.33l-33.263-81.264c-.166-.165 0-.496.165-.662l96.48-87.718c.166-.165.497-.165.828 0 .166.166.331.497.166.662l-63.217 168.816c-.166.33-.331.496-.662.496zm-32.602-81.76l32.436 79.278 61.728-165.009-94.164 85.732z"/>
        <path d="M372.246 341.777c-.165 0-.33 0-.33-.165-.166-.166-.332-.497-.166-.828l80.593-138.362c.166-.166.331-.331.662-.331.166 0 .497.165.497.496l15.887 50.645c0 .165 0 .496-.166.662l-96.48 87.718c-.166.165-.331.165-.497.165zm80.428-137.37l-77.78 133.564 93.17-84.739-15.39-48.824zM274.11 641.01c-.165 0-.33 0-.496-.165l-92.674-90.531c-.165-.166-.165-.331-.165-.497 0-.165.165-.33.33-.496l115.678-44.852c.165 0 .496 0 .662.165.165.166.33.331.165.662L274.607 640.68c0 .165-.165.496-.496.496.165-.165.165-.165 0-.165zm-91.515-91.027l91.185 89.042 22.672-133.232-113.857 44.19z"/>
        <path d="M201.626 651.272c-.33 0-.496-.165-.662-.496L180.94 549.817c0-.33 0-.496.331-.662.166-.165.497-.165.662.166l92.674 90.531c.166.166.166.331.166.662 0 .166-.331.331-.497.497l-72.65 10.261zm-19.196-99.634l19.527 98.31 70.83-10.096-90.357-88.214z"/>
        <path d="M181.437 550.48c-.166 0-.331 0-.497-.166a.503.503 0 0 1 0-.662l74.14-134.225c.165-.165.33-.33.496-.33.165 0 .496.165.496.33L297.61 504.8v.496a.356.356 0 0 1-.33.331L181.601 550.48c0-.165 0 0-.165 0zm74.139-133.563l-72.65 131.742 113.36-44.025-40.71-87.717z"/>
        <path d="M182.595 657.065c-.165 0-.331 0-.331-.166-.165-.165-.33-.33-.33-.496l-1.16-106.586c0-.33.166-.662.497-.662.331 0 .662.166.662.497l20.024 100.958c0 .331-.165.662-.496.662l-18.866 5.627c.166.166.166.166 0 .166zm-.331-100.627l.993 99.137 17.542-5.296-18.535-93.841z"/>
        <path d="M182.595 657.065c-.165 0-.331 0-.496-.166l-60.9-60.74c-.166-.166-.166-.331-.166-.497 0-.165.165-.33.165-.496l59.742-45.845a.503.503 0 0 1 .662 0c.166.165.331.33.331.496l1.158 106.42v.166c.166.33 0 .662-.496.662zm-59.742-61.403l59.246 59.251-1.159-103.772-58.087 44.521z"/>
        <path d="M181.437 550.48c-.166 0-.166 0-.331-.166L.39 440.253c-.166-.166-.331-.331-.331-.662s.33-.497.496-.497l254.854-24.163c.166 0 .497.165.497.33a.503.503 0 0 1 0 .663l-74.14 134.224c.166 0 0 .166-.33.331.165-.165.165 0 0 0zM2.707 440.252L181.272 548.99l73.312-132.57L2.708 440.253z"/>
        <path d="M121.86 596.324c-.165 0-.33 0-.496-.165L.39 440.253c-.166-.166-.166-.497 0-.828.165-.165.496-.33.827-.165l180.715 110.06c.166.166.331.332.331.497 0 .166 0 .331-.165.497l-59.742 45.845c-.331 0-.331.165-.497.165zM3.37 442.074l118.49 152.76 58.418-44.851L3.37 442.073zM656.889 641.838c-.166 0-.497-.165-.497-.33l-188.327-387.78v-.496c0-.166.165-.331.33-.331l226.225-77.953c.166 0 .497 0 .662.166.166.165.331.33.166.496l-38.063 465.732c0 .165-.165.33-.496.496zM469.554 253.894l186.838 384.965 37.897-462.421-224.735 77.456z"/>
        <path d="M.887 440.418H.722c-.331-.165-.497-.33-.331-.662l53.122-265.47c0-.331.331-.497.662-.497l113.857 18.868c.165 0 .33.166.496.331.166.166 0 .497 0 .662L1.384 440.087c-.166.166-.331.331-.497.331zm53.453-265.47L2.046 436.778 166.873 193.65 54.34 174.948z"/>
        <path d="M.887 440.418c-.165 0-.496-.165-.496-.33a.503.503 0 0 1 0-.663L167.37 192.988c.165-.165.33-.33.662-.33.165 0 .496.165.496.33l87.71 222.274v.496c-.166.166-.331.331-.497.331L.887 440.42zm166.814-245.775L2.046 439.094l252.703-23.998L167.7 194.643zM694.951 176.107h-.165c-.331 0-.497-.331-.497-.497l-.662-25.653c0-.331.166-.497.497-.662l24.492-7.945c.331 0 .497 0 .662.166a.503.503 0 0 1 0 .662l-23.83 33.598c-.166.165-.331.33-.497.33zm0-25.82l.662 23.337 21.68-30.618-22.342 7.282z"/>
        <path d="M507.948 206.394c-.331 0-.497-.165-.662-.497 0-.33.165-.662.496-.662l186.176-55.94c.166 0 .331 0 .497.165.165.166.33.331.33.497l.663 25.653c0 .331-.166.662-.497.662l-187.003 30.122c.165 0 .165 0 0 0zm185.68-55.775l-176.413 53.127 177.074-28.798-.662-24.33z"/>
        <path d="M468.727 254.06c-.166 0-.331-.166-.497-.332-.165-.165-.165-.496 0-.827l39.387-47.666c.165-.165.165-.165.33-.165l187.004-30.287c.331 0 .662.165.662.496 0 .331-.165.662-.33.662l-226.225 77.953c-.166.166-.331.166-.331.166zm39.552-47.666l-37.732 45.845 217.288-74.974-179.556 29.129z"/>
        <path d="M468.727 254.06s-.166 0 0 0c-.331 0-.497-.166-.662-.497l-15.887-50.645c0-.165 0-.33.165-.496.166-.166.331-.331.497-.166l55.108 2.98c.165 0 .496.165.496.33.166.166 0 .497-.165.663l-39.056 47.665c-.165.166-.33.166-.496.166zm-15.06-50.48l15.225 48.659 37.732-45.845-52.957-2.814zM167.866 193.981c-.165 0-.33 0-.33-.165L55.663 104.112c-.165-.166-.33-.497-.165-.662.165-.331.33-.331.662-.331l153.574 19.86c.166 0 .331.166.497.331.165.166 0 .331 0 .662l-41.704 69.678c-.165.166-.33.331-.662.331.166 0 .166 0 0 0zm-109.72-89.373l109.555 87.718 40.876-68.354-150.43-19.364z"/>
        <path d="M167.866 193.981L53.68 174.948c-.331 0-.497-.331-.497-.662l2.317-70.67c0-.166.165-.497.33-.497.166-.166.497 0 .663 0l111.705 89.538c.166.166.331.331.331.497 0 .496-.165.827-.662.827zM54.506 173.79l111.044 18.537L56.492 104.94l-1.986 68.85z"/>
        <path d="M269.643 230.723h-.166l-101.61-36.742a.356.356 0 0 1-.332-.33v-.497l41.704-69.678c.165-.166.33-.331.496-.331.166 0 .497.165.497.33l59.907 106.586a.503.503 0 0 1 0 .662h-.496zm-100.784-37.735l99.46 35.915L209.735 124.8l-40.876 68.188z"/>
        <path d="M372.246 341.777c-.165 0-.33 0-.496-.165L269.146 230.558c-.165-.166-.165-.331-.165-.662 0-.166.33-.331.496-.331l183.197-27.309c.166 0 .497 0 .662.331a.503.503 0 0 1 0 .662l-80.593 138.363s-.166.165-.497.165zm-101.445-111.22l101.28 109.565 79.6-136.542-180.88 26.978z"/>
        <path d="M255.576 416.255c-.166 0-.166 0-.331-.166-.165-.165-.331-.33-.331-.662l13.901-185.531c0-.166.166-.497.497-.497.165 0 .496 0 .662.166l102.603 111.054c.166.165.166.33.166.496 0 .166-.166.331-.331.497l-116.67 74.477c.165.166 0 .166-.166.166zm14.563-184.704l-13.736 182.883 114.85-73.319L270.14 231.551z"/>
        <path d="M255.576 416.255c-.331 0-.496-.166-.496-.331L167.37 193.65c-.166-.165 0-.496.165-.662.166-.165.497-.165.662-.165l101.611 36.742c.331.165.497.33.331.662l-13.901 185.531c0 .166-.166.331-.662.497.165 0 .165 0 0 0zm-86.551-221.943l86.22 218.467 13.736-182.221-99.956-36.246z"/>
    </g>
</svg>
