<svg xmlns="http://www.w3.org/2000/svg" width="720" height="603" viewBox="0 0 720 603">
    <g fill="#FFF" fill-rule="nonzero" opacity=".15" style="mix-blend-mode:overlay">
        <g opacity=".3">
            <path d="M508.94 280.871h.332l29.457-16.385c.165-.165.33-.33.33-.662 0-.165-.165-.496-.33-.496l-37.4-15.227c-.166-.165-.497 0-.663.166-.165.165-.33.33-.165.662l7.943 31.611c0 .166.166.331.331.497 0-.166.166-.166.166-.166zm28.134-16.881l-27.637 15.392-7.447-29.626 35.084 14.234z"/>
            <path d="M538.563 264.652c.166 0 .331-.166.497-.331.165-.166.165-.497 0-.828l-45.179-49.155c-.165-.165-.496-.33-.827-.165-.331.165-.331.33-.331.662l7.778 33.928c0 .166.165.331.33.497l37.401 15.226c.166 0 .166.166.331.166zm-44.185-47.666l41.703 45.349-34.587-14.068-7.116-31.28z"/>
            <path d="M501.163 249.26h.165c.331-.166.497-.497.331-.662l-7.778-33.929c0-.165-.165-.165-.165-.33l-40.049-38.894c-.165-.166-.662-.166-.827 0-.166.165-.331.496-.166.827l47.827 72.822c.165.166.33.166.662.166zm-8.44-34.094l6.95 30.287-42.862-65.043 35.912 34.756z"/>
            <path d="M501.163 249.26c.165 0 .33 0 .496-.166a.503.503 0 0 0 0-.662l-47.826-72.822c-.166-.165-.331-.331-.662-.331l-98.632 15.061c-.331 0-.497.331-.497.497 0 .33.166.496.331.662l146.459 57.76h.33zm-48.158-72.657l46.503 70.836-142.487-56.106 95.984-14.73z"/>
            <path d="M354.704 191.664l98.632-15.06c.166 0 .331-.166.497-.332.165-.165.165-.331 0-.496l-10.095-33.929a.356.356 0 0 0-.331-.331h-.497l-88.537 48.99c-.33 0-.496.33-.496.662.165.165.33.496.827.496zm97.805-16.22l-94.495 14.4 84.73-47.004 9.765 32.605zM584.073 337.143c.166 0 .331 0 .497-.165.165-.166.33-.497.165-.828l-45.675-72.657c-.166-.33-.497-.33-.828-.165l-29.457 16.385c-.165.165-.33.33-.33.496 0 .166 0 .331.165.497l75.132 56.272a.513.513 0 0 0 .331.165zm-45.84-72.326l43.523 69.347L510.1 280.54l28.133-15.723z"/>
            <path d="M537.24 408.476c.165 0 .33-.166.496-.331l46.834-71.167c.165-.331.165-.662-.166-.828l-75.132-56.272a.503.503 0 0 0-.662 0c-.166.166-.331.331-.331.662l28.299 127.605c.165.165.33.33.661.33-.165 0 0 0 0 0zm46.006-71.664l-45.841 69.512-27.637-124.46 73.478 54.948z"/>
            <path d="M537.24 408.476c.165 0 .33 0 .33-.166.166-.165.331-.33.166-.662l-28.299-127.604c0-.331-.33-.497-.662-.497l-185.348 6.29c-.331 0-.497.165-.662.496 0 .331 0 .497.33.662L536.579 408.31c.496.166.496.166.661.166zm-28.796-127.44l27.803 125.62L325.744 287.16l182.7-6.124z"/>
            <path d="M323.592 287.16c.166 0 .166 0 0 0l185.349-6.289c.165 0 .33-.165.496-.165.166-.166.166-.331.166-.497l-7.944-31.611c0-.331-.33-.497-.662-.497l-177.405 37.736c-.33 0-.662.33-.662.662.166.33.331.662.662.662zm184.687-7.447l-177.57 5.958 169.957-36.246 7.613 30.288z"/>
            <path d="M323.758 287.16l177.405-37.9c.33 0 .496-.331.496-.497 0-.33-.165-.496-.33-.662l-146.46-57.595h-.496a.356.356 0 0 0-.33.33l-30.947 95.332c0 .165-.166.165-.166.33.166.332.331.663.828.663-.166 0 0 0 0 0zm175.253-38.728l-174.426 37.239 30.45-93.841 143.976 56.602z"/>
            <path d="M323.758 287.16c.165 0 .33-.165.496-.33.166-.166.166-.331 0-.662l-41.372-102.614c-.166-.33-.331-.33-.662-.33s-.497.165-.497.496l-23.334 99.303c0 .165 0 .33.166.496.165.166.33.166.496.166l64.707 3.476c-.166 0-.166 0 0 0zM282.55 186.038l40.214 99.8-62.886-3.145 22.672-96.655z"/>
            <path d="M323.758 287.16c.33 0 .496-.165.662-.496l30.946-95.496v-.497c-.165-.165-.33-.331-.496-.331l-72.32-6.951c-.165 0-.496 0-.496.165-.165.166-.165.331 0 .662l41.373 102.614c-.166.165 0 .33.33.33zM353.71 191.5l-30.119 93.179-40.214-99.965 70.333 6.786z"/>
            <path d="M537.24 408.476c.33 0 .496-.166.661-.497.166-.33 0-.662-.33-.662L324.088 286.002a.503.503 0 0 0-.662 0l-101.942 85.235c-.165.166-.33.497-.165.662 0 .166.33.331.496.497l315.423 36.08zm-213.482-121.15l210.503 119.66-311.121-35.583 100.618-84.077z"/>
            <path d="M221.65 372.396c.166 0 .332 0 .332-.166l101.941-85.235c.166-.165.331-.496.166-.662 0-.165-.331-.331-.497-.496l-64.54-3.31c-.166 0-.497.165-.663.33l-37.4 88.38c-.166.166-.166.331-.166.331.166.497.497.828.828.828zm100.453-85.401l-98.798 82.587 36.243-85.732 62.555 3.145z"/>
            <path d="M182.595 373.72l39.056-1.324c.165 0 .496-.166.496-.331l37.4-88.546c.166-.33 0-.662-.165-.827-.33-.166-.662-.166-.827.165l-76.456 89.87c-.166.165-.166.496-.166.662.166.165.497.33.662.33zm38.725-2.648l-37.236 1.324 72.981-85.732-35.745 84.408zM538.563 264.652c.166 0 .166 0 .331-.166.331-.165.331-.496.166-.827l-31.112-75.305c-.166-.166-.331-.331-.497-.331-.165 0-.496.165-.496.33l-14.232 25.985c-.166.166-.166.497.165.662l45.179 49.155c.165.331.33.497.496.497zm-31.112-74.478l29.292 70.837-42.53-46.342 13.238-24.495z"/>
            <path d="M493.22 215.331s.165 0 0 0c.33 0 .496-.165.496-.33l14.232-25.985c.165-.166.165-.331 0-.497 0-.165-.166-.33-.497-.33l-54.28-12.744c-.331 0-.497 0-.662.33-.166.166-.166.497.165.663l40.049 38.893h.496zm13.238-26.15l-13.404 24.66-37.732-36.741 51.136 12.081z"/>
            <path d="M507.451 189.347c.166 0 .497-.166.497-.331.165-.331 0-.662-.166-.828l-64.21-46.838a.503.503 0 0 0-.662 0c-.165.166-.33.497-.165.662l10.095 33.929c0 .166.165.331.496.497l54.115 12.909zm-63.217-45.845l60.239 43.859-50.806-12.082-9.433-31.777z"/>
            <path d="M354.704 191.664h.331l88.537-48.99c.166-.165.331-.33.331-.496 0-.166-.165-.497-.33-.497l-85.559-42.369c-.165-.165-.33-.165-.662 0-.165.166-.33.331-.33.497l-2.98 91.359c0 .165.166.496.331.496h.331zm87.213-49.652l-86.55 47.997 2.813-89.373 83.737 41.376z"/>
            <path d="M443.241 142.509c.166 0 .331 0 .331-.166.166-.165.331-.33.166-.662L433.146 88.72c0-.331-.33-.497-.662-.497l-75.132 10.758c-.33 0-.496.166-.496.497 0 .33.165.496.33.662l85.559 42.369h.496zm-11.087-52.796l10.26 51.14-82.745-40.879 72.485-10.261z"/>
            <path d="M354.704 191.664c.166 0 .331 0 .331-.165.166-.166.166-.331.166-.497l2.979-91.359c0-.33-.166-.496-.331-.662-.166-.165-.497 0-.662.166l-75.133 84.407c-.165.166-.165.497-.165.662.165.166.33.331.496.331l72.32 7.117c-.166 0-.166 0 0 0zm2.152-90.366l-2.814 89.042-70.333-6.786 73.147-82.256z"/>
            <path d="M357.518 100.305s.165 0 0 0l75.132-10.758c.331 0 .496-.33.496-.662l-.662-14.564c0-.166-.165-.331-.33-.497-.166-.165-.331-.165-.497 0l-74.305 25.157c-.33 0-.496.331-.496.662s.33.662.662.662zm74.47-11.916l-67.85 9.6 67.354-22.84.496 13.24z"/>
            <path d="M357.518 100.305h.165l74.47-25.322c.166 0 .331-.331.497-.497 0-.33-.166-.496-.331-.662L375.225 46.35h-.496a.356.356 0 0 0-.331.331l-17.211 52.466c0 .165-.166.165-.166.33-.165.497.166.828.497.828zm72.815-25.984l-71.822 24.33 16.714-50.811 55.108 26.48z"/>
            <path d="M282.385 184.547c.166 0 .331 0 .497-.165l75.132-84.408c.166-.165.166-.33.166-.496 0-.166-.166-.331-.166-.497L237.372.175a.503.503 0 0 0-.662 0c-.165.165-.33.496-.33.662l45.343 183.048c.166.497.331.662.662.662-.165 0 0 0 0 0zm74.305-84.904l-73.974 82.918L238.034 2.326 356.69 99.643z"/>
            <path d="M357.518 100.305h.165c.166 0 .331-.165.497-.33l17.376-52.632c.166-.33 0-.662-.33-.827L237.371.506c-.33-.166-.662 0-.662.33-.165.332 0 .663.166.828l120.642 98.807c-.166-.331-.166-.166 0-.166zm16.549-52.962l-16.88 51.307L239.854 2.657l134.213 44.686zM222.809 548.824h.331l314.43-140.348c.331-.166.331-.331.331-.662s-.33-.497-.496-.497l-315.589-36.08c-.165 0-.33 0-.496.166-.166.165-.166.33-.166.496l.993 176.429c0 .165.166.33.331.496 0-.165.166 0 .331 0zm312.114-140.68L223.305 547.17l-.992-174.773 312.61 35.749z"/>
            <path d="M537.24 408.476s.165 0 0 0l19.196-4.634c.166 0 .331-.166.497-.331l27.802-66.699c.166-.33 0-.662-.33-.827-.332-.166-.663 0-.828.165l-46.834 71.333a.503.503 0 0 0 0 .662c.166.33.331.33.496.33zm18.7-5.793l-17.211 4.138 42.365-64.382-25.154 60.244zM106.47 177.927c.165 0 .33-.165.496-.33L237.372 1.332c.166-.165.166-.496 0-.827-.165-.166-.496-.331-.827-.166L64.932 102.126c-.331.165-.331.496-.166.827l41.042 74.643c.165.166.33.331.662.331-.166 0-.166 0 0 0zM234.559 2.988l-128.09 173.119-40.379-73.32L234.56 2.989z"/>
            <path d="M282.385 184.547c.166 0 .331-.165.497-.165.165-.166.165-.331.165-.497L237.537.671c0-.165-.165-.331-.496-.496-.165 0-.496 0-.662.165L105.808 176.769a.503.503 0 0 0 0 .662c.165.165.33.33.496.33l176.081 6.786zM236.71 2.327l44.848 181.062-173.93-6.62L236.71 2.326zM205.267 573.485c.166 0 .331-.166.497-.331l17.541-24.826a.503.503 0 0 0 0-.662c-.165-.166-.496-.331-.661-.166l-18.039 5.793c-.33.165-.496.331-.496.662l.496 19.033c0 .331.166.497.497.497h.165zm15.887-24.164l-15.39 21.681-.497-16.716 15.887-4.965z"/>
            <path d="M204.77 554.617h.166l18.039-5.793c.33-.165.496-.33.496-.662l-24.658-137.369c0-.331-.331-.497-.662-.497-.33 0-.496.331-.496.662l6.62 143.162c0 .166.165.331.33.497-.165-.166 0 0 .166 0zm17.212-6.951l-16.715 5.296-6.123-132.9 22.838 127.604z"/>
            <path d="M222.809 548.824c.331 0 .662-.33.662-.662l-.993-176.428c0-.331-.165-.497-.496-.662-.331 0-.497 0-.662.33l-23.5 39.06c0 .165-.165.331 0 .496l24.658 137.37c-.33.165 0 .496.331.496zm-1.655-174.939l.993 166.995-23.334-130.087 22.341-36.908z"/>
            <path d="M198.151 411.29c.166 0 .497-.166.497-.332l23.5-39.059a.503.503 0 0 0 0-.662c-.166-.165-.332-.33-.497-.33l-39.056 1.323c-.165 0-.331.166-.496.331-.166.166-.166.331 0 .497l15.556 37.57c0 .496.165.661.496.661zm22.507-38.894l-22.341 36.907-14.729-35.583 37.07-1.324zM68.076 223.938c.166 0 .331 0 .497-.166l38.228-46.01c.165-.166.165-.331.165-.497 0-.165-.165-.33-.33-.496L16.94 120.828c-.166-.166-.497-.166-.828 0-.165.165-.33.496-.165.662L67.249 223.44c.33.331.662.497.827.497zm37.4-46.507l-37.234 44.852-49.978-99.138 87.213 54.286z"/>
            <path d="M106.47 177.927c.165 0 .33 0 .496-.165.166-.166.331-.497.166-.828L66.09 102.291c-.165-.33-.496-.33-.827-.33l-48.489 18.701c-.165.166-.33.331-.33.497 0 .165.165.496.33.662l89.696 55.94c-.331.166-.166.166 0 .166zM65.097 103.45l39.718 71.995-86.551-53.955 46.833-18.04z"/>
            <path d="M156.779 239.66c.165 0 .496-.165.496-.33a.503.503 0 0 0 0-.662l-50.474-61.734c-.166-.165-.331-.165-.497-.165-.165 0-.33 0-.496.165l-38.228 46.01c-.166.166-.166.332-.166.663 0 .165.331.33.497.33l88.868 15.724zm-50.31-61.402l48.82 59.913-86.054-15.226 37.235-44.687z"/>
            <path d="M182.595 373.72c.166 0 .331 0 .496-.166l76.457-89.87c.165-.165.165-.33.165-.496 0-.165-.165-.33-.33-.496l-102.273-44.19c-.166-.165-.497 0-.662.166-.166.165-.331.33-.166.662L182.1 373.389s.165.33.496.33zm75.463-90.2l-75.132 88.214-25.32-131.742 100.452 43.527z"/>
            <path d="M259.051 283.85h.331a.356.356 0 0 0 .331-.33l23.334-99.304c0-.165 0-.496-.165-.662-.166-.165-.497-.165-.662-.165l-125.607 54.948c-.165.165-.33.33-.33.496 0 .166.165.497.33.497l102.273 44.19c0 .33.165.33.165.33zm22.507-98.806L258.72 282.36l-100.286-43.362 123.124-53.955z"/>
            <path d="M156.779 239.66h.33l125.607-54.947c.331-.166.331-.331.331-.662s-.33-.497-.662-.497L106.47 176.77c-.331 0-.497.165-.497.33-.165.166 0 .497 0 .663l50.31 61.568c.165.165.33.33.496.33zm122.793-55.113l-122.628 53.79-49.316-60.244 171.944 6.454z"/>
        </g>
        <path d="M283.213 667.16l114.85-28.632c.165 0 .496-.33.496-.496l24.99-133.067c0-.33-.166-.496-.332-.662-.33-.165-.496 0-.662.166L282.882 666.002a.503.503 0 0 0 0 .662c-.166.331.165.497.33.497zm114.022-29.625l-112.367 27.97 136.86-158.388-24.493 130.418z"/>
        <path d="M445.89 641.01c.165 0 .33 0 .496-.165.165-.165.165-.33.165-.496l-23.003-135.384c0-.33-.33-.496-.662-.496-.33 0-.496.165-.662.496l-24.989 133.067c0 .165 0 .33.166.496.165.166.33.166.496.166l47.992 2.317zm-23.004-132.569l22.341 131.246-46.502-2.317 24.161-128.929zM239.193 663.023c.33 0 .496-.166.661-.497l75.464-239.982c0-.331 0-.497-.331-.662-.166-.166-.497-.166-.828 0L62.78 640.68c-.165.165-.33.496-.165.662 0 .165.331.33.496.496l176.082 21.185c-.166 0-.166 0 0 0zm74.139-238.824l-74.636 237.5-174.095-21.02L313.33 424.2z"/>
        <path d="M283.213 667.16c.33 0 .496-.165.662-.496l31.277-244.12c0-.331-.165-.662-.496-.662-.331 0-.662.165-.662.496L238.53 662.361v.496c.165.166.33.331.496.331l44.186 3.973zM313 429.165l-30.285 236.672-42.696-3.972 72.98-232.7z"/>
        <path d="M283.213 667.16c.165 0 .33 0 .496-.165l139.674-161.533c.165-.166.165-.331.165-.497 0-.165-.165-.33-.165-.496l-108.396-82.587c-.166-.166-.331-.166-.662 0-.166.165-.331.33-.331.496l-31.278 243.955v.331c-.165.166.166.497.497.497zm138.68-162.195L284.04 664.512l30.947-240.975 106.906 81.428z"/>
        <path d="M314.49 423.04l149.934-6.785c.331 0 .496-.166.496-.497 0-.33 0-.496-.33-.662L347.92 340.62c-.166-.166-.332-.166-.497 0a.356.356 0 0 0-.331.33l-33.264 81.264v.662c.331 0 .497.165.662.165zm147.948-7.944l-146.955 6.62 32.602-79.608 114.353 72.988z"/>
        <path d="M422.886 505.627c.331 0 .497-.165.497-.33l41.537-89.373c.166-.166 0-.497 0-.662-.165-.166-.33-.331-.496-.331l-149.768 6.785c-.331 0-.497.166-.497.497 0 .33 0 .496.166.662l108.396 82.587c-.166 0 0 .165.165.165zm40.545-89.372l-40.71 87.717-106.41-81.097 147.12-6.62z"/>
        <path d="M63.111 641.838c.166 0 .331 0 .497-.165l251.379-218.798c.165-.166.33-.497.165-.662l-63.217-168.816c-.165-.165-.33-.33-.496-.33-.166 0-.497.165-.662.33L62.78 641.011c-.165.165-.165.33-.165.496-.166 0 .165.331.496.331zm250.717-219.625l-248.73 216.48 186.175-383.64 62.555 167.16z"/>
        <path d="M314.49 423.04c.331 0 .497-.165.497-.33l33.263-81.264c.166-.165 0-.496-.165-.662l-96.48-87.718c-.166-.165-.497-.165-.828 0-.166.166-.331.497-.166.662l63.217 168.816c.166.33.331.496.662.496zm32.602-81.76l-32.436 79.278-61.728-165.009 94.164 85.732z"/>
        <path d="M347.754 341.777c.165 0 .33 0 .33-.165.166-.166.332-.497.166-.828l-80.593-138.362c-.166-.166-.331-.331-.662-.331-.166 0-.497.165-.497.496l-15.887 50.645c0 .165 0 .496.166.662l96.48 87.718c.166.165.331.165.497.165zm-80.428-137.37l77.78 133.564-93.17-84.739 15.39-48.824zM445.89 641.01c.165 0 .33 0 .496-.165l92.674-90.531c.165-.166.165-.331.165-.497 0-.165-.165-.33-.33-.496l-115.678-44.852c-.165 0-.496 0-.662.165-.165.166-.33.331-.165.662l23.003 135.384c0 .165.165.496.496.496-.165-.165-.165-.165 0-.165zm91.515-91.027l-91.185 89.042-22.672-133.232 113.857 44.19z"/>
        <path d="M518.374 651.272c.33 0 .496-.165.662-.496l20.024-100.959c0-.33 0-.496-.331-.662-.166-.165-.497-.165-.662.166l-92.674 90.531c-.166.166-.166.331-.166.662 0 .166.331.331.497.497l72.65 10.261zm19.196-99.634l-19.527 98.31-70.83-10.096 90.357-88.214z"/>
        <path d="M538.563 550.48c.166 0 .331 0 .497-.166a.503.503 0 0 0 0-.662l-74.14-134.225c-.165-.165-.33-.33-.496-.33-.165 0-.496.165-.496.33L422.39 504.8v.496c0 .166.165.331.33.331l115.678 44.852c0-.165 0 0 .165 0zm-74.139-133.563l72.65 131.742-113.36-44.025 40.71-87.717z"/>
        <path d="M537.405 657.065c.165 0 .331 0 .331-.166.165-.165.33-.33.33-.496l1.16-106.586c0-.33-.166-.662-.497-.662-.331 0-.662.166-.662.497L518.043 650.61c0 .331.165.662.496.662l18.866 5.627c-.166.166-.166.166 0 .166zm.331-100.627l-.993 99.137-17.542-5.296 18.535-93.841z"/>
        <path d="M537.405 657.065c.165 0 .331 0 .496-.166l60.9-60.74c.166-.166.166-.331.166-.497 0-.165-.165-.33-.165-.496L539.06 549.32a.503.503 0 0 0-.662 0c-.166.165-.331.33-.331.496l-1.158 106.42v.166c-.166.33 0 .662.496.662zm59.742-61.403L537.9 654.913l1.159-103.772 58.087 44.521z"/>
        <path d="M538.563 550.48c.166 0 .166 0 .331-.166L719.61 440.253c.166-.166.331-.331.331-.662s-.33-.497-.496-.497L464.59 414.931c-.166 0-.497.165-.497.33a.503.503 0 0 0 0 .663l74.14 134.224c-.166 0 0 .166.33.331-.165-.165-.165 0 0 0zm178.73-110.227L538.728 548.99l-73.312-132.57 251.875 23.833z"/>
        <path d="M598.14 596.324c.165 0 .33 0 .496-.165L719.61 440.253c.166-.166.166-.497 0-.828-.165-.165-.496-.33-.827-.165L538.067 549.32c-.166.166-.331.332-.331.497 0 .166 0 .331.165.497l59.742 45.845c.331 0 .331.165.497.165zm118.49-154.25l-118.49 152.76-58.418-44.851 176.908-107.91zM63.111 641.838c.166 0 .497-.165.497-.33l188.327-387.78v-.496a.356.356 0 0 0-.33-.331L25.38 174.948c-.166 0-.497 0-.662.166-.166.165-.331.33-.166.496l38.063 465.732c0 .165.165.33.496.496zm187.335-387.944L63.608 638.859 25.71 176.438l224.735 77.456z"/>
        <path d="M719.113 440.418h.165c.331-.165.497-.33.331-.662l-53.122-265.47c0-.331-.331-.497-.662-.497l-113.857 18.868c-.165 0-.33.166-.496.331-.166.166 0 .497 0 .662l167.144 246.437c.166.166.331.331.497.331zm-53.453-265.47l52.294 261.83L553.127 193.65l112.533-18.702z"/>
        <path d="M719.113 440.418c.165 0 .496-.165.496-.33a.503.503 0 0 0 0-.663L552.63 192.988c-.165-.165-.33-.33-.662-.33-.165 0-.496.165-.496.33l-87.71 222.274v.496c.166.166.331.331.497.331l254.854 24.33zM552.299 194.643l165.655 244.451-252.703-23.998L552.3 194.643zM25.049 176.107h.165c.331 0 .497-.331.497-.497l.662-25.653c0-.331-.166-.497-.497-.662L1.384 141.35c-.331 0-.497 0-.662.166a.503.503 0 0 0 0 .662l23.83 33.598c.166.165.331.33.497.33zm0-25.82l-.662 23.337-21.68-30.618 22.342 7.282z"/>
        <path d="M212.052 206.394c.331 0 .497-.165.662-.497 0-.33-.165-.662-.496-.662l-186.176-55.94c-.166 0-.331 0-.497.165-.165.166-.33.331-.33.497l-.663 25.653c0 .331.166.662.497.662l187.003 30.122c-.165 0-.165 0 0 0zm-185.68-55.775l176.413 53.127L25.71 174.948l.662-24.33z"/>
        <path d="M251.273 254.06c.166 0 .331-.166.497-.332.165-.165.165-.496 0-.827l-39.387-47.666c-.165-.165-.165-.165-.33-.165L25.048 174.783c-.331 0-.662.165-.662.496 0 .331.165.662.33.662l226.225 77.953a.513.513 0 0 0 .331.166zm-39.552-47.666l37.732 45.845-217.288-74.974 179.556 29.129z"/>
        <path d="M251.273 254.06s.166 0 0 0c.331 0 .497-.166.662-.497l15.887-50.645c0-.165 0-.33-.165-.496-.166-.166-.331-.331-.497-.166l-55.108 2.98c-.165 0-.496.165-.496.33-.166.166 0 .497.165.663l39.056 47.665c.165.166.33.166.496.166zm15.06-50.48l-15.225 48.659-37.732-45.845 52.957-2.814zM552.134 193.981c.165 0 .33 0 .33-.165l111.872-89.704c.165-.166.33-.497.165-.662-.165-.331-.33-.331-.662-.331l-153.574 19.86c-.166 0-.331.166-.497.331-.165.166 0 .331 0 .662l41.704 69.678c.165.166.33.331.662.331-.166 0-.166 0 0 0zm109.72-89.373l-109.555 87.718-40.876-68.354 150.43-19.364z"/>
        <path d="M552.134 193.981l114.187-19.033c.331 0 .497-.331.497-.662l-2.317-70.67c0-.166-.165-.497-.33-.497-.166-.166-.497 0-.663 0l-111.705 89.538c-.166.166-.331.331-.331.497 0 .496.165.827.662.827zm113.36-20.192L554.45 192.326l109.058-87.387 1.986 68.85z"/>
        <path d="M450.357 230.723h.166l101.61-36.742a.356.356 0 0 0 .332-.33v-.497l-41.704-69.678c-.165-.166-.33-.331-.496-.331-.166 0-.497.165-.497.33l-59.907 106.586a.503.503 0 0 0 0 .662h.496zm100.784-37.735l-99.46 35.915L510.265 124.8l40.876 68.188z"/>
        <path d="M347.754 341.777c.165 0 .33 0 .496-.165l102.604-111.054c.165-.166.165-.331.165-.662 0-.166-.33-.331-.496-.331l-183.197-27.309c-.166 0-.497 0-.662.331a.503.503 0 0 0 0 .662l80.593 138.363s.166.165.497.165zm101.445-111.22l-101.28 109.565-79.6-136.542 180.88 26.978z"/>
        <path d="M464.424 416.255c.166 0 .166 0 .331-.166.165-.165.331-.33.331-.662l-13.901-185.531c0-.166-.166-.497-.497-.497-.165 0-.496 0-.662.166L347.423 340.619c-.166.165-.166.33-.166.496 0 .166.166.331.331.497l116.67 74.477c-.165.166 0 .166.166.166zM449.861 231.55l13.736 182.883-114.85-73.319L449.86 231.551z"/>
        <path d="M464.424 416.255c.331 0 .496-.166.496-.331l87.71-222.274c.166-.165 0-.496-.165-.662-.166-.165-.497-.165-.662-.165l-101.611 36.742c-.331.165-.497.33-.331.662l13.901 185.531c0 .166.166.331.662.497-.165 0-.165 0 0 0zm86.551-221.943l-86.22 218.467-13.736-182.221 99.956-36.246z"/>
    </g>
</svg>
