<svg xmlns="http://www.w3.org/2000/svg" width="222" height="310" viewBox="0 0 222 310">
    <defs>
        <linearGradient id="a" x1="50.819%" x2="50.819%" y1="0%" y2="100%">
            <stop offset="0%" stop-color="#DCA4FF"/>
            <stop offset="100%" stop-color="#C7B4E9"/>
        </linearGradient>
    </defs>
    <g fill="none" fill-rule="evenodd">
        <rect width="222" height="310" fill="url(#a)" rx="12"/>
        <path fill="#240066" fill-rule="nonzero" d="M17.048 68.956s-2.214-3.18-5.202-6.918c-1.999-2.502-3.596-5.21-3.745-7.544-.17-2.665 1.442-5.339 4.362-5.469 2.919-.129 4.103 2.056 4.585 3.857.483-1.801 1.667-3.986 4.586-3.857 2.92.13 4.532 2.804 4.362 5.47-.148 2.333-1.746 5.041-3.745 7.543a146.776 146.776 0 0 0-5.203 6.918zM205 240.27s-2.214 3.18-5.202 6.919c-1.999 2.501-3.596 5.21-3.745 7.544-.17 2.665 1.442 5.339 4.362 5.468 2.919.13 4.103-2.055 4.586-3.856.482 1.801 1.666 3.986 4.585 3.856 2.92-.13 4.533-2.803 4.362-5.468-.148-2.334-1.746-5.043-3.745-7.544-2.988-3.739-5.202-6.918-5.202-6.918zM111.024 178.537s-4.645-7.631-10.912-16.603c-4.192-6.004-7.544-12.506-7.855-18.105-.358-6.397 3.025-12.815 9.15-13.126 6.121-.31 8.606 4.933 9.617 9.255 1.012-4.322 3.496-9.566 9.617-9.255 6.125.311 9.508 6.729 9.15 13.126-.311 5.6-3.663 12.1-7.855 18.105-6.266 8.972-10.912 16.603-10.912 16.603zM7 45.894v-2.812h2.68L15.39 13h3.25l6.29 30.082h2.164v2.812h-7.375v-2.812h1.99l-.795-4.61h-7.44l-.575 4.61h1.99v2.812H7zm13.28-10.706l-3.235-16.1-3.03 16.1h6.265zM194.952 263.332v2.813h2.68l5.71 30.082h3.25l6.29-30.082h2.164v-2.813h-7.375v2.813h1.99l-.795 4.61h-7.44l-.575-4.61h1.99v-2.813h-7.889zm13.28 10.707l-3.235 16.1-3.03-16.1h6.265z" opacity=".1"/>
    </g>
</svg>
