<svg xmlns="http://www.w3.org/2000/svg" width="686" height="432" viewBox="0 0 686 432">
    <g fill="#FFF" fill-rule="nonzero" opacity=".15" style="mix-blend-mode:overlay">
        <g opacity=".3">
            <path d="M550.073 35.143c.166 0 .331 0 .497-.165.165-.166.33-.497.165-.828L505.06-38.507c-.166-.33-.497-.33-.828-.165l-29.457 16.385c-.165.165-.33.33-.33.496 0 .166 0 .331.165.497l75.132 56.272a.513.513 0 0 0 .331.165zm-45.84-72.326l43.523 69.347L476.1-21.46l28.133-15.723z"/>
            <path d="M503.24 106.476c.165 0 .33-.166.496-.331l46.834-71.167c.165-.331.165-.662-.166-.828l-75.132-56.272a.503.503 0 0 0-.662 0c-.166.166-.331.331-.331.662l28.299 127.605c.165.165.33.33.661.33-.165 0 0 0 0 0zm46.006-71.664l-45.841 69.512-27.637-124.46 73.478 54.948z"/>
            <path d="M503.24 106.476c.165 0 .33 0 .33-.166.166-.165.331-.33.166-.662L475.437-21.956c0-.331-.33-.497-.662-.497l-185.348 6.29c-.331 0-.497.165-.662.496 0 .331 0 .497.33.662L502.579 106.31c.496.166.496.166.661.166zm-28.796-127.44l27.803 125.62L291.744-14.84l182.7-6.124z"/>
            <path d="M503.24 106.476c.33 0 .496-.166.661-.497.166-.33 0-.662-.33-.662L290.088-15.998a.503.503 0 0 0-.662 0L187.485 69.237c-.165.166-.33.497-.165.662 0 .166.33.331.496.497l315.423 36.08zM289.757-14.674l210.503 119.66L189.14 69.403l100.618-84.077z"/>
            <path d="M187.65 70.396c.166 0 .332 0 .332-.166l101.941-85.235c.166-.165.331-.496.166-.662 0-.165-.331-.331-.497-.496l-64.54-3.31c-.166 0-.497.165-.663.33l-37.4 88.38c-.166.166-.166.331-.166.331.166.497.497.828.828.828zm100.453-85.401l-98.798 82.587 36.243-85.732 62.555 3.145z"/>
            <path d="M148.595 71.72l39.056-1.324c.165 0 .496-.166.496-.331l37.4-88.546c.166-.33 0-.662-.165-.827-.33-.166-.662-.166-.827.165l-76.456 89.87c-.166.165-.166.496-.166.662.166.165.497.33.662.33zm38.725-2.648l-37.236 1.324 72.981-85.732-35.745 84.408z"/>
            <path d="M188.809 246.824h.331l314.43-140.348c.331-.166.331-.331.331-.662s-.33-.497-.496-.497l-315.589-36.08c-.165 0-.33 0-.496.166-.166.165-.166.33-.166.496l.993 176.429c0 .165.166.33.331.496 0-.165.166 0 .331 0zm312.114-140.68L189.305 245.17l-.992-174.773 312.61 35.749z"/>
            <path d="M503.24 106.476s.165 0 0 0l19.196-4.634c.166 0 .331-.166.497-.331l27.802-66.699c.166-.33 0-.662-.33-.827-.332-.166-.663 0-.828.165l-46.834 71.333a.503.503 0 0 0 0 .662c.166.33.331.33.496.33zm18.7-5.793l-17.211 4.138 42.365-64.382-25.154 60.244zM171.267 271.485c.166 0 .331-.166.497-.331l17.541-24.826a.503.503 0 0 0 0-.662c-.165-.166-.496-.331-.661-.166l-18.039 5.793c-.33.165-.496.331-.496.662l.496 19.033c0 .331.166.497.497.497h.165zm15.887-24.164l-15.39 21.681-.497-16.716 15.887-4.965z"/>
            <path d="M170.77 252.617h.166l18.039-5.793c.33-.165.496-.33.496-.662l-24.658-137.369c0-.331-.331-.497-.662-.497-.33 0-.496.331-.496.662l6.62 143.162c0 .166.165.331.33.497-.165-.166 0 0 .166 0zm17.212-6.951l-16.715 5.296-6.123-132.9 22.838 127.604z"/>
            <path d="M188.809 246.824c.331 0 .662-.33.662-.662l-.993-176.428c0-.331-.165-.497-.496-.662-.331 0-.497 0-.662.33l-23.5 39.06c0 .165-.165.331 0 .496l24.658 137.37c-.33.165 0 .496.331.496zm-1.655-174.939l.993 166.995-23.334-130.087 22.341-36.908z"/>
            <path d="M164.151 109.29c.166 0 .497-.166.497-.332l23.5-39.059a.503.503 0 0 0 0-.662c-.166-.165-.332-.33-.497-.33l-39.056 1.323c-.165 0-.331.166-.496.331-.166.166-.166.331 0 .497l15.556 37.57c0 .496.165.661.496.661zm22.507-38.894l-22.341 36.907-14.729-35.583 37.07-1.324z"/>
            <path d="M148.595 71.72c.166 0 .331 0 .496-.166l76.457-89.87c.165-.165.165-.33.165-.496 0-.165-.165-.33-.33-.496L123.11-63.498c-.166-.165-.497 0-.662.166-.166.165-.331.33-.166.662L148.1 71.389s.165.33.496.33zm75.463-90.2l-75.132 88.214-25.32-131.742 100.452 43.527z"/>
        </g>
        <path d="M212.805 406.206c.166 0 .331 0 .496-.166l36.408-41.045c.166-.165.166-.496.166-.662-.166-.165-.331-.331-.497-.331l-44.02-4.138c-.165 0-.331 0-.496.166-.166.165-.166.33-.166.496l7.613 45.183c0 .166.165.497.496.497-.165 0 0 0 0 0zm35.084-41.211l-34.753 39.225-7.282-43.032 42.035 3.807z"/>
        <path d="M212.805 406.206h.166l83.24-35.75c.332-.165.332-.33.332-.661s-.331-.497-.497-.497l-46.833-5.13c-.166 0-.331 0-.497.165l-36.407 41.045c-.166.166-.166.497 0 .828.165-.166.33 0 .496 0zm80.925-36.08l-78.608 33.763 34.422-38.728 44.186 4.965z"/>
        <path d="M296.046 370.291h.331l67.686-33.763c.33-.165.496-.496.33-.827-.165-.331-.496-.497-.661-.331l-114.685 28.466c-.33 0-.496.332-.496.663 0 .33.33.496.496.496l47 5.296zm62.39-32.439l-62.555 31.115-43.193-4.8 105.748-26.315z"/>
        <path d="M249.213 365.16l114.85-28.632c.165 0 .496-.33.496-.496l24.99-133.067c0-.33-.166-.496-.332-.662-.33-.165-.496 0-.662.166L248.882 364.002a.503.503 0 0 0 0 .662c-.166.331.165.497.33.497zm114.022-29.625l-112.367 27.97 136.86-158.388-24.493 130.418z"/>
        <path d="M411.89 339.01c.165 0 .33 0 .496-.165.165-.165.165-.33.165-.496l-23.003-135.384c0-.33-.33-.496-.662-.496-.33 0-.496.165-.662.496l-24.989 133.067c0 .165 0 .33.166.496.165.166.33.166.496.166l47.992 2.317zm-23.004-132.569l22.341 131.246-46.502-2.317 24.161-128.929zM99.28 431.86s.165 0 0 0l113.69-25.82c.331 0 .497-.33.497-.662l-7.613-45.183c0-.165-.165-.33-.33-.496h-.662L99.114 430.535c-.166.166-.331.331-.331.662-.166.331.165.662.496.662zm112.863-26.813l-109.72 24.826 102.273-68.52 7.447 43.694z"/>
        <path d="M99.28 431.86c.165 0 .165 0 .33-.166l105.748-70.837c.165-.165.331-.33.331-.662 0-.33-.331-.496-.496-.496L29.277 338.514c-.331 0-.497.166-.662.331a.503.503 0 0 0 0 .662l70.168 92.021c.165.331.33.331.496.331zm104.092-71.003L99.445 430.535 30.6 340.004l172.771 20.853z"/>
        <path d="M205.193 361.023c.33 0 .496-.166.661-.497l75.464-239.982c0-.331 0-.497-.331-.662-.166-.166-.497-.166-.828 0L28.78 338.68c-.165.165-.33.496-.165.662 0 .165.331.33.496.496l176.082 21.185c-.166 0-.166 0 0 0zm74.139-238.824l-74.636 237.5-174.095-21.02L279.33 122.2z"/>
        <path d="M249.213 365.16c.33 0 .496-.165.662-.496l31.277-244.12c0-.331-.165-.662-.496-.662-.331 0-.662.165-.662.496L204.53 360.361v.496c.165.166.33.331.496.331l44.186 3.973zM279 127.165l-30.285 236.672-42.696-3.972 72.98-232.7z"/>
        <path d="M249.213 365.16c.165 0 .33 0 .496-.165l139.674-161.533c.165-.166.165-.331.165-.497 0-.165-.165-.33-.165-.496l-108.396-82.587c-.166-.166-.331-.166-.662 0-.166.165-.331.33-.331.496l-31.278 243.955v.331c-.165.166.166.497.497.497zm138.68-162.195L250.04 362.512l30.947-240.975 106.906 81.428z"/>
        <path d="M280.49 121.04l149.934-6.785c.331 0 .496-.166.496-.497 0-.33 0-.496-.33-.662L313.92 38.62c-.166-.166-.332-.166-.497 0a.356.356 0 0 0-.331.33l-33.264 81.264v.662c.331 0 .497.165.662.165zm147.948-7.944l-146.955 6.62 32.602-79.608 114.353 72.988z"/>
        <path d="M388.886 203.627c.331 0 .497-.165.497-.33l41.537-89.373c.166-.166 0-.497 0-.662-.165-.166-.33-.331-.496-.331l-149.768 6.785c-.331 0-.497.166-.497.497 0 .33 0 .496.166.662l108.396 82.587c-.166 0 0 .165.165.165zm40.545-89.372l-40.71 87.717-106.41-81.097 147.12-6.62z"/>
        <path d="M29.111 339.838c.166 0 .331 0 .497-.165l251.379-218.798c.165-.166.33-.497.165-.662L217.935-48.603c-.165-.165-.33-.33-.496-.33-.166 0-.497.165-.662.33L28.78 339.011c-.165.165-.165.33-.165.496-.166 0 .165.331.496.331zm250.717-219.625l-248.73 216.48 186.175-383.64 62.555 167.16z"/>
        <path d="M280.49 121.04c.331 0 .497-.165.497-.33l33.263-81.264c.166-.165 0-.496-.165-.662l-96.48-87.718c-.166-.165-.497-.165-.828 0-.166.166-.331.497-.166.662l63.217 168.816c.166.33.331.496.662.496zm32.602-81.76l-32.436 79.278-61.728-165.009 94.164 85.732z"/>
        <path d="M313.754 39.777c.165 0 .33 0 .33-.165.166-.166.332-.497.166-.828L233.657-99.578c-.166-.166-.331-.331-.662-.331-.166 0-.497.165-.497.496l-15.887 50.645c0 .165 0 .496.166.662l96.48 87.718c.166.165.331.165.497.165zm-80.428-137.37l77.78 133.564-93.17-84.739 15.39-48.824zM212.805 406.206l110.216-5.958c.166 0 .497-.166.497-.331.165-.166 0-.497-.166-.662l-26.975-29.957c-.165-.165-.496-.33-.662-.165l-83.24 35.749c-.332.165-.497.496-.332.662.166.33.331.662.662.662zm108.892-7.117l-105.417 5.627 79.766-34.26 25.651 28.633z"/>
        <path d="M323.021 400.248c.166 0 .497-.166.497-.331l40.71-63.72c.166-.165.166-.496 0-.827-.165-.166-.496-.331-.662-.166l-67.685 33.763c-.166.166-.331.331-.331.497 0 .165 0 .33.165.496l26.975 29.957c0 .33.166.33.331.33zm39.056-62.727l-39.056 61.072-25.816-28.633 64.872-32.439z"/>
        <path d="M323.021 400.248c.166 0 .166 0 .331-.166l88.868-61.237c.166-.165.331-.496.166-.662 0-.33-.331-.496-.497-.496l-47.992-2.483c-.165 0-.496.166-.496.331l-40.71 63.72c-.166.33-.166.496.165.827-.166.166 0 .166.165.166zm87.048-61.403l-84.731 58.424 38.89-60.74 45.84 2.316z"/>
        <path d="M411.89 339.01c.165 0 .33 0 .496-.165l92.674-90.531c.165-.166.165-.331.165-.497 0-.165-.165-.33-.33-.496l-115.678-44.852c-.165 0-.496 0-.662.165-.165.166-.33.331-.165.662l23.003 135.384c0 .165.165.496.496.496-.165-.165-.165-.165 0-.165zm91.515-91.027l-91.185 89.042-22.672-133.232 113.857 44.19z"/>
        <path d="M484.374 349.272c.33 0 .496-.165.662-.496l20.024-100.959c0-.33 0-.496-.331-.662-.166-.165-.497-.165-.662.166l-92.674 90.531c-.166.166-.166.331-.166.662 0 .166.331.331.497.497l72.65 10.261zm19.196-99.634l-19.527 98.31-70.83-10.096 90.357-88.214z"/>
        <path d="M504.563 248.48c.166 0 .331 0 .497-.166a.503.503 0 0 0 0-.662l-74.14-134.225c-.165-.165-.33-.33-.496-.33-.165 0-.496.165-.496.33L388.39 202.8v.496c0 .166.165.331.33.331l115.678 44.852c0-.165 0 0 .165 0zm-74.139-133.563l72.65 131.742-113.36-44.025 40.71-87.717z"/>
        <path d="M503.405 355.065c.165 0 .331 0 .331-.166.165-.165.33-.33.33-.496l1.16-106.586c0-.33-.166-.662-.497-.662-.331 0-.662.166-.662.497L484.043 348.61c0 .331.165.662.496.662l18.866 5.627c-.166.166-.166.166 0 .166zm.331-100.627l-.993 99.137-17.542-5.296 18.535-93.841z"/>
        <path d="M503.405 355.065c.165 0 .331 0 .496-.166l60.9-60.74c.166-.166.166-.331.166-.497 0-.165-.165-.33-.165-.496L505.06 247.32a.503.503 0 0 0-.662 0c-.166.165-.331.33-.331.496l-1.158 106.42v.166c-.166.33 0 .662.496.662zm59.742-61.403L503.9 352.913l1.159-103.772 58.087 44.521z"/>
        <path d="M504.563 248.48c.166 0 .166 0 .331-.166L685.61 138.253c.166-.166.331-.331.331-.662s-.33-.497-.496-.497L430.59 112.931c-.166 0-.497.165-.497.33a.503.503 0 0 0 0 .663l74.14 134.224c-.166 0 0 .166.33.331-.165-.165-.165 0 0 0zm178.73-110.227L504.728 246.99l-73.312-132.57 251.875 23.833z"/>
        <path d="M564.14 294.324c.165 0 .33 0 .496-.165L685.61 138.253c.166-.166.166-.497 0-.828-.165-.165-.496-.33-.827-.165L504.067 247.32c-.166.166-.331.332-.331.497 0 .166 0 .331.165.497l59.742 45.845c.331 0 .331.165.497.165zm118.49-154.25l-118.49 152.76-58.418-44.851 176.908-107.91zM29.111 339.838c.166 0 .497-.165.497-.33l188.327-387.78v-.496a.356.356 0 0 0-.33-.331L-8.62-127.052c-.166 0-.497 0-.662.166-.166.165-.331.33-.166.496l38.063 465.732c0 .165.165.33.496.496zM216.446-48.106L29.608 336.859-8.29-125.562l224.735 77.456z"/>
        <path d="M99.28 431.86c.165 0 .33 0 .496-.166.165-.166.33-.497 0-.828l-70.168-92.02c-.166-.166-.497-.332-.662-.166-.166 0-.497.33-.497.496l-2.647 26.481c0 .166 0 .331.165.497l72.816 65.54c.165.165.33.165.496.165zM29.607 340.83l65.203 85.566-67.685-60.905 2.482-24.66zM685.113 138.418h.165c.331-.165.497-.33.331-.662l-53.122-265.47c0-.331-.331-.497-.662-.497l-113.857 18.868c-.165 0-.33.166-.496.331-.166.166 0 .497 0 .662l167.144 246.437c.166.166.331.331.497.331zm-53.453-265.47l52.294 261.83L519.127-108.35l112.533-18.702z"/>
        <path d="M685.113 138.418c.165 0 .496-.165.496-.33a.503.503 0 0 0 0-.663L518.63-109.012c-.165-.165-.33-.33-.662-.33-.165 0-.496.165-.496.33l-87.71 222.274v.496c.166.166.331.331.497.331l254.854 24.33zM518.299-107.357l165.655 244.451-252.703-23.998L518.3-107.357zM313.754 39.777c.165 0 .33 0 .496-.165L416.854-71.442c.165-.166.165-.331.165-.662 0-.166-.33-.331-.496-.331L233.326-99.744c-.166 0-.497 0-.662.331a.503.503 0 0 0 0 .662l80.593 138.363s.166.165.497.165zm101.445-111.22L313.919 38.123 234.32-98.42l180.88 26.978z"/>
        <path d="M430.424 114.255c.166 0 .166 0 .331-.166.165-.165.331-.33.331-.662L417.185-72.104c0-.166-.166-.497-.497-.497-.165 0-.496 0-.662.166L313.423 38.619c-.166.165-.166.33-.166.496 0 .166.166.331.331.497l116.67 74.477c-.165.166 0 .166.166.166zM415.861-70.45l13.736 182.883-114.85-73.319L415.86-70.449z"/>
        <path d="M430.424 114.255c.331 0 .496-.166.496-.331l87.71-222.274c.166-.165 0-.496-.165-.662-.166-.165-.497-.165-.662-.165L416.192-72.435c-.331.165-.497.33-.331.662l13.901 185.531c0 .166.166.331.662.497-.165 0-.165 0 0 0zm86.551-221.943l-86.22 218.467-13.736-182.221 99.956-36.246z"/>
    </g>
</svg>
