<svg xmlns="http://www.w3.org/2000/svg" width="693" height="519" viewBox="0 0 693 519">
    <g fill="#FFF" fill-rule="nonzero" opacity=".15" style="mix-blend-mode:overlay">
        <g opacity=".3">
            <path d="M211.06 65.871h-.332l-29.457-16.385c-.165-.165-.33-.33-.33-.662 0-.165.165-.496.33-.496l37.4-15.227c.166-.165.497 0 .663.166.165.165.33.33.165.662l-7.943 31.611c0 .166-.166.331-.331.497 0-.166-.166-.166-.166-.166zM182.925 48.99l27.637 15.392 7.447-29.626-35.084 14.234z"/>
            <path d="M181.437 49.652c-.166 0-.331-.166-.497-.331-.165-.166-.165-.497 0-.828L226.12-.662c.165-.165.496-.33.827-.165.331.165.331.33.331.662L219.5 33.763c0 .166-.165.331-.33.497l-37.401 15.226c-.166 0-.166.166-.331.166zm44.185-47.666L183.92 47.335l34.587-14.068 7.116-31.28z"/>
            <path d="M218.837 34.26h-.165c-.331-.166-.497-.497-.331-.662l7.778-33.929c0-.165.165-.165.165-.33l40.049-38.894c.165-.166.662-.166.827 0 .166.165.331.496.166.827l-47.827 72.822c-.165.166-.33.166-.662.166zm8.44-34.094l-6.95 30.287 42.862-65.043L227.277.166z"/>
            <path d="M218.837 34.26c-.165 0-.33 0-.496-.166a.503.503 0 0 1 0-.662l47.826-72.822c.166-.165.331-.331.662-.331l98.632 15.061c.331 0 .497.331.497.497 0 .33-.166.496-.331.662l-146.459 57.76h-.33zm48.158-72.657L220.492 32.44 362.98-23.667l-95.984-14.73zM135.927 122.143c-.166 0-.331 0-.497-.165-.165-.166-.33-.497-.165-.828l45.675-72.657c.166-.33.497-.33.828-.165l29.457 16.385c.165.165.33.33.33.496 0 .166 0 .331-.165.497l-75.132 56.272c-.166.165-.331.165-.331.165zm45.84-72.326l-43.523 69.347L209.9 65.54l-28.133-15.723z"/>
            <path d="M182.76 193.476c-.165 0-.33-.166-.496-.331l-46.834-71.167c-.165-.331-.165-.662.166-.828l75.132-56.272a.503.503 0 0 1 .662 0c.166.166.331.331.331.662l-28.299 127.605c-.165.165-.33.33-.661.33.165 0 0 0 0 0zm-46.006-71.664l45.841 69.512 27.637-124.46-73.478 54.948z"/>
            <path d="M182.76 193.476c-.165 0-.33 0-.33-.166-.166-.165-.331-.33-.166-.662l28.299-127.604c0-.331.33-.497.662-.497l185.348 6.29c.331 0 .497.165.662.496 0 .331 0 .497-.33.662L183.421 193.31c-.496.166-.496.166-.661.166zm28.796-127.44l-27.803 125.62L394.256 72.16l-182.7-6.124z"/>
            <path d="M396.408 72.16c-.166 0-.166 0 0 0l-185.349-6.289c-.165 0-.33-.165-.496-.165-.166-.166-.166-.331-.166-.497l7.944-31.611c0-.331.33-.497.662-.497l177.405 37.736c.33 0 .662.33.662.662-.166.33-.331.662-.662.662zM211.72 64.714l177.57 5.958-169.957-36.246-7.613 30.288z"/>
            <path d="M396.242 72.16l-177.405-37.9c-.33 0-.496-.331-.496-.497 0-.33.165-.496.33-.662l146.46-57.595h.496c.165 0 .33.165.33.33l30.947 95.332c0 .165.166.165.166.33-.166.332-.331.663-.828.663.166 0 0 0 0 0zM220.99 33.433l174.426 37.239-30.45-93.841-143.976 56.602z"/>
            <path d="M396.242 72.16c-.165 0-.33-.165-.496-.33-.166-.166-.166-.331 0-.662l41.372-102.614c.166-.33.331-.33.662-.33s.497.165.497.496l23.334 99.303c0 .165 0 .33-.166.496-.165.166-.33.166-.496.166l-64.707 3.476c.166 0 .166 0 0 0zM437.45-28.962l-40.214 99.8 62.886-3.145-22.672-96.655z"/>
            <path d="M396.242 72.16c-.33 0-.496-.165-.662-.496l-30.946-95.496v-.497c.165-.165.33-.331.496-.331l72.32-6.951c.165 0 .496 0 .496.165.165.166.165.331 0 .662L396.573 71.83c.166.165 0 .33-.33.33zM366.29-23.5l30.119 93.179 40.214-99.965-70.333 6.786z"/>
            <path d="M182.76 193.476c-.33 0-.496-.166-.661-.497-.166-.33 0-.662.33-.662L395.912 71.002a.503.503 0 0 1 .662 0l101.942 85.235c.165.166.33.497.165.662 0 .166-.33.331-.496.497l-315.423 36.08zm213.482-121.15L185.74 191.986l311.121-35.583-100.618-84.077z"/>
            <path d="M498.35 157.396c-.166 0-.332 0-.332-.166L396.077 71.995c-.166-.165-.331-.496-.166-.662 0-.165.331-.331.497-.496l64.54-3.31c.166 0 .497.165.663.33l37.4 88.38a.513.513 0 0 1 .166.331c-.166.497-.497.828-.828.828zM397.896 71.995l98.798 82.587-36.243-85.732-62.555 3.145z"/>
            <path d="M537.405 158.72l-39.056-1.324c-.165 0-.496-.166-.496-.331l-37.4-88.546c-.166-.33 0-.662.165-.827.33-.166.662-.166.827.165l76.456 89.87c.166.165.166.496.166.662-.166.165-.497.33-.662.33zm-38.725-2.648l37.236 1.324-72.981-85.732 35.745 84.408zM181.437 49.652c-.166 0-.166 0-.331-.166-.331-.165-.331-.496-.166-.827l31.112-75.305c.166-.166.331-.331.497-.331.165 0 .496.165.496.33L227.277-.661c.166.166.166.497-.165.662l-45.179 49.155c-.165.331-.33.497-.496.497zm31.112-74.478l-29.292 70.837 42.53-46.342-13.238-24.495z"/>
            <path d="M226.78.331s-.165 0 0 0c-.33 0-.496-.165-.496-.33l-14.232-25.985c-.165-.166-.165-.331 0-.497 0-.165.166-.33.497-.33l54.28-12.744c.331 0 .497 0 .662.33.166.166.166.497-.165.663L227.277.33h-.496zm-13.238-26.15l13.404 24.66L264.678-37.9 213.542-25.82zM497.191 333.824h-.331L182.43 193.476c-.331-.166-.331-.331-.331-.662s.33-.497.496-.497l315.589-36.08c.165 0 .33 0 .496.166.166.165.166.33.166.496l-.993 176.429c0 .165-.166.33-.331.496 0-.165-.166 0-.331 0zm-312.114-140.68L496.695 332.17l.992-174.773-312.61 35.749z"/>
            <path d="M182.76 193.476s-.165 0 0 0l-19.196-4.634c-.166 0-.331-.166-.497-.331l-27.802-66.699c-.166-.33 0-.662.33-.827.332-.166.663 0 .828.165l46.834 71.333a.503.503 0 0 1 0 .662c-.166.33-.331.33-.496.33zm-18.7-5.793l17.211 4.138-42.365-64.382 25.154 60.244zM514.733 358.485c-.166 0-.331-.166-.497-.331l-17.541-24.826a.503.503 0 0 1 0-.662c.165-.166.496-.331.661-.166l18.039 5.793c.33.165.496.331.496.662l-.496 19.033c0 .331-.166.497-.497.497h-.165zm-15.887-24.164l15.39 21.681.497-16.716-15.887-4.965z"/>
            <path d="M515.23 339.617h-.166l-18.039-5.793c-.33-.165-.496-.33-.496-.662l24.658-137.369c0-.331.331-.497.662-.497.33 0 .496.331.496.662l-6.62 143.162c0 .166-.165.331-.33.497.165-.166 0 0-.166 0zm-17.212-6.951l16.715 5.296 6.123-132.9-22.838 127.604z"/>
            <path d="M497.191 333.824c-.331 0-.662-.33-.662-.662l.993-176.428c0-.331.165-.497.496-.662.331 0 .497 0 .662.33l23.5 39.06c0 .165.165.331 0 .496l-24.658 137.37c.33.165 0 .496-.331.496zm1.655-174.939l-.993 166.995 23.334-130.087-22.341-36.908z"/>
            <path d="M521.849 196.29c-.166 0-.497-.166-.497-.332l-23.5-39.059a.503.503 0 0 1 0-.662c.166-.165.332-.33.497-.33l39.056 1.323c.165 0 .331.166.496.331.166.166.166.331 0 .497l-15.556 37.57c0 .496-.165.661-.496.661zm-22.507-38.894l22.341 36.907 14.729-35.583-37.07-1.324zM651.924 8.938c-.166 0-.331 0-.497-.166L613.2-37.238c-.165-.166-.165-.331-.165-.497 0-.165.165-.33.33-.496l89.696-55.941c.166-.166.497-.166.828 0 .165.165.33.496.165.662L652.751 8.44c-.33.331-.662.497-.827.497zm-37.4-46.507l37.234 44.852 49.978-99.138-87.213 54.286z"/>
            <path d="M563.221 24.66c-.165 0-.496-.165-.496-.33a.503.503 0 0 1 0-.662l50.474-61.734c.166-.165.331-.165.497-.165.165 0 .33 0 .496.165l38.228 46.01c.166.166.166.332.166.663 0 .165-.331.33-.497.33l-88.868 15.724zm50.31-61.402l-48.82 59.913 86.054-15.226-37.235-44.687z"/>
            <path d="M537.405 158.72c-.166 0-.331 0-.496-.166l-76.457-89.87c-.165-.165-.165-.33-.165-.496 0-.165.165-.33.33-.496l102.273-44.19c.166-.165.497 0 .662.166.166.165.331.33.166.662L537.9 158.389s-.165.33-.496.33zm-75.463-90.2l75.132 88.214 25.32-131.742-100.452 43.527z"/>
            <path d="M460.949 68.85h-.331a.356.356 0 0 1-.331-.33l-23.334-99.304c0-.165 0-.496.165-.662.166-.165.497-.165.662-.165l125.607 54.948c.165.165.33.33.33.496 0 .166-.165.497-.33.497L461.114 68.52c0 .33-.165.33-.165.33zm-22.507-98.806L461.28 67.36l100.286-43.362-123.124-53.955z"/>
            <path d="M563.221 24.66h-.33L437.283-30.286c-.331-.166-.331-.331-.331-.662s.33-.497.662-.497L613.53-38.23c.331 0 .497.165.497.33.165.166 0 .497 0 .663l-50.31 61.568c-.165.165-.33.33-.496.33zM440.428-30.452l122.628 53.79 49.316-60.244-171.944 6.454z"/>
        </g>
        <path d="M473.195 493.206c-.166 0-.331 0-.496-.166l-36.408-41.045c-.166-.165-.166-.496-.166-.662.166-.165.331-.331.497-.331l44.02-4.138c.165 0 .331 0 .496.166.166.165.166.33.166.496l-7.613 45.183c0 .166-.165.497-.496.497.165 0 0 0 0 0zm-35.084-41.211l34.753 39.225 7.282-43.032-42.035 3.807z"/>
        <path d="M473.195 493.206h-.166l-83.24-35.75c-.332-.165-.332-.33-.332-.661s.331-.497.497-.497l46.833-5.13c.166 0 .331 0 .497.165l36.407 41.045c.166.166.166.497 0 .828-.165-.166-.33 0-.496 0zm-80.925-36.08l78.608 33.763-34.422-38.728-44.186 4.965z"/>
        <path d="M389.954 457.291h-.331l-67.686-33.763c-.33-.165-.496-.496-.33-.827.165-.331.496-.497.661-.331l114.685 28.466c.33 0 .496.332.496.663 0 .33-.33.496-.496.496l-47 5.296zm-62.39-32.439l62.555 31.115 43.193-4.8-105.748-26.315z"/>
        <path d="M436.787 452.16l-114.85-28.632c-.165 0-.496-.33-.496-.496l-24.99-133.067c0-.33.166-.496.332-.662.33-.165.496 0 .662.166l139.673 161.533a.503.503 0 0 1 0 .662c.166.331-.165.497-.33.497zm-114.022-29.625l112.367 27.97-136.86-158.388 24.493 130.418z"/>
        <path d="M274.11 426.01c-.165 0-.33 0-.496-.165-.165-.165-.165-.33-.165-.496l23.003-135.384c0-.33.33-.496.662-.496.33 0 .496.165.662.496l24.989 133.067c0 .165 0 .33-.166.496-.165.166-.33.166-.496.166l-47.992 2.317zm23.004-132.569l-22.341 131.246 46.502-2.317-24.161-128.929zM586.72 518.86s-.165 0 0 0l-113.69-25.82c-.331 0-.497-.33-.497-.662l7.613-45.183c0-.165.165-.33.33-.496h.662l105.748 70.836c.166.166.331.331.331.662.166.331-.165.662-.496.662zm-112.863-26.813l109.72 24.826-102.273-68.52-7.447 43.694z"/>
        <path d="M586.72 518.86c-.165 0-.165 0-.33-.166l-105.748-70.837c-.165-.165-.331-.33-.331-.662 0-.33.331-.496.496-.496l175.916-21.185c.331 0 .497.166.662.331a.503.503 0 0 1 0 .662l-70.168 92.021c-.165.331-.33.331-.496.331zm-104.092-71.003l103.927 69.678 68.844-90.531-172.771 20.853z"/>
        <path d="M480.807 448.023c-.33 0-.496-.166-.661-.497l-75.464-239.982c0-.331 0-.497.331-.662.166-.166.497-.166.828 0L657.22 425.68c.165.165.33.496.165.662 0 .165-.331.33-.496.496l-176.082 21.185c.166 0 .166 0 0 0zm-74.139-238.824l74.636 237.5 174.095-21.02L406.67 209.2z"/>
        <path d="M436.787 452.16c-.33 0-.496-.165-.662-.496l-31.277-244.12c0-.331.165-.662.496-.662.331 0 .662.165.662.496l75.463 239.983v.496c-.165.166-.33.331-.496.331l-44.186 3.973zM407 214.165l30.285 236.672 42.696-3.972-72.98-232.7z"/>
        <path d="M436.787 452.16c-.165 0-.33 0-.496-.165L296.617 290.462c-.165-.166-.165-.331-.165-.497 0-.165.165-.33.165-.496l108.396-82.587c.166-.166.331-.166.662 0 .166.165.331.33.331.496l31.278 243.955v.331c.165.166-.166.497-.497.497zm-138.68-162.195L435.96 449.512l-30.947-240.975-106.906 81.428z"/>
        <path d="M405.51 208.04l-149.934-6.785c-.331 0-.496-.166-.496-.497 0-.33 0-.496.33-.662l116.67-74.477c.166-.166.332-.166.497 0 .166 0 .331.165.331.33l33.264 81.264v.662c-.331 0-.497.165-.662.165zm-147.948-7.944l146.955 6.62-32.602-79.608-114.353 72.988z"/>
        <path d="M297.114 290.627c-.331 0-.497-.165-.497-.33l-41.537-89.373c-.166-.166 0-.497 0-.662.165-.166.33-.331.496-.331l149.768 6.785c.331 0 .497.166.497.497 0 .33 0 .496-.166.662L297.28 290.462c.166 0 0 .165-.165.165zm-40.545-89.372l40.71 87.717 106.41-81.097-147.12-6.62z"/>
        <path d="M656.889 426.838c-.166 0-.331 0-.497-.165L405.013 207.875c-.165-.166-.33-.497-.165-.662l63.217-168.816c.165-.165.33-.33.496-.33.166 0 .497.165.662.33L657.22 426.011c.165.165.165.33.165.496.166 0-.165.331-.496.331zM406.172 207.213l248.73 216.48-186.175-383.64-62.555 167.16z"/>
        <path d="M405.51 208.04c-.331 0-.497-.165-.497-.33l-33.263-81.264c-.166-.165 0-.496.165-.662l96.48-87.718c.166-.165.497-.165.828 0 .166.166.331.497.166.662l-63.217 168.816c-.166.33-.331.496-.662.496zm-32.602-81.76l32.436 79.278 61.728-165.009-94.164 85.732z"/>
        <path d="M372.246 126.777c-.165 0-.33 0-.33-.165-.166-.166-.332-.497-.166-.828l80.593-138.362c.166-.166.331-.331.662-.331.166 0 .497.165.497.496l15.887 50.645c0 .165 0 .496-.166.662l-96.48 87.718c-.166.165-.331.165-.497.165zm80.428-137.37l-77.78 133.564 93.17-84.739-15.39-48.824zM473.195 493.206l-110.216-5.958c-.166 0-.497-.166-.497-.331-.165-.166 0-.497.166-.662l26.975-29.957c.165-.165.496-.33.662-.165l83.24 35.749c.332.165.497.496.332.662-.166.33-.331.662-.662.662zm-108.892-7.117l105.417 5.627-79.766-34.26-25.651 28.633z"/>
        <path d="M362.979 487.248c-.166 0-.497-.166-.497-.331l-40.71-63.72c-.166-.165-.166-.496 0-.827.165-.166.496-.331.662-.166l67.685 33.763c.166.166.331.331.331.497 0 .165 0 .33-.165.496l-26.975 29.957c0 .33-.166.33-.331.33zm-39.056-62.727l39.056 61.072 25.816-28.633-64.872-32.439z"/>
        <path d="M362.979 487.248c-.166 0-.166 0-.331-.166l-88.868-61.237c-.166-.165-.331-.496-.166-.662 0-.33.331-.496.497-.496l47.992-2.483c.165 0 .496.166.496.331l40.71 63.72c.166.33.166.496-.165.827.166.166 0 .166-.165.166zm-87.048-61.403l84.731 58.424-38.89-60.74-45.84 2.316z"/>
        <path d="M274.11 426.01c-.165 0-.33 0-.496-.165l-92.674-90.531c-.165-.166-.165-.331-.165-.497 0-.165.165-.33.33-.496l115.678-44.852c.165 0 .496 0 .662.165.165.166.33.331.165.662L274.607 425.68c0 .165-.165.496-.496.496.165-.165.165-.165 0-.165zm-91.515-91.027l91.185 89.042 22.672-133.232-113.857 44.19z"/>
        <path d="M201.626 436.272c-.33 0-.496-.165-.662-.496L180.94 334.817c0-.33 0-.496.331-.662.166-.165.497-.165.662.166l92.674 90.531c.166.166.166.331.166.662 0 .166-.331.331-.497.497l-72.65 10.261zm-19.196-99.634l19.527 98.31 70.83-10.096-90.357-88.214z"/>
        <path d="M181.437 335.48c-.166 0-.331 0-.497-.166a.503.503 0 0 1 0-.662l74.14-134.225c.165-.165.33-.33.496-.33.165 0 .496.165.496.33L297.61 289.8v.496a.356.356 0 0 1-.33.331L181.601 335.48c0-.165 0 0-.165 0zm74.139-133.563l-72.65 131.742 113.36-44.025-40.71-87.717z"/>
        <path d="M182.595 442.065c-.165 0-.331 0-.331-.166-.165-.165-.33-.33-.33-.496l-1.16-106.586c0-.33.166-.662.497-.662.331 0 .662.166.662.497l20.024 100.958c0 .331-.165.662-.496.662l-18.866 5.627c.166.166.166.166 0 .166zm-.331-100.627l.993 99.137 17.542-5.296-18.535-93.841z"/>
        <path d="M182.595 442.065c-.165 0-.331 0-.496-.166l-60.9-60.74c-.166-.166-.166-.331-.166-.497 0-.165.165-.33.165-.496l59.742-45.845a.503.503 0 0 1 .662 0c.166.165.331.33.331.496l1.158 106.42v.166c.166.33 0 .662-.496.662zm-59.742-61.403l59.246 59.251-1.159-103.772-58.087 44.521z"/>
        <path d="M181.437 335.48c-.166 0-.166 0-.331-.166L.39 225.253c-.166-.166-.331-.331-.331-.662s.33-.497.496-.497l254.854-24.163c.166 0 .497.165.497.33a.503.503 0 0 1 0 .663l-74.14 134.224c.166 0 0 .166-.33.331.165-.165.165 0 0 0zM2.707 225.252L181.272 333.99l73.312-132.57L2.708 225.253z"/>
        <path d="M121.86 381.324c-.165 0-.33 0-.496-.165L.39 225.253c-.166-.166-.166-.497 0-.828.165-.165.496-.33.827-.165l180.715 110.06c.166.166.331.332.331.497 0 .166 0 .331-.165.497l-59.742 45.845c-.331 0-.331.165-.497.165zM3.37 227.074l118.49 152.76 58.418-44.851L3.37 227.073zM656.889 426.838c-.166 0-.497-.165-.497-.33L468.065 38.727v-.496c0-.166.165-.331.33-.331L694.62-40.052c.166 0 .497 0 .662.166.166.165.331.33.166.496l-38.063 465.732c0 .165-.165.33-.496.496zM469.554 38.894l186.838 384.965L694.29-38.562 469.554 38.894z"/>
        <path d="M586.72 518.86c-.165 0-.33 0-.496-.166-.165-.166-.33-.497 0-.828l70.168-92.02c.166-.166.497-.332.662-.166.166 0 .497.33.497.496l2.647 26.481c0 .166 0 .331-.165.497l-72.816 65.54c-.165.165-.33.165-.496.165zm69.672-91.029l-65.203 85.566 67.685-60.905-2.482-24.66zM.887 225.418H.722c-.331-.165-.497-.33-.331-.662l53.122-265.47c0-.331.331-.497.662-.497l113.857 18.868c.165 0 .33.166.496.331.166.166 0 .497 0 .662L1.384 225.087c-.166.166-.331.331-.497.331zM54.34-40.052L2.046 221.778 166.873-21.35 54.34-40.052z"/>
        <path d="M.887 225.418c-.165 0-.496-.165-.496-.33a.503.503 0 0 1 0-.663L167.37-22.012c.165-.165.33-.33.662-.33.165 0 .496.165.496.33l87.71 222.274v.496c-.166.166-.331.331-.497.331L.887 225.42zM167.701-20.357L2.046 224.094l252.703-23.998L167.7-20.357zM468.727 39.06c-.166 0-.331-.166-.497-.332-.165-.165-.165-.496 0-.827l39.387-47.666c.165-.165.165-.165.33-.165l187.004-30.287c.331 0 .662.165.662.496 0 .331-.165.662-.33.662L469.057 38.894c-.166.166-.331.166-.331.166zm39.552-47.666l-37.732 45.845 217.288-74.974L508.28-8.606z"/>
        <path d="M468.727 39.06s-.166 0 0 0c-.331 0-.497-.166-.662-.497l-15.887-50.645c0-.165 0-.33.165-.496.166-.166.331-.331.497-.166l55.108 2.98c.165 0 .496.165.496.33.166.166 0 .497-.165.663l-39.056 47.665c-.165.166-.33.166-.496.166zm-15.06-50.48l15.225 48.659 37.732-45.845-52.957-2.814zM269.643 15.723h-.166l-101.61-36.742a.356.356 0 0 1-.332-.33v-.497l41.704-69.678c.165-.166.33-.331.496-.331.166 0 .497.165.497.33l59.907 106.586a.503.503 0 0 1 0 .662h-.496zM168.859-22.012l99.46 35.915L209.735-90.2 168.86-22.012z"/>
        <path d="M372.246 126.777c-.165 0-.33 0-.496-.165L269.146 15.558c-.165-.166-.165-.331-.165-.662 0-.166.33-.331.496-.331l183.197-27.309c.166 0 .497 0 .662.331a.503.503 0 0 1 0 .662l-80.593 138.363s-.166.165-.497.165zM270.801 15.557l101.28 109.565 79.6-136.542-180.88 26.978z"/>
        <path d="M255.576 201.255c-.166 0-.166 0-.331-.166-.165-.165-.331-.33-.331-.662l13.901-185.531c0-.166.166-.497.497-.497.165 0 .496 0 .662.166l102.603 111.054c.166.165.166.33.166.496 0 .166-.166.331-.331.497l-116.67 74.477c.165.166 0 .166-.166.166zM270.139 16.55l-13.736 182.883 114.85-73.319L270.14 16.551z"/>
        <path d="M255.576 201.255c-.331 0-.496-.166-.496-.331L167.37-21.35c-.166-.165 0-.496.165-.662.166-.165.497-.165.662-.165l101.611 36.742c.331.165.497.33.331.662l-13.901 185.531c0 .166-.166.331-.662.497.165 0 .165 0 0 0zM169.025-20.688l86.22 218.467 13.736-182.221-99.956-36.246z"/>
    </g>
</svg>
