<svg xmlns="http://www.w3.org/2000/svg" width="40" height="40" viewBox="0 0 40 40">
    <path fill="#B388FF" fill-rule="evenodd" d="M20 40C8.954 40 0 31.046 0 20S8.954 0 20 0s20 8.954 20 20-8.954 20-20 20zm11.916-26.374l-7.38-3.596a.867.867 0 0 0-.936.34l-4.116 6.547 5.184 8.245 7.248-11.536zM32 29.038V15.722l-6.984 11.126 5.652 2.752c.732.363 1.332.106 1.332-.562zm-15.6.188V14.21l-.36-.539-7.152-3.49c-.492-.21-.888.012-.888.539v14.897c0 .399.3.867.66 1.054l6.624 3.21c.6.304 1.116 0 1.116-.656zm7.548-2.905L17.6 16.191v7.026l6.348 3.104z"/>
</svg>
