<svg xmlns="http://www.w3.org/2000/svg" width="40" height="40" viewBox="0 0 40 40">
    <g fill="#B388FF" fill-rule="evenodd">
        <path d="M20 40C8.954 40 0 31.046 0 20S8.954 0 20 0s20 8.954 20 20-8.954 20-20 20zm8-28c-2.72-2.76-6.52-3.8-10.067-3.147A6.59 6.59 0 0 0 14.667 8 6.667 6.667 0 0 0 8 14.667a6.59 6.59 0 0 0 .853 3.266C8.2 21.48 9.24 25.28 12 28c2.72 2.76 6.52 3.8 10.067 3.147a6.59 6.59 0 0 0 3.266.853A6.667 6.667 0 0 0 32 25.333a6.59 6.59 0 0 0-.853-3.266C31.8 18.52 30.76 14.72 28 12z"/>
        <path d="M20.053 26.88c3.827 0 5.734-1.84 5.734-4.32 0-1.587-.747-3.28-3.64-3.933l-2.654-.587c-1.013-.227-2.16-.533-2.16-1.48 0-.96.8-1.627 2.267-1.627 2.973 0 2.693 2.04 4.173 2.04.774 0 1.44-.453 1.44-1.24 0-1.826-2.92-3.2-5.4-3.2-2.68 0-5.546 1.147-5.546 4.187 0 1.467.52 3.027 3.4 3.747l3.586.906c1.08.267 1.347.867 1.347 1.427 0 .907-.907 1.8-2.547 1.8-3.213 0-2.773-2.467-4.493-2.467-.773 0-1.333.534-1.333 1.294 0 1.48 1.773 3.453 5.826 3.453z"/>
    </g>
</svg>
