<svg xmlns="http://www.w3.org/2000/svg" width="40" height="40" viewBox="0 0 40 40">
    <path fill="#B388FF" fill-rule="nonzero" d="M20 0a20 20 0 0 1 20 20c0 11.046-8.954 20-20 20a20 20 0 1 1 0-40zm11.42 14.66c.96-.8 2.08-1.76 2.58-2.82-.82.42-1.8.68-2.88.82 1-.72 1.82-1.66 2.24-2.94-1.04.56-2.1 1.04-3.42 1.28-3.1-3.74-10.52-.7-9.2 4.9-5.22-.32-8.4-2.68-11.04-5.58-1.5 2.44-.2 6.14 1.58 7.16-.92-.06-1.62-.34-2.28-.66.08 3.08 1.78 4.56 4.16 5.36-.72.14-1.52.18-2.28.06.74 2.14 2.28 3.48 4.92 3.76-1.8 1.52-5.12 2.58-7.8 2.16 2.3 1.46 4.92 2.62 8.56 2.46 8.82-.4 14.72-6.72 14.86-15.96z"/>
</svg>
