<svg xmlns="http://www.w3.org/2000/svg" xmlns:xlink="http://www.w3.org/1999/xlink" width="235" height="323" viewBox="0 0 235 323">
    <defs>
        <filter id="a" width="107.6%" height="105.1%" x="-3.8%" y="-2.4%" filterUnits="objectBoundingBox">
            <feOffset in="SourceAlpha" result="shadowOffsetOuter1"/>
            <feGaussianBlur in="shadowOffsetOuter1" result="shadowBlurOuter1" stdDeviation="2.5"/>
            <feColorMatrix in="shadowBlurOuter1" result="shadowMatrixOuter1" values="0 0 0 0 0.701960784 0 0 0 0 0.533333333 0 0 0 0 1 0 0 0 0.5 0"/>
            <feMerge>
                <feMergeNode in="shadowMatrixOuter1"/>
                <feMergeNode in="SourceGraphic"/>
            </feMerge>
        </filter>
        <rect id="b" width="222.232" height="310.814" x=".38" y=".997" rx="10.678"/>
    </defs>
    <g fill="none" fill-rule="evenodd" filter="url(#a)" opacity=".5" transform="translate(6 5)">
        <mask id="c" fill="#fff">
            <use xlink:href="#b"/>
        </mask>
        <use fill-rule="nonzero" stroke="#B388FF" stroke-width=".997" xlink:href="#b"/>
        <path fill="#B388FF" fill-rule="nonzero" d="M17.52 70.746s-2.215-3.18-5.202-6.918c-1.999-2.501-3.597-5.21-3.745-7.543-.17-2.666 1.442-5.34 4.362-5.47 2.918-.129 4.103 2.056 4.585 3.857.482-1.801 1.667-3.986 4.585-3.856 2.92.13 4.533 2.803 4.363 5.469-.149 2.333-1.747 5.042-3.745 7.543a146.776 146.776 0 0 0-5.203 6.918zM205.472 242.061s-2.215 3.18-5.202 6.918c-1.999 2.502-3.597 5.21-3.745 7.544-.17 2.665 1.442 5.34 4.362 5.469 2.918.13 4.103-2.055 4.585-3.857.482 1.802 1.667 3.986 4.585 3.857 2.92-.13 4.533-2.804 4.363-5.47-.149-2.332-1.747-5.041-3.745-7.543-2.988-3.738-5.203-6.918-5.203-6.918zM111.496 180.327s-4.646-7.631-10.912-16.603c-4.192-6.004-7.544-12.505-7.856-18.105-.357-6.397 3.026-12.814 9.15-13.125 6.122-.311 8.606 4.932 9.618 9.255 1.011-4.323 3.496-9.566 9.617-9.255 6.125.31 9.508 6.728 9.15 13.125-.311 5.6-3.663 12.1-7.855 18.105-6.267 8.972-10.912 16.603-10.912 16.603zM7.472 47.685v-2.813h2.68l5.71-30.082h3.25l6.29 30.082h2.164v2.813H20.19v-2.813h1.99l-.795-4.61h-7.44l-.575 4.61h1.99v2.813h-7.89zm13.28-10.707l-3.235-16.1-3.03 16.1h6.264zM195.424 265.123v2.812h2.68l5.71 30.082h3.25l6.29-30.082h2.164v-2.812h-7.375v2.812h1.99l-.795 4.61h-7.44l-.575-4.61h1.99v-2.812h-7.89zm13.28 10.706l-3.235 16.1-3.03-16.1h6.264z" mask="url(#c)"/>
        <rect width="222.232" height="310.814" x=".38" y=".997" mask="url(#c)" rx="10.678"/>
    </g>
</svg>
