<svg xmlns="http://www.w3.org/2000/svg" width="234" height="322" viewBox="0 0 234 322">
    <defs>
        <filter id="a" width="106.4%" height="104.7%" x="-3.2%" y="-2.3%" filterUnits="objectBoundingBox">
            <feOffset in="SourceAlpha" result="shadowOffsetOuter1"/>
            <feGaussianBlur in="shadowOffsetOuter1" result="shadowBlurOuter1" stdDeviation="2.5"/>
            <feColorMatrix in="shadowBlurOuter1" result="shadowMatrixOuter1" values="0 0 0 0 0.701960784 0 0 0 0 0.533333333 0 0 0 0 1 0 0 0 0.5 0"/>
            <feMerge>
                <feMergeNode in="shadowMatrixOuter1"/>
                <feMergeNode in="SourceGraphic"/>
            </feMerge>
        </filter>
    </defs>
    <g fill="none" fill-rule="nonzero" filter="url(#a)" opacity=".5">
        <rect width="222.232" height="310.814" x="6.234" y="5.438" stroke="#B388FF" stroke-width=".997" rx="10.63"/>
        <path fill="#B388FF" d="M23.375 75.188s-2.215-3.18-5.203-6.918c-1.998-2.502-3.596-5.21-3.745-7.544-.17-2.665 1.443-5.34 4.363-5.469 2.918-.13 4.103 2.055 4.585 3.856.482-1.8 1.667-3.985 4.585-3.856 2.92.13 4.533 2.804 4.362 5.47-.148 2.332-1.746 5.041-3.745 7.543-2.987 3.738-5.202 6.918-5.202 6.918zM211.326 246.503s-2.214 3.18-5.202 6.918c-1.999 2.502-3.597 5.21-3.745 7.544-.17 2.665 1.442 5.339 4.362 5.469 2.919.13 4.103-2.056 4.585-3.857.483 1.801 1.667 3.986 4.585 3.857 2.92-.13 4.533-2.804 4.363-5.47-.149-2.333-1.747-5.041-3.745-7.543-2.988-3.738-5.203-6.918-5.203-6.918zM25.786 49.76h3.305l-4.855-12.147-3.709 5.13.026 7.016h2.605v3.618h-9.18V49.76h3.024V23.64l-3.024.012v-3.163h9.314v3.27h-2.57l-.055 12.73 8.13-12.837h-2.87v-3.163h9.91v3.163h-2.615l-6.694 10.49 6.555 15.624h2.91l.014 3.618h-10.19l-.03-3.623zM210.53 273.188h-3.304l4.855 12.146 3.71-5.13-.027-7.016h-2.604v-3.618h9.18v3.618h-3.025v26.12l3.024-.011v3.162h-9.314v-3.27h2.57l.055-12.73-8.13 12.838h2.87v3.162h-9.91v-3.162h2.615l6.694-10.491-6.554-15.623h-2.91l-.015-3.618h10.19l.031 3.623z"/>
        <path fill="#B388FF" d="M86.91 269.113a284.637 284.637 0 0 0 53.717 1.164c4.758 6.63 14.312 20.149 14.312 20.149l-86.566.708 18.537-22.02zm-22.48 4.616c2.32-4.724 2.77-9.276 2.328-15.837-.349-5.034 2.774-8.955 5.994-7.453 2.491 1.162 1.341 5.925-1.234 4.917-.985-.385-1.85-.035-1.719 2.227.23 5.576 1.702 11.856.437 17.202-.883 5.193-7.961 2.8-5.806-1.056zm-21.749-7.284c-2.734-4.139 2.166-8.017 5.234-6.107 1.455.687 1.25 2.181-.584 1.384-2.56-1.111-5.314 2.822-3.088 4.402 1.026.728 1.417.63.637-.28-2.076-2.435 3.233-3.512 3.08-1.908-.363 1.954-.409 2.776-.585 3.16-1.082 1.706-3.16.835-4.694-.65zm7.628-17.405c-2.954-3.72.433-6.645.388-6.54.876-.957-7.038-15.842-6.038-15.939 9.996-1.073 20.098-.263 30.114.052 0 0-5.34 9.69-7.47 14.486-.857 1.932 1.148 4.206.318 5.642-2.578 2.843-.975 5.993-2.583 6.135-4.123-.78-8.51-1.234-13.834-.058-.405-.035-.342-2.516-.896-3.778zm43.267-103.421c5.054 25.957-2.397 53.473-19.48 71.625-2.411-2.338-4.26-6.774-6.665-9.669-6.676-2.023-11.48.358-16.16 2.69-4.16-2.419-8.845-3.842-13.411-3.78l-.148-4.015c4.621-.1 9.5.33 13.615 2.9l6.438-2.637L37.69 181.72l.272-3.59 24.358 24.799 3.137.112c-6.894-18.491-.863-47.862 28.118-57.422zm33.965 32.559l3.52 16.95s-19.748 19.754-30.128 29.844l-8.673-.797c4.33-6.503 6.797-13.08 9.675-19.64l25.606-26.357zm69.99 23.248c-8.268 9.343-18.148 15.283-29.12 21.828-4.386-4.944-9.71-10.383-12.784-15.258 9.571-5.162 18.696-9.16 28.068-18.194-.513.583-11.955 4.502-11.918 4.05-.413 1.929-.165 3.118-2.027 3.626-2.204-3.107-4.335-5.628-7.81-7.017-1.458.133-3.394-.839-3.394-.839.974-.201.545-12.122 0-12.26 1.068-.35 2.146-1.177 3.617.464.68.46 7.274-6.242 9.52-8.532 8.815-.731 16.624.145 25.308-.092-.067 10.611.54 21.613.537 32.224h.003zm-55.978-26.874c-.222-.45-2.446-18.032-.333-29.058 5.803-18.555 4.323-23.724 19.322-41.973.987-.975 4.436 2.167 7.013 7.598 7.486 4.76 17.084-1.382 17.084-1.382s3.725 3.07 12.15 4.747l-.145 3.303c-.042.96-9.475-1.023-11.505-2.94 0 0-7.065 2.378-7.065 2.812 0 1.85 18.818 19.403 18.818 19.403l-.107 4.117c.12.005-25.8-27.14-26.137-24.3 7.338 31.88-5.145 48.03-29.095 57.673zm-31.172-5.604l-.418-16.863 15.877.191.653 17.038-16.112-.366zM37.734 150.72c.424-.599-.618-31.429-.552-31.429 10.104-10.152 19.987-15.826 29.894-21.999 4.48 4.482 8.289 8.264 11.59 13.693l-13.67 8.504c.519 2.073-.83 2.82 7.983 10.889.148-.553 3.052-2.195 3.559.262-1.194 5.187.53 9.596.756 12.384-1.204 1.634-3.893-.12-3.893-.12-1.741-1.833-8.562 7.215-10.51 8.226-8.497-.32-25.634.263-25.157-.41zm95.508-54.817c.059.105 8.742.014 8.66.217-1.578 3.91-5.178 11.69-8.786 20.3-3.013 5.013-24.57 25.884-24.57 25.884-1.022-6.055-2.557-11.962-4.157-17.85l28.853-28.551zm37.462-29.065c3.125 1.346 11.903.641 13.296.036 1.786 1.223.671 2.856.446 3.762 1.832 2.344 2.836 3.175.755 6.954-.476 0 6.398 15.639 6.582 15.65 0 0-7.264-3.484-9.826-5.837l-5.01 6.733-5.822-7.602c-.02.686-11.216 8.192-11.352 7.83-.351-.357 10.224-11.861 8.126-18.616-.506-1.627.652-3.281 1.443-4.715.542-.985-.188-2.887 1.362-4.195zm-5.811-1.402c.474-.55-2.715-14.69.742-20.398 1.464-2.075 4.112-2.181 5.219-.482.846 2.363-1.674 5.652-2.18 7.258-1.64 4.476.795 10.38-.393 14.61-3.558 9.24-9.86-.908-3.388-.988zm23.686-6.28c-1.875.083-.566-5.581-.257-7.203-.01-.321 3.433-1.133 4.673 1.094 2.002 3.33-.404 7.53-4.416 6.11zm-22.366-28.555l-17.667 21.714c-17.864-2.078-35.79-3.398-54.057-.573l-14.69-20.711 86.414-.43z" opacity=".2"/>
        <path fill="#B388FF" d="M198.984 29.267H35.716v263.156h163.268V29.267zm-32.94 1.366l-19.57 24.33-.48.164c1.304 3.86 3.165 8.674 4.943 12.33 2.83 5.907 9.945 16.764 5.506 25.449-.435.744-.84 1.107-1.384 1.104-.754-.004-.74-.451-.29-1.322.988-1.92 1.659-6.467 1.264-8.874-.252-1.537-1.097-3.905-2.701-7.484-7.437-13.88-9.76-21.279-9.338-21.279a1.708 1.708 0 0 0-.535-.213l-.73-.245c2.577 8.774 6.764 16.151 10.078 22.982 2.718 6.348 3.01 8.811 1.59 13.432-.551 1.79-1.546 2.935-2.525 2.93-.733-.004-.691-.153-.191-1.06 2.604-4.727 2.002-9.886-1.236-15.888-4.703-9.913-7.525-16.184-9.2-22.543-.042-.002-.858-.28-1.152-.35 1.395 6.618 5.293 14.252 8.92 22.064 3 6.016 3.864 10.4 2.782 13.864-.354 1.5-1.485 3.736-2.915 3.802-.56-.003-.648-.298-.12-1.07 2.223-3.854 2.618-7.407-1.36-15.496-3.656-7.438-7.326-15.76-8.58-23.032-.078-.597-1.668-1.304-1.326-.315 1.963 8.589 5.874 17.383 10.026 25.958 2.338 5.323 2.58 8.73.825 11.707-.98 1.666-1.23 2.044-1.965 2.06-.87.02-.854.052-.374-.96 2.12-4.477 1.772-8.42-1.063-14.89-3.888-8.871-7.162-16.213-8.56-24.02-.251-.073-1.568-.59-1.38-.2 1.945 7.439 4.433 14.342 7.64 21.323 1.117 2.422 2.928 7.134 3.512 9.494 1.109 4.494-1.391 10.665-4.662 10.976-1.22.116-1.068-.498.291-1.777 2.34-2.202 2.794-5.715 2-9.79-.597-3.137-1.624-6.504-3.035-9.925-2.855-6.918-5.961-14.157-6.943-20.542.032-.572-1.276-.574-.907.024.706 4.49 2.392 9.603 4.237 14.352 2.02 5.196 5.026 11.018 6.01 17.395.805 5.217-2.413 10.143-6.317 10.437-4.703.355-5.629-4.355-4.498-6.563 1.845-3.295 7.205-1.413 5.612 1.957-.917 1.94-3.717 1.43-3.598-.697-.032-.194.269-.777.215-.81-.097-.056-.508.325-.64.563-.951 1.723 1.907 4.034 3.894 2.65 6.658-3.65 2.162-14.78-.74-21.58-2.81-6.335-4.87-12.06-5.764-17.922-.243-.171-1.342-.453-1.188-.252.806 3.13 1.178 5.77 1.98 8.4 1.258 4.123 3.514 8.74 5.354 13.363 1.672 4.55 3.351 8.416 2.587 13.161-.071.438-.249.964-.544 1.284-.3.317-.547.268-.635-.94-.03-.165-.24-.381-.272-.591.163-1.782.044-3.55-.41-5.226-.39-1.405-1.131-2.838-2.697-5.566-.617-1.016-2.232-4.122-1.666-1.976.326 1.214 1.434 3.912 2.587 5.866.716 1.212 1.469 4.524 1.246 5.163-.235.626-.781.661-1.036.446-.229-.194-.227-1.08-.286-1.628-.242-2.25-2.516-6.175-4.094-7.716-1.133-1.28 2.67 5.444 2.949 7.237.118.759.351 1.376.095 1.748-.169.245-.51.247-.845.16-.321-.083-.308-.308-.649-1.463-.583-1.975-1.304-2.97-2.8-4.752-.514-.61-.856.154-.039 1.144 1.13 1.806 1.98 2.96 2.267 5.284-.732 1.053-1.093.848-2.625-1.816-1.012-1.76-1.619-2.212-1.885-2.2-.67.033-.038.874 1.847 3.88.976 1.605 1 2.602-.11 2.597-.376-.002-2.483-2.349-3.01-3.367-.438-.844-.982-1.491-.984-.46 0 .41 1.305 2.57 2.2 3.619 1.411 1.653 1.815 1.985 1.995 2.717.086.35.256.96.377 1.356.362 1.19.178 1.53-.554.901-.33-.881-.6-.973-1.508-1.652-.765-.572-1.828-2.054-2.524-3.1-.263-.394-.489-.895-.757-1.297-.684-1.293-1.592-1.405-.935-.101.311.605.815 1.597 1.344 2.333.886 1.277.703 1.943-.349 1.938-.45-.002-1.709-1.673-2.495-2.98-.513-.85-1.315-1.453-1.217-.61.024.21.644 1.707 1.575 2.878 1.01 1.271 1.143 1.947.162 1.942-.67-.003-1.246-.65-2.1-1.966-.81-1.252-1.317-1.693-1.546-1.55-.29.18 1.163 2.66 2.357 4.015 1.13 1.281.302 2.011-.997.872-.704-.618-2.114-2.461-2.51-3.337-.707-1.567-1.163-1.14-.706.101.503 1.368 1.289 2.864 2.238 3.837.497.509 1.523.908 2.023 1.346 1.418 1.241 2.316 2.387 2.2 2.592-4.043.23-7.361-4.134-8.27-6.777-.645-1.738-1.38-1.993-.682.46 1.971 6.096 8.115 9.262 12.364 6.53 2.564-1.649.299-5.942-1.8-4.558-.57.376-.595 1.442.13.872 1.362-1.072 2.732 1.571 1.245 2.354-2.09 1.1-4.41-1.053-2.987-3.662 1.405-2.68 7.038-1.146 5.936 3.182-.668 1.943-3.592 4.37-6.098 4.418-4.658.089-7.875-3.524-9.668-7.092-.23-.459-.642-1.36-.982-2.097-.295-.636-.528-1.108-.551-1.103.518 4.332 4.608 9.687 8.27 10.573 6.087 1.447 7.752-2.223 11.735-6.016 0 0 2.909.382 3.01.32.269-.167 5.662-.41 5.822-.257-21.788 39.965-20.13 87.412-1.393 123.425 1.239 2.636 1.455 2.136-.596 1.599-2.12-.56-4.043.3-5.765-.102-3.562-.736-4.32 1.724-7.057 3.037-3.414 1.305-2.642 3.706-3.455 6.026-.256.36-.442.654-.302.606.225-.076.953-.757 1.008-1.357.14-1.535.682-2.75 1.298-3.361.588-.583.998-.877 1.14-.625.111.197.029.884-.262 1.438-.828 1.583.27 6.877.339 3.11.054-2.99 1.846-6.325 4.352-7.69 2.006-.993 2.628-.891.995.638-1.856 2-3.118 4.333-3.192 7.235-.031 1.203.442 2.207.61 1.128-.07-5.526 5.387-11.68 11.24-8.622.292.213.538.614.452.84-5.668-.962-10.6 2.17-9.873 9.589 0 0 .508-1.454.794-2.905.893-4.542 5.972-6.53 9.534-5.284.67.285 1.196 1.242 1.102 1.37-4.356-1.383-9.137 2.782-9.415 7.295-.09 1.468-.056 2.726.687.078 2.813-10.027 11.492-5.482 10.425-4.66-6.716-.81-9.148 3.761-8.993 9.048.096.483.342.645.544 1.095.895 1.992 1.302 3.7 1.374 7.314-.068.931.693 6.86-.074 6.61-2.44-.913-4.293-1.99-8.521-.068-.38.021-.505-.191-.375-.525.176-.449.837-1.336 1.99-2.646 2.596-2.8 1.104-2.05-1.03-.108-1.38 1.255-1.08.397.219-3.886.526-1.737.199-1.947-2.067-3.111-2.332-1.199-3.945-1.382-1.966-.126.776.48 1.604.983 2.484 1.339 1.033.57.915.81.153 3.313-1.48 4.862-1.994 6.638-1.916 9.908.188 7.954 7.68 7.165 11.946 5.376l.177 5.237 16.064 22.887s-56.152-.059-86.194.44c1.716-4.166 19.877-21.817 20.958-24.974.104.015-2.013-6.453-3.125-9.266-5.253-13.287-12.157-18.872-8.159-27.6.86-1.73 1.01-2.314 1.664-2.31.887.003 1.171.6.173 2.292-4.292 7.282 4.867 19.847 7.961 27.861.496 1.284 2.57 7.298 2.933 9.323.035.619 1.489.83 1.082.107-1.14-4.095-2.573-8.567-3.238-10.177-2.446-5.917-5.019-9.955-7.403-15.738-1.332-3.654-2.04-7.875.025-11.664.752-1.38.967-2.146 1.464-2.218.427.002.678.149.706.504.03.387-.206 1.022-.768 1.99-3.61 6.215 2.805 16.256 5.984 23.416 2.072 4.667 3.914 9.576 4.566 14.003.01.306.409 1.116 1.204.564-1.375-8.27-5.416-16.29-8.955-24.016-3.023-6.036-4.158-11.298-.117-16.267.351-.343 1.105-.287 1.16.223.028.345-.233 1-.865 2.325-3.56 7.53 1.952 13.647 4.538 20.828 2.523 6.003 4.87 11.046 5.812 17.443.714.274 1.067.617 1.144-.29-1.845-9.038-5.824-17.163-9.275-24.99-1.594-3.401-2.158-5.032-2.266-7.31-.149-3.132 1.41-7.095 2.807-8.14.362-.271.589-.32.92-.138.453.25.362.416-.535 2.132-1.713 3.277-1.86 6.96-.272 10.855 2.743 5.98 5.054 10.89 6.692 15.287 1.792 4.81 2.8 8.987 3.206 12.757 0 0 1.22.548 1.039-.272-.762-5.274-2.483-10.748-4.342-15.379-1.755-4.37-3.954-8.578-5.736-12.912-2.16-5.197-.371-10.878 4.06-13.716l2.04.045c-.12-.054-4.65 1.767-4.888 8.319-.226 6.244 2.697 10.08 4.81 15.37 2.577 6.378 4.882 11.972 5.43 18.789.202.237 1.318.288 1.3.187-.55-4.585-1.872-8.944-3.762-14.302-2.008-5.694-4.006-8.22-5.87-14.198-1.26-4.044-1.09-9.523 1.719-12.027 4.203-4.297 10.069-1.237 8.598 3.681-1.133 3.462-5.82 2.774-5.794-.47-.01-2.094 2.542-2.66 3.385-1.08.196.308.327 1.655.415 1.705.088.05.351-1.06.353-1.307.01-1.72-2.3-3.17-4.018-2.296-2.353 1.196-3.882 3.947-3.727 7.629.165 3.916.866 6.45 4.034 12.592 3.69 7.155 4.914 14.904 5.702 20.126.34-.145.75.04.882 0-.538-7.119-2.85-14.43-5.733-20.508-3.493-7.362-4.47-11.866-3.305-15.165.17-.485.333-.85.544-.881.39-.06.51.572.873 1.894.111.405-.03 1.043-.11 1.535-.304 3.02 1.787 9.3 3.732 12.09.569.796 1.296.769.668-.644-2.003-3.649-3.223-6.957-3.383-11.393-.047-1.304 1.453-.718 1.487-.064.109 2.119.318 4.614 1.318 6.39 2.032 3.515 3.162 3.668 1.084-.256-.462-.911-1.783-4.76-1.25-6.084.296-.27.656-.318.834-.048.588 2.175 1.402 4.33 2.84 6.006.754.872.878.478.482-.61-.662-1.26-2.734-5.474-1.78-6.423.308-.257.127-.118.964 1.264 1.165 1.924 1.8 2.678 2.367 3.24.753.749.936.245.157-1.07-1.555-2.627-2.44-4.81-1.893-5.359.54-.542.67-.291 1.898 1.823.546.94 1.337 2.327 1.608 2.654.269.325.515.41.52.14-.287-2.55-2.454-5.46-3.326-5.967-.126-.237-.081-2.252-.081-2.252 3.256 1.695 3.388 3.608 5.545 6.554.222.219.538-.049.444-.456-.076-.552-1.352-3.002-2.152-4.078-.63-.846-.658-1.33-.124-1.575.862-.394 2.066.902 3.35 3.217.595 1.074 1.39 1.697 1.393 1.133 0-.31-1.106-3.08-1.87-3.88-1.274-1.333-.645-2.265.83-1.031.669.56 1.575.98 2.51 3.017.545 1.19 1.013 1.342 1.016.393 0-1.067-1.772-3.673-2.964-4.394-.923-.559-1.447-1.182-1.188-1.598.81-1.203 4.084 1.865 5.202 4.718.33.842.907 1.271 1.05.9.25-.188-.413-2.244-1.093-3.196-1.124-2.177-3.78-4.28-5.354-4.026-.305.05-1.14-1.734-1.14-1.734 4.014-.655 7.914 4.203 8.608 6.021 1.316 3.45 1.986 3.045.835.02-2.25-5.913-9.24-9.226-13.118-6.365-2.209 1.629-.888 5.525 1.384 4.864.903-.342 1.778-1.272.19-.966-1.767.18-2.33-2.54-.53-3.084 2.9-.877 3.564 3.79 1.223 4.829-2.43 1.052-4.847-.517-4.62-3.212.43-5.093 6.623-6.565 12.736-2.446 1.72 1.159 3.835 4.936 4.562 7.329.24.791 1.05 1.068 1.15.968.232-.234-1.698-4.438-2.333-5.507-2.662-6.158-12.286-6.463-12.286-6.144 0 0-3.77 2.396-7.118 6.346l-8.602-.8c21.916-35.559 23.638-87.84 1.16-124.852.287.187 4.32 1.241 5.711.135 1.026-.496 1.32-.668 2.453-.256 1.276.463 2.62.053 4.008-1.23 1.047-.968 1.068-1.266 1.742-1.178 1.996.262 3.32-.918 3.732-3.826.161-1.143.272-2.33.11-2.156-.094.101-.326 1.09-.473 1.71-.404 1.709-.777 2.335-1.436 2.892-1.086.918-1.713.404-1.26-.988.429-.9.786-3.211.196-4.263-.103-.189-.128.527-.277 1.1-1.185 4.556-2.426 6.87-4.573 7.403-1.008.25-1.474.096-1.148-.49 3.788-4.079 3.535-8.598 3.25-8.211-.806 2.614-2.302 6.511-4.758 8.113-2.122 1.383-5.23 1.515-6.958.354-.981-.66.502-.855 2.723-.885 3.742-.051 7.24-5.1 6.659-9.355-.137-.787-.35.057-.654 1.351-1.38 4.609-3.748 7.844-9.157 6.878-.423-.075-.705-.357-.935-.518-.881-.617-.557-1.04 1.192-.809 3.913.516 7.318-3.19 7.297-7.668-.01-2.148-.315-2.123-.654-.523-.476 2.257-2.214 9.177-8.542 6.917-1.14-.624-1.76-1.423-1.355-1.54 3.69.752 7.072-.068 8.387-4.965.567-2.115.43-4.18-.146-5.91-.183-1.175-.574-2.07-.706-3.264-.353-3.198-.858-6.73-.706-10.23.302-.305.355-.238 1.417.474 2.085 1.4 3.663 1.077 5.783.247 2.728-.995 2.481-.815-.372 2.442-.595.679-1.196 1.508-1.264 1.637-.727 1.374.635.365 1.655-.93 1.418-1.8 1.715-2.215 1.995-2.214.095 1.946-.6 4.31-.96 5.905-.47 1.768-.464 2.176.65 2.63.483.197 1.415.583 1.932.833 2.334 1.127 2.119.21.258-.852-2.512-1.435-2.533-1.363-1.813-3.745.842-2.793 1.257-5.213 1.713-7.978 1.128-6.837-3.976-10.597-10.756-8.21-.388.197-.836-3.594-.773-4.597.06-.362-1.025-.282-1.913-1.385.27-.245-9.997-13.245-14.779-21.129 29.762.075 59.087-.546 86.012-.475zm-22.05 24.418c.066.042.105.078.105.078-.044-.053-.08-.078-.105-.078zm23.238-23.807h29.543v62.873l-2.92.063s-4.801-8.346-6.066-12.29c-.316-.984-.868-2.34-1.083-2.872-.488-1.206-.83-1.355-.181-2.092 1.299-1.476 1.043-4.462-.22-5.9-.39-.467-.592-.309-.572-1.443.017-.976.107-1.6-.148-2.103-.427-.84-.716-.9-.105-1.826.639-.97 1.488-2.543 1.846-3.778.579-1.995.172-2.368 1.46-1.899 3.236 1.042 5.946-1.292 5.861-4.59-.07-2.776-2.64-5.25-5.627-4.492-.688.175-.824.115-1.884-.557-.304-.193-.767-.6-1.16-.75-.492-.19-.898-.174-1.102-.529-.401-.697-1.65-1.805-3.173-1.734-.93.044-2.138-.296-2.458-.465-.53-.28-2.02-.052-3.913-.339-.841-.127-1.52.203-1.928.208-1.165.014-.69-.131-.911-1.027-1.46-4.668-5.728-4.111-7.683-.6-.717 1.377-1.237 3.421-1.508 5.531l-11.49-.174 15.422-19.215zm-88.927.135c4.292 5.52 8.4 11.706 12.726 17.341 5.325 6.825 5.5 7.61 4.07 14.478-.8 3.882-1.142 4.78-2.762 4.486-1.522-.276-2.809.934-3.016 2.465-.39 2.875 2.352 4.645 5.106 3.207 1.452-.758 1.5-.84 1.016 1.666-.693 3.592-2.083 6.684-2.977 6.583-2.31-4.954-7.926-1.43-6.061 3.721-.584.9.183 2.039.477 2.98 0 0 .012.112-3.197 1.185-15.753 4.714-34.986 17.02-45.64 28.574V31.617l40.258-.238zm90.397 11.795a2.56 2.56 0 0 1 1.823.673c1.373 1.248 1.05 2.99-.85 6.273-1.993 4.573-1.449 8.175-.992 12.977-.013 2.788-.944 5.437-2.429 6.582-2.405 1.856-5.37-.63-4.123-3.148.639-1.252 1.996-.522 2.315-1.705.44-4.365-.633-8.818-.707-13.103.025-1.92.648-4.33 1.508-6.137.84-1.506 2.194-2.38 3.455-2.412zm3.788 7.46c-.545.46-1.455.47-1.561-.104 0-.601.467-2.519.789-2.73 1.97-.466 1.342 2.339.772 2.835zm2.945-2.99c1.628-.064 2.7 4.148 1.288 6.613-.268.05-2.242.038-2.252.077-.033-.44.096-1.319.244-2.16.126-.72.2-1.266-.014-2.04-.535-1.929-.882-2.291.734-2.49zm3.102.059c.059-.002.123 0 .19 0 1.654.008 2.595 3.238 2.076 6.767-.074.507-.117 1.038-.3 1.157-.691-.189-2.61.503-2.643.498-.181-.187-.108-1.19.138-2.096.453-1.674.58-2.788.048-4.52-.382-1.496-.397-1.78.491-1.806zm4.118.93c1.816.309 1.934 5.4 1.188 7.053-.178.243-.863.185-1.107.276-1.544.447-1.2.68-1.021-1.807.123-1.707.152-3.033-.1-4.442-.123-.618-.173-1.049.272-1.09a1.87 1.87 0 0 1 .768.01zm-9.062 1.99c.723 1.004.141 3.325-.41 4.187-.63.951-.883 1.03-.54 1.447.146.177.45 1.076.263 1.453-.346.7.543.825 1.35 1.25 1.31.694 1.946 1.973 2.924 4.301.34.811 1.04.556.701-.317-.29-.748-.403-1.85-.604-2.584-.21-.755.02-1.132.88-.91 1.293.332 1.115.02 1.587-.156 1.038-.581 1.734.242 1.107.698-.36.261-1.127.42-1.976.657-.721.2-.554.904.172.9.669-.002 2.589-.548 3.842-.932 3.589-1.101 3.71-1.686 3.373.382-.442 2.737-1.916 4.79-4.352 5.483-2.12.605-7.014.489-9.195-.218-2.07-.95-2.208-1.615-2.834-3.463-.858-2.53-1.362-6.811-.377-9.3.867-2.101.78-1.88 1.613-1.775.74.262 1.735-.03 1.956-.489.112-.22.394-.62.52-.613zm13.748 1.517c.204 1.125.223 2.282-.163 3.153-.223.409-1.48.387-1.966.393-.287.068-.265-3.803.043-4.224.732-1.112 1.676-.219 2.086.678zm-36.424-.669l3.555.044v.877l-4.194-.03.64-.89zm12.44.15v1.139l-5.353.01v7.13l5.988.02.033 1.482-8.016-.03.024-9.745 7.32-.005h.005zm27.214-.227c5.489 1.223 3.04 7.377.983 7.75-2.564.465-4.738.172-4.027-2.117.713-1.55.218-3.482.42-4.892.495-.465 1.786-.928 2.624-.741zm-41.38 2.16l5.281.054v1.177l-6.036-.015.754-1.216zm11.733 1.085c.843 0 1.527.694 1.527 1.55 0 .856-.684 1.55-1.527 1.55a1.539 1.539 0 0 1-1.527-1.55c0-.856.684-1.55 1.527-1.55zm14.902.615c.983.11 1.067 1.635.667 2.08-.515.519-1.476.298-1.769-.496-.264-.716.327-1.615 1.102-1.584zm-28.11.664l6.756.02v.954l-6.823.058-.182-.615.249-.417zm38.036.412c.937-.023 1.511.777.925 1.458-.882.994-2.681-.527-.925-1.458zm-72.001 2.084c-1.512 1.295-.3 2.568 1.708 1.342 4.321-2.638 10.694-.547 14.849 1.65.814.423.926-.563.124-1.245-3.837-3.429-12.018-5.395-16.681-1.747zm65.474-1.803c1.056.005 1.04 1.34.363 1.817-.677.298-.795.215-1.245.037-.617-.244-.157-1.848.882-1.854zm3.738.02c1.251.063 1.112 2.617-.777 1.696-.685-.747-.241-1.7.777-1.695zm-34.923 1.317l6.566.058v1.085l-6.141-.063-.425-1.08zM105.604 60.5c1.795 1.445 1.238 1.533-1.737.47-1.943-.44-3.879-.159-5.096.33-1.44.577-1.773.41-1.15-.567 1.675-1.907 6.29-1.522 7.983-.233zm8.628 2.393c-.18.45-.795-.36-1.627-.203-1.188.224-.845.281.41 1.729 1.255 1.449 1.665 1.792 1.589 2.35-.113.82.115 1.272.92 1.181.388-.043.849.412 1.442.96 2.054 1.894 3.092 2.836 3.76 3.128 2.72 1.192 1.496-.152-.243-1.37-2.899-2.03-3.906-3.384-1.847-2.66 2.188.77 5.669.333 7.382-.715.844-.517 1.378-1.308 2.567-.922 1.671.543 2.31-.457 1.847-1.017-.758-.494-2.49-1.083-4.132-2.204-3.517-1.811-7.215-1.758-9.678-.3-1.451.858-1.957.255-.534-.596 5.71-3.124 10.226-.132 13.881 2.112.633.39 1.077.358 1.079.082-.097-.906-1.723-1.463-2.382-1.87-5.092-3.145-10.444-4.148-14.434.315zm34.667-2.766l5.707.005v1.143l-5.287-.024-.42-1.124zm-46.435 1.458c1.581-.008 5.02 1.433 4.963 2.626-.066.453-.927.047-1.675-.417-1.446-.896-3.665-1.136-5.755-.741-1.604.303-2.114.572-2.343.378-.554-1.264 3.343-1.839 4.81-1.846zm61.71.853l.01 2.049c-3.099.23-3.736 3.723-1.749 5.669 1.63 1.595 4.323.966 5.676-1.295.237-.402.265-.645.41-.446.091.125.17.506.244.877.214 1.075-.09 1.35-.793 2.272-1.134 1.488-1.288 3.364-.577 4.761.196.385.605.934.534 1.187.397-.012-3.517 11.106-9.235 16.71-.957.645-1.651-.114-1.158-1.157 4.658-10.804-4.253-20.84-7.71-30.496l14.348-.131zm-41.405 1.865l.815.072c-.656 4.978-5.414 4.177-5.602.122l.688-.025c.927 3.772 4.109 2.228 4.099-.17zm-26.88.101s.343.556.343.867c0 1.159-.019 2.835-.048 3.343-.275 4.79-6.262 5.677-5.807 1.579.357-1.74 2.522-1.933 3.054-.359.777 1.98.916-.476.926-1.244.634-1.207 1.099-2.672 1.532-4.186zm28.85.34c.246.006.686.223 1.031.6.394.43.247.644-.673 1.124-.995.52-1.446.475-1.088-.576.223-.653.415-1.157.73-1.148zm44.789.251c.135.006.481.188.4.708-.135.868-.875 1.362-1.068 1.157.123-.458.272-1.683.668-1.865zm-51.937 1.681c-.117.352-.322.199-.845-.252-.576-.497-.546-.814.048-1.172.854-.522.906 1.1.797 1.424zm-18.128-1.298c.999 3.205 3.036 2.798 3.946.155l.874-.014c-.193 4.126-5.339 4.053-5.383.063l.563-.204zm-1.804.397c.305-.049.086 1.022.086 1.022s-.845-.442-.348-.91a.675.675 0 0 1 .262-.112zm7.559.272c.104-.007.302.074.515.217.5.337.414.534-.157 1.018-.88.744-1.277.33-.802-.669.177-.372.31-.558.444-.566zm65.722.697c.372-.023.894.148 2 .446 3.045.82 7.12.79 10.588-.18 1.095-.306 1.908 1.644 1.317 3.062-.261.626-.215.704.582 1.545 1.131 1.193 1.312 3.116.454 4.868-.626 1.275-.584 1.16.157 3.337 1.59 4.734 3.931 9.136 6.391 13.459l-3.28-1.24s-14.814 12.925-25.262 13.415l3.784 5.987c5.953 2.414 11.645 1.81 17.088-1.666-.134.5 6.623 3.854 12.173 4.219l.033 4.03c-4.117-.469-8.29-.565-12.115-3.008 0 0-3.516 1.492-7.039 2.61l19.728 20.714.01 3.462s-8.422-7.978-17.088-16.973l.186 44.23 17.069.338c-.537 11.511-.32 18.83-.206 32.013-8.065 8.4-19.164 16.804-29.418 21.851-4.839-4.737-8.837-9.868-12.335-15.355-.074-.116.353-.337.28-.454-.108-.168-.714-.232-.824-.399-2.133-3.223-7.088-12.161-6.304-12.37 1.517.106 8.545-.777 9.945-5.053.012-.271-.153-1.033.038-1.928.494-2.318.747-5.837-.091-8.074-1.51-4.033 3.034-2.74 3.188-2.47v-15.235c-5.913 4.812-11.88 9.548-19.784 11.529-4.917-25.157 2.88-56.444 25.109-77.661l-1.219-.106c-22.839 23.987-28.827 50.364-24.93 78.145 0 0 .144.868.166 1.161.053.692-.11.955-.715 1.454-.578.385-1.102.8-1.05 1.274.098.892-.747.921-1.852.916-.509-.453-1.194.118-1.603.324-.573.086-.858-2.288-1.59-.547-.278 1.099-.806 1.18-2.027.634-.767-.227-.785.16-.048 1.061 1.019 1.113 1.88 2.776 1.713 3.275-.374 1.118-.212 2.245 1.346 2.887-.09.007-.94 3.41 1.474 3.313.768.008 2.715.407 2.715.407.127.65-.079 1.02-.381 1.307l-1.68-.852-.44 2.03-2.237-.16 5.445 6.825.634-5.324 6.366.819c1.022 2.691 7.453 17.612 19.746 28.752-.135.365-8.457 3.849-8.457 3.849l-1.316-4.144-1.055 1.54-1.88-.488-.22 1.743-1.674.548 3.018 1.988-7.653 2.217c-21.443-35.108-31.098-83.525-4.393-135.096l6.747.088-1.317 2.286 1.918-.31.542 1.666 1.408-.675 1.417 1.802 1.611-4.813s4.78.11 5.377.048c.468-.053 10.104-8.26 9.897-8.573-.15-.226-10.494 7.448-10.842 7.154 0 0-1.038.251-.229-.731 1.453-1.764 2.477-3.105 3.951-5.638 2.436-3.365 3.53-7.47 4.104-10.25.01-.195.062-.642-.1-.969-.93-1.87-.724-3.092.945-5.299.584-.772.62-.964.453-1.439-.376-1.071-.015-1.988.754-2.707.305-.286.503-.423.792-.441h-.005zm-56.855 7.47c4.235 1.765.834 5.674-2.31 2.266-1.649-1.786-2.95-1.672-3.847-.368-.404.588.184 1.621.706 1.293.485-.304.983-.665 1.69-.005 5.355 5.006 9.2-2.001 4.585-3.744-.57-.267-1.382.324-.824.557zm-17.442-.17c.04-.002.087.019.148.058.2.127.215 1.896.014 2.64-.67 3.768-3.316 12.526-8.747 8.239-2.156-1.702-.195-5.976 2.386-4.524 2.015 1.134.655 3.84-1.527 2.286-1.06-.754-.723.801.172 1.245 1.516.805 4.262-.574 5.55-3.032.513-.98.994-2.713 1.536-5.207.272-1.255.294-1.696.467-1.705zm.458 6.524c.447 2.725-1.596 7.497-4.505 8.201-2.226.539-4.979-.933-4.781-2.296.057-.396.216.127 2.233.465 2.817.472 4.61-1.07 6.232-4.626.512-1.122.731-1.718.82-1.744zm7.01 1.303c0 .308-.146 1.12-.272 1.657-.3 1.277-.489 1.761.887 1.129.91-.426 2.24-.848 3.617-.073 1.519.855 2.969.696 4.758-.073 1.553-.525 2.31-.53 3.178-.024 1.583.924 1.04.334.835-1.996-.141-1.64-.582-1.424-1.15-.804-.373.407-1.127.497-1.966.04-1-.546-2.393-.288-2.863.1-.469.388-1.147.441-2.066-.188-.609-.417-.948-.199-1.694.14-1.23.56-1.7.257-2.367-.266-.606-.449-.89-.308-.897.358zm-6.099 1.957c.16-.002.179.628.067 1.894-.512 4.673-4.117 7.275-8.36 5.014-1.858-1.077-1.606-1.837.224-1.163 2.918 1.074 5.865-.428 7.306-4.267.37-.985.622-1.476.764-1.478zm10.355 3.333c2.098.88 4.425.6 5.016-.18.665-.876-.355-.732-.888-.6-1.837.446-3.098.283-3.841-.053-2.175-.853-2.038.071-.287.833zM86.48 89.78c2.72 3.38 3.078 4.04 5.42 7.881 17.129 29.511 22.613 66.81 11.353 100.67-3.09 9.343-7.449 18.865-12.335 26.515l-5.865.063 2.014-2.33-2.73.203-.167-1.54-2.07.678-.998-2.325-1.875 5.324-10.87.029c25.459-25.114 30.473-55.549 25.724-79.982 0 0 2.128-1.35 2.424-2.14.072-.193.23-1.008.377-1.13.947-.628 1.576-1.238 2.043-1.118.268.069.406.195.601.484.897 1.334 1.09 1.542 1.58.199.351-.965.2-1.314 1.355-1.129.676.364 1.575.354 1.493.218-.06-.101-1.02-1.244-1.474-1.894-1.075-1.535-1.383-1.812-1.284-2.485.151-1.024-.653-2.13-1.155-2.407.145-2.76-.899-3.035-3.855-3.652a2.582 2.582 0 0 1 .272-1.289l1.737 1.405.63-2.606 2.357.13-6.833-6.713c.034 1.894.122 3.809-.048 5.633-3.204-.177-6.364-1.225-6.412-1.027-4.704-11.242-11.87-20.748-19.437-28.166l7.558-3.687 2.143 4.147.525-2.35 1.875.335.315-1.507 2.07-.295-2.285-2.204 5.827-1.938zm45.012 4.849c.29.37.52.395.907.731l-.773.557c.037-.527-.01-.797-.134-1.288zm-50.29 1.385c-.64 0-1.164.532-1.164 1.182 0 .651.523 1.177 1.164 1.177.641 0 1.16-.526 1.16-1.177 0-.65-.519-1.182-1.16-1.182zm6.307.188c-.643 0-1.165.529-1.165 1.181 0 .653.522 1.182 1.165 1.182s1.164-.529 1.164-1.182c0-.652-.521-1.181-1.164-1.181zm-20.317.863c3.743 3.158 7.184 7.272 11.357 13.709l-.086.867 1.274.48s6.942 9.275 6.576 13.397c-2.384.505-4.561-.151-8.823 3.894-2.011-1.098-3.204-.747-5.287-.13 0 0 .037.917.753 1.225 1.387-1.652 2.897-.886 3.718-.474-.294.127-1.047 9.343.415 11.305 1.101 3.13-1.792 2.535-3.798 1.763l.577 14.634c6.603-7.647 20.55-12.746 19.56-12.192 7 37.53-9.642 62.568-27.061 80.92l9.128.054s-7.87 12.814-8.456 16.358c.447 1.177 1.685 3.616-.405 5.328-.708.787-.783 4.36-.783 4.36-4.8.167-8.962-1.525-14.497.445-.572.196-.697-3.059-.725-3.647-3.094-2.784-.26-7.565.16-7.214-2.497-7.442-7.517-16.328-7.517-16.328s-3.026-.164-4.868-.27c-.384-.328-.633-9.005-.244-9.214 13.682 1.102 35.092-.16 35.092-.16l-5.745-8.147c-7.076-2.8-16.801 1.981-16.333 2.234.023.028-7.772-4.315-13.18-3.698l.178-4.255c4.803-.02 9.235.888 13.104 3.205l6.573-2.485L37.7 181.577l.234-3.536c6.566 6.167 17.336 18.096 17.336 18.096l.014-45.038-17.322-.043-.462-9.092-.45-.794-.204-6.525.482-.664-.167-2.79-.163-.397-.22-6.665.373-.562.057-4.195c8.37-8.316 29.981-22.306 29.981-22.306h.001zm14.798 1.265l2.018 8.98 1.355-1.705 2.08.664.144-2.069 1.894-.668-7.491-5.202zm68.834 1.493c-.643 0-1.164.53-1.164 1.182 0 .653.521 1.182 1.164 1.182.644 0 1.165-.53 1.165-1.182 0-.653-.521-1.182-1.165-1.182zm-5.449.74c-.643 0-1.164.529-1.164 1.182 0 .652.52 1.181 1.164 1.181.643 0 1.164-.529 1.164-1.181 0-.653-.521-1.182-1.164-1.182zm-66.745 1.046c-.643 0-1.164.53-1.164 1.182 0 .653.521 1.182 1.164 1.182.643 0 1.165-.53 1.165-1.182 0-.653-.522-1.182-1.165-1.182zm70.924.712l-8.103 7.736 2.272-.097.406 2.257 2.033-.945 1.645 1.54 1.747-10.491zm3.448 2.6c-.643 0-1.164.529-1.164 1.181 0 .653.521 1.182 1.164 1.182.643 0 1.164-.529 1.164-1.182 0-.652-.521-1.182-1.164-1.182zm-64.437 1.522c-.643 0-1.164.53-1.164 1.182 0 .653.521 1.182 1.164 1.182.643 0 1.164-.53 1.164-1.182 0-.653-.52-1.182-1.164-1.182zm5.04.988c-.644 0-1.165.53-1.165 1.182 0 .653.521 1.182 1.164 1.182.643 0 1.165-.53 1.165-1.182 0-.653-.522-1.182-1.165-1.182zm-4.572 1.759c.223 3.16.586 6.908.668 10.075l1.536-1.536 1.775.732.63-1.943 1.933-.097-6.542-7.231zm49.889 2.636c-.643 0-1.164.53-1.164 1.182 0 .653.521 1.182 1.164 1.182.643 0 1.164-.53 1.164-1.182 0-.653-.521-1.182-1.164-1.182zm-53.23.207c-.643 0-1.164.53-1.164 1.182 0 .653.521 1.182 1.165 1.182.643 0 1.164-.53 1.164-1.182 0-.653-.521-1.182-1.164-1.182zm57.846.287c-.643 0-1.165.53-1.165 1.182 0 .653.616 1.182 1.165 1.182s1.164-.53 1.164-1.182c0-.653-.521-1.182-1.164-1.182zm-.69 2.553l-6.717 7.012 2.2.209.691 1.99 1.408-1.21 1.708 1.269.71-9.27zm3.688 1.503c-.643 0-1.164.53-1.164 1.182 0 .653.521 1.182 1.164 1.182.643 0 1.165-.53 1.165-1.182 0-.653-.522-1.182-1.165-1.182zm-52.96 2.186c-.643 0-1.165.53-1.165 1.182 0 .653.522 1.182 1.165 1.182s1.164-.625 1.164-1.182c0-.557-.521-1.182-1.164-1.182zm-28.698.959l-1.696 1.317c1.398.552 2.184 1.742 2.184 1.742s-.189-.7-.488-3.059zm34.204.795c-.643 0-1.164.529-1.164 1.182 0 .653.521 1.182 1.164 1.182.643 0 1.165-.53 1.165-1.182 0-.653-.522-1.182-1.165-1.182zm-8.34 1.686c-.644 0-1.165.529-1.165 1.181 0 .653.521 1.182 1.164 1.182.643 0 1.164-.529 1.164-1.182 0-.652-.52-1.181-1.164-1.181zm48.099 2.38c-.643 0-1.164.53-1.164 1.183s.52 1.182 1.164 1.182c.643 0 1.164-.53 1.164-1.182 0-.653-.521-1.182-1.164-1.182zm-4.595 1.735c-.643 0-1.165.53-1.165 1.182 0 .653.522 1.182 1.165 1.182s1.164-.53 1.164-1.182c0-.653-.521-1.182-1.164-1.182zm46.907.292l2.419 2.67v39.05l-2.362.049-.057-41.769zm-94.182.277c1.971.003 4.168.29 4.868 1.506 1.088 1.364-1.226.836-3.174 1.133-1.799.223-.755.596 1.785.746 3.501.21 4.877.303 5.398 1.122.296.763.08 1.278.142 2.1l-3.975-.19c-2.062.004-3.273-.036-3.884.122-.487.126-.347.522-.181.692.087.09 1.668.11 3.516.16 4.975.133 6.075.303 6.428 1.928.267 1.49-.93 1.263-6.041.698-2.274-.189-3.498.354-3.827.518-.56.279 1.624.554 2.338.436.447-.071 3.727.289 4.934.518 1.016.156.122.128-.391.756-.34.52-.232 1.116-.764 1.41-.652.35-1.943.343-4.26.343-2.65 0-3.886.653-.249.814 2.35.104 2.482.062 2.682.75.53 1.699-.6 1.997-2.997 2.384-1.145.2-2.844.088-4.128-.005-5.069-.366-6.825-1.593-7.51-3.86-2.557-8.461.599-13.627 7.983-14.043.41-.022.852-.04 1.307-.039zm51.237.377l-5.725 8.452 2.207-.871 1.05 2.291 1.765-1.279 1.764 1.104-1.061-9.697zm-42.829 1.027c.297.368.167.644-.324.916-.414.229-1.122.06-1.59-.146-.615-.27-.677-1.386-.17-1.506.726-.148 1.629.196 2.084.736zm-41.462-.43l-2.628 2.905s2.42-.877 3.716-1.395l-1.088-1.51zm87.86 1.297c-.643 0-1.164.53-1.164 1.182 0 .653.521 1.182 1.164 1.182.643 0 1.165-.53 1.165-1.182 0-.653-.522-1.182-1.165-1.182zm42.62 1.022s2.917 2.924 4.114 4.151l-1.083-.005.029 2.306 3.45.039 1.894 1.884-5.268-.024v2.354l6.523.005-.033-1.007 2.577 2.368.305 26.186-12.43-.039c-.046-12.894-.011-25.324-.076-38.218h-.002zM99.12 132.82c-.178.566-.578.567-1.26.286-1.008-.417-.865-1.547-.1-1.667 1.443-.167 1.71.508 1.36 1.38zm3.913.494c-.643 0-1.164.529-1.164 1.182 0 .653.521 1.182 1.164 1.182.643 0 1.165-.53 1.165-1.182 0-.653-.522-1.182-1.165-1.182zm-4.099.906c.455.028.907.265 1.165.523.636.652.411 1.261-.301 1.637-.799.422-1.36-.153-1.594-1.114-.157-.648.216-1.025.73-1.046zm36.55 3.1c-.645 0-1.168.53-1.168 1.186 0 .655.523 1.187 1.169 1.187.645 0 1.169-.532 1.169-1.187s-.524-1.187-1.17-1.187zm-38.477 1.438c1.003.035 1.305 1.075.782 1.633-.751.756-1.92.432-2.085-.29-.053-.814.6-1.343 1.303-1.343zm34.306.48c-.643 0-1.165.529-1.165 1.182 0 .652.522 1.182 1.165 1.182s1.164-.53 1.164-1.182c0-.653-.521-1.182-1.164-1.182zm4.135.784l-5.21 8.875 2.109-.848 1.278 1.71 1.317-1.168 1.99.989-1.484-9.558zm-40.89 1.483c.933.004 1.194.747.516 1.429-.46.463-.981.477-1.513.048-.805-.65-.188-1.483.998-1.477zm44.54.11c-.642 0-1.164.529-1.164 1.181 0 .653.522 1.182 1.165 1.182s1.164-.529 1.164-1.182c0-.652-.521-1.182-1.164-1.182zm-37.935.931c-.643 0-1.117.53-1.117 1.182 0 .653.521 1.182 1.164 1.182.644 0 1.165-.53 1.165-1.182 0-.653-.57-1.182-1.212-1.182zm86.327.262v2.509l6.566.005v-2.51l-6.566-.004zm-86.241 2.228l-2.515 9.324 2.104-1.215 1.313 1.36 1.221-1.525 2.195.581-4.318-8.525zm4.47 1.012c-.642 0-1.163.53-1.163 1.182 0 .653.52 1.182 1.164 1.182.643 0 1.164-.529 1.164-1.182 0-.652-.521-1.182-1.164-1.182zm-8.197.475c-.643 0-1.164.53-1.164 1.182 0 .653.52 1.182 1.164 1.182.643 0 1.164-.53 1.164-1.182 0-.653-.521-1.182-1.164-1.182zm89.963.736v2.253h6.566v-2.238l-6.566-.015zm-54.033 2.945c-.643 0-1.164.53-1.164 1.182 0 .653.521 1.182 1.164 1.182.643 0 1.164-.53 1.164-1.182 0-.653-.521-1.182-1.164-1.182zm54.038 1.26v2.427h6.566v-2.427h-6.566zm-135.386.295l2.31.044.037 42.301-2.252-2.417-.095-39.928zm-.964.083l-.115 38.663-4.376-4.67 1.165-.014v-2.635l-3.789-.029-1.618-1.599 5.402.005v-2.586l-6.408-.024v1.564l-3.15-3.41.053-25.246 12.836-.02zm82.484 1.18l-3.506 9.2 2.205-1.274 1.14 1.138 1.179-1.08 2.004.993-3.022-8.976zm-92.21.442l-.032 2.475h6.47v-2.475h-6.437zm96.18.499c-.643 0-1.164.529-1.164 1.182 0 .652.52 1.182 1.164 1.182.643 0 1.164-.53 1.164-1.182 0-.653-.521-1.182-1.164-1.182zm-7.925.132c-.643 0-1.164.53-1.164 1.182 0 .653.521 1.182 1.164 1.182.643 0 1.165-.53 1.165-1.182 0-.653-.522-1.182-1.165-1.182zm-27.4.44c-.642 0-1.164.529-1.164 1.182 0 .652.522 1.182 1.165 1.182s1.164-.53 1.164-1.182c0-.653-.521-1.182-1.164-1.182zm85.22.954v2.601h6.567v-2.601h-6.566zm-85.362 1.468l-.974 1.525-2.228-.77 3.04 9.334 3.812-9.736-2.19 1.27-1.46-1.623zm-60.712.678v2.47h6.437v-2.47h-6.437zm146.075 2.213v2.577h6.561v-2.577h-6.566.005zm-146.075 2.156v2.475h6.437v-2.475h-6.437zm92.125.465c-.646 0-1.17.531-1.17 1.187 0 .655.524 1.186 1.17 1.186.645 0 1.169-.53 1.169-1.186 0-.656-.524-1.187-1.17-1.187zm-35.054 1.235c-.646 0-1.17.531-1.17 1.187 0 .655.524 1.187 1.17 1.187.645 0 1.169-.532 1.169-1.187 0-.656-.524-1.187-1.17-1.187zm7.472.223c-.645 0-1.169.531-1.169 1.187 0 .655.524 1.186 1.17 1.186.645 0 1.169-.53 1.169-1.186 0-.656-.524-1.187-1.17-1.187zm81.532.165v2.325h6.561v-2.325h-6.566.005zm-53.96 1.085l-1.393 1.487-2-.577 4.533 8.584 2.29-9.233-1.998 1.293-1.432-1.554zm-92.115.872v2.809h6.437v-2.81h-6.437zm60.755 1.273c-.646 0-1.17.532-1.17 1.187 0 .656.524 1.187 1.17 1.187.645 0 1.169-.531 1.169-1.187 0-.655-.524-1.187-1.17-1.187zm-.076 2.447c-.499.358-.716.988-1.236 1.312l-2.128-.92 1.278 11.688 5.908-11.044-2.701.46-1.121-1.496zm-60.679.382v2.921h6.437v-2.92h-6.437zm96.684 1.355c-.646 0-1.17.531-1.17 1.187 0 .655.524 1.186 1.17 1.186.645 0 1.169-.531 1.169-1.186 0-.656-.524-1.187-1.17-1.187zm-7.56.135c-.645 0-1.168.532-1.168 1.187 0 .656.523 1.187 1.169 1.187s1.169-.531 1.169-1.187c0-.655-.523-1.187-1.17-1.187zm-89.124 2.749v2.925h6.437v-2.925h-6.437zm93.342.652c-.646 0-1.17.531-1.17 1.187 0 .655.524 1.186 1.17 1.186.645 0 1.169-.531 1.169-1.186 0-.656-.524-1.187-1.17-1.187zm16.503.094c6.26.202 7.177 2.247 7.214 9.304.03 5.633-1.623 7.835-5.663 8.921-1.472.396-6.977.03-8.536-.478-.026-.483-.804-1.602-.98-2.463.397-.115 1.654.064 4.036.293 1.93.187 2.428-.128 1.817-.513-3.632-.87-6.105-.633-9.596-1.313-.049-1.059-.892-2.293-.892-2.293.19-.077 5.38.49 8.118.403 1.206-.05.48-.626-.01-.732-3.193-.464-5.268-.39-8.645-.822.092-.876-.348-1.674-.893-2.344 0 0 1.709-.016 5.23.039 1.854.028 3.467.107 4.277.079 1.361-.002 1.237-.647.057-.735-1.439-.162-7.101-.197-7.101-.197.42-.198.97-2.772.753-2.8 0 0 1.468.03 2.4-.005 4.539-.172 5.322-.1 5.407-.27.597-.554-1.014-.77-2.691-.766-.723.002-1.778.162-1.77-.238.01-.367-.01-1.12-.379-1.896 2.784-1.087 5.344-1.256 7.844-1.175h.003zm-53.976 1.448c-.646 0-1.17.531-1.17 1.187 0 .655.524 1.186 1.17 1.186.645 0 1.169-.531 1.169-1.186 0-.656-.524-1.187-1.17-1.187zm44.66.247c.77.004 1.014 1.413.29 1.632-1.111.337-1.719.072-1.68-.596.023-.378.89-1.038 1.39-1.036zm-37.025 1.225c-.646 0-1.17.532-1.17 1.187 0 .656.524 1.187 1.17 1.187.645 0 1.169-.531 1.169-1.187 0-.655-.524-1.187-1.17-1.187zm33.293 1.332c2.646-.024 1.276 3.628-.76 2.311-1.008-.653-.298-2.303.76-2.31zm-41.84 2.921c-.054-.005-.083.05-.076.184l.611 11.102 6.366-10.37-2.53.954-1.087-1.676-1.365 1.09c-.562.449-1.626-1.256-1.918-1.284zm39.387 1.137c1.187.167 1.978 1.374 1.155 1.954-1.856.825-2.849-1.873-1.155-1.954zm-2.85 2.436c-.646 0-1.17.532-1.17 1.187 0 .656.524 1.187 1.17 1.187.645 0 1.168-.531 1.168-1.187 0-.655-.523-1.187-1.169-1.187zm4.496 1.005c1.01-.016 1.487 1.474.487 1.942-.213.1-.846.171-1.126-.039-1.18-.884-.57-1.81.64-1.903zm-43.774 1.83c-.645 0-1.169.532-1.169 1.187 0 .656.524 1.187 1.17 1.187.645 0 1.169-.531 1.169-1.187 0-.655-.524-1.186-1.17-1.186zm89.302 1.488l-4.333 1.477v2.08c1.892-.61 2.973-2.17 4.333-3.557zm-40.604 1.004c.752.32.956 1.353.31 1.7-.51.274-1.889.23-2.226-.22-.875-1.424 1.006-1.828 1.916-1.48zm-40.846.41c-.646 0-1.17.531-1.17 1.187 0 .655.524 1.187 1.17 1.187.646 0 1.169-.532 1.169-1.187 0-.656-.523-1.187-1.17-1.187zm-4.79 2.05c-.569 0-1.03.469-1.03 1.047s.461 1.046 1.03 1.046c.57 0 1.031-.468 1.031-1.046 0-.578-.461-1.046-1.03-1.046zm48.598 1.765c-.646 0-1.169.532-1.169 1.187 0 .656.523 1.187 1.17 1.187.645 0 1.168-.531 1.168-1.187 0-.655-.523-1.187-1.169-1.187zm-52.364.065l-.057 10.487 6.89-8.583-2.39.528-1.021-2.127-1.475.974-1.947-1.279zm43.737 2.415c-.646 0-1.17.532-1.17 1.187 0 .656.524 1.187 1.17 1.187.645 0 1.169-.531 1.169-1.187 0-.655-.524-1.187-1.17-1.187zm34.483.04l-1.131 1.958 3.206-1.807-2.075-.15zm-29.816 1.394c-.646 0-1.17.532-1.17 1.187s.524 1.187 1.17 1.187c.645 0 1.169-.532 1.169-1.187s-.524-1.187-1.17-1.187zm3.938 1.28l-1.398 2.025-1.842-.6-.544 1.928-2.21-.083 7.182 6.346-1.188-9.615zm-55.975.811c-.646 0-1.169.531-1.169 1.187 0 .655.523 1.187 1.169 1.187s1.17-.532 1.17-1.187c0-.656-.524-1.187-1.17-1.187zm107.482 2.85v86.232H156.73l-16.811-23.637c-.347-3.796-.145-7.693 1.429-12.787 1.644 1.156 5.245.525 5.123-3.955-.08-2.934-4.536-4.435-6.756-2.228.115-2.836 1.25-7.097 2.882-8.354 1.123 1.034 1.37 2.565 3.907 2.137 1.802-.304 3.228-2.348 2.448-4.73a6.357 6.357 0 0 1-.306-1.83c0-.493.047-1.367-.048-1.856-.124-.646-.171-1.347-.171-1.347 18.716-4.323 35.033-15.825 48.348-27.645zm-99.297.347c-.646 0-1.169.531-1.169 1.187 0 .655.523 1.186 1.17 1.186.645 0 1.168-.53 1.168-1.186 0-.656-.523-1.187-1.169-1.187zm-5.513 1.16c-.645 0-1.169.53-1.169 1.186 0 .655.524 1.187 1.17 1.187.645 0 1.168-.532 1.168-1.187s-.523-1.187-1.169-1.187zm57.85.57c-.645 0-1.169.532-1.169 1.188 0 .655.524 1.186 1.17 1.186.645 0 1.168-.531 1.168-1.186 0-.656-.523-1.187-1.169-1.187zm-62.043 1.267L85.95 218.68l7.959-8.26-2.162-.048-.43-1.884-2.022.664-1.523-1.521zm54.117 2.357c-.645 0-1.169.531-1.169 1.187 0 .655.524 1.186 1.17 1.186.645 0 1.169-.53 1.169-1.186 0-.656-.524-1.187-1.17-1.187zm5.159 1.288c-.646 0-1.17.532-1.17 1.187 0 .656.524 1.187 1.17 1.187.645 0 1.169-.531 1.169-1.187 0-.655-.524-1.187-1.17-1.187zm-64.234 1.44c-.645 0-1.169.532-1.169 1.188 0 .655.524 1.186 1.17 1.186.645 0 1.169-.531 1.169-1.186 0-.656-.524-1.187-1.17-1.187zm68.886.897l-1.904 1.468-1.75-1.087-.411 2.346-1.494.794 6.266 4.457-.707-7.978zm4.63 3.16c-.645 0-1.169.531-1.169 1.186 0 .656.524 1.187 1.17 1.187.645 0 1.169-.531 1.169-1.187 0-.655-.524-1.186-1.17-1.186zm-66.11.4c-.645 0-1.169.532-1.169 1.187s.524 1.187 1.17 1.187c.645 0 1.168-.532 1.168-1.187s-.523-1.187-1.169-1.187zm-5.191 1.55c-.646 0-1.17.532-1.17 1.187s.524 1.187 1.17 1.187c.645 0 1.169-.532 1.169-1.187s-.524-1.187-1.17-1.187zm68.306 3.137c-.645 0-1.169.532-1.169 1.187 0 .656.524 1.187 1.17 1.187.645 0 1.168-.531 1.168-1.187 0-.655-.523-1.187-1.169-1.187zm-4.9 1.063c-.646 0-1.17.531-1.17 1.186 0 .656.524 1.187 1.17 1.187.645 0 1.169-.531 1.169-1.187 0-.655-.524-1.186-1.17-1.186zm-45.26 1.689c.01 0 .014.005.018.01.132.143.538 1.223.177 1.773-.186-.09-1.027-.883-.811-1.153.099-.124.506-.63.615-.63zm-26.53 1.861s1.131.06 1.379.17c0 .293-.272.934-.578 1.652-1.526 3.586-1.76 7.606-.21 11.48 2.432 5.258 9.3 17.699 8.79 18.837l-15.174.063.066-2.342c4.263-.17 4.934-2.817 3.87-5.005-.737-1.515-2.803-2.382-4.691-1.586-2.727 1.148-2.895 2.516-3.869 4.637l-.434-.56c.82-1.105 1.093-2.166 1.026-3.377-.066-1.187-.101-.859.308-1.51 2.374-2.59.82-5.962.82-5.962-.284-2.071 7.106-15.284 8.697-16.497zm-34.701.34c4.315 3.485 8.051 15.227 7.826 15.408-.201-.165-3.478 3.771.052 7.44 0 0-.216 2.204.463 3.337-1.56 3.284-1.834 3.532-1.966 6.23-.03-.011-.271-.032-1.718-.04-7.151-.034-7.485 9.196-.34 9.703.98.07 1.315-.156 1.905.436.598.753 1.135 1.51 2.157 1.119.242.002.635.233 1.045.62.687.943 1.684 1.615 3.106 1.356.505.05 1.02.197 1.565.397.626.501 1.713.88 2.563.504.253-.112.74-.15 1.136.034 1.032.478 2.084.179 2.471-.121.96-.505 1.172.305 1.126 1.05-.489 1.71.586 3.311 2.215 3.939 3.433 1.077 5.164-1.067 5.902-5.319.183-.931.344-2.039.344-2.039l11.495.305-16.506 19.347H38.047v-63.736c1.235-.073 2.66.03 3.896.03zm103.362 3.463c2.097.82 2.264 2.323.177 1.67-3.391-1.06-7.04 1.044-7.802 4.05-.14.555-.29.974-.377 1.08-.474.583-.451.052-.31-1.617.274-3.24 2.53-5.586 5.473-5.682a8.994 8.994 0 0 1 2.84.499zm-1.04 2.29c.877 0 1.805.262 2.499.874.786.875.552 1.456-.052 1.426-2.841-1.204-6.453.254-7.867 3.894-.869 2.233-1.025 1.036-.64-.693.71-3.13 3.057-5.444 6.06-5.5zm-19.755.863c-1.24.005-2.417.253-3.016.828-1.139 1.092-.191 1.11 1.87.383 1.003-.353 2.933-.19 4.166.242 1.034.363 1.4.516 1.341.19-.054-.983-2.296-1.651-4.361-1.643zm23.157 3.654c.523 1.214.184 3.354-1.641 3.57-2.153.256-3.266-3.408.666-2.767-.51-1.465-2.273-1.06-3.143-.688-1.774.786-2.983 2.556-4.07 5.807-.323.964-.559 1.468-.683 1.371-.205-.161-.302-1.66.172-3.463.855-3.252 2.94-5.217 5.149-5.28 1.43-.222 3.097.398 3.55 1.45zm-30.8-1.411c-.192.044.144.727.668 1.787.29.587.486 1.347.486 1.497 0 .576.434.719 1.074.349.74-.427.857-.75 1.904-.276.985.526 1.958.857 2.858.324.488-.29.812-.277 1.756-.024 1.128.302 1.277.348 2.119-.01 1.075-.457 2.353-.144 2.624.163.259.293.108-.112.693-1.488.271-.637.66-1.412.553-1.63-.144-.294-1.124.03-2.19.315-.577.154-1.128.108-2.234-.208-2.332-.668-3.802-.476-5.263.227-.816.393-2.862-.15-4.93-1.002-.05-.02-.091-.03-.118-.024zm4.589 6.34c-1.053-.016-2.007.656-2.444 1.58-.507 1.28.356 3.594 1.67 3.792 1.17.177 1.125-.549.537-.745-.891-.296-1.94-1.592-1.262-2.717.466-.774 1.875-.77 2.855.185 1.973 1.921 4.234 2.048 4.662.38.13-.666-.37-1.554-1.142-1.312-.596.187-1.976.244-3.13-.552-.598-.413-1.195-.602-1.746-.61zm20.838 6.104c5.037-.307 2.871 6.677-.037 4.884-1.038-.64-.578-2.993 2.183-2.95-2.708-2.14-4.553.466-3.891 3.391-.608.954-.777 2.773-1.175 3.803-.613 1.175-1.094-1.903-.476-4.878.6-2.88 1.612-4.142 3.396-4.25zm-28.492.242c-1.04.012.029 1.148.19 1.283 3.138 2.5 4.672 4.045 2.148 3.222-4.1-.991-5.157.186-8.28 1.584-.573.279-.735.105-1.426-.102-2.743-.824-2.543.923.325 2.5 4.328 2.379 7.902 2.916 11.266 1.133 2.162-1.147 2.272-.396.262.872-3.441 2.036-7.064 1.727-12.626-1.788-1.797-1.135-2.048-.376-.21.819 4.2 2.575 9.855 4.91 14.473 1.109.908-.82 1.09-1.245 1.79-.891 1.845.935 1.239-.694-.02-2.228-.444-.543-.773-.981-.744-1.352.104-1.331-.621-1.326-1.284-1.293-.792.04-.704-.23-1.675-1.313-1.417-1.58-3.148-3.273-4.19-3.555zm-41.92 7.082c-1.744.14-2.144.22-1.719 3.846.08.682.38 2.724.463 3.492 1.034 9.497.197 13.698-2.41 14.86-.937.42-1.86.266-2.548-.014-1.65-.67-2.329-2.703-1.13-5.125.322-.652.712-1.66.868-2.242.156-.582.508-1.86.778-2.839.656-2.38 1.012-6.004.625-9.465-.263-2.35-.205-2.546.372-4.131 1.266-2.343 2.085-3.541 4.751-3.57 2.982.317 3.817 4.897-.05 5.187zm64.1-.209l-.817.039c-.982-3.32-3.035-2.245-3.376.085l-.693-.007c.12-4.433 5.582-3.231 4.885-.116zm-76.622-2.478c5.568.559 6.583 1.963 7.022 8.79.04 3.303-.175 5.298-.675 6.05-.834.407-1.632-.354-2.82.411-.654.406-.529.448-.81.007-.265-.413.045-2.157.472-3.548.407-1.327-.291-2.1-2.134-3.802-.5-.461-.937-1.101-1.384-2.015-.96-2.612-1.446-1.463-.647.79.395.97.487 1.45-.713 1.031-.706-.247-1.323.045-1.867.339-1.529.395-2.845-.453-1.52-.962.807-.31 2.253-.76 2.7-.757.325.002.483-.074.483-.228 0-.654-2.945-.582-5.193.203-2.761 1.29-2.92 1.06-2.665-.946.647-5.09 5.313-5.71 9.751-5.364zm54.456.444c1.424-.065 2.731 1.592 2.472 2.998l-.678-.043c-.318-2.647-2.784-2.76-3.44.203l-.978.024c.621-2.287 1.65-3.138 2.624-3.182zm16.555.053c.562.338.172 1.254-.427 1.438-.227.058-.944-.45-.771-.758.323-.372.813-.568 1.198-.68zm6.381.449c.393 0 .9.202.969.738.022.782-.564.62-.759.55-.388-.366-.535-1.259-.21-1.288zm-19.52.626c1.044.125 1.423 1.456.24 1.54-.53.111-.554-1.22-.24-1.54zm-6.35.146c.124.002-.069 1.094-.33 1.254-.516.318-1.174-.029-1.15-.358.058-.788.999-.901 1.48-.896zm18.213 2.654c1.988.765 4.574 1.507 7.005.644.888-.34 1.597-.744 1.596-.361 0 .4-.705 1.007-1.976 1.369-2.619.745-4.514.457-6.313-.914-.508-.388-.685-.744-.312-.738zm-.82 1.14c3.224 1.91 6.136 2.1 8.757.708 1.06-.374 1.095-.032 1.092.66-4.722 4.211-10.624-.161-9.85-1.368zm-79.165 2.91c-.8 1.636-1.23 5.67-2.535 6.865-8.91-.52-3.179-12.45 2.535-6.865zm55.22-1.337c-.504.268-.058 1.552.735 1.899 6.815 2.976 10.31 3.33 14.186 1.961 1.606-.567 2.483-1.9 2.563-2.548.094-.77-.943-.845-2.759-.029-5.526 2.2-8.993.485-13.455-1.22-.414-.157-.835-.212-1.27-.063zm-26.097.092l-.024 10.085-6.49-.117.076-1.492 4.858.146-.076-7.203-5.636-.053-.01-1.337 7.301-.03zm1.507.024l6.476.01.324 1.027h-6.8v-1.037zm-26.125 3.202c-.426.387-1.17.473-1.475.16-.685-.702.01-1.994 1.103-1.985 1.095.009 1.188 1.082.372 1.825zm2.983-1.64c.98.006 1.303.932.558 1.682-.504.466-.763.496-1.217.155-.572-.51-.273-1.803.659-1.836zm-6.39.25c.257-.01.483.017.649.276.595 1.237-1.358 2.093-1.766 1.173-.3-.747.458-1.424 1.117-1.449zm36.619.135l.377 1.298-7.464.034v-1.298l7.087-.034zm-26.715.374c1.113.135.942 1.272.425 1.777-.887.834-1.748.563-1.522-.557.141-.7.588-1.207 1.097-1.22zm-6.001 3.72c-.393 1.42.445 4.292.195 4.593-.544.655-1.42.319-1.808.095-1.348-.879-1.433-6.033-.129-6.34.839.426 1.402-.337 1.785-.449.383-.11.127.591-.043 2.1zm19.727-2.118c.735 0 1.331.606 1.331 1.352 0 .746-.596 1.351-1.331 1.351a1.342 1.342 0 0 1-1.332-1.351c0-.746.597-1.352 1.332-1.352zm5.902.175h7.635c.458.646.41 1.083.282 1.53l-7.917.01v-1.54zm-22.42.176c.348-.004.522.753.289 1.618-.42 1.562-.398 3.688-.11 4.61.194.636.385 1.073.272 1.254-.395.633-1.605.2-2.119-.635-1.253-2.36-1.054-6.764.444-6.423.563.287.885-.161 1.223-.424zm-6.73.594c-.37.598-.107 3.952-.144 4.229-.047.349-.991.169-1.517-.073-1.296-.617-.944-2.184-.692-3.449.283-.993.906-1.068 1.675-1.158.425-.049.985-.011.677.45v.001zm10.385.185c.412-.015.47.293.375 1.535-.074.972-.11 1.8.047 2.717.332 1.948.373 2.477-.11 2.858-.572.452-1.344.316-1.941-.218-1.226-.986-1.307-5.82-.344-6.239.895.226 1.458-.492 1.972-.653zm26.367 1.462L86.245 268h-6.508v-1.525l7.601-.005h.005zm-23.21 2.048c1.016.011.848 1.835.302 2.979-.464.691-.803.761-1.499.113-.79-.737.149-3.097 1.198-3.092zm21.31.51l-.915.852-4.772.005v-.848l5.688-.01z"/>
        <path fill="#B388FF" d="M53.495 232.64l-7.912-6.298c9.41-.209 18.817.012 28.226.175l-9.397 6.796c-1.924-2.134-3.06-5-5.79-6.383-2.033.852-3.423 3.79-5.127 5.71zm69.012-2.294c-.217-.137-.356-.445-.515-1.457-2.348-11.118-13.892-10.33-13.815-10.004-.086-.438 14.347-13.668 22.832-24.047 2.564 7.932 10.337 26.054 10.014 25.988 0 0-2.25.02-8.08-.128-5.308 2.432-9 4.801-8.827 8.23-.03 1.208-.317 1.711-.713 1.607-.319-.037-.607-.125-.896-.189zm26.305-35.686c7.509-.12 8.925-3.843 9.78-4.291 4.933-.824 7.98 2.435 10.142 5.922 2.76 1.686 2.415.129 2.987-2.499l6.872-2.044-.01 2.222c-2.122 1.16-5.27 4.132-5.27 4.132l-2.092-.125-1.2 1.622c-4.774 2.622-9.455 5.745-14.49 7.771 0 0-6.032-7.917-6.722-12.71h.003zm-93.559.697l-.078-43.956c3.106-.222 8.825-.194 8.825-.194 2.39-4.283 5.651-6.297 9.012-8.786a147.92 147.92 0 0 1 .544 16.015c-8.9 11.025-13.842 24.595-8.355 44.876l-3.292-.37-6.656-7.585zm49.173 2.464c2.534-9.169 4.502-18.471 5.318-28.076l16.941-.255.338 5.889-22.597 22.442zm57.686-20.016l-.315-16.446c12.364-14.994 13.095-28.07 8.51-44.601 4.084.954 6.187 4.185 10.078 8.64v42.886c-2.705.409-9.408.809-9.408.809-.203 2.01-5.869 6.814-8.868 8.712h.003zm-52.352-25.92l-.754-7.251 22.014-21.344c-1.817 9.249-4.015 18.745-4.656 28.59l-16.604.005zm-36.524-22.651c-1.571 1.046-7.363-5.063-8.31-9.17 1.452-1.992 14.198-8.33 14.198-8.33s7.449 9.705 7.144 13.752c-3.308.893-6.178 1.147-8.69 3.885-1.436.13-1.941-1.51-4.342-.137zm-10.053-8.206c1.773.29.636 2.717.364 4.495l-9.367 2.819c3.22-2.789 5.504-5.163 9.003-7.314zm30.5-21.458c1.926-.059 3.934.747 5.418.14.555-.22 1.665-.56 2.88-.326 2.8.879 3.782-2.252 5.567-2.266 2.31.006 3.591-1.635 3.606-4.919.01-1.42.124-1.58.387-1.722.788-.423 1.63.17 1.734.95 1.657 6.05 5.84 11.49 12.436 11.057-5.253 5.434-21.23 22.14-21.23 22.14-2.878-8.9-6.7-17.184-10.797-25.054zm67.97-5.213l9.624-7.09 5.76 7.116 4.98-6.774c2.928 2.128 9.584 6.872 9.584 6.872s-19.96.3-29.948-.124z"/>
        <path fill="#B388FF" d="M167.113 30.086l-88.47.576 17.193 23.309c18.265-3.775 34.166-1.322 50.668 1.603l20.609-25.488zm-2.262 1.182l-5.888 7.425c-1.63-1.495-5.266-.955-4.751 2.317-4.513-2.382-5.47 4.157-1.639 3.888-.48 1.284-4.349 1.623-5.44-.707-3.972 2.26-5.185.068-6.236-1.356 5.047 3.478 7.503-3.671 1.947-4.074 2.182-4.482-5.603-6.516-5.144-.683-5.136-1.181-3.958 6.153-.187 4.65-2.449 3.739-6.468 1.227-7.281.5-2.066 1.572-5.973 1.622-7.067-.892 5.714 1.166 5.089-6.472.014-4.713 2.705-5.867-6.295-5.077-4.109-.271-5.12-.199-3.987 6.21.51 5.12-3.995 3.822-6.988.26-7.62.184-2.365 2.649-6.52 1.197-7.09-.368 4.075 1.634 5.411-5.317.273-4.9 1.316-4.477-6.077-5.02-4.445.066-4.074-.937-4.296 5.685.268 4.654.282 1.814-3.308 3.55-5.516 1.797-1.62.9-3.394 2.302-5.502.228 3.211-.525 3.74-6.034-1.446-4.844.247-3.382-1.666-3.566-4.03-2.708l-3.787-5.207 84.166-.106zm-61.031 8.307c-.282.63-.757 1.06-.646 1.54.091.394.49.94 1.047 1.681 4.426 5.857 13.4 5.66 16.1-.378.55-1.121.438-1.376-.225-2.33-.8-1.151.104-2.38 1.083-2.276 1.463.154 1.716 1.448 1.012 2.368-1.527 1.952 2.668 6.369 6.857 7.063 5.37.89 10.462-2.944 9.753-6.38-.041-.196-.14-.38-.18-.586-.572-2.876 3.922-1.498 2.304.335-.607.662-.935.86-.854 1.588 1.305 6.087 8.596 6.725 12.068 4.849-4.48 7.417-11.577 1.7-12.827-3.483-6.29 9.22-13.849 7.304-18.06-.799.497.505-8.299 14.524-18.282.15-4.226 11.57-11.932 3.749-11.404 3.275 3.54 2.002 9.968 1.277 10.588-4.912.085-.764-.486-.811-.816-1.414-1.673-3.059 3.727-3.08 2.482-.291zm-16.635.76c.8.076.935.414.802 1.24l-.802-1.24zm68.652 2.175l-1.16 1.478c-.276-.723-.283-1.387 1.16-1.478zm12.612.49c-2.752.118-4.877 3.978-4.738 9.125.067 2.497.5 8.761.668 9.693.235 1.302-.021 3.069-.473 3.255-1.19.491-1.64.808-1.96 1.385-.837 1.5-.145 3.194 1.617 3.953 1.258.542 2.853-.206 3.932-1.84.6-.909.74-1.312 1.269-3.595.244-1.05.222-2.794-.057-4.393-.634-3.637-.163-8.166 1.069-10.293 2.208-3.815 2.168-6.313-.115-7.102A3.267 3.267 0 0 0 168.45 43zm-.143.58c3.203.013 3.116 3.256 1.34 4.254-.688.312-1.53.385-2.37-.175-.946-.554-.817.078.162.8 1.149.846 1.639.794 1.02 2.78-.575 1.85-.877 5.847-.562 8.118.861 6.214.133 9.312-2.444 10.39-1.27.532-2.64-.217-2.993-1.253-.551-1.62.431-3.011 2.856-2.622 0 0 .171-.516-.459-5.91-.876-7.502-.532-12.74.825-14.57.725-.977 1.662-1.815 2.625-1.811zm21.726 7.736c-.749.006-1.554.213-2.376.683 0 0-.09 3.374-.186 3.885-.545 2.854-.385 3.194.925 3.6 3.18.982 5.79-1.159 5.674-4.515-.065-1.887-1.791-3.672-4.037-3.653zm.43.45c1.737-.052 3.315 2.01 3.144 3.953-.09 2.326-2.282 3.594-4.247 3.188-.581-.09-1.182-.201-1.37-.645-.393-.616.24-.839 1.561-.833 1.447.007 1.715-.194 2.195-1.017.951-1.63-.266-3.696-1.818-3.308-.53.132-.607.375.014.552 1.902.87 1.194 2.085.534 2.577-.784.586-2.082-.217-2.304-.702l.133-3.149s.629-.597 2.157-.615zm-19.594 14.59s-.724.352-1.073.679c-.769.72-.93 1.81-.554 2.882.167.474.14.554-.444 1.327-1.663 2.2-1.878 3.3-1.025 5.285.387.9.39.9.024 2.092-1.57 5.11-4.665 10.903-7.97 14.914a4.27 4.27 0 0 0-.715 1.255s.773-.04 1.202-.257c3.415-1.724 7.022-5.065 10.374-7.256-5.302 4.366-10.951 8.273-10.951 8.273l7.215.393c-1.812 1.885-33.449 29.097-25.047 77.903 9.876-2.493 14.471-6.629 19.736-11.412.049 3.933.134 14.517.167 14.517.1-.174-4.57-1.786-3.46 2.117.661 2.14.995 7.559-.176 10.618-.05.129.503.334.448.455-.063.138-.749.14-.749.14-1.793 3.395-6.411 4.14-8.688 4.037-.84-.081-.5 1.087-.39 1.51.424 1.748 2.408 5.492 6.115 11.504l.973.13-.563.528c.437.81 1.607 2.332 1.607 2.332l.05.516s2.034 2.873 3.125 4.222c.074.092.245-.126.32-.035.605.739 1.331 1.566 1.947 2.303.048.057-.095.267-.047.321 1.16 1.282 3.437 3.874 3.437 3.874l.453-.11 1.791 2.049c14.864-6.861 30.397-22.039 30.235-22.006l.127-32.665-17.598-.053-.075-43.272 17.58 17.641-.115-5.062c-3.988-3.848-20.013-20.261-20.013-20.261 2.332-.33 4.592-1.1 6.78-2.306 3.823 2.135 7.91 3.417 12.593 2.785l-.019-4.8c-5.316-.01-8.614-1.798-10.999-3.958l-3.283-.11c-6.064 4.68-10.352 2.508-14.964 1.588l-3.188-4.66 32.654-.17-.234-11.31-4.958.112-3.221-2.418 3.736 1.604s-.059-.623-.806-1.807c-2.013-3.338-4.567-8.251-6.099-12.536-.74-2.176-.74-2.086-.114-3.361.859-1.752.673-3.874-.458-5.067-.797-.841-.772-1.02-.51-1.647 1.06-2.482-1.498-3.395-1.509-3.236-5.469 2.14-12.805-.064-12.674-.13zm12.722.901c1.092-.01 1.211.478 1.207 1.303-.093 1.514-2.034 2.062-2.91 2.272-4.196.976-11.511.398-11.987-1.589-.35-1.46.547-2.269 3.526-1.545 4.789 1.045 7.752-.079 10.164-.44zm-13.542 4.215c.435-.003.957.446 1.107 1.182.127.627-.516 2.475-1.055 2.901-1.333 1.054-2.537-.585-1.646-2.369.514-1.028 1.034-1.71 1.594-1.714zm14.315.208c.2.005.556.047.787.213 1.057.759 1.155 3.384.167 3.764-1.006.386-1.94-.679-1.932-2.35 0-1.023.38-1.642.978-1.627zm-3.354.542c.215-.01.443.036.677.146.88.412 1.308 3.166.434 4.044-.677.682-2.132.644-2.557-.77-.508-1.69.285-3.36 1.446-3.42zm-7.44.078c1.289.009 1.582 2.919.32 4.117-1.055 1.002-2.667.016-2.162-1.971.253-.994.832-2.076 1.842-2.146zm3.665.465c1.887.327 1.727 5.016-.744 4.548-1.408-.996-1.37-4.478.744-4.548zm-8.25 5.023l2.667.252c-.069-.042-4.244 8.958-7.978 11.34 2.052-3.468 3.85-7.603 5.31-11.592zm15.99.048c1.558 4.217 3.157 8.496 5.282 12.808-3.23-3.162-6.093-8.022-8.732-12.585l3.45-.223zm-12.54.407l1.765.02c.588 2.73 1.605 4.471 2.801 5.967 1.035-1.774 1.689-3.724 2.324-5.803l1.403-.019c.537.325-1.65 8.556-3.794 9.557-2.27-1.87-4.182-6.927-4.5-9.722zm-.745 1.948c-.148.196 2.743 7.247 5.187 9.508 2.305-2.27 3.775-5.26 4.762-8.826l7.583 10.802-7.392-5.134c-1.476 2.489-3.043 4.863-4.924 6.84-2.029-2.228-3.785-4.87-5.626-7.383-2.853 2.145-4.853 4.437-8.556 6.438.017.084 7.255-7.926 8.966-12.245zm-.71 7.677l5.158 6.399-13.734-.199 8.575-6.2zm11.17.102l8.666 6.055-12.913.135 4.247-6.19zm-69.043 2.979s.073.384.157.615c1.538 6.368 5.78 11.663 12.163 11.034l-20.981 21.289S100.98 111.954 93.96 99.72c0 0 1.28.267 2.281.465.938.145 1.65.1 2.353-.087.536-.08.947-.438 1.426-.543.81-.172 1.825.124 2.362.315 1.442.277 2.423-.542 4.228-2.16.48-.431.665-.327 1.27-.325 2.26.006 3.704-1.963 3.45-5.018l-.115-1.356-.286 1.525c-.54 2.877-.917 4.117-3.722 4.239-.68.03-.935.493-2.01 1.429-1.503 1.31-2.565 1.423-3.63.91-1.088-.523-1.189-.215-2.215.281-1.175.569-2.886.502-4.428.054-2.153-.626-1.89-.417-1.89-.417 12.469 22.526 16.849 44.132 16.573 63.324-.393 27.345-9.818 49.416-18.085 62.722 0 0 1.418-.146 2.681-.334.61-.172 1.078-.006 1.68.208.562.201.986.191 1.537.126.43-.05 1.48.008 2.157.107 1.534.223 1.636.02 3.306-1.628 4.742-4.674 4.434-4.501 7.87-4.388 5.153.17 9.276 3.621 10.993 9.218.217.707.502 1.7.54 1.7l-.334-1.482c-1.51-7.504-7.83-10.248-13.109-10.148l22.275-22.67c-.114.022 5.163 17.25 9.759 24.927.01.053-1.394-.613-3.957-.275-1.393.183-2.952-.003-3.827-.155-1.127-.029-1.813.308-3.215 1.481-.583.507-1.108 1.062-2.248 1.55-2.71 1.161-3.789 2.362-3.803 5.377 0 .548-.085 1.25-.076 1.52 0 .073 0 .202.014.202.046 0 .109-.112.162-.191.135-.201.408-.747.619-2.01.375-2.254.842-3.043 2.946-4.042.631-.3 1.96-1.117 2.55-1.595 1.939-1.569 2.585-1.927 4.159-1.556.896.212 1.657.321 2.858.173 1.429-.175 1.513-.25 3.041.15 1.038.272 2.32.535 2.32.535-21.588-44.006-20.876-84.802.432-126.193 0 0-6.307.076-6.575.242-.102.063-.869-.007-1.704-.16-1.716-.314-1.34-.103-5.392 4.03-5.008 5.11-13.02 1.034-15.432-7.541-.126-.449-.235-.72-.425-1.037a2.338 2.338 0 0 0-.22-.271zm20.41 5.032c.927.1 1.618.348 1.502 1.23l-29.733 29.553-.463-1.904 28.693-28.879zm6.269.18c-.366.733-1.359 1.652-1.794 2.344l1.617 2.044-.897 1.647-2.486-2.122-4.734 4.743 3.947 4.495-3.737 3.826-1.245-1.429 1.975-2.097-3.068-2.916-5.406 5.333 4.404 4.544-3.23 3.143-1.289-1.24 1.694-1.899-2.872-3.012-5.035 5.212 3.985 4.5-3.078 3.1-1.365-1.405 1.48-1.565-2.85-3.027-5.129 5.134 4.161 4.583-3.059 2.775-1.078-1.158 1.48-1.613-2.797-3.037-3.183 2.93-.53-2.01 31.485-31.746 2.634-.077zm1.813.47l-1.326 2.702-1.026-1.143 1.336-1.395 1.016-.165zm-74.259.174c-.816.202-19.562 10.802-30.234 22.437l-.033 4.335-.396.518.19 6.709.268.358.09 2.737-.424.722v7.513l.568.096.091 9.194 17.532.048-.02 43.924S44.678 183.91 37.265 177.13l.029 5.135 19.612 20.567c-1.35.192-3.104.523-5.75 2.005-6.364-4.034-13.72-2.8-13.72-2.8l.03 5.232c4.677-.459 8.898.19 13.814 3.55 4.047-2.784 8.925-4.478 16.196-2.267 1.6 2.572 3.2 5.226 4.8 6.95l-34.724.263.043 10.593c1.54.032 5.392 0 5.392 0 1.953 3.884 5.792 9.187 7.386 15.858-2.189 2.667-2.014 4.815.115 7.501-.02 1.212-.379 2.55.963 3.9 4.418-2.192 9.406-1.22 13.119-.1 1.257.38 1.733-1.075 1.689-2.906-.112-1.048-.106-1.496.687-2.194 1.889-1.663.716-5.078.42-5.154-.11-2.994 9.346-17.997 9.352-17.722l-1.884.693-8.084.037c21.262-20.809 30.148-44.546 28.288-71.35-.415-6.753-1.45-9.847-1.45-9.847-7.49 3.377-13.644 5.833-19.623 12.332l-.396-13.97c.333.662 2.552 1.272 3.546.427.68-.452.748-.935.119-2.63-.913-2.462-1.13-7.74-.448-9.533.08-.21.147-.766.205-1.313.078-.735-.081-.777-.148-.765.174-.043.905.107.992.029 2.555-2.281 5.295-3.707 8.656-3.856l.086-1.666c-2.493-6.39-4.604-8.896-6.862-12.468 0 0-.64-.216-1.045-.13l.52-.558c-3.167-5.102-7.675-9.745-11.82-14.154.013-.015 0-.02-.023-.014h-.007zm-.138.867l2.247 2.107c-10.725 5.233-21.307 12.9-31.728 23.299l.144-3.822c11.778-11.243 20.663-16.644 29.337-21.584zm68.88 3.822l1.351 1.366-1.87 2.204 1.217 1.259-.678 1.68-3.111-3.278 3.092-3.231zm-66.957.174c.706 0 1.279.581 1.279 1.298 0 .717-.573 1.298-1.28 1.298a1.289 1.289 0 0 1-1.278-1.298c0-.717.573-1.298 1.279-1.298zm91.78 1.792c21.865 24.702 10.638 60.6-18.547 69.224l-.325-2.03c29.445-10.067 36.352-43.747 17.246-64.922l1.627-2.272zm-87.991.165l1.393 1.637c-12.465 6.04-24.623 15.094-36.376 28.157l-.114-3.298c11.038-11.777 22.838-20.297 35.097-26.496zm-8.04.504c.705 0 1.278.581 1.278 1.298 0 .717-.573 1.298-1.279 1.298a1.289 1.289 0 0 1-1.279-1.298c0-.717.573-1.298 1.28-1.298zm-3.895 2.441c.707 0 1.28.581 1.28 1.298 0 .717-.573 1.298-1.28 1.298a1.289 1.289 0 0 1-1.279-1.298c0-.717.573-1.298 1.28-1.298zm12.965.853c.707 0 1.28.58 1.28 1.298 0 .717-.573 1.298-1.28 1.298a1.289 1.289 0 0 1-1.279-1.298c0-.717.573-1.298 1.28-1.298zm55.54.896l1.278 1.37-2.028 2.064 2.887 3.061 2.777-2.712-1.393 4.04-24.484 24.839-.51-2.606 1.927-1.967-2.954-2.993-.52-1.996 2.906-2.761 1.217 1.269-1.699 1.99 2.735 2.733 4.967-4.64-4.099-4.568 3.383-3.323 1.17 1.157-1.618 1.691 2.848 3.134 5.097-4.955-4.185-4.49 3.364-3.367 1.274 1.235-1.694 2.064 2.897 2.843 4.991-5.004-4.104-4.379 3.57-3.73zm-72.322.872c.706 0 1.279.58 1.279 1.298 0 .717-.573 1.298-1.28 1.298a1.289 1.289 0 0 1-1.278-1.298c0-.717.573-1.298 1.279-1.298zm20.165.251l.974 1.643c-14.839 7.609-25.102 15.23-40.288 32.744v-2.204c11.724-14.612 23.913-24.032 39.314-32.183zm-7.453.194c.706 0 1.279.581 1.279 1.298 0 .717-.573 1.298-1.28 1.298a1.289 1.289 0 0 1-1.278-1.298c0-.717.573-1.298 1.279-1.298zm114.815.5c2.617 2.363 8.115 4.72 11.657 4.47l.095 2.843c-6.18.596-11.576-3.42-11.576-3.42-4.76 2.946-9.604 3.317-14.654 2.04l-1.943-4.224c7.49 3.524 14.514.161 16.42-1.71zm-29.571.77c.274.513 1.197 1.109 1.197 1.109 5.765-1.524 7.56 4.508 4.872 7.953l.769 2.529c1.028.189 1.93.555 2.662 1.07 1.403.987 2.175 2.697 2 4.49.195 1.944-2.67 3.754-2.825 3.619l-.038 2.78c.806.682 1.777 1.341 2.395 2.306 1.378 2.347.832 4.712-1.293 6.2-1.265.867-2.636.981-2.691.891l-1.331 3.158c1.172.672 1.5 1.814 1.684 2.63.398 1.77-.826 4.076-2.362 4.927-1.94 1.074-4.583.12-4.581.12l-1.89 1.919c.487 1.662.62 2.653.363 3.628-.637 2.413-3.128 3.359-5.13 3.177-1.571-.142-2.753-1.307-2.753-1.307l-2.095.813c.06 0 .031 2.693-1.026 3.517-.332.35-1.512 1.124-1.512 1.124l-.277-1.855c.83-.607 1.346-2.077 1.178-3.154l4.524-2.247c0 .166 1.239 1.384 2.085 1.56 1.737.359 3.552-1.017 3.555-2.636 0-.944-.534-1.587-.687-2.349l3.841-4.035c1.59.555 2.706.65 3.417.233 1.343-.787 1.705-2.41 1.446-3.386-.306-1.154-1.32-1.901-1.389-2.01l2.143-5.498c.999-.005 1.617-.164 2.395-.678 1.589-1.059 1.384-3.116.707-4.093-.824-1.189-2.02-1.41-2.114-1.38l.157-5.712c0 .047 2.167-1.056 2.4-2.33.344-1.875-.435-3.068-2.705-3.598-1.26-.295-1.193-.049-1.193-.049l-1.794-5.168c2.843-1.76 1.942-4.559.5-5.498-1.519-.99-3.664-.073-3.664-.073s-.977-.984-1.718-1.777l.778-.92zm-76.092 1.046c1.869 2.55 5.032 7.659 6.8 12.23.077.2.038 1.211.038 1.211-5.045.446-6.777 2.453-8.57 3.866-1.39-.725-1.976-1.574-4.49.024-.01.075-6.41-3.93-7.635-9.368 4.577-2.863 8.937-5.588 13.857-7.963zm-25.61.033c.706 0 1.279.582 1.279 1.299s-.573 1.298-1.279 1.298a1.289 1.289 0 0 1-1.279-1.298c0-.717.573-1.299 1.279-1.299zm12.125.257c.706 0 1.279.581 1.279 1.298 0 .717-.573 1.298-1.279 1.298a1.289 1.289 0 0 1-1.279-1.298c0-.717.573-1.298 1.28-1.298zm87.515 1.594c2.205 2.945 5.528 8.514 6.318 13.446 1.112 6.937.371 14.214-2.763 19.303-5.685 10.87-15.545 13.184-15.551 13.563l-.1-2.228c.093.5 7.535-2.682 12.602-9.867 3.128-4.87 4.904-11.829 4.3-17.259-.377-7.826-5.848-15.043-5.894-15.07l1.088-1.888zm-103.63 1.06c.707 0 1.28.582 1.28 1.299s-.573 1.298-1.28 1.298a1.289 1.289 0 0 1-1.278-1.298c0-.717.572-1.298 1.279-1.298zm12.112.02c.706 0 1.278.581 1.278 1.298 0 .717-.572 1.298-1.278 1.298a1.289 1.289 0 0 1-1.28-1.298c0-.717.573-1.298 1.28-1.298zm109.188 2.19c2.839.312 6.309 5.534 9.468 8.515l.033 42.577-9.434.194c-1.229 2.996-4.079 5.956-8.618 8.879v-15.956c15.48-16.834 11.269-35.26 8.556-44.21h-.005zm-124.773.484c.706 0 1.279.581 1.279 1.298 0 .717-.573 1.298-1.28 1.298a1.289 1.289 0 0 1-1.278-1.298c0-.717.573-1.298 1.279-1.298zm11.657.232c.707 0 1.28.582 1.28 1.298 0 .717-.573 1.299-1.28 1.299a1.289 1.289 0 0 1-1.278-1.299c0-.716.572-1.298 1.278-1.298zm119.768.102l19.288 19.739-.067 2.896-21.736-22.417 2.515-.218zm-112.696 1.855l.51 2.48c-.622-.994-.646-1.361-1.727-1.535l1.217-.945zm-10.44.722c.706 0 1.278.581 1.278 1.298 0 .717-.572 1.298-1.279 1.298a1.289 1.289 0 0 1-1.278-1.298c0-.717.572-1.298 1.278-1.298zm-11.553.363c.706 0 1.279.581 1.279 1.298 0 .717-.573 1.299-1.28 1.299a1.289 1.289 0 0 1-1.278-1.299c0-.717.573-1.298 1.279-1.298zm108.516 0l3.808 2.737-1.241 4.936-3.899-3.556 1.332-4.117zm-87.997.402l.677.407-.787 3.376-8.766 3.212c2.819-2.443 5.716-5.106 8.876-6.995zm1.436 1.57c.623 2.502 1.975 6.202 3.632 9.336-1.125.59-5.17 2.913-5.159 3.994.57 1.958 4.843 3.754 4.843 3.754a49.524 49.524 0 0 0-4.418 9.421c-.73-1.262-.815-6.238.758-8.307-1.551-.62-3.673-2.04-5.287-3.507 1.04-3.737 5.475-5.968 5.67-5.997-.079.188-1.31-7.805-.039-8.694zm-14.23.63c.707 0 1.28.58 1.28 1.298 0 .716-.573 1.298-1.28 1.298a1.289 1.289 0 0 1-1.278-1.298c0-.717.572-1.299 1.278-1.299zm97.632.106c5.69 10.76 2.306 20.108-6.771 26.806l.21-2.538c6.262-4.613 10.318-13.692 5.745-22.35l.816-1.918zm-108.435.31c.706 0 1.279.581 1.279 1.298 0 .717-.573 1.298-1.279 1.298a1.289 1.289 0 0 1-1.279-1.298c0-.717.573-1.298 1.28-1.298zm91.022.068c-4.175 15.8-4.071 23.04-4.557 27.324l-16.21.14-.63-5.696 21.397-21.768zm-64.758.436s3.516 3.312 6.671 6.205l-.377.755-3.068.417c-2.348-4.693-3.226-7.377-3.226-7.377zm-2.91 1.734l.023.005.196 2.354c-1.053-.04-12.453 4.794-21.21 12.512 1.305-2.335 3.506-4.573 5.635-6.482 4.528-4.512 15.355-8.39 15.355-8.39zm-16.206.537c.707 0 1.28.582 1.28 1.299s-.573 1.298-1.28 1.298a1.289 1.289 0 0 1-1.279-1.298c0-.717.573-1.299 1.28-1.299zm7.177 1.478l.65.678-3.026 1.589 2.376-2.267zm21.092.692a.737.737 0 0 1 .128.005c.469.06.663.286.93.514-.591-.125-1.172-.195-1.727-.165.14-.17.38-.342.669-.353zm-11.577.49l.277 1.758c-6.56 3.785-14.362 7.363-25.715 18.258v-3.625c7.125-6.7 15.435-12.32 25.438-16.391zm8.823.164c.41.102.774.108 1.145.015 0 0-.238.478-.52.49-.298.01-.625-.505-.625-.505zm2.782.102c.825-.052 1.388.714 1.222 1.7-.634 3.342-.609 6.727.072 9.092.53 1.844.664 2.492.224 2.8-3.866 2.707-5.986-9.496-2.758-12.957.438-.418.866-.611 1.24-.635zm-31.575.426c.706 0 1.279.582 1.279 1.299 0 .716-.573 1.298-1.279 1.298a1.289 1.289 0 0 1-1.279-1.298c0-.717.573-1.299 1.279-1.299zm111.121.3l2.405 4.094-3.35 3.807-2.037-4.422 2.982-3.478zm-82.762 2.224l-.125 1.413c-1.727.532-3.232 1.288-4.528 2.404-.25.218 4.002 2.165 4.448 1.715l-.01 1.506c-.06.495-7.03-1.752-7.502-3.43.79-1.115 5.201-3.709 7.716-3.608zm-31.723.75c.706 0 1.279.582 1.279 1.299s-.573 1.298-1.28 1.298a1.289 1.289 0 0 1-1.278-1.298c0-.717.573-1.298 1.279-1.298zm19.012 1.491c-.495.954-1.227 2.222-1.368 3.607-4.782 2.944-9.687 5.693-15.654 12.447l-3.216-.02-.072-.857c6.522-6.31 13.584-11.756 20.31-15.177zm12.32.409l.033 1.777c-1.112.014-1.72-.354-2.548-.78.698-.447 1.239-.891 2.514-.997zm35.984.189l.897.954-.558.533-.34-1.487zm-48.453 3.695l1.77 1.12c-4.558 2.414-9.357 5.98-13.509 10.641h-3.507c4.43-4.873 9.2-9.245 15.246-11.76zm94.444 1.284l.353 4.834-4.448 2.475.086-5.1 4.009-2.209zm-84.576.02l3.059.338.315 1.313c-2.567 1.657-4.796 3.6-6.934 5.619.819-2.594 2.097-5.169 3.56-7.27zm-7.334.518l1.312.615-.52 2.272c-3.747 1.69-6.733 3.974-9.93 7.052h-3.598c3.15-3.427 8.39-7.742 12.736-9.94zm11.38 2.136c.012-.001.016-.001.015.005l.477 14.9c-13.212 15.7-12.494 30.882-8.642 44.65l-2.52-.116c-2.928-3.693-6.823-7.455-6.823-7.455l-.01-43.343 9.11.034c2.147-5.044 8.055-8.634 8.393-8.675zm-10.755 2.092l.11 1.986a26.438 26.438 0 0 0-4.858 3.725h-3.422c2.366-2.234 4.713-4.483 8.17-5.71zm31.06.974l.5 2.344c-30.664 11.26-36.206 43.993-18.108 66.463l-1.232 1.395c-20.78-22.653-11.66-59.656 18.84-70.202zm-30.817 2.344s.168 1.796.22 2.393h-3.436c.773-.92 1.459-1.873 3.216-2.393zm86.294.751l-1.976 4.674-5.273.083 2.396-4.674 4.853-.083zm-33.38 3.202h4.806v4.66h-4.805v-4.66zm-20.795.46l.081 2.049c-2.135 1.103-1.596 2.857-2.133 2.829-1.312.337-4.772 2.199-4.772 2.199-1.227-1.13-2.881-.845-3.65-.296-1.067.709-1.302 2.358-.997 3.754l-3.67 4.355c-1.772-.769-3.5-.72-4.361.48-.972 1.354-.604 3.033 1.002 4.916l-2 5.207c-.23-.311-3.576.686-3.621 2.703-.048 2.135 2.766 3.528 2.762 3.691l-.133 5.745c-.127-.276-2.873.861-2.5 3.613.342 2.535 3.741 2.226 3.812 2.437l1.847 5.498c-.124-.168-2.503 2.196-1.045 4.432 1.215 1.863 4.744.658 4.714.537l.978 1.4-1.083 1.192s-.468-.57-.73-.518c-2.054.398-4.348-.08-5.45-1.744-1.498-2.349.175-6.018.707-5.987l-1.27-3.168c-2.312-.046-4.27-2.143-4.375-3.9-.219-3.677 2.756-5.216 2.763-5.192l.086-3.43c-.182.206-2.938-1.78-2.873-4.059.048-1.665 1.43-3.624 3.13-4.412.493-.235 1.26-.606 1.26-.606l1.15-2.81s-1.628-2.387-1.207-4.795c.784-3.645 5.464-3.395 6.203-3.042l2.172-2.76c-1.07-2.52.777-5.443 3.192-5.92 1.073-.174 4.08.548 4.08.548l2.782-1.458c-.048-1.544 1.611-2.548 3.15-3.488zm15.819 5.1h4.118v4.66h-4.118v-4.66zm10.97 0h4.643v4.66h-4.643v-4.66zm-26.455 1.168l-.053 1.783c-26.585 13.084-15.712 40.176-11.92 43.328l-.854 1.913c-4.665-2.88-16.692-34.14 12.827-47.024zm20.462 4.718h4.996l.043 4.79h-4.996l-.043-4.79zm-21.616 2.33l-1.585 4.364-4.881.417 1.803-4.355 4.663-.426zm99.75 3.192l3.34.02c-6.245 7.413-12.984 12.466-19.636 15.233 0 0-.023-.66.181-1.182.162-.413-.1-1.458-.1-1.458 7.394-3.696 12.473-7.99 16.215-12.613zm-17.117.063c-.86 1.049-1.84 1.973-3.059 2.657l-.482-2.7c1.022-.013 3.54.043 3.54.043zm5.879-.058c.338.863-8.767 5.853-8.799 5.428l.024-1.66 4.913-3.7 3.862-.068zm1.966 0h.019l2.562.014c-2.314 3.706-14.555 10.435-14.046 9.488l.493-2.71c3.946-1.762 7.528-4.158 10.972-6.792zm4.318 0l3.372.014c-5.072 6.54-10.218 8.926-15.155 11.74-.296-.044-.162-.157-1.086-.13l-1.689-1.336c.316.293 11.345-6.27 14.558-10.288zm-94.343.232l-.115 1.977c-7.096 6.194-9.943 14.11-6.25 23.298l-.879 1.962c-3.97-9.804-2.798-19.33 7.244-27.237zm32.315.31l.377 5.333-22.032 21.769c3.354-12.162 4.282-19.503 5.182-27.073l16.473-.029zm70.55 1.255l.01 2.96c-8.685 9.712-17.44 14.064-25.003 15.824l-.172-1.138 3.502-2.19c11.286-4.99 16.229-10.014 21.664-15.456zm-26.36.08c.152 2.138-1.724 6.176-3.869 8.455l-3.674-.01-.405-1.618c3.045-1.668 5.867-3.925 7.947-6.828zm1.108.637c1.35 2.204-.675 7.908-.758 7.682-.162.393 11.543 2.905-.482 8.782.262 1.727 1.389 5.414.52 7.692-.271-.873-2.363-6.788-3.98-8.302 3.754-1.086 6.458-3.417 6.165-4.185-.61-1.093-2.291-2.436-5.12-3.42 2.408-3.392 3.124-5.938 3.655-8.25zm-85.964 1.08l.377 4.495-4.275 2.61-.33-4.935 4.228-2.17zm74.383 4.175c.334.004.648.092.802.262 2.112.867 2.265 11.326.348 12.39-1.393.889-2.372-.54-2.324-.794.924-4.812.347-7.787-.038-11.15.041-.49.656-.715 1.212-.708zm36.834.155v3.72c-12.417 13.065-25.795 23.363-39.453 29.146l-1.246-2.146c16.588-7.786 30.459-18.894 40.699-30.72zm-2.18.34c-5.752 8.125-12.759 13.43-22.357 15.839l-.181-2.306c11.954-2.757 22.848-13.534 22.537-13.534zm-156.516 1.317c7.49 7.772 15.165 15.476 22.79 23.454l-3.03.16-19.851-20.906.09-2.708zm89.166.387l.267 1.919-2.18 2.426 3.445 3.76.176.886-2.958 3.138-1.337-1.341 1.637-1.865-2.777-2.965-5.149 5.028 4.242 4.675-3.202 3.09-1.26-1.322 1.637-1.919-2.844-3.046-5.249 5.299 3.97 4.451-2.648 2.974-1.255-1.341 1.36-1.584-2.877-3.008-5.044 4.93 4.152 4.66-3.374 3.41-1.308-1.288 1.895-2.092-3.111-3.009-2.496 2.393s.941-2.374 1.078-2.775c.201-.59 1.028-1.057 6.275-6.312 6.263-6.328 12.686-12.258 18.935-19.172zm35.922 1.28c1.83.03 4.945.478 6.456 1.288 2.805 1.501 1.923 2.683.1 3.565-2.178 1.053-3.966 1.569-6.427 1.642l.072-1.226c1.43-.35 2.912-.705 4.175-1.414.869-.488 1.093-.882 1.093-.882s-.847-.874-2.195-1.37c-.987-.364-2.397-.361-3.164-.49l-.11-1.114zm-81.923 1.617l2.305 3.507-2.73 4.645-2.619-4.006 3.044-4.146zm46.492.378c.081.66.905 3.23.473 2.732l-1.532-1.749 1.06-.983zm35.574.344c1.274.109 2.615.147 3.546.605-1.08.85-2.303 1.04-3.522 1.25l-.024-1.855zm31.976 1.753c.77 0 1.393.633 1.393 1.415 0 .78-.623 1.414-1.393 1.414s-1.393-.633-1.393-1.414c0-.782.624-1.415 1.393-1.415zm-71.911 2.451l1.188 1.168-1.537 1.816 2.787 2.979 3.45-3.28.458 2.084-32.324 32.284-1.794-.131 2.057-2.466-2.339-2.426.96-1.744 2.758 2.49 5.053-4.907-4.094-4.374 3.502-3.648 1.322 1.158-2.009 2.209 2.925 3.032 5.287-5.28-4.137-4.567 3.302-3.197 1.212 1.167-1.536 1.652 3.016 3.187 4.456-4.708-4.056-4.534 3.603-3.56 1.107 1.124-1.66 1.879 3.03 3.182 4.862-5.071-4.003-4.408 3.154-3.11zm68.676.843c.77 0 1.393.633 1.393 1.414 0 .782-.624 1.415-1.393 1.415-.77 0-1.394-.633-1.394-1.415 0-.78.624-1.414 1.394-1.414zm-26.274.063c2.195 2.617 3.516 5.528 3.78 8.66-1.754-2.7-3.986-5.096-6.91-7.178l.501-1.312 2.63-.17zm30.998.213v3.158c-9.793 11.262-21.68 19.75-33.885 25.658l-2.076-2.562c14.435-6.542 24.88-14.665 35.96-26.254zm-14.406 2.204l-3.97 3.13v-1.357l3.975-1.773h-.005zm-20.462.233c3.38 1.675 6.214 4.505 7.902 8.7-4.616 2.94-9.68 5.32-14.506 7.691-2.317-3.788-4.65-7.337-6.48-12.214 7.444-.056 9.487-4.184 9.539-4.216 1.794.688 2.17.77 3.545.039zm26.746.615c.694.013 1.388.552 1.413 1.36 0 .782-.624 1.415-1.394 1.415-.77 0-1.393-.633-1.393-1.414.15-.976.762-1.373 1.374-1.361zm-10.302.93l.01 1.366c-1.9 1.69-5.593 4.427-5.593 4.427l-1.527-.082.497-3.875c2.312-.473 4.553-1.16 6.613-1.836zm-97.235.16l3.645 3.042-1.116 4.717-3.589-2.765 1.06-4.994zm48.958.89l.34 1.367-29.953 30.056-1.704-.281 31.317-31.141zm55.258 1.163c.77 0 1.393.634 1.393 1.415s-.623 1.414-1.393 1.414-1.393-.633-1.393-1.414c0-.781.624-1.415 1.393-1.415zm11.061-.01c.164 0 .358-.012.358.146v2.6a1.377 1.377 0 0 1-.468.083c-.77 0-1.283-.633-1.283-1.414 0-.781.624-1.415 1.393-1.415zm-3.38 3.154c.77 0 1.393.633 1.393 1.414 0 .781-.623 1.414-1.393 1.414s-1.393-.633-1.393-1.414c0-.781.624-1.414 1.393-1.414zm-11.708.014c.77 0 1.393.634 1.393 1.415 0 .78-.624 1.414-1.393 1.414-.77 0-1.394-.633-1.394-1.414 0-.781.624-1.415 1.394-1.415zm-10.074.436l1.432.049-2.663 1.608c.49-.621.946-1.097 1.231-1.657zm25.54.662l.018 2.908c-6.851 6.952-15.503 14.164-28.731 21.114l-1.686-1.732c10.786-5.222 20.907-12.538 30.398-22.29zm-19.456 1.586c.77 0 1.394.633 1.394 1.414 0 .781-.624 1.415-1.394 1.415-.77 0-1.393-.634-1.393-1.415 0-.78.624-1.414 1.393-1.414zm12.388.106c.77 0 1.393.634 1.393 1.415 0 .78-.623 1.414-1.393 1.414s-1.393-.633-1.393-1.414c0-.781.624-1.415 1.393-1.415zm-138.764 5.677c4.727-2.785 8.527-3.111 13.943-2.271l1.618 3.24c-5.274-.949-10.83-.864-15.58 2.858-4.923-3.158-8.664-4.07-12.706-3.556l-.073-3.416c5.269-.747 9.997 1.086 12.798 3.145zm122.535-3.08c.77 0 1.394.633 1.394 1.414 0 .781-.624 1.414-1.394 1.414-.77 0-1.393-.633-1.393-1.414 0-.781.624-1.414 1.393-1.414zm12.74.58c.77 0 1.394.634 1.394 1.415s-.624 1.415-1.393 1.415c-.77 0-1.394-.634-1.394-1.415 0-.78.624-1.414 1.394-1.414zm-16.93 2.113c.77 0 1.394.633 1.394 1.414 0 .781-.624 1.415-1.394 1.415-.77 0-1.393-.634-1.393-1.415 0-.78.624-1.414 1.393-1.414zm12.99.82c.77 0 1.394.633 1.394 1.414 0 .782-.624 1.415-1.393 1.415-.77 0-1.393-.633-1.393-1.415 0-.78.623-1.414 1.393-1.414zm-17.284 1.68c.78 0 1.412.641 1.412 1.433s-.632 1.434-1.412 1.434c-.78 0-1.413-.642-1.413-1.434 0-.792.633-1.434 1.413-1.434zm13.561 1.186c.77 0 1.394.633 1.394 1.414 0 .781-.624 1.415-1.394 1.415-.77 0-1.393-.634-1.393-1.415 0-.78.624-1.414 1.393-1.414zm-17.689.978c.77 0 1.394.634 1.394 1.415s-.624 1.414-1.394 1.414c-.77 0-1.393-.633-1.393-1.414 0-.781.624-1.415 1.393-1.415zm-61.6 1.28l3.465 3.22-3.583 3.653-1.313-1.28 1.995-2.116-1.35-1.845.787-1.633zm75.445.312c.77 0 1.393.634 1.393 1.415 0 .78-.624 1.414-1.393 1.414-.77 0-1.394-.633-1.394-1.414 0-.781.624-1.415 1.394-1.415zm-4.012 2.395c.77 0 1.394.633 1.394 1.414 0 .781-.624 1.415-1.394 1.415-.77 0-1.393-.634-1.393-1.415s.624-1.414 1.393-1.414zm-4.36 2.402c.77 0 1.394.634 1.394 1.415 0 .78-.624 1.414-1.394 1.414-.77 0-1.393-.633-1.393-1.414 0-.781.624-1.415 1.393-1.415zm-71.658 4.001l1.131.935-1.775 2.17-1.355-.019 2-3.086zm-21.888 5.852c-3.95 1.984-5.826 3.24-8.58 5.672l-3.946-5.556 12.526-.116zm-26.87.039l10.517.15-3.498 5.023c-2.307-2.468-4.645-4.144-7.02-5.173zm12.526.547c1.14.368 4.122 4.683 5.526 7.038 2.99-2.414 5.92-5.112 9.114-6.563-3.799 4.071-7.133 8.283-9.506 12.356-.673-1.836-2.545-7.093-4.915-9.377-3.738 3.542-5.215 7.818-5.215 7.818a67.896 67.896 0 0 0-7.234-10.22c-.464-.636 3.409 1.807 7.243 5.594 1.08-2.761 3.97-6.537 4.987-6.646zm-12.631 2.713c1.805 1.456 6.717 7.851 7.282 11.697l-2.353.15c-1.25-3.95-3.352-7.897-4.93-11.847zm26.154.653c-1.778 3.703-3.985 7.485-5.569 11.582l-2.324-.102c2.546-5.646 3.473-6.68 7.893-11.48zm-13.328 1.647a.079.079 0 0 1 .057.015c2.209 3.06 3.25 6.034 3.908 9.654l-1.708-.068s-1.192-3.634-2.009-4.917c-.53-.784-.953-.684-1.326-.033-.843 1.535-1.159 3.074-1.632 4.747l-1.966-.146c-.364-2.743 3.986-9.181 4.676-9.252zm-.31 10.545c.8.012 1.634.89 1.627 2.434.062.723-.492 2.328-1.092 2.41-1.114.6-2.432-1.265-2.1-2.819.282-1.325.86-2.033 1.565-2.025zm-3.869.293c1.58.142 1.919 3.736 1.28 4.47-.735.74-2.678.215-2.862-1.065-.634-1.63.522-3.389 1.582-3.405zm7.782-.021c1.719.244 1.286 4.19.398 4.77-1.383.741-2.436-.5-1.97-2.354.376-1.493.936-2.381 1.572-2.416zm3.975.654c1.97.223.831 3.697-.029 4.404-1.25.988-2.455-.49-1.856-2.254.465-1.367 1.237-2.16 1.885-2.15zm-15.894.106c1.433.233 2.263 3.523 1.41 4.463-.445.539-1.74-.248-2.332-1.15-.71-1.082-.045-3.317.922-3.313zm15.248 7.166c.17 1.727-1.113 1.727-4.813.885-1.868-.426-5.179-.157-6.871.155-2.848.524-3.25.324-3.245-.853.01-1.365 1.602-2.14 5.296-2.256 2.643-.082 9.223-.109 9.633 2.069zm5.752-1.014c-4.405.42-5.577 6.024-5.092 8.094.387 3.46.223 7.084-.434 9.465-.47 1.71-.888 3.532-1.646 5.08-1.16 2.343-.86 4.08.859 5.014 1.41.767 3.149.505 4.237-.683 1.968-2.146 2.203-6.703.997-17.04-.425-3.648-.197-4.376 1.547-4.17 3.659-.03 3.513-5.755-.468-5.76zm-.53 4.708c-.985-.386-1.653.522-1.522 2.785.034 1.005.209 2.133.334 3.032 1.425 9.919.892 16.564-2.11 16.891-2.611.425-4.38-1.527-3.106-3.546.722-1.143 1.344-1.298 2.749-.697 1.93 1.215 1.447-.555-.291-1.86-1.115-.8-1.2-.8-.601-3.304.806-3.376 1.078-5.784.782-10.056-.416-3.02.578-7.028 4.367-7.264 3.83-.117 2.675 5.405-.602 4.019zM43.976 267.71c1.247.61 2.46.507 3.646.01.463-2.108.49-3.863 1.89-6.73-2.33-2.366-6.25-1.437-7.353 1.043-1.103 2.48-.076 4.75 1.817 5.677zm3.737-7.32c1.411.304 1.2 1.81-.13 1.318-3.166-1.513-5.748 3.042-3.192 4.757 1.305.74 1.88.316.587-.702-.53-.62-.396-.871-.076-1.492.664-1.252 3.077-1.05 2.906-.14-.549 2.885-.911 3.717-1.765 3.724-4.918.257-5.844-9.087 1.67-7.466zm41.777 5.189s-14.65 16.813-21.707 25.425l88.445-.417-16.83-23.57c-14.438 3.383-31.401 2.406-49.908-1.438zm-.44 5.371c2.21.025 4.723 1.654 6.896 7.082.118.051 9.727-14.813 18.047.577 1.358-3.455 9.195-12.466 18.252-.901 3.218-7.74 10.638-5.122 11.333-2.422-.156-.581-7.07-2.248-10.063 2.882-.554 1.086-.582 2.116.053 2.727 1.495 1.44-.133 3.502-1.836 2.329-.664-.457-.749-1.418-.24-2.11 1.504-1.137-1.576-4.676-4.109-5.95-3.475-1.747-8.323-.976-10.654 1.532-1.253 1.349-2.02 2.56-2.203 3.528-.097.45-.038.684.226.984 1.01 1.239.344 2.933-1.024 2.728-1.792-.27-1.552-1.97-.354-2.9.367-.183.228-.402.118-.72-3.272-9.352-15.466-7.57-16.784-1.094-.048.235-.153.482-.1.724.137.619.494 1.141.357 1.629-.56 1.989-3.01 1.418-3.122-.23-.05-.749.747-.975 1.137-1.659.233-.428.34-.953.117-1.43-3.305-7.027-8.977-5.556-11.791-3.968-.06.033 2.516-3.373 5.745-3.338zm-3.664 4.074c1.208-.044 2.308.56 3.336 1.768 3.463-1.859 5.925 1.36 5.516 1.671-4.904-3.23-6.496 4.298-1.664 4.012-2.124 4.458 5.46 6.369 4.609.67 4.68 1.66 5.452-4.864.711-4.766 1.532-2.692 5.508-1.951 7.19-.265 1.978-2.45 6.833-.113 7.315 1.982-5.445-2.832-5.994 5.823-.72 3.981-1.562 5.51 6.823 4.725 4.504-.024 5.223 1.743 4.512-6.18-.62-4.573-.311-.41 4.057-4.99 7.234-.687.43-.758 5.389-3.24 8.103.658-5.88-2.018-4.767 6.016-.554 4.418-1.127 5.322 6.475 4.459 4.533-.078 5.891 1.512 3.283-7.597-.857-4.233.675-3.661 5.626-2.144 5.572-1.58 0-.002 2.63-2.885 5.573-.774-4.6.393-3.035 6.69 1.312 4.897-.047 2.137 1.703 3.554 4.071 2.829l3.717 5.275-84.785.542 6.772-8.195c2.266 1.901 4.614 1.002 4.904-1.978 4.93 3.069 6.211-4.222 1.584-4.538.94-.65 1.817-.982 2.644-1.012zm-4.738 2.369c.293.21-.105 1.223-.754.93l.754-.93zm66.109 2.116c.252.366.43.603.682.97.121.326-1.322-.174-.682-.97zM65.815 85.875s-4.646-7.63-10.912-16.603c-4.192-6.004-7.544-12.505-7.855-18.105-.358-6.397 3.025-12.814 9.15-13.125 6.121-.311 8.606 4.932 9.617 9.255 1.011-4.323 3.496-9.566 9.617-9.255 6.125.31 9.508 6.728 9.15 13.125-.311 5.6-3.663 12.101-7.855 18.105-6.266 8.972-10.912 16.603-10.912 16.603zM168.885 235.816s-4.645 7.63-10.912 16.603c-4.192 6.004-7.543 12.505-7.855 18.105-.357 6.396 3.026 12.814 9.15 13.125 6.122.31 8.606-4.932 9.617-9.255 1.012 4.323 3.496 9.566 9.618 9.255 6.124-.311 9.507-6.729 9.15-13.125-.312-5.6-3.663-12.101-7.855-18.105-6.267-8.972-10.913-16.603-10.913-16.603z"/>
    </g>
</svg>
