<svg xmlns="http://www.w3.org/2000/svg" width="234" height="322" viewBox="0 0 234 322">
    <defs>
        <filter id="a" width="106.4%" height="104.7%" x="-3.2%" y="-2.3%" filterUnits="objectBoundingBox">
            <feOffset in="SourceAlpha" result="shadowOffsetOuter1"/>
            <feGaussianBlur in="shadowOffsetOuter1" result="shadowBlurOuter1" stdDeviation="2.5"/>
            <feColorMatrix in="shadowBlurOuter1" result="shadowMatrixOuter1" values="0 0 0 0 0.701960784 0 0 0 0 0.533333333 0 0 0 0 1 0 0 0 0.5 0"/>
            <feMerge>
                <feMergeNode in="shadowMatrixOuter1"/>
                <feMergeNode in="SourceGraphic"/>
            </feMerge>
        </filter>
    </defs>
    <g fill="none" fill-rule="nonzero" filter="url(#a)" opacity=".5">
        <rect width="222.232" height="310.814" x="5.784" y="5.438" stroke="#FFF" stroke-width=".997" rx="10.63"/>
        <path fill="#B388FF" d="M22.925 75.188s-2.215-3.18-5.203-6.918c-1.998-2.502-3.596-5.21-3.745-7.544-.17-2.665 1.443-5.34 4.363-5.469 2.918-.13 4.102 2.055 4.585 3.856.482-1.8 1.666-3.985 4.585-3.856 2.92.13 4.533 2.804 4.362 5.47-.148 2.332-1.746 5.041-3.745 7.543-2.988 3.738-5.202 6.918-5.202 6.918zM210.876 246.503s-2.215 3.18-5.202 6.918c-1.999 2.502-3.597 5.21-3.745 7.544-.17 2.665 1.442 5.339 4.362 5.469 2.918.13 4.103-2.056 4.585-3.857.482 1.801 1.667 3.986 4.585 3.857 2.92-.13 4.533-2.804 4.363-5.47-.149-2.333-1.747-5.041-3.745-7.543-2.988-3.738-5.203-6.918-5.203-6.918zM22.817 19.232v3.443h3.34s.08 3.319.11 10.36c.025 6.836.165 10.227-.27 12.175-1.17 4.487-7.665 4.512-8.955 1.285-.75-1.877-.55-3.336-.585-5.226h-3.59s.02.952.026 2.116c.02 5.046 1.69 7.46 5.594 8.41 4.015 1.087 8.71-.57 10.38-4.005.994-1.958.88-2.092.904-13.93.015-7.899.135-11.185.135-11.185h3.074v-3.443H22.817zM210.983 302.46v-3.444h-3.34s-.081-3.32-.11-10.36c-.026-6.837-.165-10.227.27-12.175 1.17-4.487 7.664-4.512 8.955-1.286.75 1.877.55 3.337.585 5.227h3.59s-.021-.952-.026-2.116c-.021-5.046-1.69-7.46-5.595-8.411-4.015-1.086-8.71.57-10.379 4.006-.994 1.958-.88 2.092-.905 13.93-.015 7.898-.134 11.185-.134 11.185h-3.075v3.443h10.163z"/>
        <path fill="#B388FF" d="M196.373 41.702l-11.46 7.493-.159 8.738c-6.796-3.27-9.75-8.628-10.82-14.903-1.922 2.432-1.54 14.71-1.54 14.71-1.747.909-2.386 2.095-3.502 3.163 1.097 1.815 4.2 4.906 4.2 4.906-.022-.055-1.423 12.784.271 13.295 1.55-5.472 3.611-10.246 11.203-15.252 0 0 .115 20.383-.371 40.075-3.212-2.218-10.003-6.201-14.391-10.276 5.69-7.36-.111-16.953-8.601-10.581-5.503-2.987-6.348-17.098-7.71-24.489-.261-1.482-1.542-5.83-1.542-5.83s-18.132-5.03-25.919-4.62c6.54 17.093 5.27 37.923-23.671 41.825-13.868 6.36-29.889 13.451-45.46 26.697-2.868 19.723-13.01 29.434-20.17 34.805.05 7.992-.054 15.904.274 23.971-.007.05 6.536-4.308 7.564-3.506 5.468 35.646 25.491 42.714 23.489 43.701-.323.16-6.562 6.592-6.562 6.592l-24.438-16.147c-.838 24.646-.352 49.778 0 74.467 4.315-2.447 12.246-8.299 12.246-8.299l.12-8.385c-.036-.797 11.114 6.985 11.14 16.256.869.592 2.77-13.34 1.038-14.849l4.57-4.73-4.922-4.753s1.25-7.89-1.301-12.434c-1.654 10.404-10.264 13.648-10.264 13.648s-.168-38.03-.391-38.063l15.36 9.754c-8.318 11.363 6.323 15.05 8.037 9.522 9.446 8.83 5.81 19.386 9.941 31.911l26.806 4.933c-11.047-20.558.94-43.983 22.635-42.309 4.064-1.698 7.743-4.149 7.743-4.149s-2.698-4.422-6.104-8.525l-46.432-.77 21.645-40.705-14.236-.46s11.57-24.61 9.07-26.594c-.878-.696-.511-8.632-.511-8.632l12.716.475c.503-5.681-6.15-27.327-15.537-41.482l52.19.469-29.38 41.1 15.779.454-9.416 19.401 1.51 15.132-14.002.454c2.414 20.978 17.95 43.08 23.412 49.906 9.029-2.147 25.887-15.087 36.348-23.133 1.355-14.077 6.188-26.061 18.822-35.001l.038-23.175s-7.21 4.67-7.209 4.347c.03-5.016-2.577-15.458-7.386-24.765-5.16-9.986-13.63-19.032-15.578-19.598 4.48-6.8 6.392-7.409 6.328-7.516l24.403 15.697.087-73.966zM73.371 91.117s-4.746 1.812-8.871 1.755c-7.39.382-13.028.98-16.025 7.06-.61 1.851.725 2.533 1.706 3.018 5.572-6.938 20.377 2.226 23.19-11.833zm-32.808 31.839c0 .98 1.092 2.581 1.64.919.474-1.187.57-3.11.038-4.295-1.484-.838-1.66 2.416-1.678 3.376zm80.036 33.57l-7.217.034-.044 8.496 7.265-.004-.004-8.526zm70.895 42.299c-.158.844-.937 4.64.824 3.98 2.079-1.605.31-8.985-.824-3.98zm-6.794 21.33c-.852-1.246-3.489 1.85-5.652 1.967-9.616.516-16.7-.774-17.898 9.316 5.545-3.551 13.315-1.933 18.32-3.08 3.619-1.205 7.77-4.492 5.23-8.203z" opacity=".2"/>
        <path fill="#B388FF" d="M35.264 292.425l.004-263.156 163.268-.003-.004 263.156-163.268.003zm7.474-170.546c.14-2.531-.898-3.58-1.799-1.838-.212.411-.911 4.81.748 4.956 1.09.097.99-2.032 1.05-3.118zm-2.634 2.97c-.01-.597-.378-.857.434-6.058-1.55-.6-2.893-3.125-1.764-4.721.44-.623.312-.76.132-1.283-.445-1.293-.21-2.346.987-3.17.764-.527.798-.667.553-1.36-.631-1.787-.04-3.53 1.664-4.125 1.18-.411.953-.47 1.077-1.22.278-1.68 1.204-2.697 2.884-2.527 1.563.158 1.666.159 1.8-.607.371-2.12 2.932-4.433 6.275-6.006 1.66-.78 4.413-1.334 9.686-1.32 3.02-.053 6.786-.457 8.899-2.32.348-.326.832-1.183 1.001-1.067.394.272.298 2.382-.474 4.306-2.248 5.605-5.291 7.15-13.894 7.098-2.565-.122-6.343.226-7.945 1.862-.477.507-.795.986-.616 1.246 3.564.507 7.223 2.12 9.353 9.174 6.463-4.596 16.764-11.635 29.538-17.997-1.534-8.429 5.753-9.73 9.84-8.052 0 0 .104-.55-.054-1.188a6.594 6.594 0 0 0-1.134-2.48c-.19-.381-1.338-1.106-1.112-1.68.37-.938.206-1.196-.577-2.06-.508-.561-.17-1.762-.048-2.246.162-.903.754-2.19.23-2.677-.809-.75-3.566-2.022-4.986-3.033-1.57-1.145-1.6-2.176.7-5.94 1.048-2.19 2.039-4.541 2.874-6.114 1.264-2.378 1.394-3.946.628-5.31-1-1.781-.834-3.894-.811-3.84 0 0-9.44-13.26-13.33-18.556l-44.356.001-.002 100.927 7.63-7.284-2.065-2.45c-.292 1.423-.027 2.814-1.776 2.895-.596.02-1.147-.23-1.241-.818zm26.243 135.045c.251-4.005-1.66-10.561-4.539-15.103.125 3.449.372 7.666-.319 11.039l4.858 4.064zm69.695 10.45c-.348-.112-3.246-.29-5.067-.387-6.037-.32-9.956-3.225-12.573-7.242-.643-.987-.376-.943 1.05.175 4.007 3.14 7.76 5.019 11.053 4.548 4.67-.668 7.188 1.048 6.541 3.05-.113.35-.151.132-1.004-.144zm-15.813-8.934c-.934-.812-1.004-1.177.105-.437 3.39 2.262 7.481 5.956 12.538 3.792 1.05-.674.084-.585-1.671-.398-2.683.286-5.953-1.08-9.974-3.865-1.964-1.36-1.1-2.508 1.112-1.443.683.33 1.375.571 1.816.6 2.176-1.45 6.751-1.433 6.645-1.425.521-.45-1.188-1.165-3.732-2.128-1.652-.626-2.052-.883-.822-.931 1.074-.042 2.765.495 3.984 1.287 2.035 1.311 3.06 2.038 3.666 2.123.998.079 2.016.223.303 1.02-.778.362-.71.454-.62 1.33.14 1.37.222 1.355.852 2.13 1.062 1.174 1.525 3.36.01 1.992-.327-.151-.36.14-1.253.501-5.241 1.484-9.145-.831-12.959-4.148zm9.674.39c.292-.385.731-1.372.79-1.647-.1-.639-.667-.438-.953-.079-.49.602-1.174 1.488-.61 1.79.265.144.525.264.773-.063zm-1.79-.414l1.165-2.082c-.288-.135-4.233.682-3.615 1.25.548.503 2.45.832 2.45.832zm4.443-6.988c-1.797-.964-2.321-3.043-.978-4.423 1.128-1.16 3.042-1.061 5.331.352.806.498 1.3.75 1.852.547.923-.342 1.276.178 1.2.904-.167 1.598-2.648 1.989-4.213.165-2.07-2.41-4.319-.728-3.659 1.015.336.887.988 1.026 1.736 1.359 0 .174-.746.361-1.27.081zm-8.194-10.74c2.978-.806 7.405 2.353 9.806 1.923 1.04-.223.894 1.28-.187 1.825-1.263.637-3.058.208-6.867-1.784-3.137-1.7-5.676 1.118-3.579 3.22.45.425 1.106.68 1.91.643 1.06-.05 1.372.24.004.593-.786.203-2.248-.117-2.955-.835-1.69-1.715-1.273-5.013 1.868-5.585zm-63.013-9.225c-.088-3.55 1.803-5.522 1.85-5.536l-13.382-9.106.198 36.37c6.631-4.222 8.808-9.543 9.188-16.413 13.091 14.707 9.005 32.61.829 42.806-.337-6.24-2.193-13.613-9.753-17.392l-.013 7.443-12.713 8.922v8.74H67.31l14.273-21.33c-2.582-9.48-2.194-17.37-3.94-21.708-1.31-3.566-3.8-8.173-5.407-7.458-5.439 4.318-10.781-.72-10.887-5.338zm11.261 4.197c4.636 3.348 5.873 8.82 6.823 13.682.032.042 2.433 16.485 2.509 16.706.31.902.207 1.802-.588 2.487-4.28 5.889-12.648 18.52-12.648 18.52l82.02.481c-4.377-6.385-7.794-12.697-11.951-17.947.174-.28-.325-3.865-1.018-5.025-.714-1.194-.878-1.82-.394-2.912 1.199-2.69 2.43-5.607 3.539-8.076 2.122-4.73 2.365-4.77-.533-6.305-3.435-2.007-4.047-2.659-3.326-4.949.262-.833.295-1.166-.768-1.384-.492-.1-1.69-.388-2.495-.612-2.318-.733-1.647-.277-2.495.324-.646.32-1.202-.908-1.959-2.359-.87-1.668-1.09-1.707.35-.848 2.667 1.59 7.4.972 5.733-.87-.814-.898-1.568-1.358-1.482-3.392.085-2.018.116-2.61-1.25-2.89-2.733-.561-5.704-.327-8.248.31-7.742 1.939-13.953 8.675-16.308 13.68-.53.873.688.828 1.213.831 2.538-.227 4.338 3.828 2.677 5.647-.768.81-1.533.313-.714-.74.935-1.744-.458-4.05-2.501-3.463-2.572.739-2.644 4.073-2.963 6.396-.876 6.694 2.514 15.642 3.343 17.468 0 0 .182.272.12.272s-.47.377-.643.18c-.595-.678-2.097-6.154-2.912-10.066-1.578-10.82 1.212-20.769 10.188-26.42 7.95-5.753 11.954-4.514 16.468-4.78 1.54-.556 3.68-1.4 5.3-2.196 14.157-7.407 27.06-14.65 38.932-24.27 8.68-6.567 12.82-11.895 20.258-18.606l-.753-37.501s-.75-.625-.747-1.222c.488-2.51-3.904 1.674-6.72 3.076-1.774-17.205-11.05-34.123-22.293-44.016l.462-.634s3.76 2.49 5.638 3.676v-2.4l-4.528-2.844c-.202-.876-.089-1.01.9-1.014l3.628 2.683v-2.19l-2.933-1.876.94-1.187 1.57 1.023c-.666-1.734.276-1.673 1.244-.524.402.526.921 1.201 1.141 1.84.084.243.335.841.335.841l2.572 1.92s-.099-.936-.007-1.223c.433-1.36 3.538 3.03 3.148 3.132l2.634 1.905c.624-.954 2.971.946 3.068 1.883.207.407 9.079 6.131 9.079 6.131l.096-3.162.957-1.248.432-73.046-11.78 7.554-.13 8.843c-5.564-1.806-10.384-9.89-11.09-14.934-.362-.198-1.974 9.947-1.121 14.387-1.472 1.099-3.95 3.666-3.93 3.68l4.463 4.897s-.892 7.5-.684 11.226c.181 1.768.216 1.947.743 1.95.428.003.812-.46.814-.865 1.05-4.461 4.492-11.422 10.45-13.793.394-.012-.033 39.795-.033 39.795l-14.784-10.116c-.737-.634.966-.594 2.004-3.963 2.68-8.689-6.613-11.76-10.203-6.728-.59-.003-3.057-3.06-3.426-4.338-2.734-5.526-3.258-11.79-3.789-16.813-.32-2.284-1.156-6.03-1.849-8.284-.37-1.204-.407-2.073.391-3.195 3.435-7.101 10.053-11.986 12.56-19.157l-82.236-.265c5.209 4.312 9.73 16.344 14.477 17.89-2.274.294-1.501 2.289-.618 4.435 1.085 2.636.965 3.181-1.79 8.613-4.038 7.964-4.255 7.265-.227 9.73 2.489 1.597 2.94 1.946 2.575 4.116-.366 2.17-.468 1.499 1.586 1.676 1.099.094 1.974.293 2.469.518.562.255.98.61 1.702.373 1.217-.4 1.247-.105 1.295.79.02.38.595 1.167.773 1.46.469.77.25.898-.61.356-2.643-1.67-7.065-.957-5.438.859.67.748 1.344 3.236 1.401 4.473.103 2.212 1.536 2.996 4.545 2.54 5.779-.43 18.809-7.626 21.845-15.708-6.674 2.28-5.302-5.936-2.924-5.677 0 0-.64 1.457-.66 2.289-.072 2.938 2.381 3.165 4.071 1.084.736-1.093 1.628-5.154 1.189-9.737-.531-5.551-2.774-11.76-3.18-13.302 9.544 22.851.779 32.9-12.633 39.458-5.136 2.151-5.84 2.138-8.868 2.28-2.071.168-3.94 1.2-5.927 1.856-11.476 5.494-25.578 12.344-38.193 22.564-9.052 6.726-16.242 12.772-23.39 20.541l-.03 40.319c2.15-.335 5.639-2.435 7.705-3.643 2.367 15.059 10.088 32.498 22.876 42.927-.007-.005-.302.569-.309.564-1.82-1.213-3.641-2.42-5.406-3.35l-.092 1.918 4.304 2.968c.113.461-.738 1.105-.738 1.105l-3.553-2.462-.027 1.954 2.75 1.76c.744.746-.9 1.135-.9 1.135l-1.63-1.184s.118.949.068 1.117c-.426 1.442-2.778-1.744-3.203-3.332l-2.315-1.376c.328.94-.501 1.072-1.157.837-1.739-.885-1.643-2.371-2.005-3.252l-3.08-1.96c-.53 2.944-3.662-1.202-3.167-2.195l-3.951-2.697c.218.082-1.507.44-2.09.058-.672-.44-.908-2.237-.908-2.237l-2.37-1.471v2.575l24.366 17.063-.352.662-25.415-17.44 1.029 75.697 12.39-8.598c-.237-2.832.284-5.362.05-8.59 6.367 3.974 8.51 6.678 11.317 15.025 1.818-4.752 1.498-9.311.683-13.529 1.627-1.336 3.212-2.634 4.03-4.648-1.531-2.115-3.029-2.708-4.641-4.67-.127-2.39 1.27-9.513-.604-11.862 0 0-3.423 10.347-10.797 13.457-.224-10.924.031-38.39.031-38.39s7.578 5.247 11.443 7.378c1.816.973 3.082 1.583 3.106 2.275.012.352-.718.8-1.038 1.296-.199.308-1.038 3.263-.712 5.574.149 1.703.949 2.78 1.716 3.597 2.43 2.588 6.884 1.368 8.646-.63zm14.669-19.334l29.15-40.898c3.467 15.05 9.32 28.833 16.957 41.327l-46.107-.429zm14.414-42.987s2.035-4.045 2.967-6.19h-3.57l2.135-2.403h5.316l-2.844 6.078h2.256l3.12-6.078h8.282l-2.897 6.078h1.908l3.1-6.078h7.7l-2.709 6.078h1.805l1.582-3.067.386 5.581h-7.65l3.024-6.19h-2.466l-3.416 6.19h-7.167l3.108-6.19h-2.724l-3.414 6.19h-7.832zm23.604-21.78l3.09-6.548h-2.445l-3.419 6.411h-7.638l3.006-6.337-1.903.006c-1.29 1.998-3.35 6.058-3.35 6.058h-8.1s2.291-4.306 3.195-6.411h-1.999l-1.627 2.602c-.572-.972-.195-3.552-.29-4.647h7.635l-3.068 6.285h2.437l3.344-6.285h8.063l-3.284 6.285h1.909l3.255-5.94h8.204l-2.875 5.94h2.533l-1.118 2.581h-5.555zm-7.547-11.41l-1.546.292c-1.979-16.97-11.34-34.27-15.303-41.412l46.582.656-29.733 40.464zm54.697-97.978s-4.442 5.729-4.74 15.341l4.232-3.39c-.268-9.753.508-11.951.508-11.951zm-4.692 16.063c-.07 7.152 1.799 11.712 4.163 15.281.04-4.607.502-9.27.775-10.493l-4.938-4.788zM52.426 198.047l-15.063-10.406v2.28l17.903 12.198-2.84-4.072zm-2.714-5.585c-4.035-2.032-12.349-8.321-12.349-8.321v2.08l13.236 9.327c.26.257.609.192.731-.095-.52-.882-1.148-2.082-1.618-2.991zm-3.696-9.035l-8.653-6.056v1.885c2.219 1.993 9.52 6.736 9.52 6.736l-.867-2.565zm-8.653-7.433l8.14 5.277-.506-2.337-5.782-3.937-1.852.997zM183.65 102.83l.436-37.608c-8.482 4.024-10.163 15.757-9.88 16.121-8.444-8.727-11.626-27.545.217-40.2.89 4.059 1.19 9.946 9.566 15.326l.216-7.966 11.7-7.52v-9.408h-28.212c-4.368 5.55-8.733 12.002-13.053 17.89-1.621 2.208-2.026 3.246-1.716 4.4 2.84 10.238 2.272 22.843 8.234 28.804 7.997-7.543 15.49 3.813 9.273 10.815l13.22 9.346zM62.006 265.456c1.082 3.424.338 10.333.268 10.333 1.291-.704 4.803-10.708 3.925-14.467l-4.193 4.134zm44.941-187.8c-1.99-.566-3.49-1.424-5.592-1.223-1.656.172-2.218-.378-1.209-1.281 1.32-1.122 2.6-1.585 5.046-.301 7.361 3.862 7.588-1.778 4.274-2.177-.941-.114-.897-.716.04-.564 5.144.206 3.576 7.04-2.559 5.546zm-8.606-5.632c-.974-.357-2.15-.953-2.582-.836-1.093.295-1.13-.308-1-1.022.314-1.722 2.07-1.41 4.39.072 3.326 2.123 4.6-.93 1.575-2.577-1.018-.554-.704-.707-.11-.732 1.577-.065 3.061 2.087 2.643 3.847-1.06 2.823-3.633 1.717-4.916 1.248zm9.743-5.214c-2.151-.374-5.267-3.275-6.714-3.474-.812-.093-1.768.007-2.028-.321-.795-1.002 1.457-1.002 1.61-1.366.005-.845.058-1.374.024-1.662-.397-.54-1.962-2.7-1.908-3.745.038-.064.821.579 1.224.581 3.842-2.031 6.468-1.13 9.71.305 1.34.593 4.797 3.282 4.84 3.708.074.722-1.466-.631-2.67-1.441-2.965-2.068-5.633-3.538-9.355-2.312-.58.2-.48.307 1.427.19 1.864-.113 3.39.46 5.77 2.018.592.387 1.306 1.047 1.732 1.25 2.995 1.432 3.647 2.84 1.741 2.458-.408-.081-1.199-.507-1.975-.783-1.37-.486-.885-.339-2.202.277-.463.216-1.576.671-2.49.78-.7.117-2.971.098-1.967 1.06 1.067 1.071 2.835 1.861 4.05 2.35.876.39.202.305-.82.127zm.256-4.663c1.402-.521.306-1.7-1.482-1.96-.41-.06-1.284 1.877-1.303 2.285-.014.303 2.016-.04 2.785-.325zm-3.871.209c.321-.205 1.399-1.767 1.4-2.016.006-1.002-1.274-.723-1.57.32-.359 1.27-.39 2.052.17 1.696zm-4.48-8.08c-1.153-.512-2.72-2.749-.928-2.371.386.09 2.398.194 3.696.2 4.42.019 8.825 2.027 11.627 4.949 1.56 1.626 1.66 2.829.08 1.709-5.606-5.046-9.045-4.107-14.476-4.488zm43.654 173.951l-1.565.835c.004.87.317.735 1.01 1.35 0 0-.96.157-1.662.11-1.143-.076-1.405-.057-.9.75.234.373.554.923.554.923s-.62.135-1.553-.122c-1.414-.39-2.138-.193-1.603.595.147.217.43.626.43.626-1.03-.235-2.926-1.16-2.926-1.16l-1.336.408c2.666 5.224 12.15 1.93 9.55-4.315zm46.254-7.455c1.465-1.233.753-2.746-1.388-3.855-.891-.462-.803-.468-2.248.383-1.78 1.05-1.907 1.103-.638 2.452 1.53 1.629 3.196 1.928 4.274 1.02zm-5.441-3.487c1.348-.6.847-.498.756-1.912-.393-1.628.526-1.742.98-3.262.188-.831-.512-.524-1.875.747-1.123.946-1.456 1.177-1.453.716.126-.384-.772-1.372-1.577-1.506-.68-.113-.616-.27.05-1.132 1.153-1.498 1.628-3.386.854-5.05-.979-2.104-1.302-2.413-3.465-.576-1.108 1.022-2.672 1.808-3.428 3.073-.542.93-.228 1.831.628 3.66 2.136 4.566 5.438 6.617 8.53 5.242zm7.575.04c2.377-.935 1.419-3.509-2.296-6.102-2.24-1.564-2.874-1.548-.973.146 1.216 1.084 1.406 1.467.885 2.247-.434.65-.891 1.415-.46 2.01.68.937 1.842 2.092 2.844 1.698zm-133.833-4.278l-2.591-1.64v2.243l2.59 1.552v-2.155zm129.491 2.025c.514-.362.956-1.38.958-1.83.117-1.045-1.578-.794-2.387.36-.91 1.299.166 2.361 1.429 1.47zm5.802-3.533c1.18-1.24.606-2.562-1.818-4.137-.936-.615-1.413-1.016-1.298.203.035.372-.371.864-.633 1.158-.84.943-.467 1.112 1.928 2.634 1.219.775 1.155.842 1.821.142zm-135.293-2.383l-2.591-1.57v2.038l2.59 1.753v-2.221zm-5.665 2.033l.034-2.042-3.357-2.239-.048 2.277 3.371 2.004zm132.01-.828c-.433 1.17 1.307.64 1.407.52.302-.591.035-.647-.113-.71-.306-.128-1.49.076-1.294.19zm.759-1.477c.597-.192.667-.117.584-1.196-.126-1.629.118-1.759 1.197-2.475.862-.573.868-.487.854-1.485-.017-1.206.066-1.725 1.647-1.97.647-.101 1.017-.26 1.07-.772.091-.86-1.288-2.314-3.004-3.153-.253-.002-4.088 3.344-5.158 4.5l-.654.707.782 1.47c1.22 2.293 1.02 3.137.303 6.178-.148.814.479.695.643-.284.215-.915.34-1.248 1.736-1.52zm5.844-8.112c-.295 1.847.658 2.983 1.559 2.066.49-.5.902-4.577.561-5.225-1.85-1.986-2.047 2.715-2.12 3.16zm-29.793 30.585c6.876-4.039 15.714-.738 20.693-4.05 2.322-2.567 4.656-4.204 3.34-5.974-1.025-1.378-1.691-1.59-1.691-1.59.072.098-3.629 3.226-8.998 2.502-8.95-.309-13.18 2.51-13.344 9.112zm11.75-9.616c4.38.153 7.94-.61 9.568-1.884 1.01-.791 1.164-.93-.42-1.058-3.402-.275-6.846-4.23-7.924-8.066-.22-.79-.479-1.646-.479-1.646-9.061 7.254-29.006 18.68-29.006 18.68 1.323 6.175-3.137 9.858-9.178 7.665-1.05-.095-.915 1.261-.716 1.818.329.914 1.06 1.68 1.202 1.802.899.773 1.067 1.283.931 2.024-.134.73-.12.706.39.98.908.488.861 1.182.366 2.615-.534 2.015-.57 2.523.874 3.482 1.858 1.198 5.507 2.508 4.968 4.31-1.22 4.083-3.225 7.597-4.987 11.417-.655 1.058-.514 2.805.002 3.62.639 1.248.565 2.742 1.393 3.888 4.58 6.82 8.524 12.717 12.697 18.877h43.117l.002-100.482s-7.274 6.648-7.253 7.117c.025.56 1.581 1.434 2.25 1.546.027-.303-.005-1.5.082-1.92.061-.608 2.004-.45 2.647.079.45.37.312 2.787-.143 4.755-.373 1.61-.322 1.631.367 2.561.838 1.134 1.129 2.095 1.019 3.376-.06.702-.055 1.256.143 1.72.466 1.092.33 2.63-.184 3.345-.744 1.038-.756 1.196-.594 1.75.61 1.924.382 3.56-1.756 4.393-.273.107-.573.582-.748.991-.932 3.076-2.68 3.072-5.072 2.186-1.692 6.619-8.578 8.282-13.538 8.086-5.168-.204-10.423.185-12.761 3.575.547-8.03 4.13-11.902 12.742-11.602zm15.595-13.334c.879-.33.988-1.248.25-1.837-1.133-.905-2.434.016-1.902 1.325.297.733.8.831 1.652.512zm-136.02-2.913l-3.442-2.392.02 2.143 3.43 2.208-.008-1.96zm6.491 1.759l-2.435-2.93c-7.179-4.403-13.401-9.328-19.37-13.294l-.046 2.715 1.707.863s.144-.596.261-.941c.22-.647 2.193 1.174 2.822 2.633.156.363.497 1.175.497 1.175l2.3 1.274s.035-.655.036-.837c.008-1.39 2.469.522 3.59 2.794.273.55.629 1.134.629 1.134l2.165 1.32c.854-1.171 3.031.431 3.588 1.853.706 1.803 1.95 1.96 1.998 1.966l2.258.275zm-12.958-.394l.005-2.08-3.588-2.367-.046 2.11 3.63 2.337zm147.71.167c.093-.546-.444-2.67-1.25-2.789-.503-.074-1.29.69-1.294 1.225-.004.693 2.442 2.156 2.543 1.564zm-2.92-2.524c.784-.858-.205-1.977-1.402-1.588-1.423.461-.931 1.754.661 1.781.356.007.57-.004.742-.193zm-144.975-1.528l.013-1.983-3.314-2.197-.069 1.939 3.37 2.241zm-6.518-.7l.033-1.908-2.178-1.523v2.287l2.145 1.144zm.078-5.719l-2.223-1.454v2.07l2.324 1.333-.1-1.949zm9.035-6.294c-.23-.611-1.17-2.546-1.17-2.546l-10.088-7.063v2.174l11.285 7.613-.027-.178zM43.9 173.478l-.119-.884-.898.48 1.017.404zm-2.138.22l-1.41.767 4.262 2.78-.343-1.977-2.509-1.57zm148-23.427l1.1-.798-1.942-1.32-.145 1.339.987.78zm1.967-1.27l1.444-1.196-4.83-3.415.343 2.125 3.043 2.486zm3.423-1.787v-1.46l-7.832-5.304.541 2.666c1.38.8 3.068 1.97 4.832 3.213 1.118.791 1.122 1.096 2.46.885zm0-2.703v-2.315l-9.06-6.034.736 2.717 8.324 5.632zm0-3.477l.004-2.427-10.968-7.269 1.2 3.211 9.764 6.485zm0-6.096l-13.826-9.281 1.769 3.557 12.057 8.082v-2.358zm0-3.546L177.8 119.814l1.948 3.24 15.405 10.448v-2.11zm0-3.764l-.649-.003c-.051 1.66-1.843.456-2.518-1.368-.509-1.222-.622-1.53-.622-1.53l-3.495-2.369c.073.482.275 1.856.275 1.856l-2.354-1.441s-.68-2.282-.702-2.297l-4.022-2.741c.086.467.154 1.237-.108 1.29 0 0-1.223-.524-1.782-1.34-.582-.85-.67-1.704-.67-1.704l-3.282-2.13-.817.088s-.442-.3-.858-.639c-.779-1.396-1.69-1.606-2.779-2.174 0 0 2.31 2.704 3.544 4.302a15.366 15.366 0 0 0 2.508 2.528l18.332 12.267v-2.595zm0-3.785l-1.416-.853.104 2.24 1.313.895v-2.282zM52.24 118.917c.087-.14-.276-.303-.674-1.181-.986-2.176-1.083-2.934-.556-5.22.251-1.091-.736-1.559-1.19-.396-.354.905-.903 1.414-1.428 1.348-.496-.062-.6.147-.386.833.264.95-.308 2.189-1.103 2.526-.803.207-.949.717-.723 1.456.374 1.226-.945 2.263-1.981 2.204-1.602-.092-.974 1.37.956 2.763.715.516 1.035.795 1.597.534 1.46-1.384 4.178-3.365 5.488-4.867zm138.98 4.486l-.08-2.136-4.03-2.729.497 2.858 3.613 2.007zm3.933-.896v-2.152l-1.658-1.068.084 2.287 1.574.933zm-151.647-3.33c.386.392.77.428 1.383.058.706-.37.436-.93-.304-1.295-.69-.365-1.658.745-1.08 1.238zm-1.203-.943c-.054-.45.493-1.057.871-1.08.828-.048.682-.492-.265-1.066-.444-.27-1.23-.9-1.518-1.11-1.415-1.03-2.783.56-1.731 1.905.88 1.126 2.178 1.794 2.643 1.351zm148.519 1.331l-.312-2.377-3.64-2.425.288 2.617 3.664 2.185zm-132.274-5.79c.198-.33.258-.644.238-1.042-.074-1.496-.843-3.253-1.92-4.724-.802-1.094-1.775-2.03-2.76-2.58-2.784-1.435-6.498-.817-5.958 1.032.385 1.25.295 2.296-.774 2.924-.727.428-.82 1.003-.05 1.004.557.001 2.038-.512 2.655-1.487.87-1.375 1.369-2.174 1.173.07-.082.938.035.868 1.486.793 1.966-.102 1.602.268.452 1.157-1.674 1.293-2.006 3.483-1.16 5.344.522 1.152.884 1.765 1.565 1.61 1.473-.97 3.876-2.918 5.053-4.101zm125.847 2.771l-3.581-2.364.14 2.53 3.867 2.289-.426-2.455zm-137.447-2.312c-1.313-1.661-2.853.461-1.858 1.39.723.636 2.548-.016 1.858-1.39zm-3.103.232c-.164-.518.785-1.35.934-1.68.435-.963-3.452-3.641-4.661-2.054-.833 1.094-.256 2.188 1.99 3.685 1.356.902 2.006.902 1.737.049zm140.201-1.606l-3.31-2.068.058 2.185 3.515 2.126-.263-2.243zm-5.836 1.955v-2.231l-3.334-2.332-.055 2.31 3.39 2.253zM48.552 112.18c.605-.6.4-.795-.77-.735-.74.038-.966-.085-1.016.254-.11.753 1.164 1.097 1.786.48zm-2.776-.844c.06-.155-.358-.46-1.04-1.034-1.304-1.096-1.451-1.777-.198-2.631 1.786-1.218-.087-2.95-2.16-2.245-1.675.568-1.68 2.26-.685 3.349 1.364.91 3.838 3.54 4.083 2.561zm132.435-2.233l-3.28-2.255v2.197l3.28 1.918v-1.86zm-131.817.147c1.46-.747 1.539-2.62.076-1.934-.604.283-1.394 1.05-1.396 1.397-.004.675.574.918 1.32.537zm1.072-4.3c1.894-1.02 1.604-1.968-.283-3.154-2.302-1.323-3.914 1.216-2.018 2.943.993.904 1.223.793 2.301.211zm2.456-1.84c3.078-3.317 5.119-3.148 9.183-3.06 10.483.095 13.696-4.93 13.364-8.453-5.094 2.537-9.64 1.175-14.49 1.91-8.366 1.873-9.347 5.82-9.931 8.078l1.874 1.525zm42.026-11.3c2.701.024 2.58.107 1.469-2.12 2.63.36 3.69 1.624 2.822-1.001 1.395.498 2.23.882 3.671 1.358l.915-.532c-5.564-5.43-11.735-.829-10.11 4.65l2.067-.991-.834-1.364z"/>
        <path fill="#B388FF" d="M105.522 290.33l1.294-6.287 11.548.563s1.341 3.947 1.884 5.724h-14.726zm-26.667-.151l6.127-10.15 8.7 2.368-2.002 7.934-12.825-.152zm16.923.152l2.636-10.834c-4.977-1.099-9.672-1.821-15.165-3.308l-8.917 14.13-5.365-.142c4.622-6.177 13.064-18.65 13.064-18.65 19.362 6.68 38.883 7.808 58.537 4.278 0 0 7.24 9.58 9.835 14.776l-5.106-.251-6.344-10.657c-4.418.481-8.764 1.071-13.373 1.264l3.156 9.393h-5.071l-2.877-9.366c-5.529-.215-10.176.218-16.802-.821l-2.336 10.183-5.872.005zm36.54.003l-1.746-6.662 6.232-.73s2.89 5.08 4.473 7.388l-8.959.004zm-55.924-61.899c7.751-11.817 35.094-49.698 35.094-49.698l4.017.163s-24.488 34.21-36.297 51.46l-2.814-1.925zm-39.527-18.382l9.545 6.894.068 53.674-9.7 6.848.087-67.416zm39.628-87.811l5.778 11.341c-24.55 23.332-19.735 50.71-6.583 70.238 0 0-1.7 4.368-5.406 9.007-17.795-11.77-23.207-42.36-23.071-42.687 19.61-17.545 22.254-23.131 29.282-47.9zm100.32 83.612c1.268-17.273 9.691-28.563 19.13-35.462l.482 17.57c-6.179 5.947-12.712 12.089-19.612 17.892zm-25.634-17.399c21.501-20.14 22.235-48.742 6.572-69.736l6.41-8.979c9.086 9.754 17.996 19.975 21.787 43.728-13.616 10.765-25.648 28.553-28.849 46.51l-5.92-11.523zm-29.626-23.432l-.04-8.231 8.042-.04-.229 8.217-7.773.054zm-17-.064l-.116-8.203 7.95.058-.123 8.315-7.712-.17zm13.768-21.963s26.65-37.416 37.11-50.921l2.223 1.64-35.442 49.49-3.891-.209zm-62.247-26.164c-.026 14.762-9.46 26.46-19.097 34.092l.132-16.807 18.965-17.285zm140.019-71.239l.055 65.523-9.006-5.439.765-54.948 8.186-5.136zm-42.927 3.881c-20.33-5.302-38.851-6.888-58.323-2.702-2.537-3.036-11.065-15.679-11.065-15.679l4.922.073 6.966 11.183 13.272-1.74-3.417-9.097 5.471.024 2.726 8.922c-.028-.07 10.797.107 16.813.821.957-3.312 2.736-9.896 2.736-9.896l6.027-.003c-.774 3.163-2.854 10.69-2.854 10.69 4.937.688 14.093 3.022 14.177 3.123 3.213-4.554 6.199-9.108 9.104-13.662l5.874-.029c-1.73 2.94-12.103 18.119-12.429 17.972zm-3.75-7.854l-8.983-2.1 2.346-7.94 12.554-.007-5.918 10.047zM97.84 38.75l-4.176-7.369h8.035l2.661 6.49-6.52.879zm18.24-1.502l-1.216-5.867h14.594l-1.492 6.25-11.885-.383z"/>
        <path fill="#B388FF" d="M82.714 30.886l12.979 18.788c.06-.06 7.273-1.442 14.363-1.79 7.048-.347 15.451.095 15.522.31 0 0 2.22 6.717 2.972 10.016.993 4.407.888 9.477-.16 12.842-1.535 4.931-2.346 6.411-5.775 9.798-2.543 2.473-6.138 5.164-9.846 6.602-5.137 2.151-5.66 2.14-8.687 2.281-2.001.094-2.204.172-3.3.742-.337.118-.557.471-.858.573-.254.086-.734-.012-.734-.012-16.694 7.339-29.762 15.522-39.634 22.83-.115.085-.189.464-.3.555-.807.663-1.552 1.165-2.34 1.77-.108.084-.35-.065-.458.018-11.614 8.976-18.193 16.253-20.612 18.354l.236 41.79s5.288-2.725 8-4.386c1.904 16.181 9.951 31.9 22.655 42.817l-5.511 7.62-25.398-17.539.353 77.107 13.503-9.407v-8.132c4.024 2.718 7.952 3.777 10.81 16.156 2.284-4.348 2.083-10.825 1.06-15.151.016 0 3.428-2.827 4.474-4.995l-5.018-4.464s1.3-10.811-1.066-12.989c-1.872 4.907-3.365 10.109-10.36 13.895l-.088-37.56c3.486 2.215 6.784 4.709 10.23 6.981l.476-.095 3.566 2.45s-.379.766-.725 1.292c-4.332 6.59 2.888 14.676 8.76 9.811 2.3-1.905 6.617 6.016 7.431 13.634.83 4.921 1.275 11.03 2.608 15.305.413 1.247.25 1.947-.627 2.703-4.5 6.352-13.548 19.15-13.548 19.15h6.518l.472-.75h-4.805c4.14-5.523 8.087-11.96 12.38-17.352 15.998 6.04 42.203 7.436 58.028 3.773 3.269 4.598 6.447 9.418 9.59 14.102h-4.552l.627.981h6.156l-12.969-19.15c-8.939 2.668-30.73 1.628-30.334 1.407 0 0-.061-.148-.816-2.32-3.741-12.116-4.088-22.869 5.298-31.559 4.986-4.446 10.555-7.38 16.773-6.823 2.78-.055 2.834-.206 3.993-.73.639-.29 1.962-.591 1.962-.591l6.3-3.504.83-.166 1.813-.958.374-.444 2.93-1.493.327.028 3.958-2.285.052-.322 1.558-.964.37.394c.433.036 15.517-9.894 21.808-15.428l.39.146c7.346-5.962 17.334-15.362 20.296-18.932l-.159-17.888-.25-.218-.101-19.808h-.573l-.026-2.443c-3.248 1.207-6.823 4.232-7.063 4.106-2.068-16.77-9.766-32.216-22.345-43.56l5.356-7.419 24.872 16.785.068-4.902h.309c.305-18.804.472-67.543.472-67.543l-.245-.023-.006-3.892-12.713 8.142-.178 8.226c-5.637-1.846-9.207-8.638-10.39-14.691-1.642.66-2.405 7.034-1.798 15.106-1.742 1.043-2.858 2.184-3.925 3.565 1.38 1.743 2.912 3.173 4.6 4.636-.352.762-1.097 11.533-.357 12.87.34.986 1.513.844 1.519-.193 1.715-8.401 9.658-13.914 10.104-13.406l-.194 38.737-14.113-9.923c2.964-3.356 3.587-9.017-.145-11.787-3.743-2.777-7.407-.422-8.273 1.344-4.583-2.995-6.125-14.094-6.794-18.439-.166-2.113-.708-4.984-1.332-7.573-.39-1.623-.855-3.173-.914-4.627-.027-.684.053-.981.673-1.838l13.723-19.526-7.005-.026-.068.121 5.51.016-12.375 17.626c-18.617-5.866-37.921-7.286-58.573-3.564L84.083 31.215l4.638-.02-.183-.309h-5.824zm10.767.166l.196.352 8.019-.025-.12-.298-8.095-.03zm11.889.043l.153.424 5.47.02-.166-.415-5.457-.03zm27.932.15l-.055.192 6.029.01.054-.192-6.028-.01zm-18.475.004l.059.247h14.544l.054-.232-14.657-.015zm28.006.13l-.056.205 12.553-.01.107-.195h-12.604zm52.97 10.74l.04 2.652-8.433 5.376c-.21 11.336-.536 54.94-.536 54.94l-2.02-1.329.397-54.602s7.46-4.81 10.553-7.036zm-22.128 2.134h.285l.085.613h-.49l.12-.613zm.598 1.601l.221.832-1.233-.006.208-.803.804-.023zm21.286.43v1.73l-7.277 4.56v-1.716l7.277-4.573zm-22.457 1.44l1.903.025.318.957h-2.396l.175-.982zm-46.727.514l1.272.191c2.915 6.978 3.669 12.97 4.175 19.205 1.163 8.093 3.509 16.205 5.14 19.652l-1.866-.019c-.215-.028-4.154-11.744-4.975-18.661-.22-1.37-.132-2.642-.202-3.912-.416-5.349-1.146-9.368-3.544-16.456zm2.39.28l1.626.168c1.135 4.956 2.789 9.632 3.46 14.61 1.075 7.962 1.65 16.094 5.479 23.942l-1.519-.014c-2.323-5.306-3.76-10.84-4.686-16.824-.723-3.432-.731-6.008-1.115-9.11-.466-3.726-1.897-8.462-3.245-12.771zm2.469.233l1.625.241c1.069 4.92 2.903 10.335 3.389 14.783.99 9.058 2.407 17.499 5.255 23.488l-1.138-.035c-4.4-8.55-4.47-16.166-5.704-24.178-.726-4.718-2.265-9.438-3.427-14.3zm2.59.381l1.435.223c.998 4.895 2.79 10.436 3.207 15.402.738 8.79 2.292 15.443 5.554 22.54l-1.346.025c-3.938-6.912-4.466-15.396-5.692-23.987-.677-4.746-2.204-9.52-3.158-14.203zm61.735.01v2.143l-7.277 4.685v-2.114l7.277-4.714zm-59.387.415l1.5.234c.965 4.721 2.762 9.76 3.186 14.356.725 7.857 2.166 15.79 5.395 23.1l-1.384.088c-3.416-7.38-4.902-14.098-5.549-22.582-.362-4.757-2.187-10.557-3.148-15.196zm39.625.026l.52 1.272-3.485.17.042-1.429 2.923-.013zm-37.157.444l1.783.348c1.89 7.532 2.385 14.663 3.673 21.821 1.608 8.895 3.303 13.364 4.688 15.023l-1.476.048c-3.601-7.7-4.877-15.357-5.714-23.29-.493-4.679-2.022-9.29-2.954-13.95zm2.72.508l1.359.275c1.621 6.155 2.351 11.913 3.064 17.484 1.297 10.582 4.812 18.63 5.56 19.002l-1.499-.068c-3.252-4.508-4.456-12.182-6.055-23.013-.703-4.76-1.402-9.24-2.43-13.68zm2.188.44l1.523.376s1.374 5.416 2.412 12.603c.864 5.99 1.317 17.775 7.808 24.552 3.24 3.383 8.95 6.321 12.845 3.129 1.664-1.423 2.737-3.704 1.736-6.142-1.682-4.083-7.378-3.383-5.482.9.212 1.027-1.126 1.07-2.059.068-.98-1.072-.735-2.293-.04-3.417 1.464-2.368 5.385-2.611 7.686-.497 3.677 3.613 2.087 9.81-2.57 11.776-5.363 2.285-12.276-2.433-15.013-6.935-4.528-7.843-5.228-15.287-6.29-23.206-.54-4.276-1.58-8.766-2.556-13.207zm2.295.634l1.546.377c.005.021 1.696 7.632 2.257 12.142.693 5.573 1.458 12.142 3.837 17.212 1.48 3.153 3.634 5.804 5.81 7.35 1.873 1.328 3.55 2.167 6.04 1.624 2.876-.628 3-5.09.257-5.102-1.402-.006-.488-1.358.676-1.396 4.134-.137 4.253 6.4.36 7.857-4.456 1.67-9.275-1.477-12.259-5.43-5.221-8.133-5.016-15.551-6.162-22.11-.306-3.454-2.246-12.362-2.362-12.524zm31.284.227l.944 1.267-5.249-.024.023-1.206 4.282-.037zm-28.98.421l1.48.516c.041 0 1.486 5.91 2.382 12.894 1.065 6.733 1.412 12.337 4.888 17.2 1.447 2.023 4.177 4.722 5.896 5.043 1.066.23 2.169-.004 2.44-.816.443-1.33 1.581-.719 1.606.489-.005.845-.624 1.721-1.669 2.026-5.11.887-9.784-5.548-11.203-8.81-1.922-4.747-2.744-10.052-3.577-16.656-.353-2.795-2.04-11.708-2.243-11.886zm47.412.236l-.025 2.133-7.252 4.585v-2.074l7.277-4.644zm-45.185.417l1.659.454s1.383 5.196 2.208 11.615c.837 6.51 2.635 14.073 5.993 17.985.305.375.515.641.647.861.24.532-.047 1.43-.296 1.432-5.983-3.123-7.398-15.673-7.911-19.916-.758-6.561-2.3-12.431-2.3-12.431zm23.268 1.005l5.278.15 1.258 1.243-6.989-.063c-.738-.764-.279-.676.453-1.33zm21.917 1.732v1.768l-7.277 4.625v-1.81l7.277-4.583zm-21.735.56l7.723.135 2.71 1.617-11.802-.098 1.37-1.653zm21.735 2.245v2.123l-7.277 4.574v-1.993l7.277-4.704zm-24.594.4l13.125.141.033 1.426-14.233-.368 1.075-1.198zm-1.71 2.442l14.844.039.037 1.577-13.499-.13-1.383-1.486zm26.304.243v2.215l-7.277 4.521v-2.1l7.277-4.636zm-23.514 2.32l11.378.055-1.235 1.318-8.58-.085-1.563-1.288zm23.514.78v2.087l-7.277 4.59v-2.06l7.277-4.618zm-14.951 1.595l-1.38 1.344-5.895-.082.202-1.223 7.073-.04zm14.951 1.464v2.24l-7.277 4.46v-1.94l7.277-4.76zm-22.308.819l4.865.107-.744 1.024-4.257.02.136-1.151zm-43.748 1.784c.734 5.632 4.809 16.987 4.807 16.984l-1.604.013c.08.11-2.914-7.151-3.993-13.993-.131-.653.314-2.855.79-3.004zm43.43.323l3.746.068-.816 1.452-3.05-.006.12-1.514zm22.626.345v1.958l-7.277 4.488v-1.785l7.277-4.661zm-22.747 1.981l2.482.078-.586 1.344-1.925-.056.03-1.366zm22.747 1.056v2.088l-7.277 4.527v-2.016l7.277-4.6zm-67.588.444c.73 4.102 3.833 12.343 4.069 12.884l-1.375.017c-.063.188-3.225-7.387-3.562-10.628-.163-.679.196-2.022.868-2.273zm44.816.87l1.472.069-.25.767-1.193.03-.029-.865zm.132 1.847l.765.02-.182.73h-.478l-.105-.75zm22.64.04v1.686l-7.277 4.619v-1.6l7.277-4.706zm-69.412.182c1.104 3.289 2.208 6.64 3.516 9.847l-1.63-.039c-1.08-2.312-1.838-4.912-2.68-7.462-.232-1.065.261-1.976.794-2.346zm-1.623 2.196l2.71 7.593h-1.539c-.633-1.527-1.344-3.234-1.843-4.806-.51-1.63-.463-1.685.672-2.787zm71.035.475v2.002l-7.277 4.516V84.85l7.277-4.792zm-72.862 1.615c.354-.036.377.416.693 1.322l1.485 4.204-1.899-.047c-.557-1.323-.897-2.48-1.037-3.769-.052-.625-.165-1.248.27-1.511.214-.122.37-.187.488-.2zm-2.02 1.585c.319.01.444.588.695 1.458l.789 2.466-1.774-.045c-.521-1.165-.722-2.003-.565-3.222.4-.463.663-.662.855-.657zm74.882.01v2.094l-7.277 4.387v-1.944l7.277-4.537zm-76.706 1.504l.744 2.427-1.602-.037c-.266-.57-.096-1.262-.105-1.905l.963-.485zm-2.097 1.243c.023.001.045.007.054.02.229 1.074.005 1.14.02 1.131l-2.238-.013s1.813-1.155 2.164-1.138zm78.803.63v1.672l-7.277 4.55v-1.696l7.277-4.527zm-86.507 2.648l43.719.127 1.456 2.065s-4.253.116-18.185.029c-11.728.152-35.296-.251-35.296-.251l2.293-1.083c3.174-.075 6.058-.903 6.013-.887zm86.507.248v1.842l-7.277 4.42V94.02l7.277-4.478zM72.538 91.309c-3.515 1.563-6.797 1.947-9.248 1.748-5.279-.43-13.355 1.785-14.979 6.872-.51 1.796-.516 1.845.453 2.76.48.454.948.798 1.037.764.849-.756 1.974-2.158 3.18-2.568 1.587-.48 2.447-.546 5.048-.662 5.605-.249 6.871-.485 8.265-.855 3.068-.815 6.161-3.843 6.347-7.215.021-.386-.103-.844-.103-.844zm-.151.46c-.593 7.036-8.19 7.953-11.526 7.753-6.767-.406-9.433 1.621-10.505 2.879-.353.337-.559.256-.503-.05.786-3.896 7.062-4.043 10.221-4 7.742.354 9.704-3.39 9.485-3.426-.587.264-1.023.496-1.618.779-.256.107-.202-.05-.872-.438-.01.05-.774 1.792-1.763.14.025.082-.705 1.466-2.055.173.01.14-.816 1.327-2.136.113-1.241 1.067-1.832.479-2.365-.27-.392.235-1.541 1.793-2.5.116-1.022.653-1.449 1.36-2.328.933-2.052.369-3.827 2.48-4.55 4.414-.226.665-.683.77-.738.04-.243-2.019 3.069-5.516 6.393-6.481 2.585-.751 4.347-1.293 10.028-1.076 3.231.124 7.332-1.599 7.332-1.599zm82.94.534l2.048 1.393-35.663 49.32-3.148-.083 36.762-50.63zm-57.209.033h4.055v6.722h-3.495l-1.25-1.862c.324.19.698.304 1.1.304 1.2 0 2.173-.976 2.173-2.18a2.174 2.174 0 1 0-4.323.314l-1.307-1.944s.555-.331 1.88-.923c.343-.154 1.167-.431 1.167-.431zm12.497 0h6.87v6.722h-6.87v-6.722zm15.05 0h7.113v6.765l-7.112-.043v-6.722zm15.356 0h7.106v6.722h-7.106v-6.722zm54.431.16l.107 2.098-7.277 4.435v-2.074l7.17-4.46zm-51.137.695a2.305 2.305 0 1 0 0 4.609c1.27 0 2.3-1.033 2.3-2.306a2.3 2.3 0 0 0-2.3-2.303zm-30.249.12a2.3 2.3 0 0 0-2.3 2.303 2.303 2.303 0 0 0 2.3 2.307c1.27 0 2.3-1.033 2.3-2.307a2.3 2.3 0 0 0-2.3-2.302zm14.985.046a2.305 2.305 0 0 0 0 4.609 2.305 2.305 0 0 0 0-4.61zm7.743.274c1.065 0 1.928.866 1.928 1.935a1.931 1.931 0 0 1-1.928 1.934 1.931 1.931 0 0 1-1.929-1.934c0-1.069.864-1.935 1.929-1.935zm-30.484.03c1.065 0 1.928.866 1.928 1.934a1.931 1.931 0 0 1-1.928 1.934 1.931 1.931 0 0 1-1.929-1.934c0-1.068.863-1.934 1.929-1.934zm45.694.068c.458 0 .874.175 1.19.46l-2.101 2.861a1.784 1.784 0 0 1-.868-1.533c0-.987.794-1.788 1.779-1.788zm-30.19.01c1.066 0 1.93.866 1.93 1.934a1.931 1.931 0 0 1-1.93 1.934 1.931 1.931 0 0 1-1.928-1.934c0-1.068.864-1.934 1.929-1.934zm-23.286.14c.794 0 1.437.645 1.437 1.442 0 .796-.643 1.445-1.437 1.445a1.445 1.445 0 0 1-1.44-1.445c0-.797.646-1.442 1.44-1.442zm-4.412.078c12.252 15.65 18.763 31.516 21.628 48.807l-2.055-.097c-3.405-18.807-11.069-34.936-21.463-47.953l1.89-.758zm50.2.014c.84 0 1.522.68 1.522 1.523 0 .843-.683 1.529-1.523 1.529-.84 0-1.524-.686-1.524-1.53 0-.842.684-1.522 1.524-1.522zm-30.25.12c.84 0 1.525.68 1.525 1.524 0 .842-.685 1.529-1.525 1.529a1.527 1.527 0 0 1 0-3.053zm14.985.043a1.527 1.527 0 0 1 0 3.052c-.84 0-1.525-.686-1.525-1.528 0-.843.685-1.524 1.525-1.524zm38.126 1.095c.807 6.194-.787 10.192-5.496 10.84-6.005.827-6.785 1.28-6.819 6.984-.04 6.76-1.035 8.712-5.808 9.246-5.37.601-6.619 1.24-6.137 7.936.351 4.886-1.569 6.965-5.704 7.872-3.233.71-6.033 1.794-7.232 5.062l-2.956.04c.768-5.148 5.926-7.606 9.233-7.777 3.564-.848 4.31-2.045 3.732-8.312-.434-4.717 1.29-6.15 6.817-7.228 4.417-.874 5.5-2.146 5.259-5.77-.516-7.77-.004-8.939 4.398-9.884 2.244-.533 5.896-.772 7.289-2.491 1.584-1.955 1.18-3.62 1.037-6.021l2.387-.497zm28.382.206v2.032l-7.277 4.502v-1.977l7.277-4.557zM88.63 96.64c-1.555 6.737 3.795 8.202 7.05 9.339 3.787 1.322 4.706 3.238 4.276 9.932-.325 5.064.231 6.184 3.5 7.922 5 2.588 6.344 6.265 4.123 11.649-1.37 3.32-.652 4.25.215 7.147l-2.423-.023c-.177.055-2.225-3.615-.478-7.564 2.07-4.68 2.01-7.028-2.604-9.134-3.57-1.63-4.666-3.167-4.888-6.52-.094-1.412-.083-2.114.246-5.183.416-3.87-.96-5.533-6.663-7.66-2.541-.947-4.269-3.152-4.789-6.65-.145-.979-.013-2.107-.013-2.107l2.449-1.148zm85.296.73l21.69 14.476-.15 3.22-23.01-15.422 1.47-2.273zm-13.977.32c1.05 0 1.902.853 1.902 1.905a1.904 1.904 0 0 1-1.902 1.905 1.902 1.902 0 0 1-1.899-1.905c0-1.052.85-1.905 1.9-1.905zm-68.236.832c.952 0 1.72.77 1.72 1.726 0 .955-.768 1.732-1.72 1.732a1.73 1.73 0 0 1-1.727-1.732c0-.955.774-1.726 1.727-1.726zm103.783.203l-.072 1.94-7.14 4.43v-1.94l7.212-4.43zm-96.058 1.272h49.415l-1.269 1.712-47.208-.483-.938-1.23zm-17.133.083c6.56 8.575 13.006 17.41 17.978 34.058l-2.121.818c-4.104-13.4-10.419-24.534-17.863-33.741l2.006-1.136v.001zm113.255 1.528v2.123l-5.472 3.34-1.61-1.053 7.082-4.41zm-116.156.227l.97 1.276s-1.05.827-2.238 1.68c-3.236 2.32-3.657 2.583-3.872 4.094-.512 3.589 3.167 5.36 6.86 3.284 1.325-.607 4.228-2.452 4.228-2.452l.834 1.233s-4.162 3.123-6.605 3.835c-5.359 1.562-9.359-5.25-5.399-9.295.605-.618 1.883-1.448 2.901-2.108 1.045-.677 2.321-1.547 2.321-1.547zm22.056.846l45.53.27-29.076 39.863-1.291-.072c-2.254-14.91-7.845-27.937-15.163-40.061zm-19.854 1.689l2.66 3.728s-1.734 1.662-4.598 3.234c-2.297 1.26-4.781-1.03-3.336-3.094 1.483-2.05 5.274-3.868 5.274-3.868zm113.954.381v1.945l-3.154 1.938-1.44-.924 4.594-2.959zm-114.286 1.495c-1.262.066-3.355 1.501-4.068 2.74-.307.533-.198.981.085 1.346.43.556.94.523 2.455-.286 3.092-1.653 3.67-2.633 2.309-3.602a1.16 1.16 0 0 0-.666-.198c-.04-.001-.074-.002-.115 0zm-.1.796c.2-.019.43.043.62.026.535.22.371.886-.188 1.044-.122-.195-1.05-.222-.988.724-.226.536-.217.495-.897.571a.733.733 0 0 0-.84.401c-.468.252-1.044.174-1.151-.11-.104-.276.282-1.07.608-1.068.157.012.435-.223.722-.417-.01-.517.598-.592.773-.59.172.036.752.044 1.031-.43.08-.1.19-.14.31-.15zm114.386.466v2.998l-2.286-1.465 2.286-1.533zm-126.334.376c8.292 9.82 14.264 20.275 18.065 34.741l-1.663 1.151c-2.512-10.142-6.38-20.86-17.824-34.794l1.422-1.098zm97.015.165c3.754 3.199 19.14 17.723 22.072 43.503l-2.059 1.267c-1.653-13.607-6.99-29.208-21.343-43.034l1.33-1.736zm-7.418.894c1.049 0 1.9.853 1.9 1.906 0 1.052-.851 1.905-1.9 1.905a1.904 1.904 0 0 1-1.901-1.905c0-1.053.852-1.906 1.901-1.906zm-91.906.745s1.743 1.796 1.74 2.224c-.006.847-.678 1.328-4.682 2.791-.676.247-3.634.932-3.634.932l-.109-1.44c1.51-.546 5.563-1.52 5.86-2.384.145-.34-.576-1.198-.424-1.198l1.249-.925zm27.627.366c.953 0 1.72.776 1.72 1.731 0 .955-.767 1.732-1.72 1.732a1.73 1.73 0 0 1-1.726-1.732 1.73 1.73 0 0 1 1.726-1.731zm69.794.495c12.535 12.28 19.432 27.456 21.044 43.127-14.597 11.908-24.514 26.877-28.454 45.604-1.947-3.255-3.604-6.998-5.405-10.657 19.478-17.168 23.577-48.087 6.731-69.76l6.084-8.314zm-76.657 2.34l.878 1.364s-.185.167-2.913 1.867c-3.992 2.485-4.65 4.107-3.317 6.65 1.362 2.6 2.882 2.738 7.17.656 1.514-.735 2.8-1.507 2.8-1.507l.686 1.425s-1.92 1.567-5.617 2.926c-3.477 1.279-6.764-.9-7.381-4.928-.45-2.928.824-4.498 5.896-7.385.57-.303 1.798-1.067 1.798-1.067zm59.725.648c1.05 0 1.899.854 1.9 1.907 0 1.052-.85 1.905-1.9 1.905-1.05 0-1.9-.853-1.9-1.905 0-1.053.85-1.907 1.9-1.907zm-77.458.074l1.148 1.085s-.494.729-3.32 2.435c-2.542 1.533-2.804 1.284-1.539 2.357 2.359 1.998 5.63 6.424 5.613 7.567-.017 1.102-1 2.118-2.886 2.969-1.033.466-5.12 1.927-5.72 2.032-1.193.13-1.53.61-.335 1.698 2.027 2.333 3.758 7.325 3.062 8.848-.783 1.714-1.723 2.004-9.232 2.349-.856.04-1.264-.204-.8.894.337.798.69 1.894 1.36 5.28.596 3.02.494 4.379-.675 5.001-.672.358-5.894.232-8.051-.193-2.47-.486-2.738-.52-2.339 1.093.518 2.227.84 8.196-.839 9.348-.699.456-1.45.344-4.517-.691-1.956-.661-3.65-1.418-3.65-1.418l.034-1.851c1.594.658 5.964 2.55 7.207 1.952 1.474-2.118-.573-9.546-1.356-11.136-.944-1.9.043-2.314 2.218-1.136 1.142.807 10.974 4.694 10.415 1.215-.6-3.3-1.668-7.058-3.742-9.418-1.918-2.182-.962-3.074 1.173-2.117 3.778 1.693 11.583 1.278 11.194-.477-.514-2.855-3.098-6.723-6.636-9.723-.984-.834-1.023-1.191.138-1.396 3.305-.264 12.763-1.239 11.44-3.466-1.134-1.823-2.65-3.839-3.94-4.924-2.119-1.782-4.255-2.555-5.203-2.926l.06-1.365c4.308-.36 6.547-1.658 9.718-3.886zm-10.426 1.344c-1.545 16.24-8.318 29.62-22.299 38.952l-.077-1.819c12.29-9.26 18.191-22.421 19.79-35.156l2.586-1.977zm11.87.767l1.149 1.035s-.297.449-1.952 1.776c-1.287.994-.837.602.04 1.784.78.939 2.168 2.825 2.168 2.825l-.413 2.509c-1.455-2.079-2.663-3.591-4.822-5.813-1.097-1.134-1.034-1.165.532-1.983 1.173-.65 2.129-1.44 3.297-2.133zm17.914.253c.006 0 .01.002.01.004 0 0 2.248 4.058 2.245 4.426-1.335 1.24-4.837 3.056-6.27 2.63-2.211-.707-2.558-3.073-.435-4.469 1.833-1.34 4.118-2.505 4.425-2.587a.096.096 0 0 1 .026-.004zm13.47 1.364c.952 0 1.72.77 1.72 1.726 0 .955-.768 1.732-1.72 1.732a1.73 1.73 0 0 1-1.726-1.732c0-.955.774-1.726 1.726-1.726zm-13.943.144c-1.643.435-3.252 1.906-4.156 2.554-.33.236-.07 1.42.246 1.827.406.523 1.154.436 2.05-.062.374-.21 1.053-.551 1.504-.76 1.263-.585 1.79-1.02 1.744-1.508-.202-.656-.718-2.098-1.388-2.05zm-33.046.63c.355 1.822-.74 5.023-1.361 6.827-3.677 4.824-9.01 7.291-14.08 8.976-1.126.375-2.639.185-2.639.185 7.015-7.238 13.03-12.544 18.08-15.989zm33.139.12c.461.02.793.616.645.968-.792.43-1.23.065-1.129.666 0 0 .08.937-1.08.959-.282-.124-.773-.102-1.011.14-.81.336-1.518-.375-.637-.78.238-.108.826-.294.988-.658.084-.45.457-.81.864-.56.217.015.7.05.857-.295-.06-.387.214-.421.41-.436a.588.588 0 0 1 .093-.004zm-47.537.81c-.197-.016-.346.001-.39.065-.342.32-.885 5.35-.53 5.711.492.503 1.851.642 1.98.043.426-1.973.321-3.446.525-5.11.037-.304-.992-.659-1.585-.709zm.548.546c.174.04.32.28.429.7-.02.828-.115 2.548-.433 3.51-.199.747-.775.577-.993-.112-.226-.716-.037-2.748.39-3.582.229-.393.432-.556.607-.516zm32.476.013l1.2 1.495c-2.543 24.23-19.797 45.192-38.22 53.503l-.055-1.607c21.076-11.103 33.76-29.588 37.075-53.39zm83.383.102l2.283 3.152-3.272.1.989-3.252zm-97.993 1.024c1.13 0 7.134 3.706 6.331 5.552-.638 1.469-5.663 1.587-7.966 1.381l.346-1.414s.702.245 3.379-.04c2.81-.187 2.604-1.156-.618-3.202-1.386-.87-1.707-1.085-1.707-1.085l.235-1.192zm16.636 1.987c1.86 3.145 3.62 6.69 5.274 10.66-22.695 21.48-20.933 50.733-6.624 69.934l-6.166 8.347c-12.329-11.8-19.042-26.315-21.31-41.733 17.996-12.987 26.452-32.368 28.826-47.208zm84.277.953l1.356 2.598-3.255-.054 1.9-2.544zm-14.052 1.301c1.05 0 1.9.853 1.9 1.905s-.85 1.901-1.9 1.901a1.904 1.904 0 0 1 0-3.806zm-52.807.512l.646 1.477c.03.185-4.593 1.648-6.08 3.53-1.374 1.737-1.245 3.55-.472 4.801 1.317 1.784 2.252 2.034 4.474 1.35 1.813-.557 3.145-1.31 4.943-2.23l.283.744c.003-.04-2.581 1.521-4.552 2.635-.74.418-1.629.596-2.4.577-4.484-.108-6.859-5.911-3.162-9.338.542-.503 2.372-1.509 3.913-2.307 1.027-.531 2.407-1.239 2.407-1.239zm59.354.916c14.802 21.415 4.669 44.882-4.889 53.184l-.256-2.52c16.093-18.387 10.495-39.86 3.789-49.404l1.356-1.26zm9.525.962l1.163 2.645-3.437-.364 2.274-2.28zm-59.663.865a1.73 1.73 0 0 1 0 3.458c-.952 0-1.722-.771-1.722-1.726s.77-1.732 1.722-1.732zm48.372.339c12.974 18.905 5.74 49.05-19.008 58.233l-.126-2.113c25.232-10.581 27.712-38.751 17.573-54.645l1.561-1.475zm-56.239.115l1.64 4.44c-2.063 1.385-2.871 1.62-5.182 2.185-1.821.417-3.242-2.74-1.843-3.95 1.597-1.382 3.316-1.98 5.385-2.675zm-42.077.015c.305-.014-.017.744-.8 2.646-1.726 4.19-1.843 4.28-6.188 4.97-2.261.36-3.945.45-5.552.295-2.425-.234-3.463-.921-1.892-1.253 4.556-1.004 9.593-3.37 12.868-5.662.854-.614 1.355-.986 1.564-.996zm82.462.517a2.14 2.14 0 0 1 0 4.28 2.133 2.133 0 0 1-2.13-2.14c0-1.181.952-2.14 2.13-2.14zm-64.495.592l-.182 1.648s-2.633 1.394-3.879 1.92c-.952.387-1.018.473-.712 1.358.616 1.768 1.804 3.96 1.804 3.96l-1.1 2.5c-.67-2.248-1.379-4.624-2.613-6.717-1.17-1.638-1.39-1.841.433-2.184 2.353-.794 4.183-1.369 6.25-2.485zm23.504.535c-1.287.057-3.977 1.142-4.243 2.18-.15.587.016 1.407.51 1.592 1.34.498 4.027-.606 4.735-1.615.221-.311-.114-.957-.351-1.36-.18-.307-.146-.819-.65-.797zm.066.885a.387.387 0 0 1 .068 0c.219-.02 1.013.989.12.904-.306-.03-.586.086-.838.348-.031.484-.723.668-1.057.503-.248-.123-.595.13-.63.28-.501.362-1.134.345-1.215.088-.17-.18.335-.921.775-.894.095.006.407-.206.7-.46.14-.505.672-.418 1.007-.391.38.153.728-.343 1.07-.378zm69.7.078l.951 2.649-3.4-.304 2.448-2.345zm-15.754.582c1.142.325 1.776 1.397 1.146 2.47-.704.9-1.353.909-2.38.861.841.998 1.213 2.378.395 3.282-1.244 1.273-3.645-.678-3.467-.857l4.306-5.756zm-92.376.97s5.235 4.522 5.272 6.55c.015.772-.233 1.022-.848 1.226-2.057.684-7.78-1.073-7.78-1.073l.736-1.4c.9.249 5.336 1.4 5.717.833.396-.588-3.704-4.6-3.713-4.605l.616-1.53zm25.982 1.89l.627 2.187-2.14-.533 1.513-1.654zm83.594.391l.56 3.023-3.428-.802 2.868-2.22zm-65.345.049l.511 1.774c-22.738 10.576-29.379 34.864-17.52 54.907l-1.34 1.848c-15.873-25.797.203-51.98 18.35-58.53zm-51.778 1.786c.45.006.536.25.534.516-.002.363-2.297 3.303-3.041 3.964-1.613.654-7.833-1.954-8.762-3.971-.184-.591.43-.332 1.808-.051 3.49.998 7.028-.373 9.461-.458zm60.58.035a1.729 1.729 0 0 1 0 3.458 1.727 1.727 0 0 1-1.723-1.732c0-.955.77-1.726 1.722-1.726zm-29.288.037l.309 2.692-2.642-.154 2.333-2.538zm-42.338 2.092c1.73 1.56 4.274 2.85 6.529 3.3 1.404.31.997.455-.305 1.804-1.218 1.276-1.118 1.439-2.358.808-2.069-1.052-4.32-3.444-4.23-4.745.038-.541.133-1.17.364-1.167zm129.154.293l.43 2.87-3.242-1.125 2.812-1.745zm-90.036 1.034l1.056 2.571-2.874-.082 1.818-2.49zm71.132.613c1.355-.062 1.881.987 1.89 1.843-.002.36-.088.966-.088.966 1.69-1.078 3.934-.192 3.867 1.55-.094 2.458-1.291 2.481-3.249 2.155 1.072 1.783-.201 3.5-2.216 2.842-1.837-.599-1.482-2.541-.623-3.693-4.333.709-5.492 6.891-.488 8.729-1.006-1.562-1.256-3.427.927-3.74 2.027-.291 2.886 1.25 2.01 3.105 1.904-.664 3.698.432 3.124 2.292-.692 2.247-2.683 2.092-3.858.723.843 2.037-1.109 3.503-2.581 2.714-2.322-1.244-1.174-3.463.382-4.054-5.979-.618-7.367 7.676-2.96 8.86-1.131-.712-1.258-3.978 1.325-3.53 2.537.511 1.932 2.875.305 3.95 1.964-.42 3.804 1.3 2.608 3.04-1.41 2.052-3.353.59-4.074-.806.227 1.873-.96 3.065-2.488 2.363-2.623-1.206-.685-4.225 1.365-4.032-4.16-2.466-9.816 2.707-6.484 6.989-.13-1.945.837-3.542 2.17-3.321 1.172.132 2.197 1.473 1.867 2.526-.307.899-1.328 1.588-2.398 1.804 3.181.354 3.453 2.612 2.134 3.724-2.238 1.89-3.277-.29-3.796-1.566-.456 3.17-4.183 2.091-4.312-.198-.127-2.51 2.76-2.458 3.294-2.317.067-.086-2.235-2.37-4.69-2.695l.015-1.456c9.682-6.09 13.012-16.723 9.94-26.803l.582-.672c1.579 1.21 3.163 3.803 6.083 2.852 0 0-.68-.479-1.016-.81-1.503-1.486-.657-3.237 1.433-3.334zm-63.79 1.837l1.003 1.477c-14.68 17.25-12.004 36.987-3.562 50.054l-1.23 1.49c-7.47-9.608-13.571-32.903 3.79-53.02zm-46.528.215c1.213.702 2.022 1.762 3.154 2.688.874.71.863.838.14 1.513-1.626 1.573-2.54-.705-3.065-1.636-.644-1.247-.71-2.518-.23-2.565zm57.256.099c1.099.104 1.841 1.182 1.783 2.07-.02.385.008.694.008.694s.317-.393.573-.865c1.253-2.102 3.95-.892 3.507 1.522-.208 1.132-2.11 1.574-2.627 1.25.493 1.35 1.827 1.666 3.453 2.25a23.7 23.7 0 0 1 1.542.388l.039.913c-8.806 5.565-13.791 15-10.563 27.902l-.973 1.321c-1.777-4.286-3.397-4.191-6.317-4.36 0 0 .725.514 1.143 1.01.886 1.05.492 2.879-.734 3.07-2.839.44-2.867-1.578-2.491-2.946 0 0-.509.428-.758.59-1.126.735-2.529-.028-2.66-1.484-.124-1.37.343-2.257 1.75-2.427.472-.057 1.2.062 1.2.062s-.28-.538-.433-.841c-.673-1.325.803-2.458 2.16-2.172 2.14.517 1.971 2.37.731 3.826 3.32.25 5.061-1.928 4.817-4.09-.3-2.636-1.51-4.06-4.121-4.52 0 0 .421.663.602.983.668 1.19-.293 2.65-1.698 2.642-1.44-.01-2.363-1.334-1.808-2.642.135-.318.677-.717.595-.753-.057-.026-.8.205-1.005.237-1.73.27-2.842-1.256-2.116-2.781.514-1.08 2.06-1.372 3.183-.842.178.066.395.316.429.261.033-.053-.114-.407-.16-.656-.355-1.397.313-2.145 1.822-2.048 2.112.136 2.9 1.864 1.48 3.421-.366.402-.928.995-.928.995.07.307 3.012.529 4.515-1.05 1.74-1.826 2.015-5.636.266-6.88l-.868-.613c.832 1.675-.7 3.601-2.053 3.241-2.704-.654-2.47-2.873-.691-3.574 0 0-1.803-.677-2.323-1.405-.734-1.029-.486-1.978.394-2.702 1.11-.894 2.686-.307 3.447.797.46-1.404 1.108-2.354 3.024-1.59 1.34.642 1.328 2.435-.147 3.411-.473.313-1.313.604-1.313.604s1.267.725 2.81.742c2.977.034 5.333-3.485 4.133-6.174-.244-.546-.853-1.251-.853-1.251s-.065.94-.25 1.301c-.688 1.341-2.27 1.364-3.205.518-.85-.768-.6-1.796.058-2.497.5-.532.951-.636 1.65-.962-.794-.269-1.676-.463-2.061-1.286-.359-.784-.108-1.75.843-2.347.428-.225.834-.298 1.2-.263zm72.727.335l.202 3.043-3.379-1.302 3.177-1.741zm-93.135.18l1.215 2.765-3.138-.013 1.923-2.753zm65.582.003c2.95 10.936-1.2 18.786-9.07 24.934l-.871-1.146c6.152-5.242 10.756-11.42 8.721-22.428l1.22-1.36zm-90.434.037s4.558 5.92 3.649 7.922c-1.207 1.911-8.395-2.202-8.3-2.419l.9-.869c1.142.465 4.695 2.43 5.481 2.12.275-1.79-1.821-4.106-2.61-5.647l.88-1.107zm54.275.012l34.601.639-1.035 1.827-2.695.016-5.347 9.478-24.867-.006-.657-11.954zm-38.834.952l-1.197 2.17c-1.12.345-4.499.407-4.771.632.408 1.112.856 4.378.856 4.378l-1.332 1.709a79.543 79.543 0 0 0-1.472-6.707c-.448-1.653-.323-1.29 3.187-1.562 1.573-.09 3.193-.29 4.729-.62zm7.096 2.616l1.423 2.535-2.884.029 1.46-2.563zm-34.65.17c.157-.064 1.051.94 1.204 1.23-.065.658-1.083 1.017-1.24.782-.064-.095-.084-1.573.017-1.983.004-.016.009-.025.02-.029zm130.524.035l-.03 3.171-3.427-1.523 3.457-1.648zm27.215.715l-.047 2.055c-12.43 6.09-30.972 22.438-36.261 51.762l-1.084-1.198c5.286-27.998 23.528-44.553 37.392-52.619zm-125.035 2.828l1.546 2.336-2.79.306 1.244-2.642zm97.887.896l-.273 2.81-3.376-1.877 3.65-.933zm-64.935.585c.013.666.07 1.148.11 1.813-7.659 4.974-10.247 12.8-8.971 22.65l-1.06 1.573c-2.493-8.931.023-19.937 9.921-26.036zm-62.702.385s2.918 6.59 1.765 8.143c-1.12.917-3.707-.61-4.882-1.231l-.033-1.576s.896.46 1.799.822c1.853.824 1.858-.158.842-2.91-.357-.968-.71-2.089-.71-2.089l1.22-1.159zm151.507.195c.78.46 3.311 1.208 3.311 1.208l-.027 1.868-5.213-1.876 1.929-1.2zm-123.575 2.036l1.995 2.094-2.781.639.786-2.733zm121.074.236c.187-.014.384-.01.588.015 1.766.002 5.172 1.442 5.172 1.442l-.022 2.072c-1.73-.502-3.739-1.467-5.568-1.737-1.444-.2-1.359.612-1.367 2.659-.01 2.773.684 5.277 2.006 8.05 1.095 2.297.524 2.911-1.264 1.886-3.218-2.215-10.076-3.885-11.132-2.597-1.085 1.326 1.053 7.926 3.525 11.074 1.004 1.28 1.067 1.485.598 1.983-.38.404-.994.428-2.078.082-3.565-1.138-8.724-1.394-10.21-.43-1.476.957 2.363 7.567 5.586 9.7 2.091 1.496 1.688 2.24-1.691 2.316-5.518.026-9.763 1.261-9.528 2.772.4 2.568 3.973 6.09 8.075 7.96 2.51 1.028 1.461 1.437-.208 2.031-2.79.945-5.472 2.459-8.098 3.873l-1.262-1.62s2.642-1.684 5.515-3.303c.674-.38.639-.518-.305-1.31-3.06-2.575-5.306-5.446-5.775-7.38-.457-1.878.478-3.065 3.259-4.125 1.717-.655 2.35-.847 3.866-1.188 2.185-.492 2.221-.56 1.288-2.244a517.06 517.06 0 0 1-1.523-2.772c-3.255-5.584-1.539-7.598 6.016-7.712 1.856-.098 2.21-.104 2.108-.746-.402-2.63-1.563-5.65-1.399-7.88.346-3.36 3.794-4.173 9.85-2.657 1.403.351 1.5.28 1.253-.857-1.1-4.797-.094-9.154 2.725-9.358zm-21.638.374l-.53 3.258-3.226-2.152 3.756-1.106zm-120.621.769l8.896.584-1.414 1.664-5.375-.101-.202 4.603-1.72 1.48-.185-8.23zm57.653.353h7.323l-.058 7.766h-7.3l.035-7.766zm8.725 0h6.816v7.766l-6.758.072-.058-7.838zm8.162 0h7.308l-.066 7.766h-7.238l-.004-7.766zm63.833.619c-.173 1.997.245 5.606.413 7.157-.118.461-.438.395-2.352-.04-1.327-.444-5.006-.576-5.006-.576l1.542-1.638c1.26.15 2.255.138 3.56.302-.019-1.308.036-3.804.036-3.804l1.807-1.401zM67.18 159.09l2.045 2.065-2.618.672.573-2.737zm99.89.672l-.814 3.323-2.962-2.67 3.776-.653zm23.95.091c1.481-.034 2.72.469 4.087 1.674l.011 1.696-2.91-1.314c-.034 1.933 1.673 5.426 1.673 5.426l-1.384.653c-1.199-1.964-2.031-3.728-2.1-5.941.015-.801-.096-2.156.624-2.194zm-124.838 3.353l2.431 1.45-2.695 1.092.264-2.542zm99.957.744l-1.19 3.419-2.598-2.96 3.788-.459zm-128.858 1.089l6.556 2.228-1.167 1.243-5.448-1.726.059-1.745zm91.991.904l.54 12.114-34.646-.286 1.206-1.713 2.251-.02 5.931-10.027 24.718-.068zm-63.552.942l2.575 1.824-2.676 1.184.1-3.008zm129.544 1.07l.006 1.98c-8.365 6.2-17.41 16.883-18.948 35.773l-2.257 1.934c1.101-18.444 8.759-31.159 21.2-39.687h-.001zm-30.517.072l-1.216 3.076-2.406-2.864 3.622-.212zm9.967.567c-.052 1.828 1.425 7.503 1.425 7.503-2.28.113-4.493-.15-6.954.544l1.159-2.075s1.072-.113 2.01-.3c1.939-.386 1.738-.151 1.288-1.843-.424-1.59-.447-1.92-.447-1.92s1.38-1.92 1.519-1.91zm6.387.386c2.273.018 5.686 2.063 7.216 3.23l-.806.903c-.227.076-3.417-1.637-5.925-2.04.821 1.63 1.21 2.844 3.028 5.426l-1.171 1.16c-.353-.078-4.9-6.813-3.696-8.333.366-.247.83-.35 1.354-.346zm-134.246 1.575c2.993 18.187 10.146 30.674 21.43 41.912l-1.148 1.504c-13.265-12.177-20.506-27.673-22.399-42.246l2.117-1.17zm18.667.764l2.439 1.336-2.506 1.465.066-2.801zm129.709.055l-.016 2.666-1.528-1.544a9.452 9.452 0 0 1 1.544-1.122zm-32.158.545l-1.662 3.062-2.172-2.9 3.834-.162zm29.793 1.32c2.212.31 2.922 4.742 2.186 5.605-.342-.54-3.388-2.439-4.77-3.236-.087-.234 2.141-2.23 2.584-2.368zm-35.565 2.276l3.54.337-1.88 2.93-1.66-3.267zm-91.745.002l2.758 1.35-2.503 1.768-.255-3.118zm124.505 1.301c.46.003.978.197 1.622.557 2.493 1.393 3.8 2.918 3.663 4.274-.064.623-.41.749-.814.296-.727-.816-3.18-1.878-5.294-2.293-1.602-.314-1.749-.45-1.268-1.194.728-1.127 1.326-1.645 2.091-1.64zm-42.643 1.286c3.834 14.56 10.573 25.766 19.034 34.988l-1.753 1.498c-6.425-7.393-13.491-16.044-19.261-34.749l1.98-1.737zm7.654.779l3.542.537-2.074 2.65-1.468-3.187zm-49.949.156c.41.014-1.218 6.21-6.845 6.638-3.563.593-3.963 1.194-4.017 6.756-.073 7.538-1.286 9.303-7.43 9.768-4.068.309-4.603 1.139-3.915 6.997.655 5.577-1.445 8.42-6.628 8.415-4.489.373-6.345 2.473-6.34 6.645.001 1.69.028 2.098.028 2.098l-2.9.228s.005-2.746.224-4.081c.885-5.397 3.192-7.559 8.048-7.535 3.755-.286 4.338-.897 4.208-6.605-.145-5.807-.223-5.769 1.288-7.29.973-.978 2.083-1.418 4.055-1.604 6.14-.58 6.624-.992 6.609-7.307-.57-5.247.877-8.459 4.2-8.723 6.724-.534 6.564-4.196 6.267-4.348l3.129-.048a.05.05 0 0 1 .02-.004zm13.75 0c3.944 21.332 16.42 41.307 23.267 48.68l-1.336.711c-9.98-12.433-19.051-26.71-23.537-49.36l1.606-.032zm-7.122.008l3.121.035-35.933 50.722-1.894-1.432 34.706-49.325zm4.36.035c3.376 12.295 6.032 24.32 16.647 40.404l-45.03-.297 28.383-40.107zm12.433.048c.262-.121 1.32 6.221-.256 9.15-1.418 3.963-.724 6.195 2.36 7.64 5.294 2.48 6.63 4.955 5.957 11.044-.47 4.264.817 6.325 4.807 7.695 4.76 1.634 6.841 4.201 6.816 8.409-.004.646-.244 1.383-.244 1.383l-2.657 1.566s.032-.572.134-1.256c.692-4.665-.188-5.93-5.679-8.13-5.185-2.077-6.47-4.48-5.587-10.47.289-1.953-.11-3.927-.916-5.415-1.357-2.424-4.357-2.4-6.514-4.614-1.782-1.896-1.98-4.543-.462-9.076.941-2.809 1.083-3.873.351-6.213-.481-1.542-.67-1.68-.67-1.68l2.56-.033zm-62.539.676l3.055.848-2.3 2.394-.755-3.242zm121.316.635c1.049-.028 3.076.34 4.737 1.17 3.808 1.902 4.5 3.462 1.163 2.621-1.882-.474-4.589-.367-7.2.28-2.758.685-2.699.715-1.749-.958 1.203-2.118 1.516-3.07 3.05-3.113zm-13.738.797c2.31-.035 4.638.628 6.826 1.451l-.693 1.194c-1.513-.251-3.105-.995-5.41-.812.945 1.814 2.066 2.752 3.57 4.352l-.562 1.2c-.135.162-4.39-3.4-5.244-5.794-.385-1.08-.036-1.551 1.513-1.591zm-50.053.277c1.14 0 2.064.927 2.064 2.07a2.07 2.07 0 0 1-2.064 2.075c-1.14 0-2.063-.931-2.063-2.075 0-1.143.922-2.07 2.063-2.07zm42.747.062s3.364 6.674 3.15 6.929c-2.085.921-4.36 1.398-6.651 2.236l.439-1.94s.763-.054 3.325-1.033c1.226-.468-1.339-3.89-1.339-3.89l1.076-2.302zm-13.666.499l3.486.627-2.324 2.612-1.162-3.24zm-65.195.025c.825-.066 2.099 1.538 2.095 1.54l-4.226 5.856c-2.01-.405-1.581-3.462.26-3.555.426.003 1.203.076 1.203.076s-.567-.31-.894-.744c-1.234-1.495-.065-3.043 1.562-3.173zm55.592 1.45c4.908.04 4.97 6.081 4.03 8.08-.683 1.37-1.723 2.13-4.865 3.554-2.723 1.234-3.028 1.151-3.028 1.151l-.65-1.457s1.586-.701 3.293-1.392c3.53-1.43 4.388-2.522 4.001-5.083-.547-3.625-3.34-4.188-8.741-1.759-.627.282-1.418.565-1.418.565l-.37-.73c.086-.072 4.326-2.301 6.701-2.854.372-.053.72-.079 1.047-.076zm-75.913.656l2.777.92-2.026 1.996-.751-2.916zm123.704.779c2.454-.007 4.477.408 4.47 1.285-.002.417-.096.454-2.3.76-3.35.466-8.948 3.333-12.097 5.994-1.865 1.576-1.382 1.21-.597-1.075.782-2.273 1.948-4.986 2.58-5.4 1.577-1.034 5.163-1.556 7.944-1.564zm-40.126.313l2.362.519-1.536 1.494-.826-2.013zm-7.915 1.288c.846-.012 1.261.386 1.594 1.198.719 1.754.009 2.786-2.729 3.962-1.24.557-2.348 1.34-3.707 1.59l-1.72-4.633s.543-.2 2.334-.942c2.04-.847 3.382-1.163 4.228-1.175zm-7.984.561c5.464 15.503 12.15 25.573 19.226 33.917l-1.711 1.074c-7.515-8.918-14.433-19.367-19.416-34.75l1.9-.241zm60.385.481c.238.025.356.112.315.28-.004.65-9.831 9.994-15.451 14.75-2.56 2.168-2.473 2.15-2.692 1.882-.137-1.61.952-7.358 1.612-8.36 3.753-3.986 9.544-7.23 15.179-8.449.443-.088.8-.127 1.037-.103zm-52.807.07c-.662.019-1.654.42-2.98.933-1.926.746-2.092 1.646-1.229 2.76.377.487.766.38 2.618-.356 1.89-.751 2.706-1.086 2.82-1.76.165-.985-.378-1.6-1.23-1.577zm.174.522a.695.695 0 0 1 .655.711c-.002.302-.437.593-.888.59-.16 0-.548.09-.794.343-.243.354-.4.694-.839.61-.255-.049-.726-.065-.91.096-.864.753-1.722.129-1.323-.628.1-.19.45-.288.734-.286.245 0 .804-.056.886-.358.097-.361.649-.46 1.033-.448.417.056.754-.155.862-.33.155-.139.337-.282.51-.296.025-.002.05-.005.074-.004zm-44.44.121a2.074 2.074 0 0 1 0 4.145 2.07 2.07 0 0 1-2.063-2.074c0-1.144.922-2.07 2.062-2.07zm-29.869.043l3.129.427-1.972 2.534-1.157-2.961zm62.457 1.597c1.14 0 2.065.927 2.065 2.07 0 1.145-.924 2.072-2.065 2.072a2.067 2.067 0 0 1-2.064-2.071c0-1.144.924-2.07 2.064-2.07zm-61.059 2.34l3.395.218-1.944 2.606-1.45-2.824zm17.921.498c1.14 0 2.062.925 2.063 2.07 0 1.143-.922 2.07-2.063 2.07a2.067 2.067 0 0 1-2.064-2.07c0-1.145.924-2.07 2.064-2.07zm84.795 1.292c1.415-.023 3.056.12 3.056.12l-.398 1.592c-1.725.165-3.941-.315-5.793.462.688 1.128 4.717 2.723 5.162 3.12.042.168-.332 1.687-.332 1.687.108.388-6.818-2.82-7.048-5.526.006-.918 2.993-1.417 5.353-1.455zm-23.823 1.654c3.936.036 5.88 5.548 4.35 7.988-.606 1.103-1.973 2.41-3.775 3.563-.867.554-3.164 1.683-3.164 1.683l-1.031-1.6s.916-.368 1.779-.84c2.168-1.229 6.566-3.847 4.44-7.41-1.194-1.93-2.98-2.305-6.691-.416-2.77 1.411-3.4 1.543-3.4 1.543l-.703-1.278c.184.106 5.53-3.12 8.195-3.233zm12.68.206c1.879 3.647 5.095 6.403 5.973 7.065 0 0-3.203 2.062-5.115 3.376l-1.123-1.325 2.746-2.364-3.093-4.329.611-2.423zm-89.518.368l3.09.006-1.32 2.794-1.77-2.8zm119.671.513c-.348 1.801-.402 3.712-.55 5.816.678.62 1.288.932 1.82.896.598-1.892 1.027-4.042.742-6.255-.565-.442-1.31-.392-2.012-.457zm.932.541a.38.38 0 0 1 .257.016c.385.187.352.464.36.812-.01 1.188.156 2.67-.35 3.816-.29.652-.947.407-.97-.48-.03-1.198.213-2.205.282-3.297.03-.467.188-.794.421-.867zm-44 1.644c2.03.152 2.81 1.854 2.062 3.076-1.833 2.35-3.708 2.776-6.113 4.135l-2.4-4.501s4.672-2.646 6.45-2.71zm-.056 1.005c-1.342.158-2.19.815-3.317 1.37-1.382.678-1.831 1.729-.894 2.68 1.034 1.156 4.642-1.598 5.238-2.263.366-.572.305-1.093-.21-1.504-.223-.178-.5-.28-.817-.283zm-74.013.191l3.024.033-1.635 2.316-1.389-2.349zm73.947.357c.13.01.249.051.341.117.515.366.47 1.021-.254 1.207-.367.095-1 .098-1.014.589-.01.365-.568.502-.885.45-.325-.054-.875-.082-.981.327-.278.556-.487.565-.876.177-.418-.423-.222-.958.594-1.048a1.02 1.02 0 0 0 .775-.561c-.019-.347.224-.549.608-.47.542-.005.898-.207 1.284-.714a.814.814 0 0 1 .408-.074zm-17.345.177c1.14 0 2.065.925 2.065 2.069a2.07 2.07 0 0 1-2.065 2.074c-1.14 0-2.062-.93-2.062-2.074 0-1.144.922-2.07 2.062-2.07zm-44.07 3.808c1.14 0 2.068.93 2.068 2.075a2.066 2.066 0 1 1-4.133 0 2.07 2.07 0 0 1 2.065-2.075zm86.92 1.753l.015 1.559c.052.07-3.214 1.515-5.127 2.384-.62.34-.378 1-.34 1.679l-.92.625s-1.275-.931-1.442-1.529c-.466-1.887 5.526-4.147 7.813-4.718zm-136.303.084l23.638 16.215-1.616 2.364-21.954-14.975-.068-3.604zm118.682.528c1.538 0 2.723.888 3.87 2.678 2.279 3.555 1.137 6.358-3.58 9.222-2.192 1.33-2.209 1.346-2.209 1.346l-1.114-1.38s1.596-.942 2.256-1.359c3.878-2.457 4.97-4.63 3.265-7.079-1.643-2.359-3.37-2.171-8.159.885-.968.617-2.126 1.102-2.126 1.102l-1.05-1.432s2.711-1.397 3.635-1.986c2.122-1.36 3.855-1.998 5.212-1.997zm-16.507 1.064a2.07 2.07 0 0 1 2.068 2.07 2.074 2.074 0 0 1-2.068 2.075 2.07 2.07 0 0 1-2.064-2.075c0-1.144.924-2.07 2.064-2.07zm-64.038.58c1.14 0 2.062.927 2.062 2.07a2.064 2.064 0 1 1-4.126 0c0-1.143.924-2.07 2.064-2.07zm80.458 1.654c.783-.029 1.37.484 1.691 1.266.82 2.003-.294 3.486-4.332 5.756-.34.19-1.057.579-1.057.579l-2.975-4.12s1.048-.722 2.035-1.315c2.213-1.452 3.63-2.13 4.638-2.166zm-.396.985c-.19.005-.41.08-.665.228-1.036.6-2.769 1.25-3.586 2.336-.478.664-.262 1.324.644 2.176.768.51 4.733-2.418 4.832-3.269-.335-.9-.654-1.486-1.225-1.47zm-118.03.224l.66.445-.66.522v-.967zm118.068.497c.244.013.474.084.593.224.293.358.116.967-.505 1.073-.313.054-.776.14-.926.604-.125.307-.552.566-.973.556-.487-.113-.743.182-.77.397-.239.41-.833.477-1.194.091-.281-.3.223-1.164.556-1.15.059.027.423.109.866-.484.089-.43.589-.695.951-.68.369.126.585-.282.732-.508.17-.09.427-.136.67-.123zm-116.497.538l.95.643-2.521 1.794v-1.446l1.57-.991zm1.84 1.208l1.294.866-4.705 3.38v-1.833l3.412-2.413zm2.413 1.542l1.363.906-7.187 4.87v-1.878l5.824-3.898zm2.588 1.317v1.566l-8.412 5.89v-1.587l8.412-5.869zm.95 1.126l1.812 1.243.454 53.096-11.335 7.812.01-2.322 9.518-6.9-.459-52.929zm136.734 1.436c-2.542 2.91-5.952 3.106-8.926 3.027-8.012.112-12.985.542-14.015 10.125 3.264-2.447 6.724-2.765 10.731-2.65 5.075-.006 7.358-.34 9.421-1.372 3.314-1.659 5.41-4.628 5.01-6.711-.393-.45-1.423-2.308-2.221-2.42zm-137.684.465v1.837l-8.412 5.653V225.2l8.412-5.624zm96.062.17a2.07 2.07 0 0 1 0 4.139 2.064 2.064 0 0 1-2.062-2.069c0-1.143.922-2.07 2.062-2.07zm-54.918.212c14.864.463 46.432.284 46.432.284l1.683 2.433-49.634-.522 1.519-2.195zm96.88.088c.455-.03.516.583-.424 1.507-1.778 1.75-3.624 2.606-9.47 2.501-6.175-.11-8.583.867-10.181 3.626-.465.801-.455 1.114.217.508.565-.673 1.848-1.97 2.38-.742 1.048-.689 1.956-1.737 2.505-.411.304-.068 2.083-1.857 2.505-.273.85-.954 1.58-1.252 1.979.101 1.209-.575 1.851-1.664 2.538-.16.974-.699 1.712-1.572 2.28-.24.83-.246 1.677-1.774 2.157-.556.09.03 3.092-1.782 3.943-3.575.697-1.58 1.338-.531.545 1.084-2.035 3.955-5.517 5.399-13.508 5.41-4.851.006-6.859.483-8.382 1.374-2.447 1.431-1.128-2.172.586-4.357 2.161-2.755 4.624-3.568 11.373-3.322 3.689.022 6.046-.49 7.044-1.297.845-.685 1.458-1.148 1.913-1.178zm-109.64.837c1.141 0 2.07.931 2.07 2.075a2.07 2.07 0 0 1-2.07 2.07 2.067 2.067 0 0 1-2.063-2.07 2.07 2.07 0 0 1 2.064-2.075zm-28.384 1.535v1.868l-8.412 5.758v-1.909l8.412-5.717zm40.676.896h6.527v6.91H86.61v-6.91zm14.627 0h7.025v6.91h-7.025v-6.91zm15.635.222h6.778v6.688h-6.778v-6.688zm14.686.135l4.511.156s2.506 3.196 3.564 4.67l-3.336 1.717-4.739.01v-6.553zm-41.81.47a2.3 2.3 0 0 0-2.3 2.302 2.303 2.303 0 0 0 2.3 2.306c1.27 0 2.3-1.033 2.3-2.306a2.3 2.3 0 0 0-2.3-2.303zm15.01.227a2.3 2.3 0 0 0-2.3 2.303 2.303 2.303 0 0 0 2.3 2.306c1.27 0 2.3-1.033 2.3-2.306a2.3 2.3 0 0 0-2.3-2.303zm15.352.06a2.3 2.3 0 0 0-2.302 2.3 2.307 2.307 0 0 0 2.302 2.31 2.305 2.305 0 0 0 0-4.61zm-36.638.468c.453.324.751.848.751 1.45a1.787 1.787 0 0 1-2.728 1.519l1.977-2.97zm6.276.023a1.524 1.524 0 1 1 .001 3.048 1.524 1.524 0 0 1 0-3.048zm37.866.059c1.02 0 1.847.83 1.847 1.852a1.844 1.844 0 1 1-3.688 0c0-1.022.821-1.852 1.84-1.852zm7.776.004a2.3 2.3 0 0 0-2.3 2.302 2.303 2.303 0 0 0 2.3 2.306 2.305 2.305 0 0 0 0-4.608zm-38.192.068c1.02 0 1.845.83 1.845 1.852a1.849 1.849 0 0 1-1.845 1.853c-1.02 0-1.843-.83-1.843-1.853 0-1.022.823-1.852 1.843-1.852zm7.56.097c.84 0 1.525.68 1.525 1.524 0 .842-.684 1.527-1.525 1.527a1.526 1.526 0 0 1 0-3.05zm-58.824.028v1.858l-8.412 5.894v-1.827l8.412-5.925zm74.176.03a1.527 1.527 0 0 1 0 3.052c-.84.001-1.525-.685-1.525-1.528s.684-1.523 1.525-1.523zm-7.696.194c1.02 0 1.844.83 1.844 1.852a1.847 1.847 0 1 1-3.691 0 1.85 1.85 0 0 1 1.847-1.852zm22.976.362c.84 0 1.524.68 1.524 1.523 0 .843-.684 1.527-1.524 1.527a1.526 1.526 0 0 1 0-3.05zm-65.433 1.601c3.919-.046 8.158 1.95 10.55 5.261 3.618 4.853 6.036 11.041 7.134 19.164.544 4.023 2.415 16.103 3.476 18.957l-1.46-.28c-.197.094-2.073-7.598-3.255-17.758-.437-3.762-1.234-8.62-3.412-13.053-2.487-5.06-6.71-10.425-12.343-10.851-3.285-.249-6.369 1.817-6.7 4.725-.473 2.298.87 4.438 2.631 5.154 1.73.705 3.798.18 4.03-2.185.04-.389 0-.78-.144-1.142.801-.13 1.411.232 1.736.91.17.021.007 3.43-2.666 4.1-3.226 1.06-6.949-2.142-7.238-5.405-.22-2.749 1.865-6.145 4.494-7.065a9.933 9.933 0 0 1 3.167-.532zm-24.023 1.058v1.895l-8.412 5.822v-1.909l8.412-5.808zm24.208 1.204c4.706-.135 9.286 5.128 11.226 8.594 2.025 3.617 3.63 9.363 4.182 14.769.939 9.195 2.696 16.714 3.066 17.056l-1.284-.28c-.268.18-2.036-8.122-3.113-17.362-.604-5.183-2.522-10.321-4.802-14.28-2.105-3.654-4.943-6.383-8.302-6.78-2.106-.211-4.272.397-4.696 2.62-.225 1.307.455 2.589 2 2.7.364.027.713.055.777.067.817.146-.466 1.477-1.311 1.36-3.017-.422-4.407-4.465-2.03-6.616 1.392-1.258 2.846-1.807 4.287-1.848zm10.075 1.35l52.844.537s.046.949-3.243.793c-2.797-.133-4.603.258-6.457.855l-41.519-.091-1.625-2.095zm-34.283.613v1.761l-8.412 5.904v-1.944l8.412-5.72zm24.56.746c1.014-.014 2.05.249 2.829.701 6.545 3.803 9.046 13.242 9.908 19.184 1.176 8.8 2.533 16.975 2.91 17.176l-1.426-.323c-.19.007-1.75-7.623-2.723-16.172-.786-6.91-3.144-13.851-7.817-16.771-2.999-2.047-3.587-2.253-4.975-1.058-1.198 1.03-2.415-.521-1.412-1.784.692-.65 1.69-.939 2.705-.953zm-24.56 2.384v1.446l-8.412 5.875v-1.713l8.412-5.608zm38.462.037c.108-.1 4.548 7.459 5.95 19.373.739 6.273 2.852 16.969 3.191 17.056L92 271.02c-1.573-6.308-2.442-12.278-3.282-17.66-.95-6.088-1.714-11.498-5.496-18.556l1.171-.039c0-.005.002-.008.004-.01zm1.008.065l1.375.02c2.35 4.488 4.85 11.46 5.713 18.448.746 6.036 1.5 12.177 3.653 18.57l-1.474-.408c-1.85-5.189-2.506-11.46-3.501-17.96-1.1-7.184-2.825-13.44-5.766-18.67zm8.48.01c2.405 6.245 3.97 9.223 5.067 16.91.853 5.965 2.057 13.426 4.797 21.33l-1.39-.06c-2.03-5.456-3.586-12.762-4.298-19.78-.967-9.533-5.235-18.433-5.274-18.377l1.099-.023zm-2.367.023c.13-.194 4.585 8.745 5.617 18.57.686 6.536 2.211 13.005 4.305 19.251l-1.421-.033c-1.643-1.905-2.873-10.933-4.228-19.36-1.384-8.601-3.333-13.892-5.496-18.414h1.22c0-.008.001-.012.003-.015v.001zm-3.59.01l1.262.006c3.304 7.242 4.676 11.55 5.694 18.554 1.287 8.857 2.523 16.847 3.89 18.928l-1.542-.101c-2.128-6.384-3.088-12.763-3.843-19.146-.818-6.913-2.798-12.835-5.461-18.24v-.001zm6.97.058l1.5.024c2.586 5.251 4.734 11.64 5.49 18.941.417 3.96 1.143 10.039 4.108 19.415l-1.2-.076c-2.429-6.288-3.887-13.69-4.758-20.145-.878-6.51-2.43-11.884-5.14-18.159zm9.238.043c1.417 3.642 2.584 7.26 3.35 10.983l-.849 1.66c-1.33-4.915-2.825-8.74-4.313-12.617l1.812-.026zm-6.842.006l1.827.043c3.14 7.307 4.752 15.035 5.193 17.627 0 0 .434 2.294.463 3.047-.106 6.385.996 10.94 3.365 17.806l-1.085-.078c-2.75-7.98-3.49-13.647-4.193-19.063-.582-6.807-2.791-13.822-5.57-19.382zm4.22.057c1.87 4.683 3.295 9.2 4.593 13.719-.059 1.026-.157 2.15-.824 2.98-1.525-5.527-2.811-11.273-5.167-16.69l1.398-.01zm3.451.039l1.447.025 2.882 8.283-1.129 1.252c-.847-2.742-1.713-5.757-3.2-9.56zm8.442.058l1.056 2.492-1.138.966s-1.161-2.33-1.466-3.429l1.548-.029zm2.146 0l.53 1.436-.955.73-.742-2.137 1.167-.029zm-8.283.03l1.49.01c.6 1.74 2.202 6.001 2.202 6.001l-1.07 1.126s-2.016-5.386-2.622-7.137zm2.31 0l1.32.013c.397 1.13 1.635 4.262 1.635 4.262l-.913.869-2.043-5.145zm6.907.058l1.307.062-.153.324-.816.407-.338-.793zm-42.85 1.843c5.472 2.893 6.982 11.56 7.575 16.325 1.036 8.315 2.197 15.08 2.443 15.262l-1.214-.195s-.897-4.272-1.518-8.337c-.517-3.382-.917-6.213-1.057-7.509-.087-.81-.222-1.753-.299-2.094-.764-3.416-1.01-4.197-1.996-6.276-.947-1.996-1.28-2.497-2.853-4.276-.604-.683-1.192-1.18-1.398-1.619-.294-.625.316-1.281.316-1.281zm-27.702.444v1.634l-8.412 5.959v-1.868l8.412-5.725zm0 2.867v1.882l-8.412 5.565v-1.667l8.412-5.78zm0 3.206v1.746l-8.412 5.88v-1.803l8.412-5.823zm14.049 1.765h.742l.052 1.224-1.146-.073.352-1.15zm-14.049 1.51v1.866l-8.412 5.571v-1.741l8.412-5.696zm13.18.71l1.78.02-.02 1.282-2.285-.078.526-1.223zm-1.03 2.056l2.92.052v1.22l-3.62-.059.7-1.213zm-12.15.265v1.96l-8.412 5.61v-1.97l8.412-5.6zm10.66 2.037l4.276.047-.025 1.02-5.105-.032.854-1.035zm-10.66 1.136v1.915l-8.412 5.401v-1.722l8.412-5.594zm8.875.91l5.873.081-.146.986-6.696-.03.97-1.037zm-8.875 2.084v1.84l-8.412 5.496v-1.77l8.412-5.566zm6.673 0l7.727.177 1.63 1.486-12.03.073 2.673-1.736zm-2.338 2.717l13.285.164.927.86-14.257.053.045-1.077zm-4.335.421v1.954l-8.412 5.526v-1.784l8.412-5.696zm4.349 1.716l14.724.068-1.066 1.185-13.678.039.02-1.292zm-4.349 1.48v1.789l-8.412 5.727v-2.055l8.412-5.46zm3.981.934l12.728.043-1.493 1.174-8.795.205-2.44-1.422zm-3.98 2.209v1.708l-8.413 6.044v-1.914l8.412-5.838zm7.703.218l7.473.033.14 1.007-6.426-.016-1.187-1.024zm2.069 2.074l5.736.059.27 1.301-5.105-.068-.901-1.292zm-9.773.91v1.586l-8.412 5.89v-1.755l8.412-5.721zm15.905 1.301l.066 1.237-3.421.13-.966-1.295 4.321-.072zm-.029 2.196l-.029 1.3-2.387.038-.536-1.253 2.952-.085zm-2.122 2.316l1.882.013-.16 1.002-1.456.019-.266-1.034zm.565 2.403h.916l-.155.783h-.468l-.293-.783zm18.61 13.24l-.439.565h13.152l.143-.565H78.863zm16.956 0l-.233.764h5.935l.165-.764h-5.867zm9.695.15l-.183.721h15.171l-.25-.72h-14.738zm18.152 0l.308.875h5.106l-.338-.875h-5.076zm17.614 0l-8.96.004.322.978h9.267l-.63-.981z"/>
        <path fill="#B388FF" d="M65.365 85.875s-4.646-7.63-10.912-16.603c-4.193-6.004-7.544-12.505-7.856-18.105-.357-6.397 3.026-12.814 9.15-13.125 6.122-.311 8.606 4.932 9.618 9.255 1.011-4.323 3.496-9.566 9.617-9.255 6.124.31 9.507 6.728 9.15 13.125-.312 5.6-3.663 12.101-7.855 18.105-6.267 8.972-10.912 16.603-10.912 16.603zM168.435 235.816s-4.645 7.63-10.912 16.603c-4.192 6.004-7.544 12.505-7.855 18.105-.358 6.396 3.025 12.814 9.15 13.125 6.121.31 8.606-4.932 9.617-9.255 1.012 4.323 3.496 9.566 9.617 9.255 6.125-.311 9.508-6.729 9.15-13.125-.311-5.6-3.663-12.101-7.855-18.105-6.266-8.972-10.912-16.603-10.912-16.603z"/>
    </g>
</svg>
