<svg xmlns="http://www.w3.org/2000/svg" width="234" height="322" viewBox="0 0 234 322">
    <defs>
        <filter id="a" width="106.4%" height="104.7%" x="-3.2%" y="-2.3%" filterUnits="objectBoundingBox">
            <feOffset in="SourceAlpha" result="shadowOffsetOuter1"/>
            <feGaussianBlur in="shadowOffsetOuter1" result="shadowBlurOuter1" stdDeviation="2.5"/>
            <feColorMatrix in="shadowBlurOuter1" result="shadowMatrixOuter1" values="0 0 0 0 0.701960784 0 0 0 0 0.533333333 0 0 0 0 1 0 0 0 0.5 0"/>
            <feMerge>
                <feMergeNode in="shadowMatrixOuter1"/>
                <feMergeNode in="SourceGraphic"/>
            </feMerge>
        </filter>
    </defs>
    <g fill="none" fill-rule="nonzero" filter="url(#a)" opacity=".5">
        <rect width="222.232" height="310.814" x="6.009" y="5.438" stroke="#B388FF" stroke-width=".997" rx="10.63"/>
        <path fill="#B388FF" d="M23.15 75.188s-2.215-3.18-5.203-6.918c-1.998-2.502-3.596-5.21-3.745-7.544-.17-2.665 1.443-5.34 4.363-5.469 2.918-.13 4.103 2.055 4.585 3.856.482-1.8 1.667-3.985 4.585-3.856 2.92.13 4.533 2.804 4.362 5.47-.148 2.332-1.746 5.041-3.745 7.543-2.987 3.738-5.202 6.918-5.202 6.918zM211.101 246.503s-2.214 3.18-5.202 6.918c-1.999 2.502-3.597 5.21-3.745 7.544-.17 2.665 1.442 5.339 4.362 5.469 2.919.13 4.103-2.056 4.585-3.857.483 1.801 1.667 3.986 4.585 3.857 2.92-.13 4.533-2.804 4.363-5.47-.149-2.333-1.747-5.041-3.745-7.543-2.988-3.738-5.203-6.918-5.203-6.918zM15.912 41.241h-2.745v-3.747h2.745s.021-2.02.1-5.582c.17-7.593.36-8.771 2.555-10.861 4.335-4.13 11.595-.765 11.51 5.446-.126 8.765-.036 17.121-.291 18.305-.455 2.085-.5 2.202-.315 2.583.38.765 3.66 1.097 3.66.883v3.691c-2.506.195-3.546-.04-5.55-1.473-1.251 1.208-5.06 2.422-8.09.994-2.304-1.086-4.05-3.891-3.579-10.239zm9.28 6.542c-1.36-1.968-3.65-4.654-5.805-5.608-.134 2.263.061 4.16.855 5.182 1.265 1.625 3.309 1.997 4.95.426zm1.129-21.65c-1.01-2.863-3.605-3.834-5.5-2.042-1.185 1.115-1.375 2.288-1.4 8.662-.015 3.931-.015 5.584-.015 5.584 3.69 1.198 7.14 5.506 7.11 5.45l.09-11.89a33.383 33.383 0 0 0-.284-5.763h-.001zM218.336 280.45h2.745v3.747h-2.745s-.021 2.02-.1 5.581c-.17 7.593-.36 8.772-2.555 10.862-4.335 4.13-11.595.765-11.509-5.446.126-8.765.035-17.122.29-18.306.455-2.084.501-2.202.315-2.583-.38-.765-3.659-1.096-3.659-.882v-3.691c2.505-.195 3.546.04 5.55 1.473 1.25-1.209 5.06-2.422 8.09-.994 2.303 1.086 4.049 3.89 3.578 10.238zm-9.28-6.543c1.361 1.969 3.65 4.655 5.805 5.609.134-2.263-.061-4.161-.855-5.182-1.265-1.625-3.309-1.997-4.95-.427zm-1.128 21.65c1.01 2.864 3.604 3.835 5.5 2.043 1.185-1.115 1.374-2.288 1.4-8.662.015-3.932.015-5.584.015-5.584-3.69-1.199-7.14-5.506-7.11-5.45l-.09 11.89c-.072 1.93.024 3.861.284 5.763zM198.76 29.267H35.491v263.156h163.267V29.267zm-20.12 2.123h17.553V132.84s-1.447-.03-1.348-.74c.133-.95-.012-2.727-.673-3.474-.278-.316-.733-.811-.913-1.172-.45-.905-1.193-1.842-1.787-2.095-.296-.125-.638-.196-.683-.402-.04-.19-.138-.822-.264-1.403-.316-1.454-.597-1.408.322-2.855 3.183-5.013 4.409-9.624 4.007-14.197-.126-1.428-.482-3.278-.65-3.532-3.077 3.105-5.304 6.942-7.397 9.776-.467-4.05-.4-7.107-.468-10.353 1.643-.472 2.637-1.353 3.345-3.605 0 0 1.761 1.388 2.84 1.19l-.71-2.617c4.711-1.455 5.355-7.646-.209-8.955l.501-3.26s-1.679.566-2.417.93c-.368.155-.459.031-.716-.504-2.595-4.065-6.624-3.2-8.4.808l-2.173-.93c.236 1.11.517 2.235.318 3.345-4.56 2.044-3.433 7.638.206 8.371l-.317 2.614 2.74-.89c.399 1.227.194 1.937 2.383 3.319-.054 5.477-.142 8.901.029 13.767-2.853-2.942-5.607-4.985-10.433-6.484 0 0-.045 1.18.235 2.97.092.592.075.505-.201.504-.628-.014-3.456-4.592-3.456-4.592s-.328.004-.615.29c-.337.337.433.958 1.514 2.575 1.265 1.892 1.143 1.812.149 2.661-5.651 4.829-13.813 23.207-12.442 24.994-3.572.215-17.496 7.09-20.025 21.263-.15.638-.447 1.466-.447 1.466l-4.027-1.006c2.43-11.609 7.91-35.214 7.91-35.214s3.854-1.103 6.108-1.346l-.024-.914-5.305 1.243.255-2.022 5.007-.992-.014-.48-5.3.717.865-3.368s-11.9 1.76-16.162 1.63c.27 13.097-.756 23.978-.204 38.092l-5.817-3.55c-.518-9.827-.673-34.648-.673-34.648l-16.063-2.54.534 3.899c-13.316-5.315-26.675-10.205-36.51-20.594 6.055-4.68 16.16-9.32 16.16-9.32l-.331-.746c-24.848 12.9-33.863 21.86-46.348 32.979V31.39h67.267l-.226 16.868s-.088.435-.216.586c-.83 4.06 1.55 11.27 1.071 14.779.222 1.083.144 3.097.144 3.097-4.048 5.584-6.193 10.886-7.996 17.377-.697.279-1.725.853-2.451 1.05l-.207.886c1.59-.88 6.094-2.313 6.094-2.313 20.068 9.851 34.815 7.44 50.598.12-2.517 8.896 2.955 20.206 11.956 22.585 1.03.272 2.793.503 3.802.237 1.008-.293-2.269-7.843-3.72-8.125-4.348-1.897-6.139-6.353-5.675-11.464l-.721-1.22c-1.483 6.21 2.084 12.514 6.982 14.053l1.317 2.894c-8.877-2.681-12.657-11.051-9.702-19.327.052-5.165-3.272-7.448-4.796-9.674-7.72-2.965-9.155-10.165-7.805-15.983 3.594 1.539-2.422-5.11-2.422-5.11-2.647 5.773-3.753 13.072 2.302 20.47-3.917 5.225-8.967 9.36-14.614 12.89-8.252 4.336-14.443 1.415-18.43-8.187-2.393-5.766-3.25-11.513-3.238-17.532.014-3.727.055-3.84 1.442-3.209 1.302.594 4.127.678 5.814-.198 2.3-1.194 2.19-.467-.312 2.124-.68.705-1.408 1.341-1.408 1.476 0 .765 1.068.12 2.595-1.403.557-.557.97-1.092 1.144-1.084.2.009.181.726-.048 1.5-.088.297-.369 1.553-.625 2.787s-.607 2.684-.779 3.223c-.678 2.14-.494 3.132 1.544 4.121 1.075.521 2.914 2.296 2.897 2.296 0 0-.439-1.946-.276-2.572.195-.752 1.084-.22 1.988.215 2 .962 3.164.99 4.238.087 1.48-1.245 1.056-4.042-.774-4.771-1.344-.535-1.578-.04-.238.901 2.012 1.413-.256 3.596-1.965 2.242-1.336-1.058-3.656-1.177-3.915-.295-.245.833-.498.682-1.422.138-1.438-.846-1.45-.994-.246-5.662 2.281-8.839 2.058-12.084-.965-14.77-2.238-1.987-5.935-2.91-9.77-.7v-3.01c5.63-2.266 9.725-6.12 13.028-12.393h.644c3.288 7.169 8.603 12.424 18.602 16.2 3.907 3.885-4.952-11.156-2.124-4.998-5.306-2.07-10.036-6.186-12.639-11.202h1.447c1.524 2.217 4.612 6.37 10.11 9.165 2.396.015-3.528-7.308-4.387-9.165h46.09c-1.462 11.303-3.522 23.398 4.583 45.413-3.801-2.01-19.044 2.272-16.36 3.118 1.346-1.565 11.059-3.876 18.246-2.168-.594-.517-10.96-24.79-4.93-46.363h-.001zm4.931 46.363c.013.011.026.017.03.005l-.03-.005zm-35.61 43.62l.044 1.77.365-.086-.211-1.723-.197.039zm-41.61-89.983h2.022c-.444.92-1.093 1.716-2.08 2.283l.057-2.283zm3.478 0h2.177c-1.696 2.718-3.499 4.47-5.675 5.758l.039-2.13a28.62 28.62 0 0 0 3.46-3.628zm3.6 0h2.008c-2.726 4.217-5.524 7.154-9.106 8.947v-1.723c2.213-1.733 5.35-4.385 7.098-7.224zm3.066 0h1.624c-2.793 5.357-6.688 9.164-11.788 11.221v-1.287c5.586-2.998 8.03-6.45 10.164-9.934zm4.44 0h1.951c2.677 5.356 8.238 10.53 14.345 12.75l.932 2.173c-8.05-2.91-13.381-7.262-17.228-14.923zm5.647 0h1.393c1.465 2.056 3.24 3.833 5.315 5.22l1.264 2.464c-2.8-1.897-5.926-4.306-7.972-7.684zm2.542 0h1.557l2.061 3.648c-1.373-.777-2.413-2.464-3.618-3.648zm-1.788 14.013c-2.135-.01-4.077.583-5.483 1.738-1.486 1.219-.393 2.547 1.744 1.548 3.64-1.702 7.822-.935 12.336 1.553 3.801 2.095 2.47-.088-1.076-2.42-2.43-1.618-5.101-2.407-7.52-2.419zm-17.165 2.744c3.062.025 6.57 1.39 6.655 3.199-2.03-1.71-6.113-2.541-10.029-.784-.3-.064-.342-1.137-.163-1.53.843-.626 2.145-.896 3.537-.885zm18.544 1.166c-1.936 0-3.708.51-4.527 1.607-.418.52-.528.576-.99.498-.9-.15-.85.374.178 1.81.5.697.417 1.49-.25 2.434-.765 1.085-.616 1.126 1.663 2.226 1.742.854 3.141 2.066 4.724 3.063 1.13.643 1.356.078.312-.769-.358-.29-1.42-1.054-2.374-1.68-1.616-1.059-2.803-2.13-1.518-1.654.59.187.74.266 1.389.377 1.665.363 3.311.565 4.71.281 1.002-.202 2.308-.87 3.382-1.805.275-.127.546.008 1.211.034 2.547.1 1.985-.653-1.672-2.662-3.618-1.987-6.456-2.35-8.77-1.258-.98.462-1.54.578-1.399.286a2.17 2.17 0 0 1 .86-.915c3.741-2.254 6.747-.385 10.044 1.307 1.415.849 1.798 1.07 1.966.798.215-.347-1.578-1.63-3.984-2.845-1.41-.737-3.246-1.132-4.955-1.133zm-11.958 2.61c.633.25.35.978-.229.749-3.454-1.562-4.147-2.323-8.265-.878-1.36.478-1.899.056-.23-.665 3.638-1.532 6.277-.499 8.724.794zm-2.367 1.838c-.936 4.785-5.666 3.31-5.132.024l.87.005c.067 2.89 2.943 2.87 3.435.029l.827-.058zm27.512.01l1.273 2.743c-2.786 6.91.997 16.213 9.222 18.442 0 0 1.327 2.053 1.067 2.313-15.442-3.441-14.254-18.265-11.562-23.498zm-14.628.179l.432.024c1.334 3.335 3.27 1.419 3.648.01l.985.024c-.301 3.454-5.505 4.04-5.065-.058zm-11.904.096c.625-.073.838.872.663 1.046-.048.048-1.191 1.166-1.33.508-.205-.963.407-1.507.667-1.554zm-7.203.097c.053 0 .106.003.163.01.388.298.535 1.187.332 1.645-.23.24-1.157-.087-1.336-.445-.276-.523.048-1.215.84-1.21zm25.046.32c.305.012 1.144.377 1.062.783-.02.104-1.188.97-1.45.828-.507-.272.193-1.515.292-1.592.017-.014.053-.021.096-.02zm-6.824.15c.01-.002.017-.002.02 0 .09.067.835.534.201 1.398-.044.06-.89-.243-.903-.344-.07-.502.566-1.019.682-1.054zm18.713 6.058c-.188 3.971.84 7.827 5.147 10.303l-.927-1.704c-1.104-.885-3.418-3.413-3.129-6.421l-1.09-2.178zm-38.675 7.1l.485 2.612a59.665 59.665 0 0 0-5.66 12.417l-2.24.823c1.778-5.744 3.422-10.296 7.415-15.853zm.942 4.069l.634 2.245c-1.163 2.16-2.407 4.599-3.157 7.438l-2.475.92c1.114-3.762 2.742-7.416 4.998-10.603zm7.847.929a.414.414 0 0 0-.11.014c-.026.443-.021 1.667.072 3.683.018.382.39.221 1.442-.32.916-.47.822-.546 1.71-.246 2.461.848 3.58.48 4.542.23 1.466-.38 2.064-.226 2.917.288.468.282 1.108.49 1.235.537.675.247.417-.052-.043-1.887-.519-2.065-.297-2.291-1.118-1.753-.18.118-.702.408-.987.442-.716.084-1.911-.8-2.624-.52-1.727.681-1.711.502-3.314.106-.802-.198-1.57.294-2.265.432-.398.05-.903-1.01-1.457-1.006zm29.372 1.07c2.917 2.693 5.916 3.616 9.17 4.635-.393 1.34-1.178 2.846-1.543 4.597-16.93 9.012-33.944 8.729-49.993.547l8.328-3.203c4.55 7.935 10.383 10.053 16.94 7.457 7.328-3.433 12.752-8.208 17.098-14.034zm-36.176 1.587l.72 1.945-1.071 2.932-2.042.833c.39-1.998 1.146-3.64 2.393-5.71zm15.3 2.255c-.506.024-1.272.367-3.017.377-.945.005-1.686-.08-2.052-.005-.76.155.128.497 1.83.987 1.703.488 3.784-.248 4.042-.992.063-.182-.161-.399-.802-.368zm-14.104.958l.447.987-.764.276.317-1.263zm45.014.556l1.264 2.899c-2.19 4.772-3.644 17.852 10.976 21.921l.64 1.873c-9.951.196-19.923-12.54-12.88-26.693zm-33.475.987c-1.43-.014-2.925.343-3.888 1.113-.87.694.194 1.131 1.326.576 1.467-.719 3.916-.66 5.354.247 1.099.755 1.672.622.937-.527-.578-.902-2.11-1.392-3.73-1.409zm63.832 3.257c3.822-.063 4.219 5.445 3.475 5.918.215-.073.868-.266 1.797-.242 2.8.074 4.26 1.633 4.421 3.9.163 2.286-1.561 3.558-4.075 3.432-.933-.047-1.575-.142-1.533.024.467 1.826-.097 4.578-2.499 5.265-.276.079-.669.466-.677.605-.18 2.896.639 12.843.639 12.843s4.503-7.622 5.517-8.778c1.982-2.725 2.694-2.468 2.345 2.047-.484 6.246-1.436 7.698-5.003 12.993-1.573 2.27-5.297 1.078-4.96 2.613.075.339.68.947 1.284 1.524.387.37.787.601 1.691.571 1.59-.053 2.208-.377 1.259 1.013-.751 1.1-3.39 1.328-3.688 1.9-.692 1.331-.218 1.037-1.4 2.207-.906.998-.59.49-.179 1.311.648 1.06.378 3.177-.264 4.602-.523 1.162-.465 1.99-.465 1.99.01.097 1.47-1.518 1.912-3.383.366-1.553.796-2.33.793-1.462 0 1.097.185 2.587 1.167 3.155.777.45.89.899.76 1.452-.134.572.472 1.075 1.071 1.553.141.142.613.328.563.63-.16.954.224 2.075.915 2.258.308.154 2.269-.014 2.593-1.126-.032-.355 0-1.813-.784-1.897-.551-.256-.494-.409.341-.91 1.25-.75 2.156-1.288 2.773-1.403.826-.113 1.62-1.016 1.62-1.016l.158 59.956c-7.41 7.638-15.532 15.24-26.243 22.71-6.224-5.223-13.026-10.51-20.246-14.469l-2.494-1.485.894-1.152-4.33-5.749L149 192.89l1.235 1.573-2.307 2.255 3.46 3.852 7.776-7.636-5.123-4.936 2.667-5.028 1.706.842-1.288 3.19 3.897 2.482 4.878-9.756-6.185-2.836 1.567-6.552 1.908.203-.635 4.718 4.82.963 1.961-11.125-7.074-1.272.601-6.344 1.975.024-.288 3.508 4.998.716.941-9.697-6.934-1.157.894-7.486 1.586.227-.308 4.617 5.09.876c.559-3.13 1.014-7.062 1.845-10.133l-6.555-2.459 2.32-6.286 1.476.518-1.288 3.407 4.84 2.071 4.08-8.105-5.7-4.06c1.277-2.134 2.552-4.161 4.378-5.89l1.12.983s-.411.373-1.043 1.253c-.768 1.07-1.008 1.61-.904 1.887.104.275 3.625 2.893 3.893 2.894.31.001 1.479-1.07 2.08-1.79.645-.77.983-.845 1.649-.363.133.096.324.286.461.45.16.193.225.356.24.479a.373.373 0 0 1-.047.251c.057-.053.179-.147.442-.295.478-.268-.927-1.513-2.076-2.158-3.437-1.942-7.48-5.602-8.415-10.182-.342-2.056 4.937.417 8.573 4.065.551.552 2.6 2.55 2.6 2.55-.299-5.292-.727-10.67-.495-16.027l-.802-.56c-1.124-.789-1.556-2.082-1.658-3.379-.07-.893.691-1.35-1.048-1.292-3.618.033-5.713-3.397-3.518-6.33.785-1.096 4.123-1.632 4.119-1.606-.853-3.506 1.708-5.388 3.594-5.565zm3.475 5.918c-.047.017-.101.034-.101.034a.201.201 0 0 0 .1-.034zM67.968 100.812c10.106 8.567 16.554 14.331 37.123 20.784l.51 3.068c-11.828-2.75-24.73-8.316-40.07-22.154l2.437-1.698zm-3.042 1.979c6.399 6.015 12.958 10.597 19.597 14.44l2.33 1.413-1.2 1.239 3.906 5.671-5.026 4.128-1.197-1.2 2.624-2.59-3.734-3.696-7.607 7.752 5.214 4.655-3.023 4.68-1.096-.499 1.605-3.261-4.844-2.662-5.415 10.022 6.896 3.16-1.557 6.15-1.61-.082.543-4.82-5.186-.924-1.744 11.26 6.67 1.056-.158 6.484-1.778-.029.124-3.663-5.266-.247-.471 9.45 6.482.848-.644 7.67-1.595-.412.178-4.98-4.94-.488-1.702 10.588 6.666 1.916-2.355 6.601-1.446-.798.946-3.407a481.433 481.433 0 0 0-4.632-1.965l-4.354 8.222 5.646 3.871-3.474 6.146-1.34-.905 2.397-3.586-4.69-2.966-2.672 3.673c-1.134-.992-3.173-2.369-3.95-3.291-.831-.762-1.463-.878-2.533-.624-.844.2-1.657.354-1.47.053.092-.148 1.694-1.234 4.142-2.797.685-.437 1.224-.819 1.216-1.21-.01-.292.37-.754.865-1.055.547-.333.424-.643.336-.987-.473-1.85-.174-4.732.75-6.673.619-1.3.813-1.533.408-1.534-1.191.154-2.643 4.5-2.921 5.725-.093-.098-.224-1.244-.308-1.684-.152-.797-.263-1.29-.899-1.443-.759-.181-.518-.547-.596-1.122-.125-.933-.563-1.524-1.355-1.854-.762-.317-.845-.445-.812-1.21 0-.6-.624-1.616-1.086-1.94l-2.643.939c-.208.703.07 1.614.505 1.945 1.328 1.259-.615 1.276-1.947 2.096-.36.234-.79.744-1.08.575-.846-.278-.78 2.264-1.61 1.946l.201-60.988c7.082-7.384 27.719-22.782 27.719-22.782zm107.04 10.786l1.019 1.137c-3.16 3.58-5.452 7.267-7.978 11.77-2.155 3.84-4.017 9.218-4.993 15.083-.753 3.59-.87 7.244-1.336 10.917-.475 3.952-.565 9.274-1.316 13.448-1.387 11.446-4.58 17.537-11.52 24.03-3.05 2.855-12.538 8.245-12.797 8.193l-2.249-.561c19.457-10.03 24.32-16.946 26.426-40.687.412-29.786 13.866-41.324 14.744-43.33zm1.912 1.994l1.043 1.011-5.68 8.077 5.599 3.973-2.22 5.221-1.697-.634 1.206-3.561-4.71-1.999-3.805 10.375 6.708 2.13-1.105 6.76-1.355-.368v-4.607l-4.979-1.021-1.446 11.59 7.333 1.025-.538 5.982-1.735-.121-.067-3.562-5.09-.27-1.162 10.045 7.223 1.234-1.308 7.138-1.537-.368.346-4.708-4.844-.644-2.802 9.64 6.084 3.087-2.994 6.18-1.283-.9 1.658-3.654-4.734-2.352-4.57 7.975 4.96 4.912-4.845 5.11-1.08-1.394 2.498-2.71-3.734-3.721-7.766 6.218 3.965 5.26-.466.663-4.094-1.655-1.961-2.608-2.345 1.035-1.85-.71c11.47-6.057 18.933-13.08 22.014-23.67 1.692-5.854 2.195-12.244 2.744-18.683.285-3.344.58-6.703 1.062-10.007.565-5.397 1.386-9.926 3.561-15.132 2.638-6.314 5.844-10.764 9.794-15.582h.004zm-61.723 3.992l7.877 4.181-.116 2.778-7.28-3.673-.48-3.286zm2.216.078l5.613.774.024 2.28-5.637-3.054zm-25.302.072l3.278 1.486 2.777 3.228 2.081-1.375 2.259.852c-7.137 3.693-13.47 8.113-18.401 15.737-5.495 8.496-6.106 19.62-6.81 30.355-1.172 14.81-3.694 25.213-13.47 37.218l-1.441-.914 5.276-8.44-5.949-3.871 2.71-4.99 1.37.475-1.062 2.976 4.92 2.613 3.773-10.636-6.94-2.178 1.164-6.654 1.744.155-.461 4.767 4.96.788 1.422-11.246-6.685-1.03.15-5.943 1.638.16-.01 3.615 5.272.285.408-10.259-6.555-.73.808-7.245 1.835.19-.423 4.345 5.046.726 2.393-9.379-6.554-2.98 3.537-6.335 1.59.736-1.624 3.508 4.546 2.23 4.767-7.335-5.065-4.898 4.974-5.24 1.22 1.205-2.7 3.126 3.743 3.484 7.41-6.262-3.618-5.478.697-.842zm47.138.349l-.23 2.627-7.896 4.515v-2.574l8.126-4.568zm42.376.092l1.745 1.088-1.264 1.51-1.524-.968 1.043-1.63zm-45.696.372l-4.73 2.749v-2.734l4.73-.015zm55.764 2.565c.247.006.473.059.649.174.475.313.407 1.083-.13 1.461-.7.494-2.617.46-2.807-.048-.273-.733 1.218-1.612 2.288-1.587zm-75.472 1.084l6.785 3.687-.024 2.599-6.53-3.615-.231-2.671zm22.106.082l-.4 3.388-6.987 3.73-.058-2.937 7.445-4.18zm-33.822.063l2.782.711c-10.3 4.628-20.48 11.34-24.441 23.05-1.236 3.504-2.07 7.404-2.614 12.397-.255 5.266-.93 10.449-1.176 14.84-.504 8.943-3.427 21.053-13.525 33.919l-.966-.765c6.195-7.686 9.415-14.655 11.404-22.018 3.152-11.715 1.59-24.645 4.95-36.438 2.05-7.175 6.306-13.59 12.682-19.139 4.436-3.47 10.904-6.557 10.904-6.557zm4.676.982c.03-.002.044 0 .048.01 2.5 8.478 5.589 23.93 5.589 23.93-6.615-3.222-17.627-2.633-17.627-2.633s-6.196-8.047-7.396-8.71c4.954-6.73 18.44-12.55 19.386-12.596zm85.174 1.336c1.523-.049 1.414 2.281-.514 3.866-.985.81-1.44.696-2.167.049-.214-.29-.834-.495-1.288-.44-1.08-.005 1.055-2.255 2.955-3.185.393-.192.732-.281 1.014-.29zm-77.336 1.897l6.05 3.126.058 2.574-5.599-3.058-.51-2.642zm20.51.348l-.327 2.831-6.3 3.3.034-2.608 6.593-3.523zm58.955 1.055c.21-.02.372.062.524.233.859.963-.774 3.881-2.624 4.756-.71.336-1.148.281-1.74-.232-.287-.25-.712-.577-.956-.552-1.06.11-.475-1.086.38-1.156.236-.02 1.718-1.137 2.84-2.076.752-.63 1.227-.94 1.576-.973zm-6.401 1.137c1.337-.032 1.824 1.089.24 1.578-1.127.348-1.757.1-1.754-.663.237-.784.92-.876 1.514-.915zm-72.233 1.515l5.368 2.71.024 2.778-4.93-2.59-.462-2.898zm19.208.382l-.375 2.628-5.781 2.99.015-2.172 6.14-3.446zm60.594 1.104c.365.022.473.433.47 1.161 0 1.206-.797 2.32-1.989 2.865-.872.399-1.488.368-1.922-.102-.198-.213-.473-.386-.615-.392-1.868-.074-1.567-.559.22-1.311.63-.265 1.866-1.128 2.452-1.549.659-.474 1.1-.69 1.384-.672zm-6.853.856c.916.004 1.722.654 1.216 1.074-.394.327-1.872.485-2.163.19-.553-.562-.06-1.268.947-1.264zm-72.06 1.868l4.575 2.483-.024 2.642-4.368-2.488-.183-2.637zm17.55.203l-.106 2.705-5.252 2.609-.034-2.58 5.392-2.734zm56.514 1.122c.888.065.776.931.058 1.351-.536.375-1.231.178-1.514-.261-.639-1.222.812-1.075 1.456-1.09zm1.782 2.776c.148.3.066.834-.225 1.003-.39.166-1.4-.007-1.557-.303-.128-.244-.1-.372.149-.62.413-.331 1.343-.577 1.633-.08zm-75.183.051l3.907 2.149-.024 2.593-3.59-2.1-.293-2.642zm16.248.068l-.192 2.497-4.546 2.27.062-2.435 4.676-2.332zm-47.595 1.573c.975.011 1.727.665 1.154 1.78-.359.697-.629.955-2.187 2.062-.636.452-1.188.865-1.23.92-.043.053-.449.335-.716.522-1.397.974-.912-1.06.831-4.055a2.474 2.474 0 0 1 2.148-1.23zm47.249 2.226l-.36 2.748-4.066 2.09v-2.646l4.426-2.192zm-15.287.256l3.287 1.64.048 2.677-2.984-1.578-.35-2.739zm39.488.208a.292.292 0 0 1 .264.126c.27.38.313 2.02.048 2.947-.46 1.092-1.355-1.662-1.254-2.361.191-.317.625-.699.942-.712zm-69.1.499c1.33-.025 2.29.89 1.84 2.245-.518 1.309-3.519 2.132-4.872 3.034-.886.442-1.1-.037-.827-.808.127-.356.224-.635-.452-.736-1.639-.243-.64-1.045 2.365-3.072.658-.445 1.342-.652 1.946-.663zm65.923.856c.472-.005 1.053.273 1.654.93 1.032 1.128 1.778 3.504 1.215 4.122-.431-.048-.645.592-.668.852-.065.748-1.422-.618-2.705-2.773-1.034-1.736-.533-3.12.504-3.13zm-55.365.402c4.052-.028 11.79.815 22.5 7.563 1.366.862 2.732 1.812 4.277 2.58 4.063 2.206 7.416 3.701 12.653 4.684l-.149 2.73c-.047.86 1.363 5.847.716 8.651-.96-.018.928.828.928.828l1.23 2.536s-6.43-.055-9.352-.634c-4.708-.771-13.3-4.79-17.454-7.951-4.314-3.187-10.83-5.835-16.416-6.862l-.077-2.347s-.554-8.036-1-9.136l-1.028-2.54c.252.101 1.33-.09 3.172-.102zm33.807 1.761l-.312 2.696-3.566 1.684v-2.309l3.878-2.07zm17.772.121c.997.002 2.509 1.178 4.233 3.528.389.53.689.988.745 1.306.052.294-.127.462-.413.426-.68-.123-.93-.37-1.12.48-.047.21.074.59-.158.522-1.211-.358-4.673-3.874-4.46-4.999.16-.844.574-1.264 1.173-1.263zm-31.756.18l2.6 1.393.115 2.657-2.311-1.002-.404-3.049zm-27.94.807c.799-.026 1.294.291 1.548.915.611 1.503-.472 2.408-3.686 3.087-2.793.669-2.736.71-2.345-.334.259-.692-.604-.77-1.086-.953-.815-.31-.148-.406 2.196-1.582 1.473-.74 2.575-1.107 3.373-1.133zm-9.294.712c.08-.007.175.068.313.242 4.06 4.953 3.016 12.172-2.124 15.736-.584.39-.605.029-.539-.745l.101-1.47c.026-.293 5.905-3.927 1.557-12.012l.366-1.142c.116-.363.194-.598.326-.61zm66.342 1.539c1.603.006 6.102 4.116 4.185 4.263-.225.017-.148.311-.149.498 0 .187-.01.543-.062.678-.138.359-.663.288-1.47-.194-2.047-1.22-2.512-1.61-3.22-2.284-1.393-1.327-.997-2.968.716-2.961zm-15.844.706l-.03 2.216-3.205 1.563.02-2.003 3.215-1.776zm-40.622 1.592c2.157-.075 3.37 2.09 1.216 3.228-.862.455-3.698.136-5.017.02-1.49-.132-.61-.578-.529-.712.204-.339.363-.391-.413-.857-.617-.653-.97-.814.572-1.016.748-.098 2.566-.276 3.195-.484a3.51 3.51 0 0 1 .976-.179zm65.668.528c.16-.007.142.258.077.948l-.105 1.48c-.983.159-5.864 6.27-1.898 13.376l-.332 1.263c-.152.625-.202.716-.716.33-2.972-2.069-3.936-12.598 2.22-16.952.401-.267.631-.44.755-.445zm-11.59 1.234c.573.01 1.275.173 2.08.542 1.875.859 3.122 1.554 3.412 2.013.18.283-.102.519-.48.629-.458.132-.514.325-.39.866 0 .314.08.661-.312.682-.723.04-2.34-.474-3.974-1.36-2.76-1.495-2.386-3.41-.337-3.372zm-14.023.033v2.696l-2.634-1.224 2.634-1.472zm-44.145 2.318c.28.008.65.058 1.134.136.594.095 1.515.187 1.99.179 3.001-.052 4.244 2.052 1.768 3.121-.677.293-.959.26-2.81-.28-.888-.26-1.975-.532-2.418-.659-.892-.254-1.2-.537-.61-.74.55-.189.597-.572.254-1.08-.083-.508.078-.693.692-.677zm69.744 0c-.425 4.174-.772 7.427-1.398 11.513-.457-.182-3.696-7.88 1.398-11.513zm-12.63 1.999c.978.018 2.626.396 4.23 1.03 1.401.52 1.578.66.61 1.075-.585.251-.513.476-.341.861.266.29.772.867-.024.75-.943.072-3.42-.07-4.176-.203-2.262-.4-2.878-2.453-1.024-3.407.15-.076.4-.112.726-.106zm-58.113 1.055c.209 0 .592.113 1.288.334 4.061 1.29 5.708 2.853 3.72 4.37-.578.44-1.473.253-3.163-.697-1.728-.972-2.595-1.504-2.917-1.849-.32-.342-.145-.734.346-.702.674.045.573-.295.52-.866-.039-.4-.063-.59.206-.59zm10.957.377l3.114.712-7.776 34.241c-2.654.771-4.185 1.104-6.05 2.115l5.377-.934-.466 2.449-4.882.924-.11.73 5.593-1.016s-.2 2.337-.394 3.243c5.338-.433 10.61-1.928 15.978-1.97 0 0 .13-27.023.11-29.969-.02-3.182 0-6.987 0-6.987l5.383 3.058.89 34.058 16.857 2.758c-.117-.574-.576-3.207-.576-3.207 12.498 3.71 25.17 9.197 36.388 20.533-5.22 2.845-10.153 5.665-15.225 8.399l-.735 1.064c12.86-6.049 32.343-18.624 46.458-32.523v90.315h-67.184v-8.413l.038-7.53c-.275-4.829.56-10.146-.909-14.198l-.288-4.244c4.164-4.876 6.414-11.026 8.4-17.31 0 0 2.004-.78 2.98-1.127l.336-1.234c-1.937.996-6.382 2.667-6.382 2.667.478-.377-9.451-4.586-15.584-5.575-10.12-1.631-23.734.049-34.586 5.468-.532.378-.759.369-.625-.12 2.52-9.23-2.789-18.493-12.105-21.177-1.977-.57-3.595-.566-3.595-.566l.168.808c15.225 1.727 18.797 17.928 12.936 25.454-1.537 2.483-1.771 3.207 1.455 3.125 13.036-.107 17.567 14.56 11.626 22.676.015-.063.481.945.481.945 3.706-4.925 4.692-14.281-1.874-20.857 4.854-5.45 14.172-14.171 22.231-13.66 2.933.185 5.828 3.76 7.756 6.614 4.083 6.043 5.132 14.481 5.421 19.294.071 1.26.238 2.177.24 2.84.01 1.927-.36 1.696-1.595 1.375-1.552-.404-3.68-.42-5.253.063-2.527.775-2.119.333.13-2.473 1.327-1.656 1.505-2.166.956-2.275-.167-.033-.73.535-1.465 1.675-2.219 3.437-2.046 2.026-.443-3.334 1.043-3.485.937-3.729-1.903-5.894-.94-.717-2.094-1.413-2.196-1.631-.535-1.143-.758.291-.278 1.234.468.921-.524 1.342-2.269.392-4.105-2.29-6.778 2.346-3.114 4.355.864.474 1.346.085.678-.537-2.255-2.1-.686-3.867 2.364-2.008 1.763 1.074 2.433.73 3.023-.615.326-.548 3.064 1.426 3.061 2.192 0 .503-.319 2.112-.63 3.19-.876 3.04-1.114 3.985-1.494 5.956-.688 3.575-.67 5.407.067 6.978 1.652 3.521 5.811 5.182 9.42 3.765.523-.206 1.527-.378 1.527-.378l.043 2.585c-7.113 2.712-12.253 11.18-12.019 11.468l-2.537.005c-3.368-6.732-9.294-11.802-16.824-14.604-1.472-1.288.367 3.437 2.056 4.48 3.578 1.832 8.311 5.079 10.924 10.12l-1.798.028c-2.191-3.363-5.03-5.635-7.722-7.616-.633-.135.461 6.1 3.046 8.023l-46.374.813c3.165-12.468 3.773-26.303-3.642-44.438 6.148.38 11.601-.948 16.598-3.145l-.451-1.292c-5.694 2.737-11.941 3.275-18.195 2.632 4.744 8.844 8.895 27.208 4.854 45.03H38.097v-96.9s.98.611 1.19.822c.534.54.896 1.347 1.048 1.931.194.747.4.793 1.46 1.592.51.384.804.722.803.92-.03.22-.036.902.307 1.32.935 1.139.77 1.87.067 2.604-3.263 3.419-5.307 10.602-3.657 18.18 3.87-2.622 7.856-9.482 7.982-9.493l.375 9.368c-.344-.077-2.706 1.332-2.734 3.174-1.07.32-2.376-.215-3.46-.537l.782 2.76c-3.972 1.595-4.186 7.066.417 8.629 0 0-.42 2.14-.781 3.288l2.989-.458c1.736 5.221 8.402 3.55 8.37-.093 0 0 2.029.767 2.798 1.108l-.75-3.56c7.58-3.808 1.91-8.794.18-8.722.023-.994.476-1.308.892-2.468l-3.06.194c-.563-1.839-2.62-3.342-2.697-3.14l-.423-13.41c2.315 2.032 4.592 4.117 7.66 5.734 2.832 1.493 3.12 1.16 2.701-1.418-.19-1.162-.173-1.925-.173-1.925 1.062.251 3.743 3.758 3.614 5.487.979 1.286 1.867-2.174-.658-5.12 6.721-7.088 11.843-18.836 12.936-26.842l8.939-3.581.1-1.171c6.09-4.103 9.266-9.81 10.938-16.265h.002zm7.439 2.096l2.056.924-2.335 1.166.279-2.09zm-19.819.566c.397.184.997.581 1.822 1.19 1.748 1.291 2.767 2.18 2.801 2.962.017.386-.265.887-.706 1.123-1.056.563-2.066.102-4.35-2.25-.737-.76-1.23-1.168-1.455-1.506-.262-.394-.07-.765.365-.605 1.853.843.249-1.496 1.523-.914zm62.987.484c.381.002.682.01.87.048.495.1.638.383.332.658-.475.427-.34.859.14 1.09.328.157.195.491-.203.72-.232.134-.587.278-1.071.43-2.806.884-4.875.62-5.416-.696-.622-1.513.568-2.248 3.998-2.245.51 0 .97-.007 1.35-.005zm-40.862.9l-.024 2.027-2.912 1.409.317-2.057 2.62-1.38zm-24.753.634c.255.015.674.41 1.283 1.161 2.809 3.465 3.188 4.133 2.268 5.052-1.09 1.09-2.62.036-4.267-3-.222-.408-.493-.932-.654-1.123-.604-.712-.338-.935.428-.876.42.033.618-.116.63-.551.011-.46.113-.675.312-.663zm67.316 1.752c.512 0 .474.175.246.774-.176.53-.464.701.278 1.035.123.06.397.4.15.547-.587.4-3.205 1.6-4.153 1.916-1.841.616-2.974-.895-1.893-2.395.453-.629 3.567-1.767 5.118-1.868.097-.006.181-.01.254-.01zm-68.787 2.008c1.867 2.803 2.1 4.113.87 4.93-.779.597-2.437-.26-2.816-2.07-.29-1.387-.423-2.836.025-3.987.679-1.743 1.728.837 1.92 1.127h.001zm26.21-1.162l.015 2.193-3.542 1.79.327-2.415 3.2-1.568zm7.218.087l3.33 2.173.192 1.868-3.44-1.906-.082-2.135zm37.152 2.159c.088 0 .135.04.134.145 0 .258-.066 1.175.433 1.258.98.164.757.471-.1 1.215-.93.828-1.779 1.81-2.899 2.414-2.887 1.075-3.795-1.998-1.062-3.595.944-.552 1.799-.932 2.437-1.113.48-.136.864-.327 1.057-.324zm-37.06 1.127l3.858 2.29.135 2.303-3.835-1.965-.159-2.628zm-7.445.213l.014 2.004-3.767 2.172.312-2.24 3.441-1.936zm15.594 1.636c1.067.5 14.761 4.332 19.295 3.024 0 0 3.88 5.633 6.752 7.65-4.445 6.569-19.496 13.008-19.496 13.008l-6.55-23.682zm30.824.14c.249-.009.309.241.307.711-.06 1.363-2.284 6.38-4.056 3.809-.487-.957.01-1.949 1.562-3.131 1.232-.938 1.866-1.378 2.187-1.389zm-74.558.791c.338.371.185 1.513-.543 1.438-.21-.022-.239-1.182-.101-1.81.21-.103.527.25.644.372zm28.188.637l-.024 2.545-4.469 2.449.48-2.831 4.013-2.163zm7.391.358l4.426 2.376.52 2.811-4.907-2.56-.039-2.627zm-7.4 3.46v2.564l-5.022 2.594.341-2.53 4.68-2.628zm7.487.222l4.95 2.836.648 2.671-5.526-2.874-.072-2.633zm-70.162.083c.811-.011 1.103.859.49 1.413-.404.379-1.552.302-1.653 0-.518-.504.193-1.4 1.163-1.413zm1.514 2.714c.12-.008.233 0 .331.025.585.15.95 1 .591 1.485-.66.895-2.402.275-2.148-.856.067-.3.707-.618 1.226-.654zm61.074.857v2.294l-5.464 2.903.346-2.565 5.118-2.632zm7.728.32l5.637 3.048.432 2.57-6.06-3.175-.01-2.444zm-71.479.067c.272-.015.489.061.606.266.104.183.228.652.62.881.73.427.805.516-.582 1.127-.584.258-1.732 1.045-2.134 1.317-1.227.831-1.726.552-1.816-.431-.114-1.24 2.127-3.094 3.306-3.16zm4.23 1.878c.283-.017.56.037.758.169.47.312.494.938.043 1.253-1.032.665-2.646-.246-1.787-1.04.241-.223.62-.361.985-.382zm59.512 1.243l.029 2.976-6.094 3.238.404-3.02 5.66-3.194zm-62.526.349c.4-.023.782.071 1.115.32.361.463.796.599 1.047.609 1.046.04.713.425-.384.929-1.512.695-2.574 1.577-3.662 2.594-1.132 1.058-1.214 1.285-1.586.851-1.383-1.612 1.313-5.18 3.47-5.303zm70.354.034l6.387 3.518.547 2.97-6.934-3.885v-2.603zm-66.159 2.095c.259-.006.502.056.692.213.454.373.192 1.093-.437 1.418-.535.276-1.416.159-1.668-.097-.603-.612.49-1.512 1.413-1.534zm-3.085 1.495c.389-.038.742.462 1.057 1.002.11.135.547.075.86.077 1.196.01 1.363.519.202 1.167-.339.189-1.452 1.047-2.196 1.684-2.005 1.928-3.092 1.476-2.835-.499.245-1.888 1.873-3.33 2.912-3.43zm69.244.184l7.045 3.89.687 3.2-7.732-4.196v-2.894zm-7.775.058l-.03 2.947-6.631 3.533.514-2.99 6.147-3.49zm7.88 3.75l7.891 4.81.289 3.132-8.18-4.743v-3.198zm-7.885.523l.014 2.89-7.334 3.745.37-2.73 6.95-3.905zm-59.532 1.912c.187-.004.363.024.51.092.858.398.633 1.086-.66 1.795-1.317.723-1.768.598-2.051-.213-.238-.683 1.189-1.65 2.2-1.674zm82.392.392c13.72 3.162 27.153 10 40.194 21.94l-2.725 1.94s-11.428-13.124-36.825-20.817l-.644-3.063zm-14.893 1.374l3.806 2.26.01.576-3.815-.315v-2.521zm-64.842.024c.289.016.543.185 1.903.837 5.462 3.971 7.65 6.366 9.006 10.719.813 2.609.797 2.502-1.874 1.084-2.513-1.343-5.957-3.573-8.18-6.456-.368 6.783.419 15.215.419 15.215 3.412 1.693 2.307 6.1 2.298 6.074 8.78-2.413 6.856 9.255.314 6.738 1.56 8.754-8.394 8.042-7.375.539-7.922-.309-6.52-9.004.055-7.802-.684-2.682.26-4.5 2.685-5.65l-.37-11.46s-6.457 9.331-7.536 9.185c-.633-.086-1.586-1.158.02-9.34.836-4.26 5.321-9.448 7.833-9.615.444-.03.629-.077.802-.068zm6.315.087l1.158.799-1.09 1.96-1.207-.881 1.139-1.878zm50.521.562l-.038 1.717-3.556.213 3.594-1.93zm-37.185 20.566c8.368 1.305 13.487 11.612 9.615 19.076-.468.335.255 1.96.726 1.35 4.082-5.826 1.044-20.146-10.865-21.51-2.42-.297-.225.435.524 1.084zm1.355 2.744c-.673 1.856-.85 2.301.874 1.543 3.047 1.136 6.334 6.129 5.282 11.145-.339.585.252-.382.653 1.268 1.504-3.672 0-11.59-6.81-13.956zm38.68 9.344c8.566-.025 17.044 1.86 23.788 5.763-2.292 1.284-9.607 3.073-9.607 3.073-4.11-4.645-6.205-9.289-13.638-6.915-7.784 2.024-14.794 8.808-18.739 13.309-3.956-2.371-6.098-2.95-9.604-3.147-.203-.006-.504.893-.255-.556 1.003-1.557 1.695-3.32 2.364-5.1 7.352-4.21 16.572-6.4 25.691-6.427zm26.628 5.962c-1.706 5.557-3.909 11.031-7.646 15.853l-.461-2.41c3.514-5.433 5.179-10.373 5.93-12.538l2.177-.905zm-3.316 1.442c.22.353-3.406 9.054-5.195 10.636l-.702-2.245c1.46-2.22 3.62-7.571 3.557-7.622l2.34-.77zm-22.115.01c-.113.01-.153.11-.154.329 0 .799.824 1.427 2.33 1.771 2.036.465 4.889-.244 4.893-1.215 0-.56-.396-.601-1.562-.058-1.463.682-2.753.548-4.662-.47-.437-.232-.7-.37-.845-.357zm18.131 1.389c-.566 2.108-1.407 3.66-2.48 5.27l-.346-1.109c.742-1.207 1.232-2.588 1.86-3.93l.966-.231zm-2.129.682c-.274.733-.577 1.582-1.206 2.236l-.817-1.742 2.023-.494zm-12.887 1.615c-1.38.027-2.745.473-2.864 1.212-.057.353.473.216 3.039-.098 1.354-.167 2 .641 3.24.557.632-.076.041-.664-.155-.834-.69-.59-2.043-.86-3.26-.837zm-5.888 1.608c-.139.028.017.383.533 1.287.28.49.35 1.487.404 2.105-.067 1.538-.062 1.49.692.6.475-.474 1.397-.37 2.86.029.941.257 1.168.349 1.822-.064.758-.479.936-.237 1.59-.105.63.127 1.201-.127 1.893-.32.843-.235 1.005-.18 1.74 0 1.121.535.958.488 1.052-1.427.094-1.886-.01-2.02-1.091-1.384-1.05.615-1.773.894-3.383.329-1.756-.616-2.004-.46-3.249-.083-1.505.457-2.19.612-3.388-.125-.789-.486-1.318-.874-1.475-.842zm-24.523 2.845l.672 1.103c6.068 2.186 10.178 7.18 7.752 15.597l.577.93c3.036-8.482-.43-15.494-9.001-17.63zm1.879 3.59l.826 1.709c4.566 2.22 4.293 8.336 4.037 8.096l.716 1.592c1.142-3.957-.939-9.801-5.58-11.396zm19.068 9.123c-.18.002-.297.063-.346.188-.117.305.236.487 2.321 1.94 1.792 1.249 3.177 2.174 3.071 2.353-.07.119-1.184-.154-1.98-.392-2.084-.624-5.158.127-6.881 1.35-.438.296-1.166-.028-1.798-.194-.252-.072-.81-.14-1.086-.068-1.303.344-.042 1.597 3.148 3.223 3.914 1.996 6.032 2.178 8.41.968 1.579-.822 2.145-.212.418.726-3.016 1.638-5.904 1.132-10.669-2.168-2.206-1.528-3.089-1.273-1.191.184 3.329 2.621 9.738 5.818 13.672 1.911.153-.056.51-.03.682-.029.818.003.853-.256 0-1.616-.514-.82-1.554-1.682-.288-2.686.959-.76.89-1.122-.27-1.47-.305-.086-.274.117-.735-.257-2.784-2.26-5.508-3.968-6.478-3.963zm1.207 4.466c1.169.033 2.347.939 2.715 2.57.033.145.062.294.082.45l-.996.037c-.826-3.322-3.313-2.22-3.561-.275l-.898-.12c.33-1.853 1.489-2.695 2.658-2.662zm20.63 2.836l-.663.098c-.435-1.223-2.399-2.867-3.335.115l-.836-.034c.582-4.04 4.223-3.412 4.834-.18zm-5.085-1.679c.272.388-.205 1.042-.482 1.34-.264.286-.852.045-1.098-.237-.216-.278-.056-.832.302-1.016.372-.191 1.005-.364 1.278-.087zm-11.658.12c.278.627-.5 1.095-.598.883-.167-.058-.374-1.092-.278-1.16.258-.008.77.076.876.278zm17.526-.101c.42.034.878.234.961.711 0 .316-.358.66-.773.678-.183.008-.882-.51-.751-1.247.148-.261.32-.162.563-.142zm-24.364.198c.147.227-.129.906-.192.997-.033.048-.928.01-.909-.058.02-.067-.083-.577.135-.948.248-.16.787-.244.966.01zm16.252 2.188c.116.003.264.05.438.16 2.502 1.64 5.721 2.37 8.04 1.2.517-.262.856-.248.855.004 0 .277-.575.844-1.644 1.167-2.388.721-6.33-.231-7.693-1.704-.401-.433-.343-.836 0-.827h.004zm-21.947 1.718c-.239-.007-.316.135-.269.425.159.978 6.852 4.845 9.65 5.367 2.298.428 4.083.236 5.488-.586 3.413-1.996 2.537-4.695-.803-2.661-2.243 1.367-7.93.737-11.312-1.23-1.504-.874-2.355-1.304-2.754-1.315zm30.154 1.414c.846-.358 1.21-.482 1.395-.326.86.725-.55 1.855-3.12 2.296-2.056.34-3.292.407-5.64-1.342-1.816-1.353-.96-2.009.083-1.395 2.775 1.634 4.838 1.686 7.282.767zm-29.558 4.228c5.921 2.135 12.657 7.285 15.647 13.54l-1.826-.015c-2.033-3.57-6.055-8.107-12.687-11.294-.587-.487-.893-1.355-1.134-2.231zm31.097 2.928v1.955c-3.659 1.856-6.726 4.715-9.04 8.657l-2.07-.03c2.372-4.229 5.927-8.19 11.11-10.582zm0 2.98v2.4c-2.313 1.367-4.244 3.167-5.598 5.232h-2.451c1.964-3.343 4.659-6.009 8.05-7.631zm-27.108 1.844c1.763 1.02 4.682 3.742 5.743 5.836l-.942.044c-.96-1.23-2.494-2.646-3.744-3.76-.799-.945-1.057-2.12-1.057-2.12zm27.108 1.539c.03 0 .03.019 0 .058v1.907c0 .05-1.757 1.206-2.504 2.284h-1.989c1.366-2.489 4.208-4.254 4.493-4.249zm0 3.17v1.079l-1.25.005c.084-.122.78-.892 1.255-1.084h-.005zm-24.383.27c.374.199.662.907.662.907l-.335.036-.327-.942z"/>
        <path fill="#B388FF" d="M52.76 246.924c4.118.113 12.809-1.436 12.67-1.278 0 0 26.964 45.114 25.867 44.667-.35.56-34.543.54-34.543.54-.74.008 7.255-16.717-3.995-43.929zm12.226-31.782c13.14-10.963 26.903-11.045 41.682-12.552l.339-37.257 5.349 3.223.113 34.137c19.509 1.472 36.34 8.666 50.8 21.26.182.273-20.92 11.634-30.161 14.64-7.176-5.303-26.105-8.646-38.658-4.569-3.448 1.12-7.681 2.913-11.8 4.237 2.983-17.986-10.964-20.641-15.87-21.471-.615-.104-1.348-1.436-1.794-1.648zm-16.865 5.814c.23-3.832-.018-7.667-.303-11.586-.075-.894-7.683 11.658-8.109 8.614-1.064-7.623 2.695-17.314 8.6-18.502.589-.802 12.288 6.49 11.753 12.79-.174 2.052-10.436-6.933-10.478-6.397-.241 1.051.302 15.113.62 15.085 2.955 1.674 2.312 3.824 2.634 5.606 7.92-1.175 7.486 7.669.012 7.393.462 10.449-9.175 5.728-7.277.162-9.705-.46-4.925-9.589-.093-7.583-.29-2.304.275-4.706 2.64-5.582h.001zm11.135-44.331c-.56-.223-20.705-1.262-20.705-1.262l1.054-49.395c10.285-23.776 48.991-12.657 42.833-7.598-18.496 12.2-21.311 34.448-23.182 58.255zm37.155-20.291l-.615-5.485c-1.58-3.408 41.187 16.478 41.67 16.903l1.243 5.852c.248 2.571-27.202-10.418-42.298-17.27zm77.851-9.732c-3.19 24.615-3.011 49.381-21.121 57.946 13.622 13.283 25.01 3.05 42.16-5.56.466-.001-.57-52.71-.858-52.673-6.795.361-13.503.515-20.18.287zm9.435-24.026c-3.368-.517-11.208-8.701-9.583-11.176.05-1.858 9.753 5.252 10.763 7.168-.498-.57-.567-17.368-.724-16.7-.37.197-2.964-1.673-2.288-5.174-7.44 1.655-7.031-8.075-.53-7.677-.84-8.853 9.902-5.602 7.044.327 9.192-1.705 7.605 8.684.659 6.993.59 3.94-1.025 5.03-3.283 5.816.145 1.651.76 12.668.76 12.668s6.797-10.485 7.285-9.581c1.73 2.53-1.065 19.9-10.103 17.336zm-31.495-38.664c-3.068 10.642 5.336 22.8 13.275 22.766 1.596-.253 4.655.615 3.6 1.476-12.525 10.215-41.752 12.335-41.76 11.892.307 12.54-.251 25.205-.55 37.74l-5.355-3.246c-.172-11.435-.452-23.132-.712-34.565-18.726-2.46-35.557-8.54-48.856-21.474 8.83-6.588 19.381-10.704 29.515-14.862 12.76 6.672 30.525 10.527 50.843.273zm-9.242-50.56c-.587-.26 2.019-2.209 2.019-2.209s21.757.288 32.549.141c-3.932 16.248-1.15 30.805 3.927 44.785-1.346-.317-10.283.413-12.465 1.395-.35.354-25.754-43.715-26.03-44.112z" opacity=".2"/>
        <path fill="#B388FF" d="M92.005 290.25L65.7 245.538l3.947-1.727 27.119 46.503-4.761-.064zm-46.807-59.78l3.8-3.935 3.81 3.886-3.984 3.726-3.626-3.676zm84.397-25.074l-.535-3.196c15.156 3.736 27.56 11.578 36.481 20.12l-2.124 1.564c.663-.182-21.531-16.938-33.822-18.488zm-43.535-2.914l4.322-.936-.137 2.687-4.192.84.007-2.59zm88.23-2.359L171.67 198l1.884-2.25 2.545 2.02-1.81 2.354zM85.274 178.46c6.507-3.1 11.585-15.61 10.948-16.444l3.545.846-8.19 34.272-5.667 1.248c-.028-6.556-.638-13.368-.636-19.922zm42.817 19.391c-2.206-7.214-6.548-23.533-6.548-23.533.159.532 14.112 4.526 19.089 3.071 2.125 2.93 4.462 5.503 6.927 7.862-5.167 5.087-11.583 9.337-19.468 12.6zm58.488-26.264l-2.457-2.144 2.204-2.718 2.7 2.07-2.447 2.792zm-32.112-1.434c-2.003-3.622-2.142-7.718 1.574-11.757l-1.574 11.757zm-76.397-6.31c-.072-3.685.409-7.195 1.276-10.583 2.153 3.914 2.123 7.846-1.276 10.582zm56.197-3.377s5.404-25.209 7.744-35.087l5.969-1.392-.266 20.415c-5.942 4.878-10.113 16.498-9.923 16.498l-3.524-.434zm-86.844-4.192l-2.61-2.453 2.208-2.432 2.301 2.37-1.9 2.515zm46.735-9.828c-1.883-2.762-4.462-5.595-7.168-8.441 4.44-6.217 11.81-9.816 19.62-12.64l5.288 23.687c-5.977-1.813-12.422-3.778-17.74-2.606zm-36.63-21.113l1.838-2.3 2.407 1.907-1.83 2.545-2.415-2.152zm86.426-6.928l3.724-.836.135 2.904-4.462.83.603-2.898zm-75.265-18.099l2.84-1.778c9.969 9.01 20.978 15.226 32.986 18.76l.401 3.359c-13.539-4.203-25.926-10.037-36.227-20.341zm116.486-3.595l-3.693-3.665 3.324-3.721 3.949 3.434c-1.304 1.98-3.58 3.952-3.58 3.952zm-20.456-17.836L137.084 31.41l3.992-.033 27.194 45.72-3.55 1.777z"/>
        <path fill="#B388FF" d="M136.832 30.61l-6.603.024 37.479 75.897s-1.016.172-3.003-.353c-9.002-2.378-14.55-11.953-12.514-21.345.207-.73.26-1.355.26-1.355-23.205 10.574-37.572 6.68-50.969-.054l-5.714 2.207c.38-3.474 4.649-16.523 11.034-22.666l-.01-6.582-.154-3.106-.505-5.638c-9.5 9.006-20.584 23.183-21.97 43.315 0 0-8.65 4.473-16.032 9.422.41-.055 11.5 13.656 38.142 21.355l-1.173-4.375c3.962 1.12 9.594 2.005 15.195 2.72l.75 34.362 6.363 3.794.216-38.045c.195.157 10.148-.353 15.508-1.64l-.755 3.668 5.296-1.05v2.676l-5.805 1.379-8.266 35.563 4.815 1.079c1.41-7.164 4.969-12.957 10.126-16.511l-.053-1.365c3.307-2.39 10.182-4.289 10.226-4.244 2.345-11.533 7.803-19.526 13.605-27.128l-2.763-3.78 10.596-3.914-14.71-25.198c5.66-3.932 16.882-2.468 16.882-2.468-4.81-13.074-9.038-26.561-4.287-46.353l-40.915.033-.292-.324zm13.423.82c-.01 3.306-4.3 2.966-4.823-.017l4.823.017zm26.286-.104c-2.604 15.155-1.74 29.917 4.296 43.944 0 0-.88.051-.99.03-.083-.017.103-.757.058-.954-.12-.527-.988-.28-1.716.213-.317.215-.682.46-.913.576-.747.376-4.54.347-4.54.347 1.238-.843 2.978-3.217 1.968-4.602-.229-.295-.367-.165-.59.234-1.077 1.927-1.612 2.23-3.051 2.211-2.258-.028-3.874-1.437-3.691-3.562.176-2.064 3.194-3.154 2.749-1.151-.122 1.784 1.635 2.13 1.96.353.122-.666.025-.357.169-1.137 3.515-1.878 1.574-5.703-1.706-4.902-.772.205-.869.277-1.413-.005-1.012-.525-1.853-.36-2.235.377-.337.65.176 1.168.928 1.171.779.003.929.381.927.852 0 1.094-1.88 1.621-3.124.982-3.282-1.686-2.065-6.068 1.745-6.053 1.158.004 1.642.077 1.691-.175.139-.707-1.63-1.931-2.628-1.751-.847.166-1.36.389-.913-.746.275-1.169.267-1.7.034-2.579-.61-1.256-.595-.612-.97.407-1.256 2.096-3.148 2.56-4.778 1.413-1.512-1.064-1.466-3.084-.029-4.525 1-1 2.07-.32 1.47.799-.248.462-.051 1.037.395 1.151.902.232 1.461-.303 1.466-1.403-.02-.606-.186-.741.898-1.365 2.807-1.614.708-6.024-2.46-4.607-.696.312-.858.616-1.173.47-1.324-1.26-3.223.333-2.1 1.176.485.238 1.08.329 1.235.343.274.157.182.55-.216 1.04-1.312 1.558-4.29.79-4.993-1.407-.814-2.544 1.768-5.219 3.748-3.736.586.438 1.093.484 1.096-.165 0-1.01-1.26-2.17-2.874-2.056-1.638.116-1.459.328-.567-1.162.658-1.327.569-2.622 0-3.402-.442-.6-.897-.727-.85-.092.358 1.972-1.93 3.847-3.811 3.02-1.809-.814-2.705-2.852-1.817-4.621.819-1.632 2.806-1.802 2.475-.058-.156 1.11.684 1.696 1.495 1.04.294-.238.363-.45.384-1.166.023-.799-.3-1.033.211-1.5 1.341-.18 1.424-3.047 1.221-3.165l21.534-.102h-.005zm-24.004.097c.85 0 1.557.29 1.557 1.147 0 .856-.688 1.549-1.538 1.549-.85 0-1.543-.693-1.543-1.549s.673-1.147 1.524-1.147zm-15.091.111h3.423l27.033 45.367-3.201 1.567-27.255-46.934zm5.622 1.586c1.638.943 3.15 1.717 5.205 1.919-.602 1.23-1.15 2.572-1.25 4.869l-3.955-6.788zm5.506 9.136c1.668.601 3.116 1.513 5.863.592-1.465 1.306-2.294 2.867-2.915 4.513l-2.948-5.105zm14.064 5.48c.788 0 1.427.644 1.427 1.437s-.639 1.432-1.427 1.432a1.429 1.429 0 0 1-1.427-1.432c0-.793.64-1.437 1.427-1.437zm-8.757 3.582c1.205.446 2.468.743 3.87.678-.693.96-.93 2.421-.974 4.092l-2.896-4.77zm4.138 7.15c1.116.548 2.437 1.346 4.78 1.09-1.552 2.651-1.22 3.382-1.378 4.542l-3.402-5.632zm13.548 5.266a1.5 1.5 0 0 1 1.494 1.505 1.5 1.5 0 0 1-1.494 1.505 1.5 1.5 0 0 1-1.495-1.505 1.5 1.5 0 0 1 1.495-1.505zm-8.397 3.38c1.022.581 3.04.913 3.062.755-.13-.097-.58 1.96-.66 3.253l-2.402-4.009zm4.705 7.727c1.452.863 3.06.78 4.004.882a17.2 17.2 0 0 0-3.046.887l-.958-1.769zm17.13 8.484c-3.499.227-4.31 2.929-3.896 5.667-2.667-.43-5.654 2.117-4.819 5.231.792 2.954 3.52 3.057 5.401 2.86-.144.717-.54 3.13 2.354 5.17l.386 15.333s-1.276-1.18-2.11-2.015c-3.636-3.648-9.108-6.29-8.765-4.235.05.303.167 1.07.255 1.704.579 3.471 5.21 7.223 8.367 9.112 1.128.633 1.826 1.311 1.826 1.311-5.906 6.358-9.08 13.142-9.87 19.874a1113.42 1113.42 0 0 0-1.914 17.634c-2.41 28.813-14.688 36.06-15.272 37.47l-.23 3.842-3.427-.257-3.95 3.44c12.94 6.733 20.486 14.857 20.38 15.012 10.332-6.812 19.25-14.38 27.666-22.212l-.163-64.152s-.698.257-.88.257c-.638-.002-.72.287-.941 1.514-.119.657-.508 1.262-.812 1.694-.579.82-.373.405.355.702 1.658.675-.494 3.735-2.85 4.108-1.696.269-2.643.583-2.931.977-3.57 3.146-7.128 3.644-9.818 2.488-1.323-.569-2.762-1.4-3.248-2.788-1.105-3.149 1.196-7.686 2.547-10.307 2.475-4.806 6.588-8.415 6.588-8.415l-.673-.736s.808.013.961-.043c3.55-1.3 3.77-1.318 4.422-2.265.652-.947 2.298-3.65 2.638-4.539 1.824-4.777 2.07-5.088 2.066-8.222 0-2.539-.17-4.235-.658-4.37-2.796 2.16-5.62 7.201-7.271 10.172-.57-4.402-.74-12.087-.74-12.087.592-.659 3.95-.29 3.205-5.803 2.956 1.343 6.07-.711 5.94-3.577-.203-4.463-3.617-4.331-6.397-3.768 1.324-2.696-1.193-5.945-3.722-5.781zm-.054.375c3.652.114 4.377 4.178 2.139 6.478 0 0-1.45-1.124-2.22-1.763-.73.578-.94 1.078-1.744 1.673-.951-.708-1.525-1.96-1.534-3.167.045-1.884 1.933-3.265 3.36-3.22zm-83.435.126c14.778 8.316 33.309 8.911 50.271.435l-.207 1.409-1.86 1.055 1.053 1.94.581-.28.015 1.282c-13.982 7.605-37.404 9.179-55.74-3.45l1.596-.746s.36.254.706.47c.669.416 1.771 1.085 2.5 1.413l1.11-1.612s-1.696-1.04-1.529-1.108l1.504-.808zm1.302 2.55l-.846 1.936 2.12 1.137.807-1.95-2.081-1.123zm-8.04.218c22.758 14.384 43.941 10.102 56.663 4.22l.163 1.534c-16.42 7.034-38.01 8.921-58.56-4.99l1.734-.764zm53.568.924l-2.023.813.803 1.868 2.08-.895-.86-1.786zm-56.288.349c18.494 12.007 38.328 14.358 59.705 5.56l.817 2.298c-20.82 8.419-42.79 7.45-62.862-6.862l2.34-.996zm14.21.067l-.826 2.014 2.292.875.668-1.974-2.134-.915zm38.892.833l-2.004.653.625 1.926 2.076-.711-.697-1.868zm-35.388.551l-.495 2.023 2.34.663.409-2.032-2.254-.654zm84.695 3.33c.315 3.44-4.75 5.1-6.646 1.89l1.67-2.043-1.493-1.403c2.027-3.228 6.173-1.674 6.47 1.556zM89.208 89.43l5.517 3.818-4.008 6.271-5.94-4.016 4.431-6.073zm95.618.174l3.503 3.058-3.215 3.79-3.287-3.34 2.999-3.508zm-2.178 1.037l-1.97 2.306 2.132 2.283c-2.529 2.706-6.301 1.035-6.264-2.277.029-2.528 3.872-4.99 6.102-2.312zm-40.842-.887l-2.105.634.48 1.858 2.177-.57-.552-1.922zm-28.392.585l-.389 1.999 2.417.523.409-1.99-2.437-.532zm24.917.34l-2.24.488.385 1.989 2.245-.474-.39-2.004zm46.73.469l-1.845 1.824 1.845 1.926 1.86-1.926-1.86-1.824zm-67.769.058l-.283 2.013 2.532.343.197-2.037-2.446-.32zm17.056.276l-2.278.26.23 1.975 2.365-.3-.317-1.935zm-13.447.232l-.029 2.066 2.22.18v-2.048l-2.19-.198zm9.794.193l-2.23.083.015 1.998 2.278-.145-.062-1.936zm-40.684.02a2.381 2.381 0 0 0-2.374 2.39 2.381 2.381 0 0 0 2.374 2.39 2.381 2.381 0 0 0 2.374-2.39 2.381 2.381 0 0 0-2.374-2.39zm36.945.067l-2.19.02.01 2.023 2.258.01-.077-2.052zm58.105.01l.961.968-.961.954-.985-.954.985-.968zm-95.055.765c.861 0 1.557.701 1.557 1.568 0 .867-.696 1.573-1.557 1.573a1.57 1.57 0 0 1-1.562-1.573c0-.867.701-1.568 1.562-1.568zm-8.443.116l3.157 2.59c-1.005 1.935-4.186 6.024-4.186 6.024L74.7 96.79l3.052-1.737c-.166.323-.26.686-.26 1.074a2.34 2.34 0 0 0 2.336 2.347 2.34 2.34 0 0 0 2.335-2.347c0-1.245-.965-2.26-2.181-2.342l1.58-.9zm-1.764 1.665c.865 0 1.567.707 1.567 1.577s-.702 1.573-1.567 1.573a1.569 1.569 0 0 1-1.567-1.573c0-.87.703-1.577 1.567-1.577zm107.31.744s.86.33 1.07.654c1.694 2.618-.07 5.73-2.908 5.669-3.316-.071-4.189-4.256-1.908-5.964l1.854 1.763 1.892-2.122zM100.91 96.36l6.536 2.526-2.48 7.152-7.146-2.952 3.09-6.726zm-26.863.745c26.663 24.19 64.543 25.93 92.075 9.872l1.677-.034.89.92c-31.366 18.677-70.357 14.613-96.68-9.427l2.038-1.331zm73.42 1.442l2.105 7.07-7.228 1.916-1.615-7.162 6.738-1.824zm-76.155.256c8.093 7.853 19.534 14.734 32.972 18.636l.331 2.899c-14.264-4.314-25.038-10.074-35.532-20.073l2.23-1.462zm31.328.112a2.345 2.345 0 0 0-2.335 2.352 2.34 2.34 0 0 0 2.335 2.347 2.34 2.34 0 0 0 2.336-2.347 2.345 2.345 0 0 0-2.336-2.352zm-11.625.527l6.743 3.59-3.36 6.77-7.16-3.866 3.777-6.494zm11.596.247c.865 0 1.567.707 1.567 1.578 0 .87-.702 1.572-1.567 1.572a1.569 1.569 0 0 1-1.566-1.572c0-.87.702-1.578 1.566-1.578zm11.164.963l6.478.948-.298 7.23-7.56-.914c.29-2.545 1.38-7.264 1.38-7.264zm31.289.179a2.345 2.345 0 0 0-2.335 2.352 2.34 2.34 0 0 0 2.335 2.347 2.34 2.34 0 0 0 2.336-2.347 2.345 2.345 0 0 0-2.336-2.352zm-.029.774c.864 0 1.567.707 1.567 1.578 0 .87-.702 1.573-1.567 1.573a1.569 1.569 0 0 1-1.567-1.573c0-.87.702-1.578 1.567-1.578zm-52.67.102a2.345 2.345 0 0 0-2.335 2.352 2.34 2.34 0 0 0 2.336 2.347 2.34 2.34 0 0 0 2.335-2.347 2.345 2.345 0 0 0-2.335-2.352zm41.415.01l.928 7.263-7.074.354-.418-7.244 6.564-.373zm50.7.648h1.004c.093 6.251.584 13.488 1.302 18.839.108.797.157 1.032.077 1.176-.695 1.239-1.502-.32-1.816-3.876-.087-.98-.198-2.407-.318-3.344-.363-2.835-.25-12.795-.25-12.795zm-119.56.112c-10.636 6.681-28.328 22.643-28.222 23.015l.072 61.33 1.384.068 1.143-2.255c-1.77-.446-1.274-3.795 2.115-4.466.578-.115 2.344-.713 2.777-1.046 2.572-1.974 6.751-3.14 9.684-2.361 4.275 1.1 5.152 4.266 3.094 9.77-1.622 4.339-4.835 9.887-7.852 11.469-.246.129-.778.392-.778.392s.701.642.956.808c8.311-4.837 12.508-22.185 12.283-32.979.335-11.056 2.229-22.15 6.66-30.22 7.325-13.336 17.014-18.698 16.964-18.747 0 0-13.06-7.984-20.28-14.778zm27.417.005c.865 0 1.566.707 1.566 1.577s-.701 1.573-1.566 1.573a1.569 1.569 0 0 1-1.567-1.573c0-.87.702-1.577 1.567-1.577zm64.611.251l2.523 6.75-7.011 2.89-2.528-7.094 7.016-2.546zm-40.329.034a2.345 2.345 0 0 0-2.335 2.352 2.34 2.34 0 0 0 2.335 2.347 2.34 2.34 0 0 0 2.336-2.347 2.344 2.344 0 0 0-2.336-2.352zm14.254.586a2.345 2.345 0 0 0-2.336 2.352 2.34 2.34 0 0 0 2.336 2.347 2.34 2.34 0 0 0 2.335-2.347 2.345 2.345 0 0 0-2.335-2.352zm-14.282.188c.864 0 1.567.708 1.566 1.578 0 .87-.702 1.573-1.566 1.573a1.569 1.569 0 0 1-1.567-1.573c0-.87.702-1.578 1.567-1.578zm14.253.586c.865 0 1.567.707 1.567 1.578 0 .87-.702 1.572-1.567 1.572a1.569 1.569 0 0 1-1.567-1.572c0-.871.703-1.578 1.567-1.578zm23.845.803a2.345 2.345 0 0 0-2.335 2.352 2.34 2.34 0 0 0 2.335 2.347 2.34 2.34 0 0 0 2.336-2.347 2.344 2.344 0 0 0-2.336-2.352zm-.029.775c.865 0 1.568.707 1.567 1.577 0 .87-.702 1.573-1.567 1.573a1.569 1.569 0 0 1-1.566-1.573c0-.87.702-1.577 1.566-1.577zm-49.521.12l7.006 1.806-1.629 7.399-7.905-2.115 2.528-7.09zm88.635-.19c1.146 3.614-.957 8.25-1.063 8.553-1.273 3.635-2.806 6.606-3.364 6.78-.474.18-.684.064-.682-.383 0-.687 1.566-5.343 2.797-8.338.301-.734.999-2.951 1-3.324 0-.56-.538.353-1.12 1.751-1.128 2.797-2.773 5.791-3.129 8.503-.255 2.215-.674 1.902-.98-.736-.426-3.662.37-5.546 4.46-10.646.978-1.22 1.982-2.473 2.081-2.16zm-51.473 1.88l2.028 7.244-8.271 1.422-1.288-7.346 7.53-1.32zm-34.63.73a2.345 2.345 0 0 0-2.335 2.352 2.34 2.34 0 0 0 2.335 2.347 2.34 2.34 0 0 0 2.336-2.347 2.345 2.345 0 0 0-2.336-2.352zm12.365.47l7.492.43.067 7.53-8.131-.353.572-7.608zm-12.393.304c.864 0 1.566.707 1.566 1.578 0 .87-.702 1.573-1.566 1.573a1.569 1.569 0 0 1-1.567-1.573c0-.87.702-1.578 1.567-1.578zm31.443.668a2.345 2.345 0 0 0-2.336 2.352 2.34 2.34 0 0 0 2.336 2.347 2.34 2.34 0 0 0 2.335-2.347 2.345 2.345 0 0 0-2.335-2.352zm-15.532.605a2.345 2.345 0 0 0-2.336 2.352 2.34 2.34 0 0 0 2.336 2.347 2.34 2.34 0 0 0 2.335-2.347 2.345 2.345 0 0 0-2.335-2.352zm15.503.17c.864 0 1.566.706 1.566 1.577 0 .87-.702 1.573-1.566 1.573a1.569 1.569 0 0 1-1.567-1.573c0-.87.702-1.578 1.567-1.578zm-15.532.604c.865 0 1.567.707 1.567 1.578 0 .87-.702 1.573-1.567 1.573a1.569 1.569 0 0 1-1.567-1.573c0-.87.703-1.578 1.567-1.578zm51.088.45c.124-.003.286.02.394.02 1.673-.02 7.316 4.061 8.761 6.533 1.2 2.182.578 3.048-.802 1.098-1.905-2.136-5.424-5.307-5.873-5.308-.48-.002.182.689 2.422 2.888 2.223 2.182 4.567 5.025 4.565 5.532 0 .334-.442.292-1.076-.102-1.386-.86-2.59-1.73-3.205-2.313a73.957 73.957 0 0 0-1.581-1.442c-2.073-1.83-4.434-6.048-3.768-6.857.03-.036.09-.047.163-.049zm-104.531.6c1.443-.042 3.072.882 3.138 2.575.047 1.195.127 1.287 1.201 1.306 1.025.019 3.984.373 3.984.373l.02 3.349s-1.43-.01-3.076-.087c-2.804-.134-2.792-.138-3.148 1.103-.144.502-.344.748-.903 1.118-2.519 1.665-4.946-1.356-3.384-4.21.537-.98.568-1.315.197-1.902-.753-1.704.25-3.54 1.97-3.625zm.615 1.713c-.31 0-.65.135-.961.446-.415.414-.419 1.596 0 2.284.395.657.385.834-.077 1.268-.814.763-.837 2.278-.043 2.847.723.52 1.49-.166 1.494-1.217 0-1.15.805-1.13.805-1.13l5.268.092.017-.864-3.822-.193c-.532-.002-1.088-.053-1.498-.333-.435-.302-.93-.828-.457-1.467.662-.896.072-1.739-.721-1.733h-.005zm-11.418 1.98l2.499 4.277 2.912.107.255 2.603 3.54 2.296-3.627 2.136-.179 2.62-2.747.347-2.552 3.218-2.446-3.213-2.696.015-.04-2.686-3.709-2.405 4.06-2.299-.042-3.068 2.878-.193 1.894-3.755zm88.27 1.945l.12 2.584-4.09.73.533-2.632 3.436-.682zm-26.21 2.603l5.511.17-.317 36.269-1.292-.01-.024-1.413-1.764.058-1.793-1.094-.322-33.98zm-62.06.92l-3.234 4.123 3.916 3.445 3.45-4.03-4.132-3.538zm63.713.551v1.67h2.311v-1.67h-2.311zm-63.641 1.428l2.278 1.68-1.735 2.307-2.196-1.916 1.653-2.071zm88.313.948l-.072 19.85c-7.574 5.986-9.934 16.522-9.934 16.521l-3.08-.184 7.828-34.967 5.258-1.22zm-41.055.44c-6.815 3.266-13.683 5.738-20.443 13.526 2.618 2.372 5.384 4.79 7.843 8.832 5.628-.844 11.889.17 18.718 2.874l-6.118-25.231zm16.383.446v1.728h2.311v-1.728h-2.311zm-76.607 2.492a5.97 5.97 0 0 1 .222 1.094c4.997-.422 3.723 5.418.538 5.618-.374.049.309 1.036 1.052 1.35 1.893.801 3.253.286 4.493-1.379.952-1.277 1.01-1.461 1.01-1.461l3.085 1.645s.088-.045-.457 1.38c-.991 2.591.455 5.772 1.572 3.454.595-1.235 2.344-1.938 3.556-1.427 1.416.597 1.906 3.143.913 4.747-.3.485-.31.586-.125 1.035.278.676.45 2.415.159 2.976-.378.728-.813.894-1.663.3-1.164-.812-1.815-1.15-3.84-1.717-3.556-.674-4.252-1.934-5.666-4.878-4.211 1.27-10.513-1.39-9.673-7.685.382-1.39.487-4.056-.217-4.602-1.378-1.069.134-2.612 2.206-2.86 1.702-.17 2.522 1.454 2.835 2.41zm59.58-1.824l5.479 23.102c-6.013-2.218-11.915-3.948-17.137-2.662-2.392-3.843-4.43-5.734-7.084-8.231 5.17-6.275 11.74-9.786 18.742-12.21zm-61.982 1.132c-.355-.004-.755.15-1.173.523 0 0 .37.312.572.735.322.677.326.677-.039 2.178-1.67 6.018 2.293 10 7.93 8.26 1.383-.43 1.33-.383 1.73 1.254.656 2.694 2.548 4.086 6.309 4.597.231.031.617.107.923.295 1.654 1.063.976-.35.524-.9-.323-.43-.914-.857-.914-.857s.505-.329.74-.454c1.062-.567 1.458-2.786.582-3.262-.799-.434-2.159.221-2.163 1.045-.01 1.505-1.892 1.665-3.542.414-2.119-1.606-.242-5.653-.23-5.647l-1.194-.53c.159.143-2.516 3.968-5.806 2.634-2.297-.932-3.917-3.611-2.851-4.376.776-.21 1.707.22 2.297-.237 1.175-.928.226-2.557-1.452-2.497-.352.012-1.153.169-1.153.169.088-.758.281-1.291.187-2.023-.098-.732-.602-1.314-1.278-1.32zm79.033 1.757v1.423l2.287.014v-1.423l-2.287-.014zm-.024 2.932v1.467h2.311v-1.467h-2.311zm0 3.16v1.5h2.311v-1.5h-2.311zm0 2.947v1.588h2.311v-1.588h-2.311zm0 2.957v1.48h2.311v-1.48h-2.311zm0 3.015v1.495h2.311v-1.495h-2.311zm-75.15 1.461l1.946 3.31 2.311.102.091 2.274 3.931 3.025-3.436 2.472-.25 2.454-2.724.087-2.206 3.745-2.715-3.285-2.182-.354-.25-2.99L39 153.428l3.157-2.54.255-2.657 2.571.227 2.86-3.339zm127.91 1.583c.21.004.44.062.688.188.816.415 1.074.464 3.195.571 2.461.125 3.33.347 4.551 1.167.736.494.779.491 1.567-.034 3.455-2.306 7.402-.21 7.689 4.084.075 1.129.187 1.583.63 2.53.3.657.613 1.174.432 1.593-.554 1.278-3.216 1.36-4.667-.537-.26-.287-.523-.41-.884-.412-.72.27-2.563-1.19-2.542-1.253-.171 1.016-.257 1.824-.437 3.3l-3.225-.048s-.072-.595-.22-2.671c-.173-2.387-.762-3.085-1.52-1.796-1.303 2.22-4.768 1.244-4.968-1.398-.068-.896-.119-1.012-.606-1.389-1.631-1.263-1.156-3.925.317-3.895zm-52.76.13v1.326h2.311v-1.326h-2.311zm53.13 1.418c-.64.046-.275 1.19.784 1.795.6.344.602.341.523 1.394-.142 1.907 1.683 2.842 2.495 1.278.14-.271.2-.616.144-.847-.34-1.386 2.638-1.008 3.354.426.165.33.349 1.205.437 2.09.084.838.106 1.81.106 1.81h.952s-.011-.58.043-1.132c.235-2.37 1.276-3.868 2.681-3.862.6.002.621.11.202.89-.71 1.321-.026 2.278 1.63 2.29 1.049.006 1.045.008 1.436.759.429.825.754 1.086 1.153.934.282-.108.288.051-.082-2.763-.55-4.194-2.973-5.324-6.32-2.947-.946.672-1.153.652-1.993-.165-1.26-1.224-2.056-1.504-4.518-1.597-1.172-.044-2.328-.16-2.566-.256a1.063 1.063 0 0 0-.461-.097zm-79.412 1.2c-.548.01-1.183.126-1.734.173.612 3.24.897 6.482 1.177 9.723 2.818-.493 6.468-.033 11.283 2.226 2.955 1.387 6.564 3.757 10.346 6.431 4.095 2.896 8.895 4.605 12.984 5.499 4.979 1.088 8.977.995 8.868.758-.22.037-1.795-7.95-1.589-9.658-6.887-.637-13.536-3.205-18.62-6.683-6.728-4.606-14.505-8.61-22.715-8.469zm26.282.271v1.345h2.311v-1.345h-2.311zm-75.852.266l-3.657 3.838 3.979 3.794 3.378-3.867-3.7-3.765zm-.1 1.742l2.07 1.999-1.672 2.134-2.33-2.023 1.931-2.11zm51.563.315c.487.004.964.349 2.576 1.258 1.352.94 2.431 1.525 2.038.053.308-.424 1.805.956 3.57 1.825 2.128 1.716 2.136 1.302 2.413.45.285-.624.678-.202 2.378 1.384 2.234 2.083 2.033 2.086 2.48 1.568.509-.974.679-.963 2.499 1.142 1.892 2.125 2.292 2.579 2.696 1.67.623-.472.945-.015 3.513 2.414 1.263 1.268 1.56 1.071 1.797.218.244-.88.314-.682 2.446 1.02 2.47 1.991 2.714 2.137 2.816 1.448.163-1.095.928-.707 3.47 1.132 1.54 1.108 2.122 1.417 2.45 1.142.336-.597-.835-1.745 1.649-.663l.682 3.63-.86-.248c-.528-.15-1.686-.545-1.25.586.253.653-.372.576-2.301-.58-2.763-1.658-3.273-2.038-3.48-1.7-.364 1.241-.318 1.321-2.181-.15-2.169-1.655-2.605-2.112-2.908-1.548-.04 1.25-.644.997-2.667-.76-1.71-1.505-2.074-2.291-2.84-1.14-.21.4-.42.3-.704.091-.994-.74-2.993-2.865-3.558-3.475-.445-.488-.698-.33-1.062.073-.341.376-.367.259-1.47-.76-2.637-2.434-3.127-3.043-3.495-2.71-.3.57-.013 1.347-2.037-.261-2.54-1.842-3.642-2.66-3.47-1.452-.435.54-.13.646-2.672-.77-2.415-1.345-2.721-1.749-3.07-1.287-.238.731-1.048.469-1.048.426l-.49-3.692.87.01s.836-.343 1.22-.344zm-19.38.31c-.195.57-1.527 3.864-1.543 12.247.16.198 3.302-3.027 3.455-6.034.145-2.849-1.906-6.221-1.913-6.213zm43.764.232v1.53h2.311v-1.53h-2.311zm-43.6 1.212c2.938 4.69-.3 9.113-1.106 9.426 0-3.525.515-6.84 1.106-9.426zm77.11 3.94c-4.831 3.065-4.047 11.36-1.677 13.485.175 0 1.696-8.96 1.676-13.485zm-.662 1.02l-1.3 10.676c-1.689-1.883-1.988-7.498 1.3-10.675zm30.46 1.803l2.553 3.232 2.268.17.504 2.332 3.311 2.715-3.315 2.265-.294 2.584-2.465.251-2.441 3.867-2.389-3.79-2.287-.246-.072-2.487-3.594-2.672 3.43-2.076.068-2.811 2.686.01 2.038-3.344zm-90.369 1.011c-1.62 7.763-5.493 13.075-10.956 16.647l.029.784-9.203 3.716c-2.016 9.47-5.64 18.708-13.24 27.375l2.12 4.336-10.28 3.557 14.715 25.41c1.014 0-7.13 3.88-16.959 2.87 6.221 15.336 7.504 31.215 4.061 45.12l48.167-.204-36.811-72.737-.601-1.185c-.511-.95 19.569 2.843 15.306 21.597-.06.434.09.489.331.31 3.904-3.377 29.829-12.74 50.531-.378l6.152-2.565c-2.928 10.32-6.255 17.418-11.865 23.64l.951 14.686c9.927-8.186 20.698-23.213 22.144-43.184 4.47-2.194 8.358-4.684 12.524-7.031l.552.179 2.696-1.631c-8.646-9.525-26.3-18.629-37.613-21.021l.668 3.227c-6.243-1.687-10.911-2.054-15.767-2.579l-.745-34.174-6.286-3.73-.197 37.696c-4.7.059-15.508 1.926-15.508 1.926l.486-3.223-4.95 1.026-.086-3.14 5.594-1.617 8.111-34.629-4.07-1.074zm.678.77l2.585.527-8.03 33.951s-4.504 1.253-4.781 1.08c-.359-6.367-.495-19.343-.495-19.343 7.925-6.652 9.166-11.362 10.721-16.215zm-55.115 2.492c1.21-.015 2.512.87 2.595 1.67.207.491.38.704.706.75 2.026.281 2.09.821 2.148 1.998-.285 2.255 1.214.362 1.639-1.878.044-.233.019-1.945.019-1.945l2.48-.024s.084 1.787.12 2.07c.218 1.733.952 3.137 1.46 2.217 1.745-3.155 5.74-1.546 5.109 1.495-.155.72-.146.766.341 1.312.794.891 1.089 1.835.827 2.657-.256.802-.814.924-2.014.44-.564-.228-1.247-.309-3.075-.363-2.586-.077-2.747-.126-3.754-1.108l-.634-.62-1.096.649c-1.824 1.08-3.483 1.12-5.41.126-1.256-.648-1.987-2.2-2.182-4.622-.037-1.286-.396-2.217-1.187-2.526-.428-.405.049-1.21.778-1.945a1.94 1.94 0 0 1 1.13-.353zm144.595.368l-3.407 4.277 4.051 3.649 3.773-4.467-4.417-3.46zm-78.922.614l4.719 2.72.606 33.69-5.335-.15.01-36.26zm-65.544.47c-.359.035-.133.615.13 1.5.236.791.296 1.284.221 1.834-.5 3.691 3.703 5.569 6.738 3.01.806-.931.939-.87 1.614.125.833 1.051 2.044 1.393 4.585 1.24 1.16-.07 1.928.552 2.431.14.364-.266.011-.97-.692-1.38-.43-.25-.445-.29-.36-1.156.215-2.185-1.574-2.764-2.845-.92-1.05 1.524-2.632.517-3.143-1.998-.303-1.936-.545-1.905-.773-.218-.248 2.052-2.932 4.276-4.004 3.266-.293-.297-.29-.223.01-1.253.388-1.322.077-1.815-1.355-2.158-.234-.056-.504-.253-.596-.436-.758-1.182-.725-1.597-1.96-1.597zm144.807.783l2.163 1.878-1.884 2.24-2.302-1.78 2.023-2.338zm-77.783 1.2v1.593h2.018v-1.593h-2.018zm0 3.209v1.674h2.018v-1.674h-2.018zm12.158 1.926c2.262 8.459 4.542 16.91 6.815 25.366 2.152-.865 14.581-6.42 20.443-13.53-.223.018-5.33-5.009-7.117-8.27-5.863.973-12.597-.265-20.14-3.566zm-12.158 1.006v1.563h2.018v-1.563h-2.018zm13.432.426c5.342 1.605 12.186 3.817 18.487 2.69 1.625 2.941 3.977 5.361 6.632 7.593-4.77 5.224-11.665 9.209-18.8 12.277l-6.32-22.56zm50.708.61c.269.002.541.105.803.339.845.756 1.497 1.018 3.225 1.301 2.782.457 4.904 2.206 5.507 4.54.253.98.392 1.033 1.778.682 5.25-1.33 9.298 3.053 8.05 8.904-.437 2.043-.571 2.287.038 3.097 1.335 1.448 1.625 1.467.164 2.744-1.33 1.203-3.972.621-4.532-1.331-.536-1.07-.528-1.15-1.408-1.292-3.427-.55-3.285-5.323-.058-5.875.27-.046.469.01.605-.053.917-.417-.998-2.6-2.58-2.265-1.941.41-2.908 1.664-3.672 3.63l-3.056-1.757c.767-1.597 1.33-3.654.663-4.926-.539-1.073-1.219-1.114-1.427-.087-.49 2.416-3.473 3.138-5.43 1.17-1.095-1.099-1.223-2.278-.419-3.87.52-1.03.534-1.105.313-1.54-.77-1.512.272-3.418 1.437-3.411zm-64.14 1.965v1.63l2.023-.01v-1.62H108.642zm64.515.135c-.62.005-.617.614-.043 1.355.51.521.61.76-.096 1.21-.884.825-1.077 2.068-.466 3.015.917 1.421 3.035.629 2.792-1.046-.17-1.175.747-1.7 2.206-1.258 2.12.643 3.131 3.03 2.297 5.435-.157.453-.47 1.51-.47 1.51l.627.382s.743-1.195 1.033-1.557c2.41-2.982 8.104-1.471 7.47 2.258-.098 1.172-.093 1.33-1.36.963-.842-.436-1.655.47-1.63 1.602.043 1.02.921 1.838 2.14 1.674.965-.182 1.207-.149 1.138 1.162.099.911.436 1.515 1.028 1.824 1.439.598 2.178-.226 1.029-1.437-.697-.734-.655-1.869-.216-2.933.523-1.272.25-4.069-.553-5.647-1.157-2.273-4.393-3.226-7.103-2.09-1.238.666-1.374.82-1.494-.349-.68-2.9-2.846-5.09-5.546-5.284-1.038-.075-2.12-.645-2.782-.789zm-64.515 2.962v1.505h2.023v-1.505h-2.023zm0 2.942v1.66h2.018v-1.66h-2.018zm0 3.237v1.66s1.104-.03 2.018 0v-1.66h-2.018zm65.914 2.662l2.21 3.29 2.446.165.289 2.657 3.71 2.327-3.215 2.028-.024 2.57-3.066.26-2.71 3.62-2.307-3.194-2.307.01-.543-2.85-4.085-2.085 4.19-2.406-.115-2.995 2.85-.02 2.677-3.377zm-65.914.392v1.703h2.018v-1.703h-2.018zm0 3.12v1.685h2.018v-1.684h-2.018zm64.674 1.254l-3.167 4.244 4.267 3.552 3.393-4.292-4.493-3.504zm-64.674 1.699v1.843h2.018v-1.843h-2.018zm65 .222l2.202 1.713-1.572 2.009-2.186-1.68 1.557-2.042zm-65 3.184v1.544h2.018v-1.544h-2.018zm-60.07.199c-3.89.018-7.571 6.364-8.453 9.368-1.042 3.85-1.197 10.813-.207 11.01 3.488-2.528 5.141-6.81 7.761-10.018.407 3.708.342 10.86.342 10.86s-1.55.823-2.386 2.12c-.603 1.08-.796 2.369-.282 3.57-1.939-.634-5.451.082-5.65 3.688.125 5.076 5.63 4.361 5.65 4.292-.116-.031-1.083 5.4 3.802 5.976 1.753.207 4.837-1.08 3.921-6.02 3.084.513 5.743-1.197 5.776-4.185.04-2.047-1.505-3.808-4.166-3.819-.555-.002-1.725.252-1.725.252.037-.295 1.065-3.472-2.514-5.778l-.562-14.696s1.235 1.356 1.788 1.868c2.378 2.204 3.93 3.314 6.675 4.771 2.67 1.418 2.341 1.068 1.879-1.626-1.262-4.046-3.9-7.104-9.482-10.927-.718-.492-1.446-.71-2.167-.706zm.384.314l.784 20.786-1.158-.002-.995-20.764 1.37-.02zm114.508.688c.103-.004.209 0 .318.01 2.517.213 3.164 3.048 2.032 4.306-.447.498-.602.605-.37.91 1.08 1.379.478 3.556-.59 3.89-3.398 1.065-3.913-.807-3.903-3.01l-5.248-.198.034-3.077 5.786.116c-.436-1.398.4-2.888 1.942-2.947zm-116.94.033a.32.32 0 0 1 .063 0c.544.047-.016 1.51-1.533 3.741-1.026 1.508-2.452 4.168-2.879 5.24-.934 2.35-1.563 6.562-.937 5.788.565-1.76.62-2.494 1.106-3.76.639-1.65 3.623-7.077 4.214-7.611.506-.458.636-.177.625 1.35-.026 3.438-1.644 7.055-5.503 11.29-.643.705-1.5 1.476-1.561 1.475-.372-.002-.362-.78-.356-2.414.025-6.495 2.42-12.294 6.103-14.789.288-.195.506-.296.658-.31zm3.908.3c1.692.5 4.73 3.235 5.983 4.641 1.45 1.576 3.393 5.94 3.051 6.61-.113.295-.358.249-1.206-.232-5.386-3.053-9.243-6.816-8.232-8.033.282-.34 1.44.361 2.99 1.81 1.052.941 2.13 1.895 3.094 2.85 1.514 1.501 1.854 1.722.942.054-.82-1.498-3.141-4.012-5.95-6.146-1.141-.868-1.4-1.567-.672-1.553zm113.364.876a.53.53 0 0 0-.187.034c-1.06.45-.629 1.833-.73 2.894l-5.825-.203-.034.813 5.464.3c.096.83-.334 2.62.37 2.923 1.529.64 2.364-1.344 1.066-2.536-.462-.413-.962-.597.322-1.18.847-.73.979-2.151.255-2.783a1.117 1.117 0 0 0-.701-.262zm-73.69.242l-.292 2.173-3.379.857-.086-2.323 3.758-.707zm39.844.77c12.472 3.383 26.337 11.063 35.34 19.739l-1.802 1.19c-9.355-8.701-21.695-15.307-33.033-18.587l-.505-2.342zm-21.49.334c20.538-.057 39.261 7.983 54.37 20.968l-2.47 1.567c-13.782-11.471-29.05-19.121-49.594-20.033-13.427-.597-28.75 2.87-43.851 11.236l-1.124-2.057c14.666-8.053 29.065-11.644 42.668-11.681zm-1.615 3.116l8.078.237-.5 7.554-7.343-.242-.235-7.549zm-8.689.537l1.14 7.288-7.031 1.321-1.995-7.307 7.886-1.302zm25.57.963l8.026 2.154-2.648 7.428-7.045-2.023 1.668-7.559zm-12.854.107a2.315 2.315 0 0 0-2.307 2.322 2.314 2.314 0 0 0 2.307 2.323 2.315 2.315 0 0 0 2.306-2.323 2.315 2.315 0 0 0-2.306-2.322zm0 .803c.85 0 1.538.678 1.538 1.52 0 .84-.689 1.524-1.538 1.524-.85 0-1.538-.684-1.538-1.525 0-.84.688-1.52 1.538-1.519zm-15.936.014a2.315 2.315 0 0 0-2.306 2.323 2.315 2.315 0 0 0 2.306 2.323 2.315 2.315 0 0 0 2.307-2.323 2.315 2.315 0 0 0-2.307-2.323zm0 .804c.85 0 1.538.678 1.538 1.52 0 .84-.688 1.524-1.538 1.524-.849 0-1.537-.684-1.537-1.525 0-.84.688-1.52 1.537-1.52zm31.77.934a2.315 2.315 0 0 0-2.306 2.322 2.315 2.315 0 0 0 2.306 2.323 2.314 2.314 0 0 0 2.307-2.323 2.315 2.315 0 0 0-2.307-2.322zm-44.72.27l2.378 7.11-6.81 2.777-2.551-7.022 6.982-2.864zm44.72.533c.85 0 1.539.679 1.538 1.52 0 .84-.688 1.524-1.538 1.524-.849 0-1.537-.683-1.537-1.525 0-.84.688-1.52 1.537-1.519zm13.34 1.703l7.224 3.843-3.734 6.794-6.733-3.533 3.244-7.104zm-60.473.615a2.315 2.315 0 0 0-2.307 2.323 2.315 2.315 0 0 0 2.307 2.322 2.315 2.315 0 0 0 2.307-2.322 2.315 2.315 0 0 0-2.307-2.323zm27.286.223l.337 7.176-6.397.455-1.163-7.133 7.223-.498zm7.675.377l7.29 1.016-1.716 6.91-6.598-1.069 1.024-6.857zm-34.961.203c.85 0 1.538.679 1.538 1.52 0 .84-.689 1.524-1.538 1.524-.85 0-1.538-.683-1.538-1.524s.689-1.52 1.538-1.52zm23.884.93a2.315 2.315 0 0 0-2.307 2.322 2.315 2.315 0 0 0 2.307 2.323 2.315 2.315 0 0 0 2.307-2.323 2.315 2.315 0 0 0-2.307-2.323zm-11.649.29l1.889 6.982-7.03 2.028-2.159-6.717 7.3-2.293zm25.523.111a2.315 2.315 0 0 0-2.307 2.323 2.315 2.315 0 0 0 2.307 2.323 2.315 2.315 0 0 0 2.306-2.323 2.315 2.315 0 0 0-2.306-2.323zm-13.874.402c.85 0 1.538.678 1.538 1.52 0 .84-.689 1.523-1.538 1.523-.85 0-1.538-.683-1.538-1.524 0-.84.689-1.52 1.538-1.52zm13.874.401c.849 0 1.537.679 1.537 1.52 0 .84-.688 1.524-1.537 1.524-.85 0-1.538-.683-1.538-1.524s.688-1.52 1.538-1.52zm24.672.015a2.315 2.315 0 0 0-2.307 2.323 2.315 2.315 0 0 0 2.307 2.322 2.315 2.315 0 0 0 2.306-2.322 2.315 2.315 0 0 0-2.306-2.323zm-12.48.677l7.044 2.425-2.81 6.63-6.743-2.585 2.508-6.47zm12.48.126c.849 0 1.537.679 1.537 1.52 0 .84-.688 1.524-1.537 1.524-.85 0-1.538-.683-1.538-1.524s.688-1.52 1.538-1.52zm-52.997.247A2.315 2.315 0 0 0 86.7 219.7a2.315 2.315 0 0 0 2.306 2.322 2.315 2.315 0 0 0 2.307-2.322 2.315 2.315 0 0 0-2.307-2.323zm0 .803c.85 0 1.539.679 1.538 1.52 0 .84-.688 1.524-1.538 1.524-.849 0-1.537-.683-1.537-1.524s.688-1.52 1.537-1.52zm42.684 1.355a2.315 2.315 0 0 0-2.307 2.323 2.315 2.315 0 0 0 2.307 2.323 2.315 2.315 0 0 0 2.306-2.323 2.315 2.315 0 0 0-2.306-2.323zm0 .803c.85 0 1.538.679 1.538 1.52 0 .84-.689 1.524-1.538 1.524-.85 0-1.538-.683-1.538-1.524s.688-1.52 1.538-1.52zm-82.522.809c1.843.078 3.227 1.745 3.31 3.48.064 1.319-1.607 3.045-1.607 3.045l-1.944-1.813-1.866 1.732c-.315.106-1.766-2.377-1.323-3.661.577-1.673 1.765-2.854 3.43-2.783zm104.743 0l5.58 4.597s-2.45 1.499-2.903 1.766c.055-.2.082-.411.082-.63a2.315 2.315 0 0 0-2.307-2.322 2.315 2.315 0 0 0-2.307 2.323c0 1.1.763 2.024 1.783 2.265-.573.331-1.336.76-1.336.76l-2.946-2.488 4.354-6.271zm-8.833 12.286l-2.469 1.02c-15.192-10.049-35.976-15.548-59.734-5.43l-.818-1.982c17.638-7.396 39.891-9.7 63.021 6.392zm-1.35-10.041l5.978 3.692-3.796 5.87-5.84-3.76 3.658-5.802zm-1.807 11.382l-2.509.948c-18.544-11.998-38.31-11.359-55.97-4.166l-.273-1.686c20.795-9.066 41.666-6.181 58.752 4.904zm12.442-9.413c.849 0 1.537.679 1.537 1.52s-.688 1.524-1.537 1.524c-.85 0-1.538-.683-1.538-1.524s.688-1.52 1.538-1.52zM46.46 228.113l-2.062 2.095 1.883 2.13s-.598.51-1.03.747c-2.468 1.352-5.168-.784-5.04-3.091.189-3.361 4.211-4.964 6.25-1.88zm98.127-1.605a2.315 2.315 0 0 0-2.307 2.323 2.315 2.315 0 0 0 2.307 2.323 2.315 2.315 0 0 0 2.307-2.323 2.315 2.315 0 0 0-2.307-2.323zm-89.78.095c1.836.014 3.262 1.433 3.438 3.065.14 1.302-.532 2.552-1.981 3.437-1.967 1.201-4.251-.743-4.212-.863l1.658-1.65-1.994-2.054c-.058-.038 1.316-1.949 3.091-1.935zm-5.741.399l3.398 3.412-3.595 3.372-3.33-3.368 3.527-3.416zm89.6 9.078l-1.907.88-2.6-1.577-.77 1.486 1.447.924-1.504.568c-17.326-9.802-36.905-6.963-49.919-.458 0 0 .113-1.008.12-1.008l1.416-.728-.528-1.805-.76.223-.057-1.999c18.582-8.425 39.666-6.495 55.062 3.494zm5.92-8.768c.85 0 1.539.678 1.539 1.52 0 .84-.689 1.523-1.538 1.523-.85 0-1.538-.683-1.538-1.524 0-.84.689-1.52 1.538-1.52zm-95.592 1.22l-1.812 1.814 1.802 1.935 1.76-1.872-1.75-1.878zm56.716.4l-2.374.107.125 1.95 2.316-.058-.067-1.998zm1.62.01l.042 1.95 2.153-.01-.01-1.925-2.186-.015zm3.82.035l-.106 1.94 2.138.097.154-1.93-2.186-.107zm-9.227.246l-2.432.267.27 1.96 2.301-.272-.14-1.955zm13.21.03l-.173 2.003 2.197.251.298-1.916-2.322-.339zm-66.13.01l1.058 1.132-1.053 1.055-1.12-1.104 1.116-1.084zm48.82.595l-2.344.372.25 2.018 2.287-.455-.192-1.935zm21.275 0l-.39 1.868 2.183.527.355-1.907-2.148-.488zm-25.119.817l-1.97.528.428 1.965 2.08-.513-.538-1.98zm28.863.078l-.414 1.897 2.225.61.447-1.82-2.258-.687zm-32.116.944l-2.062.735.534 1.82 2.095-.712-.567-1.843zm35.946.208l-.688 1.824 1.928.779.85-1.655-2.09-.948zm-39.349 1.069l-1.955.808.807 1.805 1.855-.852-.707-1.761zm-40.314.056l1.98 1.991 2.353-2.137c2.052 1.827 2.02 6.102-1.614 6.816-3.174.623-6.076-4.16-2.72-6.67zm83.195.384l-.755 1.675 2.13.943.734-1.611-2.11-1.007zM69.48 244.157l26.864 45.977-4.249-.083-25.998-44.428 3.383-1.466zm-4.41 1.751l1.486 2.324c-2.91-2.332-7.185-.37-7.004 2.57.142 1.312 1.244 2.11 1.25.846-.133-1.32 1.726-2.472 3.075-2.41 2.49.033 4.01 3.255 2.292 4.859-1.13 1.048-2.659 1-2.143-.436.08-.495.04-.676-.192-.89-.715-.656-2.032.198-1.711 1.137.21.617.273.77-.462 1.278-2.848 2.014-.863 5.984 2.586 4.176.705-.256.992-.294 1.312-.17 1.435.556 2.413-.698 1.052-1.35-.79-.378-.81-1.025-.048-1.539 1.629-1.095 4.166.617 4.157 2.807-.01 1.55-2.037 2.696-3.984 2.245-1.157-.267-1.296.522-.235 1.34 2.054 1.588 5.131.272 6.05-2.583.289-.898.247-1.086.247-1.086l2.741 4.557s-.85-.405-1.364-.563c-2.58-.793-5.474.892-5.483 3.194 0 1.085.633 1.505.99.653.83-1.98 2.638-2.751 4.493-1.916 1.716.772 2.502 2.523 1.831 4.084-.702 1.635-3.057 2.117-2.792.571.127-.736-.319-1.186-1.105-1.113-.298.028-.68.898-.577 1.316.096.392.027.487-.98 1.278-2.395 1.88-.553 4.95 2.436 4.06.503-.15.69-.136 1.14.082 1.08.525 2.216.198 2.22-.639 0-.575-.256-.795-.933-.798-1.025-.004-.803-1.171.332-1.742 2.844-1.431 5.75 2.182 4.017 4.999-.744 1.21-1.214 1.335-3.873 1.04-.429-.047-.623.248-.367.6.786 1.123 3.126 1.478 4.49.857 1.47-.671 2.367-2.363 2.47-4.169l3.006 5.285c-2.338-2.46-6.37-1.52-7.019 2.005 0 .894.806 1.359 1.087.624 1.215-3.181 5.837-2.206 5.824 1.23 0 .552-.11.865-.461 1.35-.849 1.647-3.017 2.054-2.624.575.174-.457-.173-.954-.77-1.098-.586-.142-.96.353-.946 1.253.011.674.016.88.016.88-1.081.459-1.771 1.357-2.012 2.687l-21.042.048c2.503-14.686 1.915-27.948-2.868-40.489-.413-1.088-1.007-2.669-1.007-2.669l3.713.1c.896.782 4.282.478 5.605-.731l2.084-.519zm3.573 5.768l2.173 3.93c-.9-.518-1.815-.862-3.215-.982.73-1.091.789-2.07 1.042-2.948zm-5.713 4.177c.792 0 1.432.645 1.432 1.442 0 .798-.64 1.443-1.432 1.443a1.44 1.44 0 0 1-1.437-1.443 1.44 1.44 0 0 1 1.437-1.442zm14.984 11.744l2.093 3.751c-1.018-.437-1.878-.863-3.47-.905.58-.681 1.08-1.825 1.377-2.846zm-6.036 4.017c.75 0 1.36.614 1.36 1.37a1.357 1.357 0 1 1-2.715 0c0-.756.605-1.37 1.355-1.37zm15.165 11.693l3.09 5.52c-1.215-.701-2.524-1.589-4.165-1.418.78-1.681 1.207-2.598 1.075-4.102zm-4.111 6.887l-3.315.011c.663-2.918 3.342-2.16 3.315-.011zm3.136-1.407c1.127.058 2.1.446 2.709 1.436l-4.171.01s.029-1.451 1.462-1.446zM65.59 85.875s-4.646-7.63-10.912-16.603c-4.192-6.004-7.544-12.505-7.855-18.105-.358-6.397 3.025-12.814 9.15-13.125 6.12-.311 8.606 4.932 9.617 9.255 1.011-4.323 3.496-9.566 9.617-9.255 6.125.31 9.508 6.728 9.15 13.125-.311 5.6-3.663 12.101-7.855 18.105-6.267 8.972-10.912 16.603-10.912 16.603zM168.66 235.816s-4.645 7.63-10.912 16.603c-4.192 6.004-7.543 12.505-7.855 18.105-.357 6.396 3.026 12.814 9.15 13.125 6.121.31 8.606-4.932 9.617-9.255 1.012 4.323 3.496 9.566 9.618 9.255 6.124-.311 9.507-6.729 9.15-13.125-.312-5.6-3.663-12.101-7.855-18.105-6.267-8.972-10.913-16.603-10.913-16.603z"/>
    </g>
</svg>
