<svg xmlns="http://www.w3.org/2000/svg" width="234" height="323" viewBox="0 0 234 323">
    <defs>
        <filter id="a" width="106.4%" height="104.6%" x="-3.2%" y="-2.3%" filterUnits="objectBoundingBox">
            <feOffset in="SourceAlpha" result="shadowOffsetOuter1"/>
            <feGaussianBlur in="shadowOffsetOuter1" result="shadowBlurOuter1" stdDeviation="2.5"/>
            <feColorMatrix in="shadowBlurOuter1" result="shadowMatrixOuter1" values="0 0 0 0 0.701960784 0 0 0 0 0.533333333 0 0 0 0 1 0 0 0 0.5 0"/>
            <feMerge>
                <feMergeNode in="shadowMatrixOuter1"/>
                <feMergeNode in="SourceGraphic"/>
            </feMerge>
        </filter>
    </defs>
    <g fill="none" fill-rule="nonzero" filter="url(#a)" opacity=".5">
        <rect width="222.232" height="310.814" x=".431" y=".275" stroke="#FFF" stroke-width=".997" rx="10.678" transform="translate(5.566 5.722)"/>
        <path fill="#B388FF" d="M65.578 152.362s-4.646-7.63-10.912-16.603c-4.193-6.004-7.544-12.505-7.856-18.105-.357-6.396 3.026-12.814 9.15-13.125 6.122-.31 8.606 4.932 9.618 9.255 1.011-4.323 3.496-9.566 9.617-9.255 6.124.311 9.507 6.729 9.15 13.125-.312 5.6-3.663 12.101-7.855 18.105-6.267 8.972-10.912 16.603-10.912 16.603zM23.137 75.746s-2.214-3.18-5.202-6.918c-1.999-2.501-3.597-5.21-3.745-7.543-.17-2.666 1.442-5.34 4.362-5.47 2.919-.129 4.103 2.056 4.585 3.857.483-1.801 1.667-3.986 4.585-3.856 2.92.13 4.533 2.803 4.363 5.469-.149 2.333-1.747 5.042-3.745 7.543-2.988 3.739-5.203 6.918-5.203 6.918zM211.09 247.061s-2.215 3.18-5.203 6.918c-1.999 2.502-3.597 5.21-3.745 7.544-.17 2.665 1.442 5.34 4.362 5.469 2.919.13 4.103-2.055 4.585-3.857.483 1.802 1.667 3.986 4.585 3.857 2.92-.13 4.533-2.804 4.363-5.47-.149-2.332-1.747-5.041-3.745-7.543-2.988-3.738-5.203-6.918-5.203-6.918zM117.113 128.938s-4.646-7.631-10.912-16.603c-4.192-6.004-7.544-12.506-7.855-18.105-.358-6.397 3.025-12.815 9.15-13.126 6.121-.31 8.606 4.933 9.617 9.255 1.011-4.322 3.496-9.566 9.617-9.255 6.125.311 9.508 6.729 9.15 13.126-.311 5.6-3.663 12.1-7.855 18.105-6.266 8.972-10.912 16.603-10.912 16.603zM65.578 86.434s-4.646-7.631-10.912-16.603c-4.193-6.004-7.544-12.506-7.856-18.105-.357-6.397 3.026-12.815 9.15-13.126 6.122-.31 8.606 4.932 9.618 9.255 1.011-4.323 3.496-9.566 9.617-9.255 6.124.311 9.507 6.729 9.15 13.126-.312 5.6-3.663 12.1-7.855 18.105-6.267 8.972-10.912 16.603-10.912 16.603zM168.648 152.362s-4.645-7.63-10.912-16.603c-4.192-6.004-7.543-12.505-7.855-18.105-.357-6.396 3.026-12.814 9.15-13.125 6.121-.31 8.606 4.932 9.617 9.255 1.012-4.323 3.496-9.566 9.617-9.255 6.125.311 9.508 6.729 9.15 13.125-.31 5.6-3.662 12.101-7.855 18.105-6.266 8.972-10.912 16.603-10.912 16.603zM168.648 86.434s-4.645-7.631-10.912-16.603c-4.192-6.004-7.543-12.506-7.855-18.105-.357-6.397 3.026-12.815 9.15-13.126 6.121-.31 8.606 4.932 9.617 9.255 1.012-4.323 3.496-9.566 9.617-9.255 6.125.311 9.508 6.729 9.15 13.126-.31 5.6-3.662 12.1-7.855 18.105-6.266 8.972-10.912 16.603-10.912 16.603zM117.113 193.87s-4.646 7.63-10.912 16.603c-4.192 6.004-7.544 12.505-7.855 18.105-.358 6.396 3.025 12.814 9.15 13.125 6.121.31 8.606-4.932 9.617-9.255 1.011 4.323 3.496 9.566 9.617 9.255 6.125-.311 9.508-6.729 9.15-13.125-.311-5.6-3.663-12.101-7.855-18.105-6.266-8.972-10.912-16.603-10.912-16.603zM168.648 170.445s-4.645 7.63-10.912 16.603c-4.192 6.004-7.543 12.505-7.855 18.105-.357 6.397 3.026 12.814 9.15 13.125 6.121.311 8.606-4.932 9.617-9.255 1.012 4.323 3.496 9.566 9.617 9.255 6.125-.31 9.508-6.728 9.15-13.125-.31-5.6-3.662-12.101-7.855-18.105-6.266-8.972-10.912-16.603-10.912-16.603zM65.578 170.445s-4.646 7.63-10.912 16.603c-4.193 6.004-7.544 12.505-7.856 18.105-.357 6.397 3.026 12.814 9.15 13.125 6.122.311 8.606-4.932 9.618-9.255 1.011 4.323 3.496 9.566 9.617 9.255 6.124-.31 9.507-6.728 9.15-13.125-.312-5.6-3.663-12.101-7.855-18.105-6.267-8.972-10.912-16.603-10.912-16.603zM168.648 236.374s-4.645 7.63-10.912 16.603c-4.192 6.004-7.543 12.505-7.855 18.105-.357 6.396 3.026 12.814 9.15 13.125 6.121.31 8.606-4.932 9.617-9.255 1.012 4.323 3.496 9.566 9.617 9.255 6.125-.311 9.508-6.729 9.15-13.125-.31-5.6-3.662-12.101-7.855-18.105-6.266-8.972-10.912-16.603-10.912-16.603zM65.578 236.374s-4.646 7.63-10.912 16.603c-4.193 6.004-7.544 12.505-7.856 18.105-.357 6.396 3.026 12.814 9.15 13.125 6.122.31 8.606-4.932 9.618-9.255 1.011 4.323 3.496 9.566 9.617 9.255 6.124-.311 9.507-6.729 9.15-13.125-.312-5.6-3.663-12.101-7.855-18.105-6.267-8.972-10.912-16.603-10.912-16.603zM13.162 52.685V19.79h3.184v32.894zM25.786 19.79c-3.066 0-5.53 2.804-5.53 6.286V46.4c0 3.483 2.466 6.285 5.53 6.285h1.79c3.065 0 5.534-2.802 5.534-6.285V26.076c0-3.482-2.47-6.286-5.535-6.286h-1.789zm.925 3.11c1.81 0 3.266 1.39 3.266 3.13V46.62c0 1.739-1.456 3.142-3.266 3.142s-3.27-1.403-3.27-3.142V26.03c0-1.737 1.46-3.128 3.27-3.128z"/>
        <g fill="#B388FF">
            <path d="M221.062 270.123v32.893h-3.185v-32.893zM208.438 303.017c3.065 0 5.53-2.804 5.53-6.286v-20.323c0-3.482-2.466-6.285-5.53-6.285h-1.79c-3.065 0-5.534 2.803-5.534 6.285v20.323c0 3.482 2.47 6.286 5.534 6.286h1.79zm-.926-3.11c-1.81 0-3.265-1.39-3.265-3.129v-20.592c0-1.739 1.456-3.142 3.265-3.142 1.81 0 3.27 1.403 3.27 3.142v20.592c0 1.737-1.46 3.129-3.27 3.129z"/>
        </g>
    </g>
</svg>
