<?xml version="1.0" encoding="UTF-8"?>
<svg width="79px" height="79px" viewBox="0 0 79 79" version="1.1" xmlns="http://www.w3.org/2000/svg" xmlns:xlink="http://www.w3.org/1999/xlink">
    <!-- Generator: Sketch 46 (44423) - http://www.bohemiancoding.com/sketch -->
    <title>fair-play</title>
    <desc>Created with Sketch.</desc>
    <defs>
        <circle id="path-1" cx="37.5" cy="37.5" r="37.5"></circle>
    </defs>
    <g id="Webpage" stroke="none" stroke-width="1" fill="none" fill-rule="evenodd">
        <g id="Icns,-imgs" transform="translate(-681.000000, -615.000000)">
            <g id="fair-play" transform="translate(683.000000, 617.000000)">
                <mask id="mask-2" fill="white">
                    <use xlink:href="#path-1"></use>
                </mask>
                <g id="Oval-4">
                    <use fill="#B388FF" fill-rule="evenodd" xlink:href="#path-1"></use>
                    <circle stroke="#641C95" stroke-width="2" cx="37.5" cy="37.5" r="38.5"></circle>
                </g>
                <path d="M4.25361823,7 L20.4213637,17.8719977 L30.318657,29.1191783 L34.4275021,38.4979932 C33.6231469,39.1948564 32.479037,39.1948564 30.9951722,38.4979932 C29.5113074,37.8011299 27.8425848,35.5467774 25.9890043,31.7349357 L22.1448469,31.7349357 L17.6583556,37.7072299 C15.6648666,48.4678193 14.264616,54.5339251 13.4576039,55.9055473 C12.6505919,57.2771695 11.9096856,57.2771695 11.234885,55.9055473 L11.234885,45.9251505 L10.7500901,45.215352 L10.7500901,45.215352 C10.728673,45.1839947 10.7090593,45.1514429 10.6913445,45.1178549 L7.75771449,39.555575 L7.75771449,39.555575 C6.5560801,37.2772282 6.27993724,34.6230738 6.98682608,32.1461609 L8.95506797,25.2495124 L1,22.168707 L4.25361823,7 Z" id="Path-6" fill="#641C95" mask="url(#mask-2)"></path>
                <path d="M48.6935329,10.6580697 L59.4213637,17.8719977 L69.318657,29.1191783 L73.4275021,38.4979932 C72.6231469,39.1948564 71.479037,39.1948564 69.9951722,38.4979932 C68.5113074,37.8011299 66.8425848,35.5467774 64.9890043,31.7349357 L61.1448469,31.7349357 L56.6583556,37.7072299 C54.6648666,48.4678193 53.264616,54.5339251 52.4576039,55.9055473 C51.6505919,57.2771695 50.9096856,57.2771695 50.234885,55.9055473 L50.234885,45.9251505 L49.7500901,45.215352 L49.7500901,45.215352 C49.728673,45.1839947 49.7090593,45.1514429 49.6913445,45.1178549 L46.7577145,39.555575 L46.7577145,39.555575 C45.5560801,37.2772282 45.2799372,34.6230738 45.9868261,32.1461609 L47.955068,25.2495124 L40,22.168707 L48.6935329,10.6580697 Z" id="Path-6-Copy" fill="#641C95" mask="url(#mask-2)" transform="translate(56.713751, 33.796167) scale(-1, 1) translate(-56.713751, -33.796167) "></path>
                <path d="M35.511859,40.5531615 C38.8728477,44.3357025 42.6218442,47.547719 46.7588486,50.1892108 C50.895853,52.8307026 55.4282429,54.9063805 60.3560185,56.4162445" id="Path-7" stroke="#FFFFFF" stroke-width="1.5" stroke-linecap="round" mask="url(#mask-2)"></path>
                <path d="M13,47 C16.3609887,50.7825411 20.1099852,53.9945575 24.2469896,56.6360493 C28.3839939,59.2775411 32.9163839,61.353219 37.8441594,62.863083" id="Path-7-Copy" stroke="#FFFFFF" stroke-width="1.5" stroke-linecap="round" mask="url(#mask-2)" transform="translate(25.422080, 54.931542) scale(-1, 1) translate(-25.422080, -54.931542) "></path>
                <path d="M33.5,56.5 L59.5,63.5" id="Line-2" stroke="#FFFFFF" stroke-width="1.5" stroke-linecap="round" mask="url(#mask-2)"></path>
                <path d="M14.5,63.5 L41.5,67.5" id="Line-2-Copy" stroke="#FFFFFF" stroke-width="1.5" stroke-linecap="round" stroke-linejoin="round" mask="url(#mask-2)" transform="translate(28.000000, 65.500000) scale(-1, 1) translate(-28.000000, -65.500000) "></path>
                <rect id="Rectangle-3" fill="#FFFFFF" mask="url(#mask-2)" x="23" y="69" width="29" height="6" rx="1"></rect>
            </g>
        </g>
    </g>
</svg>