<svg xmlns="http://www.w3.org/2000/svg" xmlns:xlink="http://www.w3.org/1999/xlink" width="79" height="79" viewBox="0 0 79 79">
    <defs>
        <circle id="a" cx="39.5" cy="39.5" r="37.5"/>
    </defs>
    <g fill="none" fill-rule="evenodd">
        <g>
            <use fill="#B388FF" xlink:href="#a"/>
            <circle cx="39.5" cy="39.5" r="38.5" stroke="#641C95" stroke-width="2"/>
        </g>
        <g fill-rule="nonzero">
            <path fill="#641C95" d="M23.76 31.386c1.776 0 3.46.575 4.857 1.622l3.306-3.303a12.67 12.67 0 0 0-8.163-2.955 12.67 12.67 0 0 0-8.163 2.955l3.306 3.303a8.056 8.056 0 0 1 4.857-1.622zM33.562 47.654c3.929-4.708 3.929-11.6 0-16.31l-3.306 3.304a8.111 8.111 0 0 1 0 9.704l3.306 3.302zM23.76 33.705c-1.55 0-3.006.602-4.102 1.696a5.8 5.8 0 0 0 0 8.196 5.768 5.768 0 0 0 4.102 1.698 5.77 5.77 0 0 0 4.102-1.698 5.8 5.8 0 0 0 0-8.196 5.77 5.77 0 0 0-4.102-1.696zM28.617 45.992a8.062 8.062 0 0 1-4.857 1.622 8.056 8.056 0 0 1-4.857-1.622l-3.306 3.305a12.673 12.673 0 0 0 8.163 2.953c3.018 0 5.873-1.044 8.163-2.955l-3.306-3.303zM17.264 34.648l-3.306-3.303c-3.929 4.709-3.929 11.6 0 16.31l3.306-3.304a8.11 8.11 0 0 1 0-9.703zM56.24 26.75c-7.035 0-12.76 5.72-12.76 12.75s5.725 12.75 12.76 12.75S69 46.53 69 39.5s-5.725-12.75-12.76-12.75z"/>
            <path fill="#B388FF" d="M60.587 39.25a4.194 4.194 0 0 0 .842-2.525v-.446c0-1.765-1.047-3.194-2.488-3.575v-1.643c0-.586-.417-1.061-.932-1.061-.516 0-.933.475-.933 1.06v1.537H55.91V31.06c0-.586-.417-1.061-.933-1.061-.515 0-.932.475-.932 1.06v1.537h-2.113c-.515 0-.933.475-.933 1.06 0 .586.418 1.061.933 1.061h.78v9.564h-.78c-.515 0-.933.475-.933 1.06 0 .586.418 1.061.933 1.061h2.113v1.536c0 .586.417 1.061.932 1.061.516 0 .933-.475.933-1.06v-1.537h1.165v1.536c0 .586.417 1.061.933 1.061.515 0 .932-.475.932-1.06v-1.581C60.761 46.14 62 44.763 62 42.836v-.49c0-1.267-.56-2.382-1.413-3.097zm-1.023-2.97v.445c0 .929-.634 1.714-1.384 1.714h-3.601v-3.72h3.6c.777 0 1.385.685 1.385 1.56zm.57 6.556c0 1.376-1.41 1.446-1.693 1.446H54.58V40.56h3.862c.95 0 1.693.783 1.693 1.784v.491z"/>
            <path fill="#FFF" d="M28.094 21.808c6.564-6.56 17.244-6.56 23.811 0 .181.18.41.269.646.306H46.96a1.16 1.16 0 1 0 0 2.318h6.96c.641 0 1.16-.52 1.16-1.16v-6.954a1.16 1.16 0 0 0-2.32 0v3.141c-7.513-6.724-19.091-6.5-26.306.71a1.16 1.16 0 1 0 1.64 1.639zM51.906 57.192c-6.565 6.559-17.248 6.559-23.811 0a1.13 1.13 0 0 0-.646-.306h5.591a1.16 1.16 0 1 0 0-2.318h-6.96c-.64 0-1.16.518-1.16 1.16v6.954a1.16 1.16 0 0 0 2.32 0V59.54A19.099 19.099 0 0 0 40 64.429a19.11 19.11 0 0 0 13.546-5.598 1.16 1.16 0 1 0-1.64-1.639z"/>
        </g>
    </g>
</svg>
