<svg xmlns="http://www.w3.org/2000/svg" width="75" height="75" viewBox="0 0 75 75">
    <g fill="none" fill-rule="evenodd">
        <path fill="#641C95" fill-rule="nonzero" d="M74.941 35.447c-.015-.283-.042-.563-.064-.845-.03-.387-.058-.774-.1-1.158-.038-.353-.087-.702-.135-1.052-.04-.305-.082-.61-.132-.912a37.763 37.763 0 0 0-.636-3.098c-.066-.263-.139-.523-.21-.783-.104-.377-.205-.753-.32-1.125-.093-.298-.195-.59-.294-.884a37.576 37.576 0 0 0-1.041-2.76c-.104-.244-.22-.485-.33-.727a35.79 35.79 0 0 0-.518-1.11c-.05-.1-.091-.204-.142-.304L70.674 20h-.023C64.354 8.117 51.86 0 37.5 0 16.823 0 0 16.823 0 37.5c0 13.335 7.003 25.059 17.517 31.709l.007.035.462.284c.524.32 1.06.614 1.598.907.021.011.042.025.064.036.346.186.697.363 1.048.538.31.156.621.31.935.457a38.457 38.457 0 0 0 2.333.997l.194.076a37.233 37.233 0 0 0 4.592 1.42v.023l.992.21c.025.006.05.008.075.014.534.111 1.074.208 1.616.295.084.014.168.033.253.046 1.895.297 3.837.453 5.814.453C58.178 75 75 58.178 75 37.5c0-.689-.021-1.373-.059-2.053z"/>
        <path fill="#B388FF" d="M26.25 70.635v-9.834l-7.546-6.675 6.251-13.681 1.295 1.146V33.79l-6.851 1.421a8.695 8.695 0 0 0-5.532 3.773 8.689 8.689 0 0 0-1.26 6.573l4.18 20.134C8.13 59.313 2.5 49.054 2.5 37.5c0-19.3 15.7-35 35-35 12.926 0 24.23 7.049 30.291 17.5H37.5c-4.824 0-8.75 3.925-8.75 8.75v42.642a34.988 34.988 0 0 1-2.5-.757z"/>
        <path fill="#FFF" d="M50.693 33.474c-1.332 2.924-3.837 5.755-7.447 8.417l-.722.532-.734-.513c-3.685-2.565-6.264-5.33-7.669-8.217a6.247 6.247 0 0 1-.237-4.904c.565-1.507 1.672-2.674 3.118-3.288a5.007 5.007 0 0 1 1.958-.411c1.449 0 2.593.671 3.351 1.309.763-.675 1.931-1.399 3.44-1.399.614 0 1.234.121 1.844.361 1.462.574 2.6 1.713 3.205 3.204a6.253 6.253 0 0 1-.107 4.909zM26.25 41.588l-1.296-1.146-6.25 13.678 7.547 6.687z"/>
    </g>
</svg>
