<svg xmlns="http://www.w3.org/2000/svg" xmlns:xlink="http://www.w3.org/1999/xlink" width="79" height="79" viewBox="0 0 79 79">
    <defs>
        <circle id="a" cx="39.5" cy="39.5" r="37.5"/>
    </defs>
    <g fill="none" fill-rule="evenodd">
        <g>
            <use fill="#B388FF" xlink:href="#a"/>
            <circle cx="39.5" cy="39.5" r="38.5" stroke="#641C95" stroke-width="2"/>
        </g>
        <path fill="#FFF" fill-rule="nonzero" d="M50.661 59.721a24.888 24.888 0 0 1-1.897.928c-.009.004-.366.154-.145.063a24.475 24.475 0 0 1-5.387 1.536l-.36.057a23.54 23.54 0 0 1-.282.04 24.935 24.935 0 0 1-6.16 0c-.397-.048.235.035-.16-.02a24.178 24.178 0 0 1-2.597-.52c-.958-.243-1.9-.552-2.821-.91-.11-.042-.22-.086-.328-.13-.01-.004-.366-.155-.146-.06a24.56 24.56 0 0 1-2.511-1.255 1.223 1.223 0 0 0-1.654.434c-.33.563-.138 1.326.433 1.652a26.188 26.188 0 0 0 11.742 3.39c4.177.197 8.346-.682 12.132-2.434.462-.213.915-.444 1.362-.686.579-.312.758-1.098.433-1.652-.34-.581-1.074-.746-1.654-.433zM16.564 34.248a24.443 24.443 0 0 1 1.343-4.288c-.108.259.026-.06.04-.093l.17-.378a24.62 24.62 0 0 1 2.61-4.414c.06-.082.123-.164.184-.246.206-.271-.149.19.062-.079a24.527 24.527 0 0 1 1.26-1.476 24.801 24.801 0 0 1 2.764-2.571l.241-.19a24.736 24.736 0 0 1 3.28-2.097c.58-.31.758-1.1.434-1.652-.342-.583-1.073-.745-1.654-.433-6.266 3.36-10.962 9.282-12.795 16.147-.1.373-.189.75-.27 1.128-.14.643.183 1.304.844 1.486.608.167 1.347-.2 1.487-.844zM49.89 18.104a24.78 24.78 0 0 1 3.75 2.309c.082.06.163.123.244.185-.222-.17.12.095.158.125a24.807 24.807 0 0 1 4.014 4.047c.211.267-.146-.192.061.079a25.466 25.466 0 0 1 .946 1.334 24.618 24.618 0 0 1 2.091 3.889 24.697 24.697 0 0 1 1 2.957c.075.27.142.543.206.816.15.641.87 1.013 1.487.844.653-.18.994-.846.844-1.486-1.622-6.918-6.157-12.957-12.312-16.505-.416-.24-.84-.465-1.27-.68-.588-.295-1.305-.161-1.653.433-.317.54-.155 1.358.433 1.653z"/>
        <g fill="#641C95">
            <path fill-rule="nonzero" d="M23.588 53.765v3.099l1.208-1.208H9.246l1.21 1.208V55.11v-1.09-.237a3.987 3.987 0 0 1 .018-.4c.027-.321-.046.26.01-.053.022-.122.054-.242.088-.36.02-.075.198-.524.068-.227.06-.139.134-.272.21-.402.037-.065.315-.453.118-.2.166-.213.36-.402.566-.577a1.146 1.146 0 0 0-.032.023 3.997 3.997 0 0 1 .621-.37c.123-.056.11-.051-.038.013a3.916 3.916 0 0 1 .801-.223c-.316.057-.007.003.055-.002a3.74 3.74 0 0 1 .312-.01h.907l-.855-.354 2.874 3.228c.418.47 1.291.473 1.71 0l2.849-3.228-.855.354h.925c.13 0 .26.007.39.018.139.015.125.013-.041-.006.092.014.183.035.274.056.15.034.297.082.442.134.292.104-.233-.11.047.02a3.987 3.987 0 0 1 .621.37c-.258-.183.113.103.17.156.11.103.21.215.307.328.198.233-.148-.207.029.042a3.96 3.96 0 0 1 .356.63c-.136-.292.046.151.069.226.045.149.076.301.103.453-.057-.315-.003-.006.002.055.008.096.01.192.01.288a1.22 1.22 0 0 0 1.21 1.208c.652 0 1.216-.55 1.208-1.208-.021-1.811-.948-3.439-2.468-4.415-.753-.484-1.645-.713-2.53-.766-.447-.027-1.011-.08-1.445.039-.424.116-.657.45-.929.758l-.984 1.115-1.47 1.665h1.71l-1.575-1.768-.995-1.118c-.338-.38-.62-.696-1.21-.696-.597 0-1.18-.008-1.773.084-.919.143-1.717.572-2.442 1.136-1.235.961-1.856 2.554-1.856 4.085v2.98c0 .658.55 1.207 1.209 1.207h15.55a1.22 1.22 0 0 0 1.208-1.207v-3.099a1.22 1.22 0 0 0-1.209-1.207 1.22 1.22 0 0 0-1.208 1.207zM19.691 41.958a5.247 5.247 0 0 1-.029.5c.036-.343.004-.045-.008.022-.015.088-.035.175-.054.261a6.093 6.093 0 0 1-.309.96c.062-.144.065-.154.01-.03a6.504 6.504 0 0 1-.554.976c-.029.043-.217.294-.03.053a4.846 4.846 0 0 1-.614.654c-.045.04-.28.222-.025.029a3.708 3.708 0 0 1-.426.272c-.059.032-.32.149-.008.018-.15.062-.306.106-.463.14-.277.062.286-.024.003 0-.108.01-.216.006-.324 0-.284-.014.281.053.003 0-.08-.014-.157-.037-.234-.06-.078-.021-.154-.05-.23-.08.312.12.055.014-.008-.018a3.462 3.462 0 0 1-.426-.272c.258.186.022.011-.024-.03a5.193 5.193 0 0 1-.614-.654c.19.238 0-.009-.03-.052-.054-.076-.104-.155-.154-.233a6.479 6.479 0 0 1-.4-.743c-.056-.124-.053-.114.01.03a6.117 6.117 0 0 1-.363-1.221c-.013-.066-.051-.366-.009-.022a4.09 4.09 0 0 1-.01-.884c-.028.316 0 .008.012-.053.017-.091.04-.182.064-.272.024-.089.053-.177.083-.264.1-.294-.11.232.017-.05.075-.166.167-.324.265-.477.029-.046.21-.293.022-.049a3.89 3.89 0 0 1 .637-.636c-.238.193.002.009.049-.022a3.871 3.871 0 0 1 .477-.264c.28-.134-.242.09.05-.017a3.858 3.858 0 0 1 .59-.16 4.017 4.017 0 0 1 .77 0 3.839 3.839 0 0 1 .676.191c-.3-.11.068.036.127.066a3.86 3.86 0 0 1 .463.286c-.249-.174-.006-.003.039.035a3.9 3.9 0 0 1 .498.521c-.201-.247.036.072.07.126a3.88 3.88 0 0 1 .254.483c-.063-.148-.07-.16-.021-.033a3.826 3.826 0 0 1 .18.722c-.053-.327-.003.17-.002.251a1.22 1.22 0 0 0 1.21 1.208c.652 0 1.216-.55 1.208-1.208-.023-1.856-1.034-3.59-2.679-4.476-1.641-.885-3.748-.788-5.28.286-1.505 1.054-2.38 2.848-2.187 4.69.181 1.714.975 3.441 2.268 4.604.763.685 1.678 1.118 2.71 1.171 1.054.055 2.02-.464 2.805-1.114 1.452-1.202 2.344-3.296 2.363-5.16.007-.659-.555-1.208-1.209-1.208a1.22 1.22 0 0 0-1.209 1.207z"/>
            <path d="M10.39 51.692v4.238h13.273v-4.238l-2.65-1.4-3.354 3.536h-1.248l-2.713-3.536zM14.145 39.117v6.345l2.065 1h1.917l1.73-1v-6.345z"/>
        </g>
        <g fill="#641C95">
            <path fill-rule="nonzero" d="M68.588 53.765v3.099l1.208-1.208h-15.55l1.21 1.208V55.11v-1.09-.237a3.987 3.987 0 0 1 .018-.4c.027-.321-.046.26.01-.053.022-.122.054-.242.088-.36.02-.075.198-.524.068-.227.06-.139.134-.272.21-.402.037-.065.315-.453.118-.2.166-.213.36-.402.566-.577a1.146 1.146 0 0 0-.032.023 3.997 3.997 0 0 1 .621-.37c.123-.056.11-.051-.038.013a3.916 3.916 0 0 1 .801-.223c-.316.057-.007.003.055-.002a3.74 3.74 0 0 1 .312-.01h.907l-.855-.354 2.874 3.228c.418.47 1.291.473 1.71 0l2.849-3.228-.855.354h.925c.13 0 .26.007.39.018.139.015.125.013-.041-.006.092.014.183.035.274.056.15.034.297.082.442.134.292.104-.233-.11.047.02a3.987 3.987 0 0 1 .621.37c-.258-.183.113.103.17.156.11.103.21.215.307.328.198.233-.148-.207.029.042a3.96 3.96 0 0 1 .356.63c-.136-.292.046.151.069.226.045.149.076.301.103.453-.057-.315-.003-.006.002.055.008.096.01.192.01.288a1.22 1.22 0 0 0 1.21 1.208c.652 0 1.216-.55 1.208-1.208-.021-1.811-.948-3.439-2.468-4.415-.753-.484-1.645-.713-2.53-.766-.447-.027-1.011-.08-1.445.039-.424.116-.657.45-.929.758l-.984 1.115-1.47 1.665h1.71l-1.575-1.768-.995-1.118c-.338-.38-.62-.696-1.21-.696-.597 0-1.18-.008-1.773.084-.919.143-1.717.572-2.442 1.136-1.235.961-1.856 2.554-1.856 4.085v2.98c0 .658.55 1.207 1.209 1.207h15.55a1.22 1.22 0 0 0 1.208-1.207v-3.099a1.22 1.22 0 0 0-1.209-1.207 1.22 1.22 0 0 0-1.208 1.207zM64.691 41.958a5.247 5.247 0 0 1-.029.5c.036-.343.004-.045-.008.022-.015.088-.035.175-.054.261a6.093 6.093 0 0 1-.309.96c.062-.144.065-.154.01-.03a6.504 6.504 0 0 1-.554.976c-.029.043-.217.294-.03.053a4.846 4.846 0 0 1-.614.654c-.045.04-.28.222-.025.029a3.708 3.708 0 0 1-.426.272c-.059.032-.32.149-.008.018-.15.062-.306.106-.463.14-.277.062.286-.024.003 0-.108.01-.216.006-.324 0-.284-.014.281.053.003 0-.08-.014-.157-.037-.234-.06-.078-.021-.154-.05-.23-.08.312.12.055.014-.008-.018a3.462 3.462 0 0 1-.426-.272c.258.186.022.011-.024-.03a5.193 5.193 0 0 1-.614-.654c.19.238 0-.009-.03-.052-.054-.076-.104-.155-.154-.233a6.479 6.479 0 0 1-.4-.743c-.056-.124-.053-.114.01.03a6.117 6.117 0 0 1-.363-1.221c-.013-.066-.051-.366-.009-.022a4.09 4.09 0 0 1-.01-.884c-.028.316 0 .008.012-.053.017-.091.04-.182.064-.272.024-.089.053-.177.083-.264.1-.294-.11.232.017-.05.075-.166.167-.324.265-.477.029-.046.21-.293.022-.049a3.89 3.89 0 0 1 .637-.636c-.238.193.002.009.049-.022a3.871 3.871 0 0 1 .477-.264c.28-.134-.242.09.05-.017a3.858 3.858 0 0 1 .59-.16 4.017 4.017 0 0 1 .77 0 3.839 3.839 0 0 1 .676.191c-.3-.11.068.036.127.066a3.86 3.86 0 0 1 .463.286c-.249-.174-.006-.003.039.035a3.9 3.9 0 0 1 .498.521c-.201-.247.036.072.07.126a3.88 3.88 0 0 1 .254.483c-.063-.148-.07-.16-.021-.033a3.826 3.826 0 0 1 .18.722c-.053-.327-.003.17-.002.251a1.22 1.22 0 0 0 1.21 1.208c.652 0 1.216-.55 1.208-1.208-.023-1.856-1.034-3.59-2.679-4.476-1.641-.885-3.748-.788-5.28.286-1.505 1.054-2.38 2.848-2.187 4.69.181 1.714.975 3.441 2.268 4.604.763.685 1.678 1.118 2.71 1.171 1.054.055 2.02-.464 2.805-1.114 1.452-1.202 2.344-3.296 2.363-5.16.007-.659-.555-1.208-1.209-1.208a1.22 1.22 0 0 0-1.209 1.207z"/>
            <path d="M55.39 51.692v4.238h13.273v-4.238l-2.65-1.4-3.354 3.536h-1.248l-2.713-3.536zM59.145 39.117v6.345l2.065 1h1.917l1.73-1v-6.345z"/>
        </g>
        <g fill="#641C95">
            <path fill-rule="nonzero" d="M46.088 20.865v3.099l1.208-1.208h-15.55l1.21 1.208V22.21v-1.09-.237a3.987 3.987 0 0 1 .018-.4c.027-.321-.046.26.01-.053.022-.122.054-.241.088-.36.02-.074.198-.524.068-.227.06-.139.134-.272.21-.402.037-.065.315-.453.118-.2.166-.213.36-.402.566-.577a1.146 1.146 0 0 0-.032.023 3.997 3.997 0 0 1 .621-.37c.123-.055.11-.051-.038.013a3.916 3.916 0 0 1 .801-.223c-.316.057-.007.003.055-.002a3.74 3.74 0 0 1 .312-.01h.907l-.855-.354 2.874 3.228c.418.47 1.291.474 1.71 0l2.849-3.228-.855.354h.925c.13 0 .26.007.39.018.139.015.125.013-.041-.006.092.014.183.035.274.056.15.034.297.083.442.134.292.104-.233-.11.047.02a3.987 3.987 0 0 1 .621.37c-.258-.183.113.103.17.157.11.102.21.214.307.328.198.232-.148-.208.029.041a3.96 3.96 0 0 1 .356.63c-.136-.292.046.151.069.227.045.148.076.3.103.453-.057-.316-.003-.007.002.054.008.096.01.192.01.288a1.22 1.22 0 0 0 1.21 1.208c.652 0 1.216-.55 1.208-1.208-.021-1.811-.948-3.439-2.468-4.415-.753-.484-1.645-.713-2.53-.766-.447-.027-1.011-.08-1.445.039-.424.116-.657.45-.929.758l-.984 1.115-1.47 1.665h1.71l-1.575-1.768-.995-1.117c-.338-.38-.62-.696-1.21-.696-.597 0-1.18-.009-1.773.083-.919.143-1.717.572-2.442 1.136-1.235.961-1.856 2.554-1.856 4.085v2.98c0 .658.55 1.207 1.209 1.207h15.55a1.22 1.22 0 0 0 1.208-1.207v-3.099a1.22 1.22 0 0 0-1.209-1.207 1.22 1.22 0 0 0-1.208 1.207zM42.191 9.059a5.247 5.247 0 0 1-.029.5c.036-.343.004-.046-.008.021-.015.088-.035.175-.054.261a6.093 6.093 0 0 1-.309.96c.062-.144.065-.154.01-.03a6.504 6.504 0 0 1-.554.977c-.029.042-.217.293-.03.052a4.846 4.846 0 0 1-.614.654c-.045.04-.28.222-.025.03a3.708 3.708 0 0 1-.426.27c-.059.033-.32.15-.008.019-.15.063-.306.106-.463.14-.277.062.286-.024.003 0-.108.01-.216.006-.324 0-.284-.014.281.053.003 0-.08-.014-.157-.037-.234-.059-.078-.022-.154-.052-.23-.081.312.12.055.014-.008-.018a3.462 3.462 0 0 1-.426-.272c.258.186.022.011-.024-.03a5.193 5.193 0 0 1-.614-.654c.19.238 0-.009-.03-.051a6.479 6.479 0 0 1-.554-.977c-.056-.124-.053-.114.01.03a6.117 6.117 0 0 1-.363-1.221c-.013-.066-.051-.366-.009-.022a4.09 4.09 0 0 1-.01-.884c-.028.316 0 .008.012-.052.017-.092.04-.182.064-.273.024-.089.053-.176.083-.264.1-.294-.11.232.017-.05.075-.166.167-.324.265-.477.029-.046.21-.293.022-.049a3.89 3.89 0 0 1 .637-.636c-.238.193.002.009.049-.022a3.871 3.871 0 0 1 .477-.264c.28-.134-.242.09.05-.017a3.858 3.858 0 0 1 .59-.16 4.017 4.017 0 0 1 .77 0 3.839 3.839 0 0 1 .676.191c-.3-.11.068.036.127.067a3.86 3.86 0 0 1 .463.285c-.249-.174-.006-.003.039.035a3.9 3.9 0 0 1 .498.521c-.201-.247.036.072.07.126a3.88 3.88 0 0 1 .254.483c-.063-.148-.07-.159-.021-.033a3.826 3.826 0 0 1 .18.722c-.053-.327-.003.17-.002.252a1.22 1.22 0 0 0 1.21 1.207c.652 0 1.216-.55 1.208-1.207-.023-1.857-1.034-3.59-2.679-4.477-1.641-.885-3.748-.788-5.28.286-1.505 1.054-2.38 2.848-2.187 4.69.181 1.714.975 3.442 2.268 4.604.763.686 1.678 1.118 2.71 1.171 1.054.055 2.02-.464 2.805-1.114 1.452-1.202 2.344-3.296 2.363-5.16.007-.659-.555-1.208-1.209-1.208a1.22 1.22 0 0 0-1.209 1.208z"/>
            <path d="M32.89 18.792v4.238h13.273v-4.238l-2.65-1.4-3.354 3.536h-1.248l-2.713-3.536zM36.645 6.217v6.345l2.065 1h1.917l1.73-1V6.217z"/>
        </g>
        <g fill-rule="nonzero">
            <path fill="#641C95" d="M39.712 28.667c-6.223 0-11.287 5.084-11.287 11.333 0 6.249 5.064 11.333 11.287 11.333C45.936 51.333 51 46.25 51 40c0-6.249-5.064-11.333-11.288-11.333z"/>
            <path fill="#B388FF" d="M43.557 39.777a3.74 3.74 0 0 0 .746-2.244v-.396c0-1.569-.926-2.84-2.201-3.178V32.5c0-.521-.37-.943-.825-.943-.456 0-.825.422-.825.942v1.366h-1.03v-1.366c0-.52-.37-.942-.826-.942-.456 0-.825.422-.825.942v1.366h-1.869c-.456 0-.825.422-.825.943 0 .52.37.943.825.943h.69v8.5h-.69c-.456 0-.825.423-.825.943 0 .521.37.943.825.943h1.869v1.366c0 .52.37.942.825.942.456 0 .825-.422.825-.942v-1.366h1.03v1.366c0 .52.37.942.826.942.456 0 .825-.422.825-.942v-1.405c1.61-.194 2.706-1.42 2.706-3.132v-.436c0-1.125-.496-2.117-1.25-2.752zm-.904-2.64v.396c0 .826-.561 1.524-1.225 1.524h-3.185V35.75h3.185c.687 0 1.225.61 1.225 1.387zm.504 5.828c0 1.224-1.247 1.285-1.497 1.285h-3.417v-3.307H41.66c.84 0 1.497.697 1.497 1.586v.436z"/>
        </g>
    </g>
</svg>
