<svg xmlns="http://www.w3.org/2000/svg" width="18" height="22" viewBox="0 0 18 22">
    <defs>
        <filter id="a" width="125.2%" height="118.1%" x="-12.6%" y="-6.5%" filterUnits="objectBoundingBox">
            <feOffset dy="8" in="SourceAlpha" result="shadowOffsetOuter1"/>
            <feGaussianBlur in="shadowOffsetOuter1" result="shadowBlurOuter1" stdDeviation="8"/>
            <feColorMatrix in="shadowBlurOuter1" result="shadowMatrixOuter1" values="0 0 0 0 0 0 0 0 0 0 0 0 0 0 0 0 0 0 0.3 0"/>
            <feMerge>
                <feMergeNode in="shadowMatrixOuter1"/>
                <feMergeNode in="SourceGraphic"/>
            </feMerge>
        </filter>
    </defs>
    <g fill="#641C95" fill-rule="evenodd" filter="url(#a)" transform="translate(-21 -268)">
        <path fill-rule="nonzero" d="M36.55 284.882v3.098l1.208-1.207h-15.55l1.21 1.207v-1.754-1.089-.238a3.987 3.987 0 0 1 .018-.4c.027-.32-.046.26.01-.052.022-.122.054-.242.088-.361.02-.074.198-.524.068-.227.06-.138.134-.271.21-.402.037-.064.315-.452.118-.2.166-.212.36-.402.566-.577a1.146 1.146 0 0 0-.032.023 3.997 3.997 0 0 1 .621-.37c.123-.055.11-.05-.038.013a3.916 3.916 0 0 1 .801-.223c-.316.057-.007.004.055-.001a3.74 3.74 0 0 1 .312-.01h.907l-.855-.354 2.874 3.228c.418.47 1.291.473 1.71 0l2.849-3.228-.855.353h.925c.13 0 .26.008.39.018.139.016.125.014-.041-.006.092.015.183.036.274.056.15.035.297.083.442.135.292.104-.233-.11.047.02.082.038.162.082.241.125.132.073.257.157.38.244-.258-.183.113.104.17.157.11.102.21.214.307.328.198.232-.148-.207.029.042a3.96 3.96 0 0 1 .356.63c-.136-.292.046.15.069.226.045.148.076.3.103.453-.057-.315-.003-.007.002.055.008.095.01.191.01.288a1.22 1.22 0 0 0 1.21 1.207c.652 0 1.216-.55 1.208-1.207-.021-1.812-.948-3.44-2.468-4.416-.753-.483-1.645-.713-2.53-.765-.447-.027-1.011-.081-1.445.038-.424.117-.657.45-.929.758l-.984 1.115-1.47 1.666h1.71l-1.575-1.769-.995-1.117c-.338-.38-.62-.696-1.21-.696-.597 0-1.18-.008-1.773.084-.919.143-1.717.571-2.442 1.136C21.62 281.876 21 283.47 21 285v2.98c0 .659.55 1.208 1.209 1.208h15.55a1.22 1.22 0 0 0 1.208-1.208v-3.098a1.22 1.22 0 0 0-1.209-1.208 1.22 1.22 0 0 0-1.208 1.208zM32.653 273.075a5.247 5.247 0 0 1-.029.5c.036-.343.004-.046-.008.022-.015.088-.035.174-.054.26a6.093 6.093 0 0 1-.309.961c.062-.144.065-.155.01-.03a6.504 6.504 0 0 1-.554.976c-.029.042-.217.294-.03.053a4.846 4.846 0 0 1-.614.654c-.045.04-.28.222-.025.029a3.708 3.708 0 0 1-.426.271c-.059.033-.32.15-.008.018-.15.063-.306.106-.463.14-.277.062.286-.023.003.001-.108.01-.216.006-.324 0-.284-.014.281.052.003 0-.08-.015-.157-.037-.234-.06-.078-.022-.154-.051-.23-.08.312.12.055.014-.008-.019a3.462 3.462 0 0 1-.426-.271c.258.186.022.01-.024-.03a5.193 5.193 0 0 1-.614-.654c.19.238 0-.01-.03-.052-.054-.076-.104-.155-.154-.234a6.479 6.479 0 0 1-.4-.743c-.056-.124-.053-.113.01.031a6.117 6.117 0 0 1-.363-1.221c-.013-.066-.051-.366-.009-.023a4.09 4.09 0 0 1-.01-.884c-.028.316 0 .009.012-.052.017-.092.04-.182.064-.272.024-.09.053-.177.083-.264.1-.295-.11.231.017-.051.075-.166.167-.323.265-.476.029-.046.21-.293.022-.05a3.89 3.89 0 0 1 .637-.636c-.238.193.002.01.049-.022a3.871 3.871 0 0 1 .477-.264c.28-.134-.242.09.05-.017a3.858 3.858 0 0 1 .59-.16 4.017 4.017 0 0 1 .77 0 3.839 3.839 0 0 1 .676.191c-.3-.11.068.037.127.067a3.86 3.86 0 0 1 .463.285c-.249-.174-.006-.002.039.036a3.9 3.9 0 0 1 .498.52c-.201-.247.036.073.07.126a3.88 3.88 0 0 1 .254.483c-.063-.148-.07-.159-.021-.032a3.826 3.826 0 0 1 .18.721c-.053-.327-.003.171-.002.252a1.22 1.22 0 0 0 1.21 1.208c.652 0 1.216-.55 1.208-1.208-.023-1.857-1.034-3.59-2.679-4.476-1.641-.885-3.748-.788-5.28.285-1.505 1.055-2.38 2.849-2.187 4.69.181 1.714.975 3.442 2.268 4.604.763.686 1.678 1.118 2.71 1.172 1.054.054 2.02-.465 2.805-1.115 1.452-1.202 2.344-3.296 2.363-5.16.007-.658-.555-1.207-1.209-1.207a1.22 1.22 0 0 0-1.209 1.207z"/>
        <path d="M23.352 282.809v4.237h13.273v-4.237l-2.65-1.4-3.354 3.535h-1.248l-2.713-3.535zM27.107 270.234v6.345l2.065 1h1.917l1.73-1v-6.345z"/>
    </g>
</svg>
