<svg xmlns="http://www.w3.org/2000/svg" width="1440" height="650" viewBox="0 0 1440 650">
    <g fill="#FFF" fill-rule="nonzero" opacity="0.15">
        <g style="mix-blend-mode:overlay">
            <g opacity=".3">
                <path d="M584.073 32.633c.166 0 .331 0 .497-.154.165-.153.33-.46.165-.768L539.06-35.756c-.166-.308-.497-.308-.828-.154l-29.457 15.215c-.165.153-.33.307-.33.46 0 .154 0 .308.165.462l75.132 52.252c.166.154.331.154.331.154zm-45.84-67.16l43.523 64.394L510.1-19.927l28.133-14.6z"/>
                <path d="M537.24 98.87c.165 0 .33-.153.496-.307L584.57 32.48c.165-.307.165-.615-.166-.768l-75.132-52.253c-.166-.153-.497-.153-.662 0-.166.154-.331.308-.331.615l28.299 118.49c.165.154.33.307.661.307-.165 0 0 0 0 0zm46.006-66.544l-45.841 64.547-27.637-115.57 73.478 51.023z"/>
                <path d="M537.24 98.87c.165 0 .33 0 .33-.153.166-.154.331-.308.166-.615l-28.299-118.49c0-.307-.33-.46-.662-.46L323.427-15.01c-.331 0-.497.154-.662.461 0 .307 0 .461.33.615l213.483 112.65c.496.153.496.153.661.153zM508.443-19.466L536.247 97.18 325.744-13.78l182.7-5.686z"/>
                <path d="M537.24 98.87c.33 0 .496-.153.661-.46.166-.308 0-.615-.33-.615L324.088-14.855c-.166-.154-.497-.154-.662 0L221.485 64.292c-.165.153-.33.46-.165.614 0 .154.33.308.496.461L537.24 98.87zM323.757-13.626L534.26 97.487 223.14 64.445l100.618-78.07z"/>
                <path d="M221.65 65.367c.166 0 .332 0 .332-.153l101.941-79.147c.166-.154.331-.461.166-.615 0-.154-.331-.307-.497-.461l-64.54-3.074c-.166 0-.497.154-.663.308l-37.4 82.067c-.166.153-.166.307-.166.307.166.461.497.768.828.768zm100.453-79.3l-98.798 76.688 36.243-79.608 62.555 2.92z"/>
                <path d="M182.595 66.597l39.056-1.23c.165 0 .496-.153.496-.307l37.4-82.22c.166-.308 0-.615-.165-.769-.33-.154-.662-.154-.827.154l-76.456 83.45c-.166.154-.166.46-.166.615.166.153.497.307.662.307zm38.725-2.459l-37.236 1.23 72.981-79.609-35.745 78.379z"/>
                <path d="M222.809 229.194h.331L537.57 98.87c.331-.153.331-.307.331-.614 0-.308-.33-.461-.496-.461L221.816 64.292c-.165 0-.33 0-.496.153-.166.154-.166.308-.166.461l.993 163.827c0 .154.166.307.331.461 0-.154.166 0 .331 0zm312.114-130.63L223.305 227.656l-.992-162.29 312.61 33.196z"/>
                <path d="M537.24 98.87s.165 0 0 0l19.196-4.303c.166 0 .331-.153.497-.307l27.802-61.934c.166-.308 0-.615-.33-.769-.332-.154-.663 0-.828.154l-46.834 66.237a.443.443 0 0 0 0 .615c.166.307.331.307.496.307zm18.7-5.378l-17.211 3.842 42.365-59.783-25.154 55.94zM205.267 252.093c.166 0 .331-.154.497-.308l17.541-23.052a.443.443 0 0 0 0-.615c-.165-.153-.496-.307-.661-.153l-18.039 5.378c-.33.154-.496.308-.496.615l.496 17.674c0 .307.166.46.497.46h.165zm15.887-22.438l-15.39 20.133-.497-15.522 15.887-4.61z"/>
                <path d="M204.77 234.573h.166l18.039-5.379c.33-.154.496-.307.496-.615l-24.658-127.557c0-.307-.331-.461-.662-.461-.33 0-.496.307-.496.615l6.62 132.936c0 .154.165.307.33.46-.165-.153 0 0 .166 0zm17.212-6.455l-16.715 4.918-6.123-123.408 22.838 118.49z"/>
                <path d="M222.809 229.194c.331 0 .662-.307.662-.615l-.993-163.826c0-.308-.165-.461-.496-.615-.331 0-.497 0-.662.307l-23.5 36.27c0 .153-.165.307 0 .46l24.658 127.558c-.33.154 0 .461.331.461zm-1.655-162.443l.993 155.066-23.334-120.795 22.341-34.271z"/>
                <path d="M198.151 101.483c.166 0 .497-.154.497-.307l23.5-36.27a.443.443 0 0 0 0-.614c-.166-.154-.332-.308-.497-.308l-39.056 1.23c-.165 0-.331.153-.496.307-.166.154-.166.308 0 .461l15.556 34.886c0 .461.165.615.496.615zm22.507-36.116L198.317 99.64l-14.729-33.042 37.07-1.23z"/>
                <path d="M182.595 66.597c.166 0 .331 0 .496-.154l76.457-83.45c.165-.154.165-.307.165-.46 0-.155-.165-.308-.33-.462L157.11-58.962c-.166-.154-.497 0-.662.153-.166.154-.331.308-.166.615L182.1 66.29s.165.307.496.307zm75.463-83.758l-75.132 81.914-25.32-122.332 100.452 40.418z"/>
            </g>
            <path d="M246.805 377.191c.166 0 .331 0 .496-.154l36.408-38.113c.166-.154.166-.461.166-.615-.166-.153-.331-.307-.497-.307l-44.02-3.842c-.165 0-.331 0-.496.153-.166.154-.166.308-.166.462l7.613 41.955c0 .154.165.461.496.461-.165 0 0 0 0 0zm35.084-38.267l-34.753 36.423-7.282-39.958 42.035 3.535z"/>
            <path d="M246.805 377.191h.166l83.24-33.195c.332-.154.332-.308.332-.615 0-.308-.331-.461-.497-.461l-46.833-4.764c-.166 0-.331 0-.497.153l-36.407 38.114c-.166.153-.166.46 0 .768.165-.154.33 0 .496 0zm80.925-33.503l-78.608 31.352 34.422-35.962 44.186 4.61z"/>
            <path d="M330.046 343.842h.331l67.686-31.352c.33-.153.496-.46.33-.768-.165-.307-.496-.461-.661-.307l-114.685 26.433c-.33 0-.496.308-.496.615s.33.461.496.461l47 4.918zm62.39-30.122l-62.555 28.892-43.193-4.456 105.748-24.436z"/>
            <path d="M283.213 339.078l114.85-26.588c.165 0 .496-.307.496-.46l24.99-123.562c0-.307-.166-.461-.332-.615-.33-.154-.496 0-.662.154L282.882 338.002a.443.443 0 0 0 0 .615c-.166.307.165.46.33.46zm114.022-27.51l-112.367 25.973 136.86-147.075-24.493 121.102z"/>
            <path d="M445.89 314.796c.165 0 .33 0 .496-.154.165-.154.165-.307.165-.461l-23.003-125.713c0-.307-.33-.461-.662-.461-.33 0-.496.154-.662.46L397.235 312.03c0 .154 0 .308.166.461.165.154.33.154.496.154l47.992 2.152zm-23.004-123.1l22.341 121.87-46.502-2.151 24.161-119.72zM133.28 401.012s.165 0 0 0l113.69-23.975c.331 0 .497-.307.497-.614l-7.613-41.956c0-.154-.165-.307-.33-.46h-.662l-105.748 65.776c-.166.153-.331.307-.331.614-.166.308.165.615.496.615zm112.863-24.897l-109.72 23.053 102.273-63.625 7.447 40.572z"/>
            <path d="M133.28 401.012c.165 0 .165 0 .33-.154l105.748-65.776c.165-.154.331-.307.331-.615 0-.307-.331-.46-.496-.46L63.277 314.334c-.331 0-.497.153-.662.307a.443.443 0 0 0 0 .615l70.168 85.448c.165.307.33.307.496.307zm104.092-65.93l-103.927 64.7L64.6 315.719l172.771 19.364z"/>
            <path d="M239.193 335.236c.33 0 .496-.154.661-.461l75.464-222.841c0-.308 0-.461-.331-.615-.166-.154-.497-.154-.828 0L62.78 314.489c-.165.153-.33.46-.165.614 0 .154.331.307.496.461l176.082 19.672c-.166 0-.166 0 0 0zm74.139-221.766l-74.636 220.536-174.095-19.518L313.33 113.47z"/>
            <path d="M283.213 339.078c.33 0 .496-.154.662-.461l31.277-226.683c0-.308-.165-.615-.496-.615-.331 0-.662.154-.662.46L238.53 334.622v.46c.165.155.33.308.496.308l44.186 3.689zM313 118.08l-30.285 219.767-42.696-3.688L313 118.08z"/>
            <path d="M283.213 339.078c.165 0 .33 0 .496-.154l139.674-149.995c.165-.154.165-.307.165-.461 0-.154-.165-.307-.165-.461l-108.396-76.688c-.166-.154-.331-.154-.662 0-.166.154-.331.307-.331.46l-31.278 226.53v.308c-.165.153.166.46.497.46zm138.68-150.61L284.04 336.618l30.947-223.762 106.906 75.612z"/>
            <path d="M314.49 112.395l149.934-6.301c.331 0 .496-.154.496-.461 0-.308 0-.462-.33-.615L347.92 35.86c-.166-.153-.332-.153-.497 0-.166 0-.331.154-.331.308l-33.264 75.458v.615c.331 0 .497.154.662.154zm147.948-7.377l-146.955 6.147 32.602-73.922 114.353 67.775z"/>
            <path d="M422.886 189.083c.331 0 .497-.154.497-.308l41.537-82.989c.166-.153 0-.46 0-.615-.165-.153-.33-.307-.496-.307l-149.768 6.301c-.331 0-.497.154-.497.461 0 .308 0 .461.166.615l108.396 76.688c-.166 0 0 .154.165.154zm40.545-82.99l-40.71 81.453-106.41-75.305 147.12-6.147z"/>
            <path d="M63.111 315.564c.166 0 .331 0 .497-.154l251.379-203.17c.165-.153.33-.46.165-.614L251.935-45.13c-.165-.154-.33-.307-.496-.307-.166 0-.497.153-.662.307L62.78 314.796c-.165.153-.165.307-.165.46-.166 0 .165.308.496.308zm250.717-203.938L65.098 312.644 251.272-43.594l62.555 155.22z"/>
            <path d="M314.49 112.395c.331 0 .497-.154.497-.308L348.25 36.63c.166-.154 0-.461-.165-.615l-96.48-81.452c-.166-.154-.497-.154-.828 0-.166.153-.331.46-.166.614l63.217 156.758c.166.307.331.46.662.46zm32.602-75.92l-32.436 73.614-61.728-153.222 94.164 79.608z"/>
            <path d="M347.754 36.936c.165 0 .33 0 .33-.154.166-.153.332-.46.166-.768l-80.593-128.48c-.166-.153-.331-.307-.662-.307-.166 0-.497.154-.497.461l-15.887 47.027c0 .154 0 .461.166.615l96.48 81.452c.166.154.331.154.497.154zM267.326-90.621L345.106 33.4l-93.17-78.686 15.39-45.336zM246.805 377.191l110.216-5.532c.166 0 .497-.154.497-.308.165-.154 0-.46-.166-.615l-26.975-27.816c-.165-.154-.496-.308-.662-.154l-83.24 33.196c-.332.153-.497.46-.332.614.166.308.331.615.662.615zm108.892-6.608l-105.417 5.225 79.766-31.812 25.651 26.587z"/>
            <path d="M357.021 371.659c.166 0 .497-.154.497-.308l40.71-59.168c.166-.154.166-.461 0-.768-.165-.154-.496-.308-.662-.154l-67.685 31.351c-.166.154-.331.308-.331.461 0 .154 0 .308.165.461l26.975 27.817c0 .308.166.308.331.308zm39.056-58.246l-39.056 56.709-25.816-26.588 64.872-30.121z"/>
            <path d="M357.021 371.659c.166 0 .166 0 .331-.154l88.868-56.863c.166-.154.331-.461.166-.615 0-.307-.331-.46-.497-.46l-47.992-2.306c-.165 0-.496.154-.496.307l-40.71 59.168c-.166.308-.166.461.165.769-.166.154 0 .154.165.154zm87.048-57.017l-84.731 54.25 38.89-56.402 45.84 2.152z"/>
            <path d="M445.89 314.796c.165 0 .33 0 .496-.154l92.674-84.065c.165-.154.165-.307.165-.46 0-.155-.165-.308-.33-.462l-115.678-41.648c-.165 0-.496 0-.662.154-.165.153-.33.307-.165.614l23.003 125.713c0 .154.165.461.496.461-.165-.153-.165-.153 0-.153zm91.515-84.526L446.22 312.95l-22.672-123.715 113.857 41.034z"/>
            <path d="M518.374 324.324c.33 0 .496-.154.662-.461l20.024-93.747c0-.307 0-.46-.331-.615-.166-.153-.497-.153-.662.154l-92.674 84.065c-.166.154-.166.307-.166.615 0 .153.331.307.497.46l72.65 9.529zm19.196-92.517l-19.527 91.288-70.83-9.375 90.357-81.913z"/>
            <path d="M538.563 230.73c.166 0 .331 0 .497-.153a.443.443 0 0 0 0-.615l-74.14-124.637c-.165-.154-.33-.307-.496-.307-.165 0-.496.153-.496.307l-41.538 82.99v.46c0 .154.165.308.33.308l115.678 41.648c0-.154 0 0 .165 0zm-74.139-124.022l72.65 122.332-113.36-40.88 40.71-81.452z"/>
            <path d="M537.405 329.703c.165 0 .331 0 .331-.154.165-.153.33-.307.33-.46l1.16-98.973c0-.307-.166-.615-.497-.615-.331 0-.662.154-.662.461l-20.024 93.747c0 .308.165.615.496.615l18.866 5.225c-.166.154-.166.154 0 .154zm.331-93.44l-.993 92.057-17.542-4.918 18.535-87.139z"/>
            <path d="M537.405 329.703c.165 0 .331 0 .496-.154l60.9-56.402c.166-.153.166-.307.166-.46 0-.154-.165-.308-.165-.462l-59.742-42.57c-.166-.154-.497-.154-.662 0-.166.154-.331.307-.331.461l-1.158 98.819v.153c-.166.308 0 .615.496.615zm59.742-57.017l-59.246 55.02 1.159-96.36 58.087 41.34z"/>
            <path d="M538.563 230.73c.166 0 .166 0 .331-.153l180.715-102.2c.166-.153.331-.307.331-.614s-.33-.461-.496-.461L464.59 104.864c-.166 0-.497.154-.497.307a.443.443 0 0 0 0 .615l74.14 124.637c-.166 0 0 .154.33.308-.165-.154-.165 0 0 0zm178.73-102.352l-178.564 100.97-73.312-123.1 251.875 22.13z"/>
            <path d="M598.14 273.301c.165 0 .33 0 .496-.154l120.973-144.77c.166-.153.166-.46 0-.768-.165-.153-.496-.307-.827-.153l-180.715 102.2c-.166.153-.331.306-.331.46 0 .154 0 .307.165.461l59.742 42.57c.331 0 .331.154.497.154zm118.49-143.233l-118.49 141.85-58.418-41.648L716.63 130.068zM63.111 315.564c.166 0 .497-.154.497-.307l188.327-360.08v-.462c0-.153-.165-.307-.33-.307L25.38-117.977c-.166 0-.497 0-.662.154-.166.154-.331.307-.166.46l38.063 432.466c0 .154.165.307.496.461zM250.446-44.67L63.608 312.798 25.71-116.594 250.446-44.67z"/>
            <path d="M133.28 401.012c.165 0 .33 0 .496-.154.165-.153.33-.46 0-.768l-70.168-85.448c-.166-.154-.497-.307-.662-.154-.166 0-.497.308-.497.461l-2.647 24.59c0 .153 0 .307.165.46l72.816 60.86c.165.153.33.153.496.153zm-69.672-84.526l65.203 79.455-67.685-56.556 2.482-22.899zM719.113 128.531h.165c.331-.153.497-.307.331-.614l-53.122-246.509c0-.307-.331-.46-.662-.46l-113.857 17.52c-.165 0-.33.153-.496.307-.166.153 0 .46 0 .614l167.144 228.835c.166.154.331.307.497.307zM665.66-117.977l52.294 243.127-164.827-225.76 112.533-17.367z"/>
            <path d="M719.113 128.531c.165 0 .496-.153.496-.307a.443.443 0 0 0 0-.615L552.63-101.225c-.165-.154-.33-.308-.662-.308-.165 0-.496.154-.496.308l-87.71 206.396v.462c.166.153.331.307.497.307l254.854 22.591zM552.299-99.689l165.655 226.99-252.703-22.283L552.3-99.69zM347.754 36.936c.165 0 .33 0 .496-.154L450.854-66.339c.165-.154.165-.308.165-.615 0-.154-.33-.307-.496-.307L267.326-92.62c-.166 0-.497 0-.662.307a.443.443 0 0 0 0 .615l80.593 128.48s.166.153.497.153zM449.199-66.339L347.919 35.399 268.32-91.39l180.88 25.05z"/>
            <path d="M464.424 106.094c.166 0 .166 0 .331-.154s.331-.307.331-.615L451.185-66.954c0-.154-.166-.461-.497-.461-.165 0-.496 0-.662.154L347.423 35.86c-.166.154-.166.308-.166.461 0 .154.166.308.331.461l116.67 69.158c-.165.154 0 .154.166.154zM449.861-65.417l13.736 169.82-114.85-68.082L449.86-65.417z"/>
            <path d="M464.424 106.094c.331 0 .496-.154.496-.308l87.71-206.397c.166-.153 0-.46-.165-.614-.166-.154-.497-.154-.662-.154L450.192-67.261c-.331.153-.497.307-.331.614l13.901 172.28c0 .153.166.307.662.46-.165 0-.165 0 0 0zm86.551-206.09l-86.22 202.862-13.736-169.205 99.956-33.657z"/>
        </g>
        <g style="mix-blend-mode:overlay">
            <g opacity=".3">
                <path d="M911.06 61.166h-.332l-29.457-15.214c-.165-.154-.33-.308-.33-.615 0-.154.165-.461.33-.461l37.4-14.14c.166-.153.497 0 .663.155.165.153.33.307.165.614l-7.943 29.354c0 .154-.166.307-.331.46 0-.153-.166-.153-.166-.153zm-28.134-15.675l27.637 14.292 7.447-27.51-35.084 13.218z"/>
                <path d="M881.437 46.105c-.166 0-.331-.153-.497-.307-.165-.154-.165-.461 0-.768L926.12-.614c.165-.154.496-.308.827-.154.331.154.331.307.331.615L919.5 31.352c0 .153-.165.307-.33.46l-37.401 14.14c-.166 0-.166.153-.331.153zm44.185-44.26L883.92 43.953l34.587-13.063 7.116-29.047z"/>
                <path d="M918.837 31.813h-.165c-.331-.154-.497-.461-.331-.615l7.778-31.505c0-.154.165-.154.165-.307l40.049-36.116c.165-.154.662-.154.827 0 .166.154.331.461.166.768L919.499 31.66c-.165.154-.33.154-.662.154zm8.44-31.66l-6.95 28.125 42.862-60.398L927.277.154z"/>
                <path d="M918.837 31.813c-.165 0-.33 0-.496-.154a.443.443 0 0 1 0-.615l47.826-67.62c.166-.154.331-.308.662-.308l98.632 13.985c.331 0 .497.308.497.461 0 .308-.166.462-.331.615L919.168 31.813h-.33zm48.158-67.467l-46.503 65.776 142.487-52.098-95.984-13.678zM835.927 113.419c-.166 0-.331 0-.497-.154-.165-.154-.33-.461-.165-.768L880.94 45.03c.166-.308.497-.308.828-.154l29.457 15.214c.165.154.33.308.33.462 0 .153 0 .307-.165.46l-75.132 52.253c-.166.154-.331.154-.331.154zm45.84-67.16l-43.523 64.393L909.9 60.86l-28.133-14.6z"/>
                <path d="M882.76 179.656c-.165 0-.33-.154-.496-.307l-46.834-66.084c-.165-.307-.165-.615.166-.768l75.132-52.253c.166-.154.497-.154.662 0 .166.154.331.308.331.615l-28.299 118.49c-.165.153-.33.307-.661.307.165 0 0 0 0 0zm-46.006-66.545l45.841 64.547 27.637-115.57-73.478 51.023z"/>
                <path d="M882.76 179.656c-.165 0-.33 0-.33-.154-.166-.153-.331-.307-.166-.614l28.299-118.49c0-.308.33-.461.662-.461l185.348 5.84c.331 0 .497.153.662.46 0 .308 0 .462-.33.616l-213.483 112.65c-.496.153-.496.153-.661.153zM911.557 61.32l-27.803 116.646 210.503-110.96-182.7-5.686z"/>
                <path d="M1096.408 67.006c-.166 0-.166 0 0 0l-185.349-5.84c-.165 0-.33-.153-.496-.153-.166-.154-.166-.308-.166-.461l7.944-29.354c0-.307.33-.461.662-.461l177.405 35.04c.33 0 .662.307.662.614-.166.308-.331.615-.662.615zM911.72 60.09l177.57 5.533-169.957-33.657-7.613 28.124z"/>
                <path d="M1096.242 67.006L918.837 31.813c-.33 0-.496-.308-.496-.461 0-.308.165-.461.33-.615l146.46-53.482h.496c.165 0 .33.154.33.307l30.947 88.522c0 .154.166.154.166.307-.166.308-.331.615-.828.615.166 0 0 0 0 0zM920.99 31.044l174.426 34.58-30.45-87.14-143.976 52.56z"/>
                <path d="M1096.242 67.006c-.165 0-.33-.153-.496-.307-.166-.154-.166-.308 0-.615l41.372-95.284c.166-.307.331-.307.662-.307s.497.154.497.461l23.334 92.21c0 .154 0 .308-.166.461-.165.154-.33.154-.496.154l-64.707 3.227c.166 0 .166 0 0 0zm41.207-93.9l-40.214 92.67 62.886-2.92-22.672-89.75z"/>
                <path d="M1096.242 67.006c-.33 0-.496-.153-.662-.46l-30.946-88.676v-.461c.165-.154.33-.308.496-.308l72.32-6.454c.165 0 .496 0 .496.153.165.154.165.308 0 .615L1096.573 66.7c.166.154 0 .307-.33.307zm-29.953-88.829l30.119 86.524 40.214-92.825-70.333 6.301z"/>
                <path d="M882.76 179.656c-.33 0-.496-.154-.661-.46-.166-.308 0-.616.33-.616l213.482-112.65c.166-.153.497-.153.662 0l101.942 79.147c.165.154.33.461.165.615 0 .154-.33.308-.496.461L882.76 179.656zM1096.243 67.16L885.74 178.273l311.121-33.042-100.618-78.071z"/>
                <path d="M1198.35 146.153c-.166 0-.332 0-.332-.153l-101.941-79.147c-.166-.154-.331-.462-.166-.615 0-.154.331-.308.497-.461l64.54-3.074c.166 0 .497.154.663.307l37.4 82.067c.166.154.166.308.166.308-.166.46-.497.768-.828.768zm-100.453-79.3l98.798 76.688-36.243-79.608-62.555 2.92z"/>
                <path d="M1237.405 147.383l-39.056-1.23c-.165 0-.496-.153-.496-.307l-37.4-82.22c-.166-.308 0-.616.165-.77.33-.153.662-.153.827.154l76.456 83.45c.166.154.166.462.166.615-.166.154-.497.308-.662.308zm-38.725-2.46l37.236 1.23-72.981-79.608 35.745 78.379zM881.437 46.105c-.166 0-.166 0-.331-.153-.331-.154-.331-.461-.166-.769l31.112-69.926c.166-.153.331-.307.497-.307.165 0 .496.154.496.307L927.277-.614c.166.153.166.46-.165.614l-45.179 45.644c-.165.308-.33.461-.496.461zm31.112-69.157l-29.292 65.776 42.53-43.031-13.238-22.745z"/>
                <path d="M926.78.308s-.165 0 0 0c-.33 0-.496-.154-.496-.308l-14.232-24.128c-.165-.154-.165-.307 0-.461 0-.154.166-.307.497-.307l54.28-11.834c.331 0 .497 0 .662.307.166.154.166.461-.165.615L927.277.308h-.496zm-13.238-24.282l13.404 22.898 37.732-34.117-51.136 11.219zM1197.191 309.98h-.331L882.43 179.656c-.331-.154-.331-.307-.331-.615 0-.307.33-.46.496-.46l315.589-33.504c.165 0 .33 0 .496.154.166.154.166.307.166.461l-.993 163.827c0 .153-.166.307-.331.46 0-.153-.166 0-.331 0zM885.077 179.349l311.618 129.094.992-162.29-312.61 33.196z"/>
                <path d="M882.76 179.656s-.165 0 0 0l-19.196-4.303c-.166 0-.331-.154-.497-.307l-27.802-61.935c-.166-.307 0-.614.33-.768.332-.154.663 0 .828.154l46.834 66.237a.443.443 0 0 1 0 .615c-.166.307-.331.307-.496.307zm-18.7-5.379l17.211 3.842-42.365-59.783 25.154 55.941zM1214.733 332.879c-.166 0-.331-.154-.497-.308l-17.541-23.052a.443.443 0 0 1 0-.615c.165-.154.496-.307.661-.154l18.039 5.38c.33.153.496.307.496.614l-.496 17.673c0 .308-.166.462-.497.462h-.165zm-15.887-22.438l15.39 20.132.497-15.522-15.887-4.61z"/>
                <path d="M1215.23 315.359h-.166l-18.039-5.38c-.33-.153-.496-.307-.496-.614l24.658-127.557c0-.308.331-.461.662-.461.33 0 .496.307.496.614l-6.62 132.937c0 .153-.165.307-.33.46.165-.153 0 0-.166 0zm-17.212-6.455l16.715 4.918 6.123-123.408-22.838 118.49z"/>
                <path d="M1197.191 309.98c-.331 0-.662-.308-.662-.615l.993-163.827c0-.307.165-.46.496-.614.331 0 .497 0 .662.307l23.5 36.27c0 .153.165.307 0 .46l-24.658 127.558c.33.153 0 .46-.331.46zm1.655-162.444l-.993 155.067 23.334-120.795-22.341-34.272z"/>
                <path d="M1221.849 182.269c-.166 0-.497-.154-.497-.308l-23.5-36.269a.443.443 0 0 1 0-.615c.166-.153.332-.307.497-.307l39.056 1.23c.165 0 .331.153.496.307.166.154.166.307 0 .46l-15.556 34.887c0 .461-.165.615-.496.615zm-22.507-36.116l22.341 34.272 14.729-33.042-37.07-1.23zM1351.924 8.3c-.166 0-.331 0-.497-.155L1313.2-34.579c-.165-.153-.165-.307-.165-.46 0-.154.165-.308.33-.462l89.696-51.945c.166-.153.497-.153.828 0 .165.154.33.461.165.615l-51.302 94.67c-.33.306-.662.46-.827.46zm-37.4-43.186l37.234 41.648 49.978-92.056-87.213 50.408z"/>
                <path d="M1263.221 22.9c-.165 0-.496-.155-.496-.308a.443.443 0 0 1 0-.615l50.474-57.324c.166-.154.331-.154.497-.154.165 0 .33 0 .496.154l38.228 42.724c.166.154.166.307.166.615 0 .153-.331.307-.497.307l-88.868 14.6zm50.31-57.017l-48.82 55.633 86.054-14.139-37.235-41.494z"/>
                <path d="M1237.405 147.383c-.166 0-.331 0-.496-.154l-76.457-83.45c-.165-.154-.165-.307-.165-.461 0-.154.165-.308.33-.461l102.273-41.034c.166-.153.497 0 .662.154.166.154.331.307.166.615L1237.9 147.075s-.165.308-.496.308zm-75.463-83.758l75.132 81.913 25.32-122.332-100.452 40.42z"/>
                <path d="M1160.949 63.933h-.331c-.166 0-.331-.154-.331-.308l-23.334-92.21c0-.154 0-.46.165-.615.166-.153.497-.153.662-.153l125.607 51.023c.165.153.33.307.33.46 0 .154-.165.462-.33.462l-102.273 41.033c0 .308-.165.308-.165.308zm-22.507-91.75l22.838 90.366 100.286-40.265-123.124-50.1z"/>
                <path d="M1263.221 22.9h-.33l-125.607-51.024c-.331-.153-.331-.307-.331-.615 0-.307.33-.46.662-.46l175.915-6.302c.331 0 .497.154.497.308.165.153 0 .46 0 .614l-50.31 57.17c-.165.154-.33.308-.496.308zm-122.793-51.177l122.628 49.947 49.316-55.941-171.944 5.994z"/>
            </g>
            <path d="M1173.195 457.977c-.166 0-.331 0-.496-.154l-36.408-38.113c-.166-.154-.166-.461-.166-.615.166-.154.331-.307.497-.307l44.02-3.843c.165 0 .331 0 .496.154.166.154.166.308.166.461l-7.613 41.956c0 .153-.165.46-.496.46.165 0 0 0 0 0zm-35.084-38.267l34.753 36.423 7.282-39.958-42.035 3.535z"/>
            <path d="M1173.195 457.977h-.166l-83.24-33.196c-.332-.153-.332-.307-.332-.615 0-.307.331-.46.497-.46l46.833-4.765c.166 0 .331 0 .497.154l36.407 38.113c.166.154.166.461 0 .769-.165-.154-.33 0-.496 0zm-80.925-33.503l78.608 31.351-34.422-35.962-44.186 4.61z"/>
            <path d="M1089.954 424.628h-.331l-67.686-31.352c-.33-.154-.496-.46-.33-.768.165-.308.496-.461.661-.308l114.685 26.434c.33 0 .496.307.496.615 0 .307-.33.46-.496.46l-47 4.919zm-62.39-30.122l62.555 28.892 43.193-4.457-105.748-24.435z"/>
            <path d="M1136.787 419.863l-114.85-26.587c-.165 0-.496-.307-.496-.46l-24.99-123.562c0-.308.166-.461.332-.615.33-.154.496 0 .662.154l139.673 149.995a.443.443 0 0 1 0 .614c.166.308-.165.461-.33.461zm-114.022-27.509l112.367 25.973-136.86-147.076 24.493 121.103z"/>
            <path d="M974.11 395.581c-.165 0-.33 0-.496-.153-.165-.154-.165-.308-.165-.461l23.003-125.713c0-.308.33-.461.662-.461.33 0 .496.153.662.46l24.989 123.562c0 .154 0 .307-.166.461-.165.154-.33.154-.496.154l-47.992 2.151zm23.004-123.1l-22.341 121.87 46.502-2.15-24.161-119.72zM1286.72 481.798s-.165 0 0 0l-113.69-23.975c-.331 0-.497-.307-.497-.615l7.613-41.955c0-.154.165-.308.33-.461h.662l105.748 65.776c.166.154.331.308.331.615.166.307-.165.615-.496.615zM1173.858 456.9l109.72 23.053-102.273-63.625-7.447 40.572z"/>
            <path d="M1286.72 481.798c-.165 0-.165 0-.33-.154l-105.748-65.776c-.165-.154-.331-.308-.331-.615 0-.308.331-.461.496-.461l175.916-19.672c.331 0 .497.154.662.308a.443.443 0 0 1 0 .614l-70.168 85.448c-.165.308-.33.308-.496.308zm-104.092-65.93l103.927 64.7 68.844-84.065-172.771 19.365z"/>
            <path d="M1180.807 416.021c-.33 0-.496-.153-.661-.46l-75.464-222.842c0-.307 0-.46.331-.614.166-.154.497-.154.828 0l251.379 203.169c.165.154.33.461.165.615 0 .153-.331.307-.496.46l-176.082 19.672c.166 0 .166 0 0 0zm-74.139-221.765l74.636 220.536 174.095-19.518-248.73-201.018z"/>
            <path d="M1136.787 419.863c-.33 0-.496-.153-.662-.46l-31.277-226.684c0-.307.165-.614.496-.614.331 0 .662.153.662.46l75.463 222.842v.46c-.165.154-.33.308-.496.308l-44.186 3.688zM1107 198.867l30.285 219.767 42.696-3.689L1107 198.867z"/>
            <path d="M1136.787 419.863c-.165 0-.33 0-.496-.153L996.617 269.715c-.165-.154-.165-.308-.165-.461 0-.154.165-.308.165-.461l108.396-76.688c.166-.154.331-.154.662 0 .166.153.331.307.331.46l31.278 226.53v.307c.165.154-.166.461-.497.461zm-138.68-150.61l137.853 148.151-30.947-223.763-106.906 75.613z"/>
            <path d="M1105.51 193.18l-149.934-6.3c-.331 0-.496-.154-.496-.462 0-.307 0-.46.33-.614l116.67-69.158c.166-.154.332-.154.497 0 .166 0 .331.154.331.307l33.264 75.459v.615c-.331 0-.497.153-.662.153zm-147.948-7.376l146.955 6.147-32.602-73.922-114.353 67.775z"/>
            <path d="M997.114 269.868c-.331 0-.497-.153-.497-.307l-41.537-82.99c-.166-.153 0-.46 0-.614.165-.153.33-.307.496-.307l149.768 6.3c.331 0 .497.155.497.462 0 .307 0 .46-.166.615L997.28 269.715c.166 0 0 .153-.165.153zm-40.545-82.989l40.71 81.453 106.41-75.305-147.12-6.148z"/>
            <path d="M1356.889 396.35c-.166 0-.331 0-.497-.154l-251.379-203.17c-.165-.153-.33-.46-.165-.614l63.217-156.757c.165-.154.33-.308.496-.308.166 0 .497.154.662.308L1357.22 395.58c.165.154.165.308.165.461.166 0-.165.308-.496.308zm-250.717-203.938l248.73 201.018-186.175-356.238-62.555 155.22z"/>
            <path d="M1105.51 193.18c-.331 0-.497-.153-.497-.307l-33.263-75.459c-.166-.153 0-.46.165-.614l96.48-81.453c.166-.153.497-.153.828 0 .166.154.331.461.166.615l-63.217 156.757c-.166.308-.331.461-.662.461zm-32.602-75.92l32.436 73.615 61.728-153.222-94.164 79.608z"/>
            <path d="M1072.246 117.722c-.165 0-.33 0-.33-.154-.166-.154-.332-.461-.166-.768l80.593-128.48c.166-.153.331-.307.662-.307.166 0 .497.154.497.461l15.887 47.027c0 .154 0 .461-.166.615l-96.48 81.452c-.166.154-.331.154-.497.154zm80.428-127.557l-77.78 124.022 93.17-78.686-15.39-45.336zM1173.195 457.977l-110.216-5.533c-.166 0-.497-.153-.497-.307-.165-.154 0-.461.166-.615l26.975-27.817c.165-.153.496-.307.662-.153l83.24 33.195c.332.154.497.461.332.615-.166.307-.331.615-.662.615zm-108.892-6.609l105.417 5.226-79.766-31.813-25.651 26.587z"/>
            <path d="M1062.979 452.444c-.166 0-.497-.153-.497-.307l-40.71-59.168c-.166-.154-.166-.461 0-.769.165-.153.496-.307.662-.153l67.685 31.351c.166.154.331.307.331.461 0 .154 0 .307-.165.461l-26.975 27.817c0 .307-.166.307-.331.307zm-39.056-58.246l39.056 56.71 25.816-26.588-64.872-30.122z"/>
            <path d="M1062.979 452.444c-.166 0-.166 0-.331-.153l-88.868-56.863c-.166-.154-.331-.461-.166-.615 0-.307.331-.461.497-.461l47.992-2.305c.165 0 .496.153.496.307l40.71 59.168c.166.308.166.461-.165.769.166.153 0 .153-.165.153zm-87.048-57.016l84.731 54.25-38.89-56.402-45.84 2.152z"/>
            <path d="M974.11 395.581c-.165 0-.33 0-.496-.153l-92.674-84.065c-.165-.154-.165-.308-.165-.461 0-.154.165-.308.33-.461l115.678-41.648c.165 0 .496 0 .662.153.165.154.33.308.165.615l-23.003 125.713c0 .154-.165.461-.496.461.165-.154.165-.154 0-.154zm-91.515-84.526l91.185 82.682 22.672-123.715-113.857 41.033z"/>
            <path d="M901.626 405.11c-.33 0-.496-.154-.662-.461l-20.024-93.747c0-.308 0-.461.331-.615.166-.154.497-.154.662.154l92.674 84.065c.166.153.166.307.166.614 0 .154-.331.308-.497.461l-72.65 9.529zm-19.196-92.518l19.527 91.288 70.83-9.374-90.357-81.914z"/>
            <path d="M881.437 311.517c-.166 0-.331 0-.497-.154a.443.443 0 0 1 0-.615l74.14-124.637c.165-.154.33-.307.496-.307.165 0 .496.153.496.307L997.61 269.1v.461c0 .154-.165.307-.33.307l-115.678 41.649c0-.154 0 0-.165 0zm74.139-124.023l-72.65 122.332 113.36-40.88-40.71-81.452z"/>
            <path d="M882.595 410.489c-.165 0-.331 0-.331-.154-.165-.154-.33-.307-.33-.461l-1.16-98.972c0-.308.166-.615.497-.615.331 0 .662.154.662.461l20.024 93.747c0 .307-.165.615-.496.615l-18.866 5.225c.166.154.166.154 0 .154zm-.331-93.44l.993 92.057 17.542-4.918-18.535-87.139z"/>
            <path d="M882.595 410.489c-.165 0-.331 0-.496-.154l-60.9-56.402c-.166-.154-.166-.307-.166-.46 0-.155.165-.308.165-.462l59.742-42.57c.166-.154.497-.154.662 0 .166.153.331.307.331.46l1.158 98.82v.153c.166.307 0 .615-.496.615zm-59.742-57.017l59.246 55.019-1.159-96.36-58.087 41.341z"/>
            <path d="M881.437 311.517c-.166 0-.166 0-.331-.154l-180.715-102.2c-.166-.153-.331-.307-.331-.614 0-.308.33-.461.496-.461L955.41 185.65c.166 0 .497.154.497.307a.443.443 0 0 1 0 .615l-74.14 124.637c.166 0 0 .154-.33.308.165-.154.165 0 0 0zm-178.73-102.354l178.564 100.97 73.312-123.1-251.875 22.13z"/>
            <path d="M821.86 354.087c-.165 0-.33 0-.496-.154L700.39 209.163c-.166-.153-.166-.46 0-.768.165-.154.496-.307.827-.154l180.715 102.2c.166.153.331.307.331.46 0 .154 0 .308-.165.462l-59.742 42.57c-.331 0-.331.154-.497.154zM703.37 210.854l118.49 141.85 58.418-41.649L703.37 210.854zM1356.889 396.35c-.166 0-.497-.154-.497-.308l-188.327-360.08v-.46c0-.155.165-.308.33-.308l226.225-72.385c.166 0 .497 0 .662.154.166.153.331.307.166.46l-38.063 432.466c0 .153-.165.307-.496.46zM1169.554 36.116l186.838 357.467 37.897-429.391-224.735 71.924z"/>
            <path d="M1286.72 481.798c-.165 0-.33 0-.496-.154-.165-.154-.33-.461 0-.768l70.168-85.448c.166-.154.497-.308.662-.154.166 0 .497.307.497.461l2.647 24.59c0 .153 0 .307-.165.46l-72.816 60.86c-.165.153-.33.153-.496.153zm69.672-84.526l-65.203 79.454 67.685-56.555-2.482-22.9zM700.887 209.317h-.165c-.331-.154-.497-.307-.331-.615l53.122-246.508c0-.307.331-.46.662-.46l113.857 17.519c.165 0 .33.154.496.307.166.154 0 .461 0 .615L701.384 209.01c-.166.153-.331.307-.497.307zM754.34-37.19l-52.294 243.127 164.827-225.76L754.34-37.192z"/>
            <path d="M700.887 209.317c-.165 0-.496-.154-.496-.307a.443.443 0 0 1 0-.615L867.37-20.44c.165-.153.33-.307.662-.307.165 0 .496.154.496.307l87.71 206.397v.461c-.166.154-.331.308-.497.308l-254.854 22.591zm166.814-228.22l-165.655 226.99 252.703-22.283L867.7-18.903zM1168.727 36.27c-.166 0-.331-.154-.497-.308-.165-.154-.165-.46 0-.768l39.387-44.261c.165-.154.165-.154.33-.154l187.004-28.124c.331 0 .662.154.662.461 0 .308-.165.615-.33.615l-226.225 72.385c-.166.154-.331.154-.331.154zm39.552-44.261l-37.732 42.57 217.288-69.619L1208.28-7.99z"/>
            <path d="M1168.727 36.27s-.166 0 0 0c-.331 0-.497-.154-.662-.462l-15.887-47.027c0-.153 0-.307.165-.46.166-.154.331-.308.497-.154l55.108 2.766c.165 0 .496.154.496.307.166.154 0 .461-.165.615l-39.056 44.26c-.165.155-.33.155-.496.155zm-15.06-46.874l15.225 45.183 37.732-42.57-52.957-2.613zM969.643 14.6h-.166l-101.61-34.118c-.166 0-.332-.153-.332-.307v-.461l41.704-64.7c.165-.154.33-.308.496-.308.166 0 .497.154.497.307l59.907 98.972a.443.443 0 0 1 0 .615h-.496zM868.859-20.44l99.46 33.35-58.584-96.667L868.86-20.44z"/>
            <path d="M1072.246 117.722c-.165 0-.33 0-.496-.154L969.146 14.446c-.165-.153-.165-.307-.165-.614 0-.154.33-.308.496-.308l183.197-25.357c.166 0 .497 0 .662.307a.443.443 0 0 1 0 .615l-80.593 128.48s-.166.153-.497.153zM970.801 14.446l101.28 101.739 79.6-126.789-180.88 25.05z"/>
            <path d="M955.576 186.88c-.166 0-.166 0-.331-.154s-.331-.308-.331-.615l13.901-172.28c0-.153.166-.46.497-.46.165 0 .496 0 .662.153l102.603 103.122c.166.154.166.307.166.461 0 .154-.166.307-.331.461l-116.67 69.158c.165.153 0 .153-.166.153zm14.563-171.511l-13.736 169.82 114.85-68.082L970.14 15.369z"/>
            <path d="M955.576 186.88c-.331 0-.496-.154-.496-.308L867.37-19.825c-.166-.154 0-.461.165-.615.166-.153.497-.153.662-.153l101.611 34.117c.331.154.497.308.331.615l-13.901 172.28c0 .153-.166.307-.662.46.165 0 .165 0 0 0zM869.025-19.21l86.22 202.862 13.736-169.206-99.956-33.656z"/>
        </g>
        <g style="mix-blend-mode:overlay">
            <g opacity=".3">
                <path d="M931.06 528.238h-.332l-29.457-15.215c-.165-.154-.33-.307-.33-.615 0-.153.165-.46.33-.46l37.4-14.14c.166-.153.497 0 .663.154.165.154.33.307.165.615l-7.943 29.353c0 .154-.166.308-.331.461 0-.153-.166-.153-.166-.153zm-28.134-15.676l27.637 14.293 7.447-27.51-35.084 13.217z"/>
                <path d="M901.437 513.177c-.166 0-.331-.154-.497-.308-.165-.153-.165-.46 0-.768l45.179-45.644c.165-.154.496-.307.827-.154.331.154.331.308.331.615l-7.778 31.505c0 .154-.165.307-.33.461l-37.401 14.139c-.166 0-.166.154-.331.154zm44.185-44.261l-41.703 42.11 34.587-13.064 7.116-29.046z"/>
                <path d="M938.837 498.884h-.165c-.331-.154-.497-.46-.331-.615l7.778-31.505c0-.153.165-.153.165-.307l40.049-36.116c.165-.153.662-.153.827 0 .166.154.331.461.166.769l-47.827 67.62c-.165.154-.33.154-.662.154zm8.44-31.659l-6.95 28.124 42.862-60.397-35.912 32.273z"/>
                <path d="M938.837 498.884c-.165 0-.33 0-.496-.154a.443.443 0 0 1 0-.614l47.826-67.621c.166-.154.331-.307.662-.307l98.632 13.985c.331 0 .497.307.497.46 0 .308-.166.462-.331.616l-146.459 53.635h-.33zm48.158-67.467l-46.503 65.777 142.487-52.099-95.984-13.678z"/>
                <path d="M1085.296 445.402l-98.632-13.985c-.166 0-.331-.154-.497-.307-.165-.154-.165-.308 0-.461l10.095-31.505c0-.154.166-.308.331-.308h.497l88.537 45.49c.33 0 .496.308.496.615-.165.154-.33.461-.827.461zm-97.805-15.06l94.495 13.37-84.73-43.646-9.765 30.275zM855.927 580.49c-.166 0-.331 0-.497-.154-.165-.153-.33-.46-.165-.768L900.94 512.1c.166-.307.497-.307.828-.154l29.457 15.215c.165.154.33.307.33.461 0 .154 0 .307-.165.461l-75.132 52.252c-.166.154-.331.154-.331.154zm45.84-67.16l-43.523 64.394L929.9 527.93l-28.133-14.6z"/>
                <path d="M902.76 646.728c-.165 0-.33-.154-.496-.308l-46.834-66.084c-.165-.307-.165-.614.166-.768l75.132-52.252c.166-.154.497-.154.662 0 .166.153.331.307.331.614l-28.299 118.49c-.165.154-.33.308-.661.308.165 0 0 0 0 0zm-46.006-66.545l45.841 64.547 27.637-115.57-73.478 51.023z"/>
                <path d="M902.76 646.728c-.165 0-.33 0-.33-.154-.166-.154-.331-.307-.166-.615l28.299-118.49c0-.307.33-.46.662-.46l185.348 5.84c.331 0 .497.153.662.46 0 .308 0 .461-.33.615l-213.483 112.65c-.496.154-.496.154-.661.154zm28.796-118.337l-27.803 116.646 210.503-110.96-182.7-5.686z"/>
                <path d="M1116.408 534.078c-.166 0-.166 0 0 0l-185.349-5.84c-.165 0-.33-.154-.496-.154-.166-.154-.166-.307-.166-.461l7.944-29.354c0-.307.33-.46.662-.46l177.405 35.04c.33 0 .662.307.662.614-.166.307-.331.615-.662.615zm-184.687-6.916l177.57 5.533-169.957-33.657-7.613 28.124z"/>
                <path d="M1116.242 534.078l-177.405-35.194c-.33 0-.496-.307-.496-.46 0-.308.165-.462.33-.616l146.46-53.481h.496c.165 0 .33.153.33.307l30.947 88.522c0 .153.166.153.166.307-.166.307-.331.615-.828.615.166 0 0 0 0 0zM940.99 498.116l174.426 34.579-30.45-87.139-143.976 52.56z"/>
                <path d="M1116.242 534.078c-.165 0-.33-.154-.496-.308-.166-.153-.166-.307 0-.614l41.372-95.284c.166-.308.331-.308.662-.308s.497.154.497.462l23.334 92.21c0 .153 0 .307-.166.46-.165.154-.33.154-.496.154l-64.707 3.228c.166 0 .166 0 0 0zm41.207-93.9l-40.214 92.67 62.886-2.92-22.672-89.75z"/>
                <path d="M1116.242 534.078c-.33 0-.496-.154-.662-.461l-30.946-88.676v-.46c.165-.154.33-.308.496-.308l72.32-6.455c.165 0 .496 0 .496.154.165.154.165.307 0 .615l-41.373 95.283c.166.154 0 .308-.33.308zm-29.953-88.83l30.119 86.524 40.214-92.824-70.333 6.3z"/>
                <path d="M902.76 646.728c-.33 0-.496-.154-.661-.461-.166-.308 0-.615.33-.615l213.482-112.65c.166-.154.497-.154.662 0l101.942 79.147c.165.154.33.46.165.615 0 .153-.33.307-.496.46L902.76 646.729zm213.482-112.497L905.74 645.344l311.121-33.041-100.618-78.072z"/>
                <path d="M1218.35 613.225c-.166 0-.332 0-.332-.154l-101.941-79.147c-.166-.154-.331-.461-.166-.615 0-.153.331-.307.497-.46l64.54-3.074c.166 0 .497.153.663.307l37.4 82.067c.166.154.166.307.166.307-.166.461-.497.769-.828.769zm-100.453-79.301l98.798 76.688-36.243-79.608-62.555 2.92z"/>
                <path d="M1257.405 614.454l-39.056-1.23c-.165 0-.496-.153-.496-.307l-37.4-82.22c-.166-.308 0-.615.165-.769.33-.153.662-.153.827.154l76.456 83.45c.166.154.166.461.166.615-.166.153-.497.307-.662.307zm-38.725-2.459l37.236 1.23-72.981-79.608 35.745 78.378zM901.437 513.177c-.166 0-.166 0-.331-.154-.331-.154-.331-.461-.166-.768l31.112-69.926c.166-.154.331-.308.497-.308.165 0 .496.154.496.308l14.232 24.128c.166.154.166.461-.165.615l-45.179 45.644c-.165.307-.33.46-.496.46zm31.112-69.158l-29.292 65.777 42.53-43.032-13.238-22.745z"/>
                <path d="M946.78 467.38s-.165 0 0 0c-.33 0-.496-.155-.496-.308l-14.232-24.129c-.165-.153-.165-.307 0-.46 0-.154.166-.308.497-.308l54.28-11.834c.331 0 .497 0 .662.308.166.153.166.46-.165.614l-40.049 36.116h-.496zm-13.238-24.283l13.404 22.899 37.732-34.118-51.136 11.22z"/>
                <path d="M932.549 443.25c-.166 0-.497-.153-.497-.307-.165-.307 0-.614.166-.768l64.21-43.492c.165-.154.496-.154.662 0 .165.153.33.46.165.614l-10.095 31.505c0 .154-.165.308-.496.461l-54.115 11.988zm63.217-42.57l-60.239 40.727 50.806-11.22 9.433-29.507z"/>
                <path d="M1085.296 445.402h-.331l-88.537-45.49c-.166-.154-.331-.307-.331-.461 0-.154.165-.461.33-.461l85.559-39.343c.165-.154.33-.154.662 0 .165.154.33.307.33.461l2.98 84.833c0 .154-.166.461-.331.461h-.331zm-87.213-46.105l86.55 44.568-2.813-82.989-83.737 38.421z"/>
                <path d="M996.759 399.758c-.166 0-.331 0-.331-.153-.166-.154-.331-.308-.166-.615l10.592-49.179c0-.307.33-.46.662-.46l75.132 9.989c.33 0 .496.153.496.46 0 .308-.165.462-.33.615l-85.559 39.343h-.496zm11.087-49.025l-10.26 47.489 82.745-37.96-72.485-9.529z"/>
                <path d="M1085.296 445.402c-.166 0-.331 0-.331-.153-.166-.154-.166-.308-.166-.461l-2.979-84.834c0-.307.166-.46.331-.614.166-.154.497 0 .662.153l75.133 78.379c.165.154.165.46.165.615-.165.153-.33.307-.496.307l-72.32 6.608c.166 0 .166 0 0 0zm-2.152-83.91l2.814 82.68 70.333-6.3-73.147-76.38z"/>
                <path d="M1082.482 360.57s-.165 0 0 0l-75.132-9.99c-.331 0-.496-.308-.496-.615l.662-13.524c0-.154.165-.308.33-.461.166-.154.331-.154.497 0l74.305 23.36c.33 0 .496.307.496.614 0 .308-.33.615-.662.615zm-74.47-11.066l67.85 8.914-67.354-21.209-.496 12.295z"/>
                <path d="M1082.482 360.57h-.165l-74.47-23.514c-.166 0-.331-.308-.497-.462 0-.307.166-.46.331-.614l57.094-25.512h.496c.166 0 .331.154.331.308l17.211 48.717c0 .154.166.154.166.308.165.46-.166.768-.497.768zm-72.815-24.13l71.822 22.592-16.714-47.18-55.108 24.589z"/>
                <path d="M1157.615 438.794c-.166 0-.331 0-.497-.154l-75.132-78.378c-.166-.154-.166-.308-.166-.461 0-.154.166-.308.166-.461l120.642-91.75c.165-.153.496-.153.662 0 .165.154.33.462.33.615l-45.343 169.974c-.166.461-.331.615-.662.615.165 0 0 0 0 0zm-74.305-78.84l73.974 76.996 44.682-167.362-118.656 90.366z"/>
                <path d="M1082.482 360.57h-.165c-.166 0-.331-.155-.497-.308l-17.376-48.872c-.166-.307 0-.614.33-.768l137.854-42.724c.33-.154.662 0 .662.307.165.308 0 .615-.166.769l-120.642 91.749c.166-.308.166-.154 0-.154zm-16.549-49.18l16.88 47.642 117.333-89.136-134.213 41.494zM1217.191 777.051h-.331L902.43 646.728c-.331-.154-.331-.308-.331-.615s.33-.461.496-.461l315.589-33.503c.165 0 .33 0 .496.154.166.153.166.307.166.46l-.993 163.827c0 .154-.166.307-.331.461 0-.154-.166 0-.331 0zm-312.114-130.63l311.618 129.093.992-162.29-312.61 33.196z"/>
                <path d="M902.76 646.728s-.165 0 0 0l-19.196-4.304c-.166 0-.331-.153-.497-.307l-27.802-61.934c-.166-.308 0-.615.33-.769.332-.153.663 0 .828.154l46.834 66.238a.443.443 0 0 1 0 .614c-.166.308-.331.308-.496.308zm-18.7-5.38l17.211 3.843-42.365-59.783 25.154 55.94zM1333.53 432.647c-.165 0-.33-.154-.496-.308l-130.406-163.673c-.166-.153-.166-.46 0-.768.165-.154.496-.307.827-.154l171.613 94.516c.331.153.331.46.166.768l-41.042 69.311c-.165.154-.33.308-.662.308.166 0 .166 0 0 0zm-128.089-162.444l128.09 160.753 40.379-68.082-168.469-92.67z"/>
                <path d="M1157.615 438.794c-.166 0-.331-.154-.497-.154-.165-.153-.165-.307-.165-.46l45.51-170.128c0-.154.165-.308.496-.461.165 0 .496 0 .662.153l130.571 163.827a.443.443 0 0 1 0 .615c-.165.153-.33.307-.496.307l-176.081 6.3zm45.675-169.206l-44.848 168.13 173.93-6.147-129.082-161.983zM1235.23 782.43h-.166l-18.039-5.379c-.33-.154-.496-.307-.496-.615l24.658-127.557c0-.307.331-.46.662-.46.33 0 .496.306.496.614l-6.62 132.936c0 .154-.165.307-.33.461.165-.154 0 0-.166 0zm-17.212-6.455l16.715 4.918 6.123-123.408-22.838 118.49z"/>
                <path d="M1217.191 777.051c-.331 0-.662-.307-.662-.615l.993-163.826c0-.307.165-.461.496-.615.331 0 .497 0 .662.308l23.5 36.269c0 .153.165.307 0 .46l-24.658 127.558c.33.154 0 .461-.331.461zm1.655-162.443l-.993 155.066 23.334-120.795-22.341-34.271z"/>
                <path d="M1241.849 649.34c-.166 0-.497-.153-.497-.307l-23.5-36.27a.443.443 0 0 1 0-.614c.166-.154.332-.308.497-.308l39.056 1.23c.165 0 .331.154.496.307.166.154.166.308 0 .461l-15.556 34.886c0 .462-.165.615-.496.615zm-22.507-36.115l22.341 34.271 14.729-33.042-37.07-1.23zM1371.924 475.37c-.166 0-.331 0-.497-.153l-38.228-42.724c-.165-.154-.165-.307-.165-.461 0-.154.165-.307.33-.461l89.696-51.945c.166-.154.497-.154.828 0 .165.154.33.46.165.615l-51.302 94.669c-.33.307-.662.46-.827.46zm-37.4-43.184l37.234 41.648 49.978-92.057-87.213 50.409z"/>
                <path d="M1333.53 432.647c-.165 0-.33 0-.496-.154-.166-.154-.331-.461-.166-.768l41.042-69.312c.165-.307.496-.307.827-.307l48.489 17.366c.165.154.33.308.33.461 0 .154-.165.461-.33.615l-89.696 51.945c.331.154.166.154 0 .154zm41.373-69.158l-39.718 66.852 86.551-50.1-46.833-16.752z"/>
                <path d="M1283.221 489.97c-.165 0-.496-.153-.496-.307a.443.443 0 0 1 0-.615l50.474-57.323c.166-.154.331-.154.497-.154.165 0 .33 0 .496.154l38.228 42.723c.166.154.166.308.166.615 0 .154-.331.308-.497.308l-88.868 14.6zm50.31-57.016l-48.82 55.633 86.054-14.139-37.235-41.494z"/>
                <path d="M1257.405 614.454c-.166 0-.331 0-.496-.154l-76.457-83.45c-.165-.153-.165-.307-.165-.46 0-.154.165-.308.33-.462l102.273-41.033c.166-.154.497 0 .662.153.166.154.331.308.166.615L1257.9 614.147s-.165.307-.496.307zm-75.463-83.757l75.132 81.913 25.32-122.332-100.452 40.419z"/>
                <path d="M1180.949 531.004h-.331c-.166 0-.331-.154-.331-.307l-23.334-92.21c0-.154 0-.461.165-.615.166-.154.497-.154.662-.154l125.607 51.023c.165.154.33.307.33.461 0 .154-.165.461-.33.461l-102.273 41.034c0 .307-.165.307-.165.307zm-22.507-91.749l22.838 90.366 100.286-40.265-123.124-50.101z"/>
                <path d="M1283.221 489.97h-.33l-125.607-51.022c-.331-.154-.331-.308-.331-.615s.33-.461.662-.461l175.915-6.301c.331 0 .497.154.497.307.165.154 0 .461 0 .615l-50.31 57.17c-.165.154-.33.308-.496.308zm-122.793-51.176l122.628 49.947 49.316-55.94-171.944 5.993z"/>
            </g>
            <path d="M1125.51 660.252l-149.934-6.301c-.331 0-.496-.154-.496-.461 0-.308 0-.461.33-.615l116.67-69.158c.166-.153.332-.153.497 0 .166 0 .331.154.331.308l33.264 75.458v.615c-.331 0-.497.154-.662.154zm-147.948-7.377l146.955 6.147-32.602-73.921-114.353 67.774z"/>
            <path d="M1376.889 863.421c-.166 0-.331 0-.497-.153l-251.379-203.17c-.165-.154-.33-.461-.165-.615l63.217-156.757c.165-.153.33-.307.496-.307.166 0 .497.154.662.307l187.997 359.927c.165.153.165.307.165.46.166 0-.165.308-.496.308zm-250.717-203.938l248.73 201.018-186.175-356.238-62.555 155.22z"/>
            <path d="M1125.51 660.252c-.331 0-.497-.154-.497-.308l-33.263-75.458c-.166-.154 0-.461.165-.615l96.48-81.452c.166-.154.497-.154.828 0 .166.154.331.46.166.615l-63.217 156.757c-.166.307-.331.46-.662.46zm-32.602-75.92l32.436 73.614 61.728-153.222-94.164 79.608z"/>
            <path d="M1092.246 584.793c-.165 0-.33 0-.33-.153-.166-.154-.332-.462-.166-.769l80.593-128.48c.166-.153.331-.307.662-.307.166 0 .497.154.497.461l15.887 47.028c0 .153 0 .46-.166.614l-96.48 81.453c-.166.153-.331.153-.497.153zm80.428-127.557l-77.78 124.022 93.17-78.685-15.39-45.337z"/>
            <path d="M1376.889 863.421c-.166 0-.497-.153-.497-.307l-188.327-360.08v-.461c0-.154.165-.308.33-.308l226.225-72.385c.166 0 .497 0 .662.154.166.154.331.307.166.461l-38.063 432.465c0 .154-.165.308-.496.461zm-187.335-360.234l186.838 357.468 37.897-429.392-224.735 71.924zM720.887 676.389h-.165c-.331-.154-.497-.308-.331-.615l53.122-246.508c0-.308.331-.461.662-.461l113.857 17.52c.165 0 .33.153.496.307.166.153 0 .46 0 .615L721.384 676.08c-.166.154-.331.308-.497.308zM774.34 429.88l-52.294 243.127 164.827-225.76L774.34 429.88z"/>
            <path d="M720.887 676.389c-.165 0-.496-.154-.496-.308a.443.443 0 0 1 0-.615L887.37 446.632c.165-.154.33-.308.662-.308.165 0 .496.154.496.308l87.71 206.397v.46c-.166.154-.331.308-.497.308l-254.854 22.592zm166.814-228.22l-165.655 226.99 252.703-22.284L887.7 448.169zM1414.951 430.956h-.165c-.331 0-.497-.307-.497-.461l-.662-23.82c0-.308.166-.462.497-.616l24.492-7.376c.331 0 .497 0 .662.153a.443.443 0 0 1 0 .615l-23.83 31.198c-.166.153-.331.307-.497.307zm0-23.975l.662 21.67 21.68-28.432-22.342 6.762z"/>
            <path d="M1227.948 459.08c-.331 0-.497-.154-.662-.46 0-.308.165-.616.496-.616l186.176-51.945c.166 0 .331 0 .497.154.165.154.33.307.33.461l.663 23.821c0 .307-.166.615-.497.615l-187.003 27.97c.165 0 .165 0 0 0zm185.68-51.791l-176.413 49.332 177.074-26.74-.662-22.592z"/>
            <path d="M1188.727 503.341c-.166 0-.331-.154-.497-.307-.165-.154-.165-.461 0-.769l39.387-44.26c.165-.154.165-.154.33-.154l187.004-28.124c.331 0 .662.153.662.46 0 .308-.165.615-.33.615l-226.225 72.385c-.166.154-.331.154-.331.154zm39.552-44.26l-37.732 42.57 217.288-69.62-179.556 27.05z"/>
            <path d="M1188.727 503.341s-.166 0 0 0c-.331 0-.497-.154-.662-.461l-15.887-47.027c0-.154 0-.308.165-.461.166-.154.331-.308.497-.154l55.108 2.766c.165 0 .496.154.496.308.166.153 0 .46-.165.614l-39.056 44.261c-.165.154-.33.154-.496.154zm-15.06-46.873l15.225 45.182 37.732-42.57-52.957-2.612zM887.866 447.554c-.165 0-.33 0-.33-.154l-111.872-83.296c-.165-.154-.33-.461-.165-.615.165-.307.33-.307.662-.307l153.574 18.442c.166 0 .331.153.497.307.165.154 0 .307 0 .615l-41.704 64.7c-.165.154-.33.308-.662.308.166 0 .166 0 0 0zm-109.72-82.99l109.555 81.453 40.876-63.471-150.43-17.981z"/>
            <path d="M887.866 447.554L773.68 429.88c-.331 0-.497-.307-.497-.614l2.317-65.623c0-.154.165-.461.33-.461.166-.154.497 0 .663 0l111.705 83.142c.166.154.331.308.331.461 0 .462-.165.769-.662.769zm-113.36-18.75l111.044 17.213-109.058-81.145-1.986 63.933z"/>
            <path d="M989.643 481.672h-.166l-101.61-34.118c-.166 0-.332-.154-.332-.307v-.462l41.704-64.7c.165-.154.33-.308.496-.308.166 0 .497.154.497.308l59.907 98.972a.443.443 0 0 1 0 .615h-.496zm-100.784-35.04l99.46 33.35-58.584-96.668-40.876 63.318z"/>
            <path d="M1092.246 584.793c-.165 0-.33 0-.496-.153L989.146 481.518c-.165-.154-.165-.307-.165-.615 0-.153.33-.307.496-.307l183.197-25.358c.166 0 .497 0 .662.307a.443.443 0 0 1 0 .615l-80.593 128.48s-.166.153-.497.153zM990.801 481.518l101.28 101.738 79.6-126.788-180.88 25.05z"/>
            <path d="M975.576 653.95c-.166 0-.166 0-.331-.153-.165-.154-.331-.307-.331-.615l13.901-172.279c0-.153.166-.46.497-.46.165 0 .496 0 .662.153l102.603 103.121c.166.154.166.308.166.461 0 .154-.166.308-.331.462l-116.67 69.157c.165.154 0 .154-.166.154zm14.563-171.51l-13.736 169.82 114.85-68.082L990.14 482.44z"/>
            <path d="M975.576 653.95c-.331 0-.496-.153-.496-.307l-87.71-206.396c-.166-.154 0-.462.165-.615.166-.154.497-.154.662-.154l101.611 34.118c.331.154.497.307.331.615L976.238 653.49c0 .153-.166.307-.662.46.165 0 .165 0 0 0zm-86.551-206.089l86.22 202.862 13.736-169.205-99.956-33.657z"/>
        </g>
        <g style="mix-blend-mode:overlay">
            <g opacity=".3">
                <path d="M508.94 504.095h.332l29.457-15.215c.165-.154.33-.307.33-.615 0-.153-.165-.46-.33-.46l-37.4-14.14c-.166-.153-.497 0-.663.154-.165.154-.33.308-.165.615l7.943 29.353c0 .154.166.308.331.462 0-.154.166-.154.166-.154zm28.134-15.676l-27.637 14.293-7.447-27.51 35.084 13.217z"/>
                <path d="M538.563 489.034c.166 0 .331-.154.497-.308.165-.153.165-.46 0-.768l-45.179-45.644c-.165-.154-.496-.307-.827-.154-.331.154-.331.308-.331.615l7.778 31.505c0 .154.165.308.33.461l37.401 14.14c.166 0 .166.153.331.153zm-44.185-44.261l41.703 42.11-34.587-13.064-7.116-29.046z"/>
                <path d="M501.163 474.741h.165c.331-.153.497-.46.331-.614l-7.778-31.506c0-.153-.165-.153-.165-.307l-40.049-36.116c-.165-.153-.662-.153-.827 0-.166.154-.331.462-.166.769l47.827 67.62c.165.154.33.154.662.154zm-8.44-31.658l6.95 28.124-42.862-60.398 35.912 32.274z"/>
                <path d="M501.163 474.741c.165 0 .33 0 .496-.153a.443.443 0 0 0 0-.615l-47.826-67.62c-.166-.155-.331-.308-.662-.308l-98.632 13.985c-.331 0-.497.307-.497.461 0 .307.166.461.331.615l146.459 53.635h.33zm-48.158-67.467l46.503 65.777-142.487-52.099 95.984-13.678z"/>
                <path d="M354.704 421.26l98.632-13.986c.166 0 .331-.153.497-.307.165-.154.165-.307 0-.461L443.738 375c0-.154-.166-.308-.331-.308h-.497l-88.537 45.49c-.33 0-.496.308-.496.615.165.154.33.461.827.461zm97.805-15.062l-94.495 13.371 84.73-43.646 9.765 30.275zM584.073 556.347c.166 0 .331 0 .497-.153.165-.154.33-.462.165-.769l-45.675-67.467c-.166-.307-.497-.307-.828-.154l-29.457 15.215c-.165.154-.33.307-.33.461 0 .154 0 .307.165.461l75.132 52.253c.166.153.331.153.331.153zm-45.84-67.16l43.523 64.394-71.657-49.794 28.133-14.6z"/>
                <path d="M537.24 622.585c.165 0 .33-.154.496-.308l46.834-66.083c.165-.308.165-.615-.166-.769l-75.132-52.252c-.166-.154-.497-.154-.662 0-.166.153-.331.307-.331.614l28.299 118.49c.165.154.33.308.661.308-.165 0 0 0 0 0zm46.006-66.545l-45.841 64.547-27.637-115.57 73.478 51.023z"/>
                <path d="M537.24 622.585c.165 0 .33 0 .33-.154.166-.154.331-.307.166-.615l-28.299-118.49c0-.307-.33-.46-.662-.46l-185.348 5.84c-.331 0-.497.153-.662.46 0 .308 0 .461.33.615l213.483 112.65c.496.154.496.154.661.154zm-28.796-118.336l27.803 116.645-210.503-110.96 182.7-5.685z"/>
                <path d="M323.592 509.935c.166 0 .166 0 0 0l185.349-5.84c.165 0 .33-.154.496-.154.166-.154.166-.307.166-.46l-7.944-29.354c0-.308-.33-.461-.662-.461l-177.405 35.04c-.33 0-.662.307-.662.614.166.307.331.615.662.615zm184.687-6.916l-177.57 5.533 169.957-33.657 7.613 28.124z"/>
                <path d="M323.758 509.935l177.405-35.194c.33 0 .496-.307.496-.46 0-.308-.165-.462-.33-.615l-146.46-53.482h-.496c-.165 0-.33.153-.33.307l-30.947 88.522c0 .153-.166.153-.166.307.166.307.331.615.828.615-.166 0 0 0 0 0zm175.253-35.962l-174.426 34.579 30.45-87.139 143.976 52.56z"/>
                <path d="M323.758 509.935c.165 0 .33-.154.496-.308.166-.153.166-.307 0-.614l-41.372-95.284c-.166-.307-.331-.307-.662-.307s-.497.153-.497.46l-23.334 92.21c0 .154 0 .308.166.462.165.153.33.153.496.153l64.707 3.228c-.166 0-.166 0 0 0zm-41.207-93.9l40.214 92.67-62.886-2.92 22.672-89.75z"/>
                <path d="M323.758 509.935c.33 0 .496-.154.662-.461l30.946-88.676v-.46c-.165-.154-.33-.308-.496-.308l-72.32-6.455c-.165 0-.496 0-.496.154-.165.154-.165.307 0 .615l41.373 95.283c-.166.154 0 .308.33.308zm29.953-88.83l-30.119 86.525-40.214-92.825 70.333 6.3z"/>
                <path d="M537.24 622.585c.33 0 .496-.154.661-.461.166-.308 0-.615-.33-.615l-213.482-112.65c-.166-.154-.497-.154-.662 0l-101.942 79.147c-.165.154-.33.461-.165.615 0 .153.33.307.496.46l315.423 33.504zM323.757 510.088L534.26 621.202 223.14 588.16l100.618-78.072z"/>
                <path d="M221.65 589.082c.166 0 .332 0 .332-.154l101.941-79.147c.166-.154.331-.46.166-.615 0-.153-.331-.307-.497-.46l-64.54-3.074c-.166 0-.497.153-.663.307l-37.4 82.067c-.166.154-.166.307-.166.307.166.461.497.769.828.769zm100.453-79.3l-98.798 76.687 36.243-79.608 62.555 2.92z"/>
                <path d="M182.595 590.311l39.056-1.23c.165 0 .496-.153.496-.307l37.4-82.22c.166-.308 0-.615-.165-.769-.33-.153-.662-.153-.827.154l-76.456 83.45c-.166.154-.166.461-.166.615.166.154.497.307.662.307zm38.725-2.459l-37.236 1.23 72.981-79.608-35.745 78.378zM538.563 489.034c.166 0 .166 0 .331-.154.331-.154.331-.46.166-.768l-31.112-69.926c-.166-.154-.331-.308-.497-.308-.165 0-.496.154-.496.308l-14.232 24.128c-.166.154-.166.461.165.615l45.179 45.644c.165.307.33.46.496.46zm-31.112-69.158l29.292 65.777-42.53-43.032 13.238-22.745z"/>
                <path d="M493.22 443.236s.165 0 0 0c.33 0 .496-.153.496-.307l14.232-24.128c.165-.154.165-.308 0-.462 0-.153-.166-.307-.497-.307l-54.28-11.834c-.331 0-.497 0-.662.308-.166.154-.166.46.165.615l40.049 36.115h.496zm13.238-24.282l-13.404 22.899-37.732-34.118 51.136 11.22z"/>
                <path d="M507.451 419.108c.166 0 .497-.154.497-.307.165-.308 0-.615-.166-.769l-64.21-43.492c-.165-.154-.496-.154-.662 0-.165.153-.33.46-.165.614l10.095 31.506c0 .153.165.307.496.46l54.115 11.988zm-63.217-42.57l60.239 40.726-50.806-11.22-9.433-29.506z"/>
                <path d="M354.704 421.26h.331l88.537-45.49c.166-.155.331-.308.331-.462 0-.154-.165-.46-.33-.46l-85.559-39.344c-.165-.154-.33-.154-.662 0-.165.154-.33.307-.33.461l-2.98 84.833c0 .154.166.461.331.461h.331zm87.213-46.106l-86.55 44.569 2.813-82.99 83.737 38.421z"/>
                <path d="M443.241 375.615c.166 0 .331 0 .331-.153.166-.154.331-.308.166-.615l-10.592-49.179c0-.307-.33-.46-.662-.46l-75.132 9.989c-.33 0-.496.153-.496.46 0 .308.165.462.33.616l85.559 39.342h.496zm-11.087-49.025l10.26 47.489-82.745-37.96 72.485-9.529z"/>
                <path d="M354.704 421.26c.166 0 .331 0 .331-.154.166-.154.166-.308.166-.461l2.979-84.834c0-.307-.166-.46-.331-.614-.166-.154-.497 0-.662.153l-75.133 78.379c-.165.154-.165.461-.165.615.165.153.33.307.496.307l72.32 6.608c-.166 0-.166 0 0 0zm2.152-83.912l-2.814 82.682-70.333-6.301 73.147-76.38z"/>
                <path d="M357.518 336.426s.165 0 0 0l75.132-9.99c.331 0 .496-.307.496-.614l-.662-13.524c0-.154-.165-.307-.33-.461-.166-.154-.331-.154-.497 0l-74.305 23.36c-.33 0-.496.307-.496.614 0 .308.33.615.662.615zm74.47-11.065l-67.85 8.914 67.354-21.209.496 12.295z"/>
                <path d="M357.518 336.426h.165l74.47-23.513c.166 0 .331-.308.497-.461 0-.308-.166-.461-.331-.615l-57.094-25.512h-.496c-.166 0-.331.154-.331.308l-17.211 48.717c0 .154-.166.154-.166.308-.165.46.166.768.497.768zm72.815-24.128l-71.822 22.591 16.714-47.18 55.108 24.589z"/>
                <path d="M282.385 414.651c.166 0 .331 0 .497-.154l75.132-78.378c.166-.154.166-.308.166-.461 0-.154-.166-.308-.166-.461l-120.642-91.75c-.165-.153-.496-.153-.662 0-.165.154-.33.462-.33.615l45.343 169.974c.166.461.331.615.662.615-.165 0 0 0 0 0zm74.305-78.84l-73.974 76.996-44.682-167.361L356.69 335.81z"/>
                <path d="M357.518 336.426h.165c.166 0 .331-.153.497-.307l17.376-48.871c.166-.308 0-.615-.33-.769l-137.854-42.724c-.33-.154-.662 0-.662.307-.165.308 0 .615.166.769l120.642 91.749c-.166-.307-.166-.154 0-.154zm16.549-49.178l-16.88 47.641-117.333-89.136 134.213 41.495zM222.809 752.908h.331l314.43-130.323c.331-.154.331-.308.331-.615s-.33-.461-.496-.461l-315.589-33.503c-.165 0-.33 0-.496.154-.166.153-.166.307-.166.46l.993 163.827c0 .154.166.308.331.461 0-.153.166 0 .331 0zm312.114-130.63L223.305 751.37l-.992-162.29 312.61 33.196z"/>
                <path d="M537.24 622.585s.165 0 0 0l19.196-4.303c.166 0 .331-.154.497-.308l27.802-61.934c.166-.308 0-.615-.33-.769-.332-.153-.663 0-.828.154l-46.834 66.238a.443.443 0 0 0 0 .614c.166.308.331.308.496.308zm18.7-5.38l-17.211 3.843 42.365-59.783-25.154 55.94zM106.47 408.504c.165 0 .33-.154.496-.308l130.406-163.672c.166-.154.166-.462 0-.769-.165-.154-.496-.307-.827-.154L64.932 338.117c-.331.153-.331.46-.166.768l41.042 69.311c.165.154.33.308.662.308-.166 0-.166 0 0 0zM234.559 246.06l-128.09 160.753-40.379-68.082 168.469-92.67z"/>
                <path d="M282.385 414.651c.166 0 .331-.154.497-.154.165-.153.165-.307.165-.46l-45.51-170.128c0-.154-.165-.308-.496-.461-.165 0-.496 0-.662.153L105.808 407.428a.443.443 0 0 0 0 .615c.165.153.33.307.496.307l176.081 6.301zM236.71 245.446l44.848 168.13-173.93-6.148L236.71 245.446zM204.77 758.287h.166l18.039-5.379c.33-.153.496-.307.496-.614l-24.658-127.558c0-.307-.331-.46-.662-.46-.33 0-.496.307-.496.614l6.62 132.936c0 .154.165.308.33.461-.165-.153 0 0 .166 0zm17.212-6.454l-16.715 4.917-6.123-123.407 22.838 118.49z"/>
                <path d="M222.809 752.908c.331 0 .662-.307.662-.614l-.993-163.827c0-.307-.165-.461-.496-.615-.331 0-.497 0-.662.308l-23.5 36.269c0 .154-.165.307 0 .461l24.658 127.557c-.33.154 0 .461.331.461zm-1.655-162.443l.993 155.066-23.334-120.795 22.341-34.271z"/>
                <path d="M198.151 625.197c.166 0 .497-.153.497-.307l23.5-36.27a.443.443 0 0 0 0-.614c-.166-.154-.332-.307-.497-.307l-39.056 1.23c-.165 0-.331.153-.496.306-.166.154-.166.308 0 .461l15.556 34.887c0 .46.165.614.496.614zm22.507-36.115l-22.341 34.271-14.729-33.042 37.07-1.23zM68.076 451.228c.166 0 .331 0 .497-.154L106.8 408.35c.165-.154.165-.307.165-.461 0-.154-.165-.307-.33-.461L16.94 355.483c-.166-.154-.497-.154-.828 0-.165.154-.33.461-.165.615l51.302 94.669c.33.307.662.46.827.46zm37.4-43.185L68.243 449.69l-49.978-92.056 87.213 50.408z"/>
                <path d="M106.47 408.504c.165 0 .33 0 .496-.154.166-.154.331-.461.166-.768L66.09 338.27c-.165-.307-.496-.307-.827-.307L16.774 355.33c-.165.154-.33.308-.33.461 0 .154.165.461.33.615l89.696 51.945c-.331.154-.166.154 0 .154zm-41.373-69.158l39.718 66.852-86.551-50.1 46.833-16.752z"/>
                <path d="M156.779 465.828c.165 0 .496-.154.496-.308a.443.443 0 0 0 0-.614l-50.474-57.324c-.166-.154-.331-.154-.497-.154-.165 0-.33 0-.496.154L67.58 450.306c-.166.153-.166.307-.166.614 0 .154.331.308.497.308l88.868 14.6zm-50.31-57.017l48.82 55.634-86.054-14.14 37.235-41.494z"/>
                <path d="M182.595 590.311c.166 0 .331 0 .496-.153l76.457-83.45c.165-.154.165-.308.165-.462 0-.153-.165-.307-.33-.46L157.11 464.751c-.166-.154-.497 0-.662.154-.166.153-.331.307-.166.614L182.1 590.004s.165.307.496.307zm75.463-83.757l-75.132 81.913-25.32-122.332 100.452 40.419z"/>
                <path d="M259.051 506.861h.331c.166 0 .331-.154.331-.307l23.334-92.21c0-.154 0-.461-.165-.615-.166-.154-.497-.154-.662-.154l-125.607 51.023c-.165.154-.33.308-.33.461 0 .154.165.461.33.461l102.273 41.034c0 .307.165.307.165.307zm22.507-91.749l-22.838 90.366-100.286-40.265 123.124-50.1z"/>
                <path d="M156.779 465.828h.33l125.607-51.023c.331-.154.331-.308.331-.615s-.33-.461-.662-.461l-175.915-6.301c-.331 0-.497.154-.497.307-.165.154 0 .461 0 .615l50.31 57.17c.165.154.33.308.496.308zm122.793-51.177l-122.628 49.947-49.316-55.94 171.944 5.993z"/>
            </g>
            <path d="M239.193 858.95c.33 0 .496-.154.661-.461l75.464-222.841c0-.308 0-.461-.331-.615-.166-.154-.497-.154-.828 0L62.78 838.203c-.165.153-.33.46-.165.614 0 .154.331.308.496.461l176.082 19.672c-.166 0-.166 0 0 0zm74.139-221.765L238.696 857.72 64.601 838.203l248.73-201.018z"/>
            <path d="M283.213 862.792c.33 0 .496-.154.662-.461l31.277-226.683c0-.308-.165-.615-.496-.615-.331 0-.662.154-.662.461L238.53 858.335v.461c.165.154.33.308.496.308l44.186 3.688zM313 641.795l-30.285 219.767-42.696-3.688L313 641.795z"/>
            <path d="M283.213 862.792c.165 0 .33 0 .496-.154l139.674-149.995c.165-.153.165-.307.165-.46 0-.155-.165-.308-.165-.462l-108.396-76.688c-.166-.154-.331-.154-.662 0-.166.154-.331.307-.331.461l-31.278 226.53v.307c-.165.154.166.46.497.46zm138.68-150.61L284.04 860.333l30.947-223.763 106.906 75.612z"/>
            <path d="M314.49 636.109l149.934-6.301c.331 0 .496-.154.496-.461 0-.308 0-.461-.33-.615l-116.67-69.157c-.166-.154-.332-.154-.497 0-.166 0-.331.153-.331.307l-33.264 75.458v.615c.331 0 .497.154.662.154zm147.948-7.377l-146.955 6.147 32.602-73.921 114.353 67.774z"/>
            <path d="M422.886 712.797c.331 0 .497-.154.497-.307l41.537-82.99c.166-.153 0-.46 0-.614-.165-.154-.33-.308-.496-.308l-149.768 6.301c-.331 0-.497.154-.497.461 0 .308 0 .462.166.615l108.396 76.688c-.166 0 0 .154.165.154zm40.545-82.99l-40.71 81.453-106.41-75.305 147.12-6.147z"/>
            <path d="M63.111 839.278c.166 0 .331 0 .497-.153l251.379-203.17c.165-.153.33-.46.165-.615l-63.217-156.757c-.165-.153-.33-.307-.496-.307-.166 0-.497.154-.662.307L62.78 838.51c-.165.154-.165.307-.165.461-.166 0 .165.307.496.307zM313.828 635.34L65.098 836.358 251.272 480.12l62.555 155.22z"/>
            <path d="M314.49 636.109c.331 0 .497-.154.497-.307l33.263-75.459c.166-.154 0-.461-.165-.615l-96.48-81.452c-.166-.154-.497-.154-.828 0-.166.154-.331.461-.166.615l63.217 156.757c.166.307.331.46.662.46zm32.602-75.92l-32.436 73.615-61.728-153.223 94.164 79.608z"/>
            <path d="M347.754 560.65c.165 0 .33 0 .33-.153.166-.154.332-.461.166-.769l-80.593-128.48c-.166-.153-.331-.306-.662-.306-.166 0-.497.153-.497.46l-15.887 47.028c0 .153 0 .46.166.614l96.48 81.453c.166.153.331.153.497.153zm-80.428-127.557l77.78 124.023-93.17-78.686 15.39-45.337zM538.563 754.445c.166 0 .331 0 .497-.154a.443.443 0 0 0 0-.614l-74.14-124.638c-.165-.153-.33-.307-.496-.307-.165 0-.496.154-.496.307l-41.538 82.99v.46c0 .154.165.308.33.308l115.678 41.648c0-.154 0 0 .165 0zm-74.139-124.022l72.65 122.332-113.36-40.88 40.71-81.452z"/>
            <path d="M538.563 754.445c.166 0 .166 0 .331-.154L719.61 652.092c.166-.154.331-.307.331-.615 0-.307-.33-.46-.496-.46L464.59 628.577c-.166 0-.497.154-.497.308a.443.443 0 0 0 0 .615l74.14 124.637c-.166 0 0 .153.33.307-.165-.154-.165 0 0 0zm178.73-102.353l-178.564 100.97-73.312-123.1 251.875 22.13zM63.111 839.278c.166 0 .497-.153.497-.307l188.327-360.08v-.461c0-.154-.165-.308-.33-.308L25.38 405.737c-.166 0-.497 0-.662.154-.166.154-.331.307-.166.461l38.063 432.465c0 .154.165.308.496.461zm187.335-360.234L63.608 836.512 25.71 407.121l224.735 71.923z"/>
            <path d="M719.113 652.246h.165c.331-.154.497-.308.331-.615l-53.122-246.508c0-.308-.331-.461-.662-.461l-113.857 17.52c-.165 0-.33.153-.496.307-.166.154 0 .461 0 .615l167.144 228.834c.166.154.331.308.497.308zM665.66 405.737l52.294 243.128-164.827-225.761 112.533-17.367z"/>
            <path d="M719.113 652.246c.165 0 .496-.154.496-.308a.443.443 0 0 0 0-.614L552.63 422.489c-.165-.154-.33-.307-.662-.307-.165 0-.496.153-.496.307l-87.71 206.397v.46c.166.155.331.308.497.308l254.854 22.592zm-166.814-228.22l165.655 226.99-252.703-22.284L552.3 424.026zM25.049 406.813h.165c.331 0 .497-.307.497-.46l.662-23.822c0-.307-.166-.46-.497-.614L1.384 374.54c-.331 0-.497 0-.662.153a.443.443 0 0 0 0 .615l23.83 31.198c.166.154.331.307.497.307zm0-23.974l-.662 21.669-21.68-28.431 22.342 6.762z"/>
            <path d="M212.052 434.937c.331 0 .497-.153.662-.46 0-.308-.165-.615-.496-.615L26.042 381.917c-.166 0-.331 0-.497.153-.165.154-.33.308-.33.461l-.663 23.821c0 .308.166.615.497.615l187.003 27.97c-.165 0-.165 0 0 0zm-185.68-51.791l176.413 49.332-177.074-26.74.662-22.592z"/>
            <path d="M251.273 479.198c.166 0 .331-.154.497-.307.165-.154.165-.461 0-.769l-39.387-44.26c-.165-.154-.165-.154-.33-.154L25.048 405.584c-.331 0-.662.153-.662.46 0 .308.165.616.33.616l226.225 72.384c.166.154.331.154.331.154zm-39.552-44.26l37.732 42.57-217.288-69.619 179.556 27.048z"/>
            <path d="M251.273 479.198s.166 0 0 0c.331 0 .497-.154.662-.46l15.887-47.028c0-.154 0-.307-.165-.461-.166-.154-.331-.307-.497-.154l-55.108 2.767c-.165 0-.496.153-.496.307-.166.154 0 .46.165.615l39.056 44.26c.165.154.33.154.496.154zm15.06-46.873l-15.225 45.183-37.732-42.57 52.957-2.613zM552.134 423.411c.165 0 .33 0 .33-.154l111.872-83.296c.165-.154.33-.461.165-.615-.165-.307-.33-.307-.662-.307L510.265 357.48c-.166 0-.331.154-.497.307-.165.154 0 .308 0 .615l41.704 64.7c.165.154.33.308.662.308-.166 0-.166 0 0 0zm109.72-82.989l-109.555 81.452-40.876-63.471 150.43-17.981z"/>
            <path d="M552.134 423.411l114.187-17.674c.331 0 .497-.307.497-.614L664.5 339.5c0-.154-.165-.461-.33-.461-.166-.154-.497 0-.663 0l-111.705 83.143c-.166.153-.331.307-.331.46 0 .462.165.769.662.769zm113.36-18.75L554.45 421.875l109.058-81.145 1.986 63.933z"/>
            <path d="M450.357 457.529h.166l101.61-34.118c.166 0 .332-.154.332-.307v-.461l-41.704-64.701c-.165-.154-.33-.307-.496-.307-.166 0-.497.153-.497.307l-59.907 98.972a.443.443 0 0 0 0 .615h.496zm100.784-35.04l-99.46 33.35 58.584-96.668 40.876 63.318z"/>
            <path d="M347.754 560.65c.165 0 .33 0 .496-.153l102.604-103.122c.165-.154.165-.307.165-.615 0-.153-.33-.307-.496-.307l-183.197-25.358c-.166 0-.497 0-.662.308a.443.443 0 0 0 0 .614l80.593 128.48s.166.153.497.153zm101.445-103.275l-101.28 101.738-79.6-126.788 180.88 25.05z"/>
            <path d="M464.424 629.808c.166 0 .166 0 .331-.154.165-.153.331-.307.331-.615L451.185 456.76c0-.153-.166-.46-.497-.46-.165 0-.496 0-.662.153L347.423 559.575c-.166.153-.166.307-.166.46 0 .154.166.308.331.462l116.67 69.157c-.165.154 0 .154.166.154zm-14.563-171.51l13.736 169.82-114.85-68.082L449.86 458.297z"/>
            <path d="M464.424 629.808c.331 0 .496-.154.496-.307l87.71-206.397c.166-.154 0-.461-.165-.615-.166-.154-.497-.154-.662-.154l-101.611 34.118c-.331.154-.497.307-.331.615l13.901 172.279c0 .154.166.307.662.46-.165 0-.165 0 0 0zm86.551-206.09l-86.22 202.863-13.736-169.206 99.956-33.657z"/>
        </g>
    </g>
</svg>
