<svg xmlns="http://www.w3.org/2000/svg" width="134" height="171" viewBox="0 0 134 171">
    <defs>
        <filter id="a" width="141.8%" height="132.7%" x="-20.9%" y="-11.7%" filterUnits="objectBoundingBox">
            <feOffset dy="8" in="SourceAlpha" result="shadowOffsetOuter1"/>
            <feGaussianBlur in="shadowOffsetOuter1" result="shadowBlurOuter1" stdDeviation="8"/>
            <feColorMatrix in="shadowBlurOuter1" result="shadowMatrixOuter1" values="0 0 0 0 0 0 0 0 0 0 0 0 0 0 0 0 0 0 0.3 0"/>
            <feMerge>
                <feMergeNode in="shadowMatrixOuter1"/>
                <feMergeNode in="SourceGraphic"/>
            </feMerge>
        </filter>
        <radialGradient id="b" fx="50%" fy="50%" gradientTransform="matrix(0 .98613 -1 0 1 .007)">
            <stop offset="0%" stop-color="#F5515F"/>
            <stop offset="100%" stop-color="#9F041B"/>
        </radialGradient>
        <radialGradient id="c" r="84.627%" fx="50%" fy="50%" gradientTransform="matrix(0 .98613 -1 0 1 .007)">
            <stop offset="0%" stop-color="#F5515F"/>
            <stop offset="100%" stop-color="#9F041B"/>
        </radialGradient>
    </defs>
    <g fill="none" fill-rule="evenodd" filter="url(#a)">
        <path fill="#FFF" d="M19.488 125.694h4.29c.942 0 1.743.144 2.406.432.662.288 1.204.672 1.627 1.152.422.48.725 1.032.907 1.656.182.624.274 1.272.274 1.944v.75c0 .556-.044 1.026-.13 1.41-.086.384-.216.72-.389 1.008a3.234 3.234 0 0 1-.633.764c-.25.22-.538.427-.864.619.69.326 1.2.811 1.526 1.454.326.643.49 1.503.49 2.578v1.152c0 1.805-.437 3.187-1.31 4.147-.874.96-2.271 1.44-4.191 1.44h-4.003v-20.506zm2.937 17.568h1.267c.596 0 1.061-.086 1.397-.259.336-.173.59-.413.763-.72a2.71 2.71 0 0 0 .317-1.094c.039-.423.058-.883.058-1.383 0-.518-.029-.97-.087-1.353-.057-.384-.177-.706-.36-.965a1.695 1.695 0 0 0-.763-.59c-.326-.135-.758-.202-1.296-.202h-1.296v6.566zm0-9.158h1.325c.98 0 1.637-.245 1.973-.734.336-.49.504-1.205.504-2.146 0-.922-.187-1.613-.562-2.074-.374-.46-1.051-.69-2.03-.69h-1.21v5.644zm11.118-8.41h2.937V146.2h-2.937v-20.506zm9.418 2.765h-3.398v-2.765h9.734v2.765H45.9V146.2H42.96v-17.74zm9.332-2.765H56.7c.806 0 1.516.106 2.13.317.615.211 1.172.586 1.671 1.123.5.538.845 1.167 1.037 1.887.192.72.288 1.694.288 2.923 0 .902-.053 1.675-.158 2.318a4.88 4.88 0 0 1-.677 1.8 4.288 4.288 0 0 1-1.613 1.57c-.672.374-1.555.562-2.65.562h-1.497v8.006h-2.938v-20.506zm2.938 9.735h1.411c.595 0 1.056-.087 1.382-.26a1.65 1.65 0 0 0 .72-.705c.154-.298.245-.658.274-1.08.029-.422.043-.893.043-1.411 0-.48-.014-.936-.043-1.368a3.222 3.222 0 0 0-.26-1.123 1.647 1.647 0 0 0-.676-.75c-.307-.182-.749-.273-1.325-.273h-1.526v6.97zm10.311-4.896c0-.826.144-1.555.432-2.189a4.566 4.566 0 0 1 1.138-1.57c.47-.412.998-.724 1.584-.936a5.188 5.188 0 0 1 1.77-.316c.596 0 1.186.105 1.772.316a4.904 4.904 0 0 1 1.584.936c.47.413.85.936 1.138 1.57.288.634.432 1.363.432 2.189v10.829c0 .844-.144 1.579-.432 2.203a4.6 4.6 0 0 1-1.138 1.555c-.47.413-.998.725-1.584.936a5.188 5.188 0 0 1-1.771.317 5.188 5.188 0 0 1-1.771-.317 4.904 4.904 0 0 1-1.584-.936 4.6 4.6 0 0 1-1.138-1.555c-.288-.624-.432-1.359-.432-2.203v-10.83zm2.938 10.829c0 .71.196 1.233.59 1.57.394.335.86.503 1.397.503s1.003-.168 1.397-.504c.393-.336.59-.859.59-1.57v-10.828c0-.71-.197-1.234-.59-1.57a2.082 2.082 0 0 0-1.397-.504c-.538 0-1.003.168-1.397.504-.394.336-.59.86-.59 1.57v10.829zm11.204-15.668h2.937v9.36h.058l4.291-9.36h2.938l-4.004 8.208 4.752 12.298h-3.11l-3.34-9.1-1.585 2.966v6.134h-2.937v-20.506zm13.968 0h8.756v2.765H96.59v6.02h5.069v2.764H96.59v6.02h5.818v2.937h-8.756v-20.506zm15.294 9.159h1.67c.519 0 .932-.072 1.239-.216a1.59 1.59 0 0 0 .705-.62c.164-.268.274-.6.332-.993.057-.394.086-.85.086-1.368 0-.518-.029-.974-.086-1.368a2.468 2.468 0 0 0-.36-1.008 1.627 1.627 0 0 0-.764-.62c-.326-.134-.758-.2-1.296-.2h-1.526v6.393zm-2.938-9.159h4.724c3.456 0 5.184 2.007 5.184 6.02 0 1.19-.188 2.212-.562 3.067-.374.854-1.032 1.54-1.973 2.059l3.168 9.36h-3.11l-2.736-8.755h-1.757v8.755h-2.938v-20.506z"/>
        <g fill-rule="nonzero">
            <g transform="translate(16 7)">
                <ellipse cx="51" cy="51.2" fill="#FFF" rx="49.406" ry="49.6"/>
                <path fill="url(#b)" d="M101.77 52.127c0 28.434-22.731 51.484-50.77 51.484-28.04 0-50.77-23.05-50.77-51.484S22.96.643 51 .643c28.039 0 50.77 23.05 50.77 51.484zM59.146 98.875l-1.397-8.063c-3.204.57-6.54.73-9.802.473l-.627 8.162a46.576 46.576 0 0 0 11.825-.573zM45.017 90.94a33.478 33.478 0 0 1-.723-.12l-1.393 8.063c.294.051.588.102.884.148l1.232-8.09zm18.474 6.942l-2.148-7.89c-.94.262-1.906.493-2.87.683l1.55 8.034a45.768 45.768 0 0 0 3.468-.827zm-28.56-10.005a38.004 38.004 0 0 1-2.636-1.346l-3.903 7.166a46.455 46.455 0 0 0 3.185 1.626l3.354-7.446zm-3.278-1.714a39.033 39.033 0 0 1-7.806-6.023l-5.66 5.836c2.829 2.821 6 5.269 9.427 7.277l4.039-7.09zm43.536 6.607l-4.179-7.003c-.21.129-.421.255-.633.38l4.048 7.082c.255-.15.51-.303.764-.459zm11.67-10.136l-6.182-5.264a39.194 39.194 0 0 1-7.204 6.752l4.69 6.664a47.3 47.3 0 0 0 8.696-8.152zm-65.037-4.672c-.16-.188-.321-.376-.479-.567l-6.18 5.267c.191.231.385.46.58.686l6.079-5.386zm67.737 1.08l-6.646-4.648a39.356 39.356 0 0 1-1.766 2.398l6.28 5.143a47.878 47.878 0 0 0 2.132-2.893zM16.029 69.04a39.76 39.76 0 0 1-1.167-2.74l-7.528 2.954a48.235 48.235 0 0 0 1.411 3.315l7.285-3.529zm-1.426-3.44a39.509 39.509 0 0 1-2.16-9.693l-8.035.776A47.832 47.832 0 0 0 7.02 68.406l7.582-2.807zm80.692 1.906l-7.64-2.65c-.078.237-.16.473-.245.708l7.586 2.799c.102-.285.201-.57.299-.857zm2.322-15.378v-.652H89.33v.652c0 3.344-.209 6.662-1.026 9.866l7.814 2.05a48.279 48.279 0 0 0 1.5-11.916zm-85.342.791a45.012 45.012 0 0 1-.009-.748l-8.072.009c0 .301.003.603.01.902l8.07-.163zm85.201-2.275a48.637 48.637 0 0 0-.207-3.603l-8.035.785c.093.988.151 1.994.172 2.987l8.07-.169zM14.33 39.44l-7.64-2.642a47.465 47.465 0 0 0-1.02 3.464l7.817 2.04a39.18 39.18 0 0 1 .843-2.862zm4.733-9.545l-6.65-4.64a47.612 47.612 0 0 0-5.427 10.686l7.59 2.791a39.398 39.398 0 0 1 4.487-8.837zm75.9 5.908a45.797 45.797 0 0 0-.315-.847l-7.527 2.959c.09.232.176.464.26.698l7.582-2.81zm-1.73-4.163a47.597 47.597 0 0 0-6.43-10.088l-6.172 5.276a39.398 39.398 0 0 1 5.323 8.35l7.28-3.538zm-71.937-4.722L15.11 21.66c-.192.231-.38.465-.567.7l6.284 5.137c.154-.194.31-.387.469-.578zm64.927-6.05a48.491 48.491 0 0 0-2.446-2.626l-5.653 5.844c.7.695 1.38 1.427 2.026 2.175l6.073-5.394zm-55.27-2.357l-4.185-7c-1.01.62-2.01 1.29-2.973 1.987l4.696 6.658a39.213 39.213 0 0 1 2.463-1.645zm9.665-4.237l-2.16-7.887a46.258 46.258 0 0 0-10.924 4.663l4.053 7.08a38.253 38.253 0 0 1 9.03-3.856zm33.725-3.296c-.258-.15-.517-.299-.778-.445l-3.897 7.17c.215.12.43.242.643.368l4.032-7.093zm-3.965-2.069a46.048 46.048 0 0 0-11.33-3.547l-1.38 8.066a38.083 38.083 0 0 1 9.364 2.932l3.346-7.45zM44.21 13.45l-1.404-8.061c-.293.053-.586.108-.877.166l1.557 8.032c.24-.047.482-.092.724-.136zm13.958-8.233a46.933 46.933 0 0 0-3.538-.413l-.619 8.162a38.47 38.47 0 0 1 2.93.342l1.227-8.091zM51 17.623c-18.792 0-34.025 15.448-34.025 34.504 0 19.057 15.233 34.505 34.025 34.505 18.792 0 34.026-15.448 34.026-34.505 0-19.056-15.234-34.504-34.026-34.504zm35.236 34.504c0-19.702-15.806-35.732-35.236-35.732-19.429 0-35.236 16.03-35.236 35.732C15.764 71.83 31.57 87.86 51 87.86c19.43 0 35.236-16.029 35.236-35.732zm-2.42 0c0 18.348-14.722 33.277-32.816 33.277-18.095 0-32.815-14.929-32.815-33.277S32.905 18.851 51 18.851c18.094 0 32.815 14.928 32.815 33.276z"/>
                <ellipse cx="51" cy="52.127" fill="url(#c)" rx="30.014" ry="30.436"/>
            </g>
            <path fill="#FFF" d="M81.517 53.853c.384-4.59-3.2-6.797-7.989-8.104l1.127-6.26-3.77-.678-1.098 6.094a159.24 159.24 0 0 0-3.018-.502l1.105-6.135-3.769-.679-1.127 6.258c-.82-.13-1.624-.26-2.406-.4l.003-.02-5.2-.938-.732 4.07s2.794.447 2.739.49c1.527.276 1.863 1.261 1.868 2.06l-1.283 7.131c.105.02.242.049.394.099-.126-.023-.26-.048-.399-.071l-1.799 9.988c-.154.474-.577 1.198-1.644 1.007.04.052-2.74-.494-2.74-.494l-1.57 4.415 4.907.884c.913.166 1.809.343 2.69.507l-1.138 6.331 3.766.68 1.128-6.264c1.03.208 2.03.396 3.007.571l-1.125 6.235 3.772.678 1.138-6.318c6.406.774 11.133-.041 12.767-5.957 1.317-4.763-.549-7.33-3.99-8.852 2.388-.73 4.112-2.466 4.386-5.826zm-7.712 12.585c-.849 4.732-8.77 2.75-11.325 2.292l1.51-8.387c2.557.46 10.704 1.161 9.815 6.095zm.377-12.149c-.776 4.304-7.372 2.598-9.5 2.215l1.37-7.607c2.128.383 8.938.903 8.13 5.392z"/>
        </g>
    </g>
</svg>
