<svg xmlns="http://www.w3.org/2000/svg" xmlns:xlink="http://www.w3.org/1999/xlink" width="79" height="79" viewBox="0 0 79 79">
    <defs>
        <circle id="a" cx="37.5" cy="37.5" r="37.5"/>
    </defs>
    <g fill="none" fill-rule="evenodd" transform="translate(2 2)">
        <mask id="b" fill="#fff">
            <use xlink:href="#a"/>
        </mask>
        <use fill="#B388FF" xlink:href="#a"/>
        <circle cx="37.5" cy="37.5" r="38.5" stroke="#641C95" stroke-width="2"/>
        <path fill="#641C95" fill-rule="nonzero" d="M65.477 26.64l.008-.009c-3.739-2.94-9.206-7.21-11.519-8.979-2.416-1.848-7.104-3.106-9.295-2.496-.73.204-1.453.954-1.349 1.808.158 1.292 1.945 1.986 5.463 2.12 2.555.098 4.422 1.26 5.306 1.943.778.601 3.662 2.928 5.732 4.604a77.422 77.422 0 0 0-4.9-.157c-1.937 0-3.794.077-5.52.23-2.227.195-4.49.716-6.487 1.173-2.04.468-3.963.91-5.417.91-1.453 0-3.377-.442-5.416-.91-1.997-.458-4.26-.978-6.488-1.174a63.263 63.263 0 0 0-5.52-.23c-1.855 0-3.532.07-4.9.158 2.07-1.676 4.955-4.004 5.732-4.604.884-.684 2.751-1.845 5.307-1.942 3.518-.135 5.304-.829 5.462-2.121.104-.854-.618-1.604-1.35-1.808-2.188-.612-6.879.648-9.294 2.496-2.313 1.769-7.779 6.038-11.518 8.98l.006.008c-.368.3-.576.745-.507 1.471.093.95.399 3.213 1.254 3.717l.118.069c.467.265 1.248.71 1.831 2.839.041.15.082.343.132.569.516 2.377 1.887 8.694 11.366 8.694 7.91 0 10.42-4.887 11.131-6.988.12-.353.228-.716.335-1.078.567-1.922.953-3.01 2.32-3.01 1.368 0 1.753 1.088 2.32 3.01.107.362.214.726.334 1.08.711 2.1 3.222 6.987 11.133 6.987 9.477 0 10.849-6.316 11.365-8.693.05-.226.091-.418.132-.57.583-2.13 1.365-2.573 1.832-2.838l.117-.068c.856-.504 1.162-2.767 1.254-3.717.069-.728-.14-1.173-.51-1.474zm-53.575 3.397c-.647 0-1.014-.328-1.014-.517 0-.19.368-.517 1.014-.517.648 0 1.015.328 1.015.517 0 .19-.367.517-1.015.517zm51.193 0c-.648 0-1.015-.328-1.015-.517 0-.19.368-.517 1.015-.517.648 0 1.015.328 1.015.517 0 .19-.367.517-1.015.517z" mask="url(#b)"/>
        <g mask="url(#b)">
            <path fill="#641C95" fill-rule="nonzero" d="M64.251 49.125l-10.942-2.953a5.012 5.012 0 0 0-6.13 3.525l-5.592 20.719a4.964 4.964 0 0 0 .497 3.792 4.965 4.965 0 0 0 3.028 2.338l10.942 2.953c.423.114.86.172 1.296.172a5.014 5.014 0 0 0 4.834-3.696l5.591-20.72a5.005 5.005 0 0 0-3.524-6.13z"/>
            <path fill="#641C95" fill-rule="nonzero" d="M39.89 74.246c-.57-1.448-.582-3.058-.177-4.56l.302-1.121a4.098 4.098 0 0 1-1.074-.345c-1.321-.656-2.232-1.902-2.485-3.443-.218-1.326.186-2.658.91-3.79 1.298-2.029 3.374-3.925 6.182-5.642l.042-.025 1.658-6.144a6.906 6.906 0 0 1 1.213-2.41l-7.779-.569a4.695 4.695 0 0 0-5.012 4.329l-1.611 22.036a4.689 4.689 0 0 0 4.329 5.012l5.194.38c.471.034.72-.556.357-.858a7.034 7.034 0 0 1-2.049-2.85"/>
            <path fill="#641C95" fill-rule="nonzero" d="M30.064 72.417l.19-2.604-5.286-6.128a1.886 1.886 0 0 1-.118-2.313l4.967-7.103c.368-.527 1.005-.776 1.629-.755l.229-3.134a6.64 6.64 0 0 1 1.02-3.076l-8.172.415a4.684 4.684 0 0 0-4.439 4.915L21.2 74.589c.128 2.514 2.291 4.624 4.807 4.554l.113-.004 5.068-.258a.885.885 0 0 0 .605-1.485 6.652 6.652 0 0 1-1.729-4.979"/>
            <path fill="#641C95" fill-rule="nonzero" d="M19.208 74.802l-.288-5.662c-.126.05-.249.107-.381.145a4.238 4.238 0 0 1-1.166.165h-.001a4.239 4.239 0 0 1-4.056-3.058 4.202 4.202 0 0 1 1.605-4.593 4.039 4.039 0 0 1-.222-.594 4.227 4.227 0 0 1 2.893-5.223 4.11 4.11 0 0 1 .653-.123l-.159-3.124a6.644 6.644 0 0 1 2.835-5.802L11.39 49.67a4.688 4.688 0 0 0-3.208 5.793L14.281 76.7a4.706 4.706 0 0 0 4.507 3.389h.001a4.67 4.67 0 0 0 1.285-.181l1.424-.409a6.66 6.66 0 0 1-2.29-4.697"/>
            <path fill="#FFF" d="M61.278 64.287c-1.662 1.959-4.21 3.591-7.57 4.849l-.671.252-.454-.556c-2.273-2.778-3.653-5.47-4.104-8a4.999 4.999 0 0 1 .89-3.826c.764-1.036 1.871-1.692 3.118-1.847 2.048-.258 3.259.913 3.889 1.846a4.473 4.473 0 0 1 1.926-.462c.854 0 1.65.278 2.367.824 1 .762 1.626 1.886 1.765 3.166a4.994 4.994 0 0 1-1.156 3.754z"/>
        </g>
        <path fill="#FFF" d="M18.25 55.87c-.737 0-1.731.427-2.45 1.12-.719.694-1.27 1.801-1.246 2.704.044 1.646.114 2.745 1.77 2.745.726 0 1.35.025 2.229-.498" mask="url(#b)"/>
        <path fill="#FFF" d="M16.773 61.323c-1.345-.48-3.604 1.524-3.632 3.67-.012.913-.073 2.658 2.571 3.156.696.13.594.896.953 1.121.36.225 1.592.247 2.24-.139l-.347-7.282M40.011 68.594c-.678-.192-1.138-.374-1.38-.546-1.858-1.328-2.332-2.755-2.216-4.397.305-4.322 7.182-8.334 7.182-8.334l-3.586 13.277zM31.442 53.516c-.689-.04-1.158.119-1.407.476a359.324 359.324 0 0 1-5.195 7.26 2 2 0 0 0 .108 2.5l5.307 6.061 1.187-16.297z" mask="url(#b)"/>
    </g>
</svg>
