<?xml version="1.0" encoding="UTF-8"?>
<svg width="18px" height="22px" viewBox="0 0 18 22" version="1.1" xmlns="http://www.w3.org/2000/svg" xmlns:xlink="http://www.w3.org/1999/xlink">
    <!-- Generator: Sketch 46 (44423) - http://www.bohemiancoding.com/sketch -->
    <title>user</title>
    <desc>Created with Sketch.</desc>
    <defs></defs>
    <g id="Webpage" stroke="none" stroke-width="1" fill="none" fill-rule="evenodd">
        <g id="Icns,-imgs" transform="translate(-1099.000000, -259.000000)" fill="#641C95">
            <g id="user" transform="translate(1099.000000, 259.000000)">
                <path d="M15.5495329,16.8816049 C15.5495329,17.9144647 15.5495329,18.9473934 15.5495329,19.9801841 C15.9524704,19.5776807 16.355477,19.1751083 16.7584145,18.7726049 C13.4617599,18.7726049 10.1651053,18.7726049 6.86838158,18.7726049 C4.98183553,18.7726049 3.09535855,18.7726049 1.2088125,18.7726049 C1.61175,19.1751083 2.01475658,19.5776807 2.41769408,19.9801841 C2.41769408,19.3955778 2.41769408,18.8109714 2.41769408,18.2263651 C2.41769408,17.8631943 2.41769408,17.5001615 2.41769408,17.1370597 C2.41769408,17.0577735 2.41769408,16.9784183 2.41769408,16.8992011 C2.41769408,16.8289545 2.41976645,16.7590529 2.42225329,16.6888753 C2.42529276,16.6253221 2.42985197,16.561838 2.43593092,16.4984918 C2.46266447,16.1784488 2.38985526,16.7599499 2.44629276,16.4467384 C2.46825987,16.3248074 2.50024342,16.2050156 2.53353947,16.0859137 C2.55419408,16.0120099 2.73186513,15.5622384 2.60206579,15.8592339 C2.66257895,15.7206728 2.73573355,15.5879771 2.81165132,15.4574205 C2.84909211,15.3929013 3.12748026,15.0048199 2.93046711,15.2575834 C3.09646382,15.0447045 3.29050658,14.855149 3.49553289,14.6802916 C3.59894408,14.5966581 3.58844408,14.6043176 3.46396382,14.7032701 C3.53642763,14.6495156 3.61234539,14.6006604 3.68826316,14.5519432 C3.81536842,14.4702418 3.94958882,14.4004092 4.08505263,14.3337509 C4.20759868,14.2780642 4.19495724,14.2822735 4.04699013,14.3461717 C4.10384211,14.3236762 4.16110855,14.3024918 4.21892763,14.2826875 C4.36426974,14.2309341 4.51403289,14.1929126 4.66427961,14.1585484 C4.72527632,14.1453685 4.78654934,14.1335687 4.84802961,14.123218 C4.53220066,14.1800778 4.84112171,14.1266683 4.90260197,14.1215619 C5.00628947,14.1128674 5.11080592,14.1112803 5.21483882,14.1112803 C5.51712829,14.1112803 5.81934868,14.1112803 6.12163816,14.1112803 C5.8366875,13.9933515 5.55173684,13.8754918 5.26678618,13.7575631 C6.22470395,14.8336886 7.18262171,15.9096762 8.14053947,16.9857328 C8.55895066,17.4557916 9.43238487,17.4590348 9.85017434,16.9857328 C10.8000789,15.9096762 11.7499836,14.8336196 12.6999572,13.7575631 C12.4150066,13.8754918 12.1300559,13.9933515 11.8451053,14.1112803 C12.1532664,14.1112803 12.4614276,14.1112803 12.7695888,14.1112803 C12.8999408,14.1112803 13.0294638,14.1185947 13.1593322,14.1294975 C13.2985954,14.1449545 13.285125,14.1428153 13.1189211,14.1232871 C13.2112105,14.13764 13.3023947,14.1585484 13.3934408,14.1793877 C13.5434112,14.213752 13.6897895,14.2619861 13.8345099,14.3135325 C14.1270592,14.4176604 13.6015757,14.2037463 13.8820362,14.3338199 C13.9643783,14.3720484 14.0439572,14.4157972 14.1234671,14.4594771 C14.2554079,14.5320699 14.3804408,14.6163934 14.5031941,14.7033391 C14.2446316,14.5202011 14.6157928,14.8067079 14.672852,14.8599794 C14.7824112,14.9622441 14.8825066,15.0741694 14.9797697,15.1880269 C15.1783026,15.4201581 14.8319408,14.9805993 15.0089211,15.2299126 C15.0611447,15.3035404 15.1083257,15.3806185 15.1554375,15.4575585 C15.2343947,15.586528 15.3014013,15.7223979 15.365023,15.8593719 C15.2294211,15.5675518 15.4105461,16.0106298 15.4335493,16.0860518 C15.4787961,16.2343425 15.5098816,16.3865665 15.537375,16.5389975 C15.4804539,16.2235088 15.5339901,16.532097 15.539102,16.593511 C15.5472533,16.6892203 15.5483586,16.7854816 15.5495329,16.8816049 C15.5574079,17.5397701 16.0935296,18.0891841 16.7584145,18.0891841 C17.4114868,18.0891841 17.9751711,17.5399081 17.9672961,16.8816049 C17.9456743,15.0700981 17.0191875,13.4428334 15.4992434,12.4664194 C14.7462138,11.9826287 13.8543355,11.7533266 12.9688816,11.7005382 C12.5217336,11.6739024 11.9579803,11.6198029 11.5239572,11.7391117 C11.1004342,11.8555223 10.8670164,12.1895732 10.5953289,12.4973334 C10.267273,12.8689918 9.93914803,13.2405812 9.61109211,13.6122395 C9.12097697,14.1674499 8.63086184,14.7226604 8.14074671,15.2778708 C8.71064803,15.2778708 9.28054934,15.2778708 9.85038158,15.2778708 C9.32558882,14.6883651 8.80086513,14.0988594 8.27614145,13.5094228 C7.9445625,13.1370054 7.61298355,12.7644499 7.28140461,12.3920325 C6.943125,12.0119556 6.66052303,11.6959839 6.0703125,11.6959839 C5.47353947,11.6959839 4.89078947,11.6875653 4.2984375,11.7798244 C3.37899671,11.9228708 2.58099671,12.3512509 1.85580592,12.9156389 C0.620743421,13.8768029 0,15.4695653 0,17.0002237 C0,17.9935438 0,18.986864 0,19.9802531 C0,20.6385563 0.549868421,21.1878323 1.20888158,21.1878323 C4.50553618,21.1878323 7.80219079,21.1878323 11.0989145,21.1878323 C12.9854605,21.1878323 14.8719375,21.1878323 16.7584836,21.1878323 C17.4174967,21.1878323 17.9673651,20.6385563 17.9673651,19.9802531 C17.9673651,18.9473934 17.9673651,17.9144647 17.9673651,16.8816739 C17.9673651,16.2233708 17.4174967,15.6740947 16.7584836,15.6740947 C16.0994704,15.6740947 15.5495329,16.2233018 15.5495329,16.8816049 Z" id="Shape" fill-rule="nonzero"></path>
                <path d="M11.6534803,5.07506872 C11.6517533,5.2424047 11.6415987,5.40822257 11.6239836,5.57459248 C11.6601118,5.23205402 11.6277138,5.52925651 11.6159013,5.59694995 C11.6005658,5.68451669 11.5810164,5.77118637 11.5615362,5.85785605 C11.5216086,6.03533569 11.4694539,6.20998615 11.4138454,6.38304949 C11.385523,6.47116827 11.3534704,6.55804497 11.3214178,6.64492167 C11.2995197,6.70302348 11.2767237,6.76084927 11.2531678,6.81833004 C11.3148553,6.67362755 11.318102,6.66341488 11.2631842,6.78755402 C11.1090691,7.12919542 10.9195855,7.45420673 10.709102,7.76403705 C10.6802961,7.80640583 10.4920559,8.0576513 10.6788454,7.81682551 C10.6228914,7.88893524 10.5635526,7.95821578 10.5040757,8.02742732 C10.3684046,8.18537868 10.2194704,8.33125425 10.0647336,8.47036737 C10.0201086,8.510459 9.78530921,8.69276895 10.0401414,8.49962529 C9.97244408,8.55096465 9.90136184,8.59768072 9.83027961,8.64425877 C9.76030263,8.69007777 9.68721711,8.73072144 9.61413158,8.7712271 C9.55520724,8.80393524 9.2938125,8.92062189 9.60577303,8.78930628 C9.45670066,8.85203139 9.30044408,8.89509022 9.14280592,8.9299375 C8.86566118,8.99121352 9.42893092,8.90592393 9.14556908,8.93028253 C9.03780592,8.93959814 8.92955921,8.93587189 8.82172697,8.93028253 C8.53774342,8.91565357 9.10329276,8.98224293 8.82455921,8.9299375 C8.74539474,8.91510153 8.66795724,8.89274406 8.59065789,8.87052461 C8.51280592,8.84809814 8.43709539,8.8186332 8.36159211,8.78930628 C8.673,8.9100642 8.41602632,8.80393524 8.35323355,8.7712271 C8.20367763,8.69332099 8.06365461,8.59830176 7.92729276,8.49962529 C8.18454276,8.68573049 7.94946711,8.51080402 7.90270066,8.47036737 C7.8133125,8.39328931 7.72945066,8.30993185 7.64641776,8.22616035 C7.51875987,8.09732891 7.40194737,7.95814678 7.28858882,7.81682551 C7.47869408,8.05385605 7.28824342,7.80675085 7.25833224,7.76403705 C7.20472697,7.68778705 7.15471382,7.60905289 7.10470066,7.53038773 C7.00391447,7.37209135 6.91376645,7.20723954 6.82714145,7.04086963 C6.78375987,6.95758117 6.74397039,6.87256759 6.70418092,6.78748501 C6.64919408,6.66334587 6.65244079,6.67362755 6.71412829,6.81826103 C6.69057237,6.76078026 6.66784539,6.70295447 6.64587829,6.64485266 C6.51518092,6.30562642 6.41978289,5.95349633 6.35139474,5.59681194 C6.33868421,5.5306366 6.30089803,5.23081194 6.34324342,5.57445447 C6.33288158,5.49054497 6.32700987,5.40622144 6.32120724,5.32189791 C6.30676974,5.11143411 6.31450658,4.90055628 6.33260526,4.69064452 C6.30538816,5.0061332 6.33343421,4.69871805 6.34476316,4.63799406 C6.36182566,4.54635605 6.38545066,4.45602913 6.40914474,4.36590922 C6.4325625,4.27654836 6.46247368,4.18905063 6.49231579,4.10162189 C6.59282566,3.80711058 6.38172039,4.33320108 6.50924013,4.05104158 C6.58412171,3.88529271 6.67634211,3.72796239 6.77367434,3.57470334 C6.8026875,3.52895334 6.98450329,3.28177913 6.79577961,3.52564112 C6.86941776,3.43048388 6.95065461,3.34146805 7.03272039,3.25362529 C7.15595724,3.12161963 7.29259539,3.00293185 7.43275658,2.8894194 C7.19464145,3.08228705 7.43517434,2.898459 7.48180263,2.86740696 C7.55730592,2.81710266 7.63626316,2.77204271 7.71508224,2.72718977 C7.79424671,2.68212981 7.87651974,2.64265922 7.95865461,2.60325764 C8.23828618,2.46925085 7.71701645,2.69379158 8.00928947,2.58635153 C8.21321053,2.51141262 8.42535197,2.46138434 8.63866776,2.42184474 C8.77606579,2.40017732 8.76280263,2.40176443 8.59887829,2.42681307 C8.66243092,2.42060266 8.72619079,2.41591035 8.79001974,2.41273615 C8.91892105,2.40486963 9.04823684,2.40804384 9.17720724,2.41273615 C9.24103618,2.41591035 9.30472697,2.42060266 9.36834868,2.42681307 C9.20442434,2.40176443 9.19116118,2.40010832 9.32862829,2.42184474 C9.45172697,2.44158004 9.57289145,2.47173501 9.69343421,2.50333909 C9.81259539,2.53452913 9.92892434,2.57565583 10.0444243,2.61809361 C9.74420724,2.50775538 10.1127434,2.65383796 10.1722204,2.68406194 C10.2801908,2.73898954 10.3833947,2.80268072 10.4855625,2.86740696 C10.5361974,2.90025311 10.5860033,2.93434135 10.6350493,2.96946465 C10.3862961,2.79522823 10.6291776,2.96684248 10.6736645,3.00465696 C10.8572763,3.16053818 11.0201645,3.33912189 11.1715855,3.52571013 C10.9709112,3.27846691 11.2083355,3.59788886 11.2422533,3.65122936 C11.3071875,3.75356307 11.3635559,3.86100311 11.4186118,3.96892619 C11.4456217,4.02343977 11.4713191,4.07864339 11.4957039,4.13433004 C11.4333947,3.98631533 11.4264868,3.97548162 11.4749803,4.1016909 C11.5176711,4.21748049 11.5504145,4.3365823 11.5817072,4.45589112 C11.6134145,4.57685605 11.6348289,4.70016714 11.6545855,4.82347823 C11.6019474,4.49612076 11.6524441,4.99440244 11.6534803,5.07506872 C11.6615625,5.73323388 12.1972697,6.28264791 12.8623618,6.28264791 C13.515227,6.28264791 14.0793257,5.73337189 14.0712434,5.07506872 C14.0484474,3.21843298 13.0365789,1.48455628 11.3924309,0.598607186 C9.7505625,-0.286099827 7.64448355,-0.189493493 6.11203618,0.884078906 C4.60659868,1.93874406 3.73123026,3.73293072 3.92548026,5.57466148 C4.10619079,7.28831986 4.90011513,9.01598615 6.19306579,10.1782294 C6.95590461,10.8639963 7.87140789,11.2963787 8.90248026,11.3496502 C9.95690132,11.4040947 10.9226941,10.8854567 11.7081217,10.2353651 C13.1603684,9.03337529 14.0522467,6.93929497 14.0712434,5.07520673 C14.0779441,4.41690357 13.5162632,3.86762755 12.8623618,3.86762755 C12.1982368,3.86748954 11.6601809,4.41690357 11.6534803,5.07506872 Z" id="Shape" fill-rule="nonzero"></path>
                <polygon id="Path-8" points="2.35172972 14.8087115 2.35172972 19.0463435 15.6246249 19.0463435 15.6246249 14.8087115 12.9749201 13.4087141 9.62115482 16.9441812 8.3733429 16.9441812 5.66000189 13.4087141"></polygon>
                <polygon id="Path-9" points="6.10735113 2.23364859 6.10735113 8.57858804 8.17160248 9.57808321 10.0893551 9.57808321 11.8189069 8.57858804 11.8189069 2.23364859"></polygon>
            </g>
        </g>
    </g>
</svg>