<svg xmlns="http://www.w3.org/2000/svg" xmlns:xlink="http://www.w3.org/1999/xlink" width="604" height="484" viewBox="0 0 604 484">
    <defs>
        <linearGradient id="c" x1="21.178%" x2="57.672%" y1="14.276%" y2="56.703%">
            <stop offset="0%" stop-color="#FAD961"/>
            <stop offset="100%" stop-color="#F76B1C"/>
        </linearGradient>
        <path id="b" d="M296 48.04l186.483 114v228L296 504.04l-166.483-114v-228z"/>
        <filter id="a" width="107.2%" height="105.6%" x="-3.6%" y="-2.8%" filterUnits="objectBoundingBox">
            <feMorphology in="SourceAlpha" operator="dilate" radius=".75" result="shadowSpreadOuter1"/>
            <feOffset in="shadowSpreadOuter1" result="shadowOffsetOuter1"/>
            <feMorphology in="SourceAlpha" radius="1" result="shadowInner"/>
            <feOffset in="shadowInner" result="shadowInner"/>
            <feComposite in="shadowOffsetOuter1" in2="shadowInner" operator="out" result="shadowOffsetOuter1"/>
            <feGaussianBlur in="shadowOffsetOuter1" result="shadowBlurOuter1" stdDeviation="4"/>
            <feColorMatrix in="shadowBlurOuter1" values="0 0 0 0 0.980392157 0 0 0 0 0.811764706 0 0 0 0 0.356862745 0 0 0 0.5 0"/>
        </filter>
        <path id="e" d="M78.177 265.75h456.18"/>
        <filter id="d" width="105.6%" height="1800%" x="-2.8%" y="-850%" filterUnits="objectBoundingBox">
            <feMorphology in="SourceAlpha" operator="dilate" radius=".75" result="shadowSpreadOuter1"/>
            <feOffset in="shadowSpreadOuter1" result="shadowOffsetOuter1"/>
            <feMorphology in="SourceAlpha" radius="1" result="shadowInner"/>
            <feOffset in="shadowInner" result="shadowInner"/>
            <feComposite in="shadowOffsetOuter1" in2="shadowInner" operator="out" result="shadowOffsetOuter1"/>
            <feGaussianBlur in="shadowOffsetOuter1" result="shadowBlurOuter1" stdDeviation="4"/>
            <feColorMatrix in="shadowBlurOuter1" values="0 0 0 0 0.980392157 0 0 0 0 0.811764706 0 0 0 0 0.356862745 0 0 0 0.5 0"/>
        </filter>
        <path id="g" d="M192.58 99l227.646 352.947"/>
        <filter id="f" width="111.2%" height="107.2%" x="-5.6%" y="-3.6%" filterUnits="objectBoundingBox">
            <feMorphology in="SourceAlpha" operator="dilate" radius=".75" result="shadowSpreadOuter1"/>
            <feOffset in="shadowSpreadOuter1" result="shadowOffsetOuter1"/>
            <feMorphology in="SourceAlpha" radius="1" result="shadowInner"/>
            <feOffset in="shadowInner" result="shadowInner"/>
            <feComposite in="shadowOffsetOuter1" in2="shadowInner" operator="out" result="shadowOffsetOuter1"/>
            <feGaussianBlur in="shadowOffsetOuter1" result="shadowBlurOuter1" stdDeviation="4"/>
            <feColorMatrix in="shadowBlurOuter1" values="0 0 0 0 0.980392157 0 0 0 0 0.811764706 0 0 0 0 0.356862745 0 0 0 0.5 0"/>
        </filter>
        <path id="i" d="M192.58 99l227.646 352.947"/>
        <filter id="h" width="111.2%" height="107.2%" x="-5.6%" y="-3.6%" filterUnits="objectBoundingBox">
            <feMorphology in="SourceAlpha" operator="dilate" radius=".75" result="shadowSpreadOuter1"/>
            <feOffset in="shadowSpreadOuter1" result="shadowOffsetOuter1"/>
            <feMorphology in="SourceAlpha" radius="1" result="shadowInner"/>
            <feOffset in="shadowInner" result="shadowInner"/>
            <feComposite in="shadowOffsetOuter1" in2="shadowInner" operator="out" result="shadowOffsetOuter1"/>
            <feGaussianBlur in="shadowOffsetOuter1" result="shadowBlurOuter1" stdDeviation="4"/>
            <feColorMatrix in="shadowBlurOuter1" values="0 0 0 0 0.980392157 0 0 0 0 0.811764706 0 0 0 0 0.356862745 0 0 0 0.5 0"/>
        </filter>
        <filter id="j" width="154.5%" height="140.4%" x="-27.2%" y="-14.2%" filterUnits="objectBoundingBox">
            <feOffset dy="10" in="SourceAlpha" result="shadowOffsetOuter1"/>
            <feGaussianBlur in="shadowOffsetOuter1" result="shadowBlurOuter1" stdDeviation="9.5"/>
            <feColorMatrix in="shadowBlurOuter1" result="shadowMatrixOuter1" values="0 0 0 0 0 0 0 0 0 0 0 0 0 0 0 0 0 0 0.3 0"/>
            <feMerge>
                <feMergeNode in="shadowMatrixOuter1"/>
                <feMergeNode in="SourceGraphic"/>
            </feMerge>
        </filter>
        <radialGradient id="k" fx="50%" fy="50%" gradientTransform="matrix(0 .98613 -1 0 1 .007)">
            <stop offset="0%" stop-color="#F5515F"/>
            <stop offset="100%" stop-color="#9F041B"/>
        </radialGradient>
        <radialGradient id="l" r="84.627%" fx="50%" fy="50%" gradientTransform="matrix(0 .98613 -1 0 1 .007)">
            <stop offset="0%" stop-color="#F5515F"/>
            <stop offset="100%" stop-color="#9F041B"/>
        </radialGradient>
        <filter id="m" width="159.6%" height="156%" x="-29.8%" y="-20%" filterUnits="objectBoundingBox">
            <feOffset dy="8" in="SourceAlpha" result="shadowOffsetOuter1"/>
            <feGaussianBlur in="shadowOffsetOuter1" result="shadowBlurOuter1" stdDeviation="8"/>
            <feColorMatrix in="shadowBlurOuter1" result="shadowMatrixOuter1" values="0 0 0 0 0 0 0 0 0 0 0 0 0 0 0 0 0 0 0.3 0"/>
            <feMerge>
                <feMergeNode in="shadowMatrixOuter1"/>
                <feMergeNode in="SourceGraphic"/>
            </feMerge>
        </filter>
        <linearGradient id="n" x1="50%" x2="50%" y1="0%" y2="100%">
            <stop offset="0%" stop-color="#B388FF"/>
            <stop offset="100%" stop-color="#641C95"/>
        </linearGradient>
        <filter id="o" width="157.1%" height="157%" x="-28.6%" y="-20%" filterUnits="objectBoundingBox">
            <feOffset dy="8" in="SourceAlpha" result="shadowOffsetOuter1"/>
            <feGaussianBlur in="shadowOffsetOuter1" result="shadowBlurOuter1" stdDeviation="8"/>
            <feColorMatrix in="shadowBlurOuter1" result="shadowMatrixOuter1" values="0 0 0 0 0 0 0 0 0 0 0 0 0 0 0 0 0 0 0.3 0"/>
            <feMerge>
                <feMergeNode in="shadowMatrixOuter1"/>
                <feMergeNode in="SourceGraphic"/>
            </feMerge>
        </filter>
        <filter id="p" width="158.3%" height="156%" x="-29.2%" y="-20%" filterUnits="objectBoundingBox">
            <feOffset dy="8" in="SourceAlpha" result="shadowOffsetOuter1"/>
            <feGaussianBlur in="shadowOffsetOuter1" result="shadowBlurOuter1" stdDeviation="8"/>
            <feColorMatrix in="shadowBlurOuter1" result="shadowMatrixOuter1" values="0 0 0 0 0 0 0 0 0 0 0 0 0 0 0 0 0 0 0.3 0"/>
            <feMerge>
                <feMergeNode in="shadowMatrixOuter1"/>
                <feMergeNode in="SourceGraphic"/>
            </feMerge>
        </filter>
        <filter id="q" width="157.1%" height="156%" x="-28.6%" y="-20%" filterUnits="objectBoundingBox">
            <feOffset dy="8" in="SourceAlpha" result="shadowOffsetOuter1"/>
            <feGaussianBlur in="shadowOffsetOuter1" result="shadowBlurOuter1" stdDeviation="8"/>
            <feColorMatrix in="shadowBlurOuter1" result="shadowMatrixOuter1" values="0 0 0 0 0 0 0 0 0 0 0 0 0 0 0 0 0 0 0.3 0"/>
            <feMerge>
                <feMergeNode in="shadowMatrixOuter1"/>
                <feMergeNode in="SourceGraphic"/>
            </feMerge>
        </filter>
        <filter id="r" width="157.6%" height="156%" x="-29.3%" y="-20%" filterUnits="objectBoundingBox">
            <feOffset dy="8" in="SourceAlpha" result="shadowOffsetOuter1"/>
            <feGaussianBlur in="shadowOffsetOuter1" result="shadowBlurOuter1" stdDeviation="8"/>
            <feColorMatrix in="shadowBlurOuter1" result="shadowMatrixOuter1" values="0 0 0 0 0 0 0 0 0 0 0 0 0 0 0 0 0 0 0.3 0"/>
            <feMerge>
                <feMergeNode in="shadowMatrixOuter1"/>
                <feMergeNode in="SourceGraphic"/>
            </feMerge>
        </filter>
        <filter id="s" width="158.9%" height="156%" x="-29.5%" y="-20%" filterUnits="objectBoundingBox">
            <feOffset dy="8" in="SourceAlpha" result="shadowOffsetOuter1"/>
            <feGaussianBlur in="shadowOffsetOuter1" result="shadowBlurOuter1" stdDeviation="8"/>
            <feColorMatrix in="shadowBlurOuter1" result="shadowMatrixOuter1" values="0 0 0 0 0 0 0 0 0 0 0 0 0 0 0 0 0 0 0.3 0"/>
            <feMerge>
                <feMergeNode in="shadowMatrixOuter1"/>
                <feMergeNode in="SourceGraphic"/>
            </feMerge>
        </filter>
    </defs>
    <g fill="none" fill-rule="evenodd">
        <g stroke-dasharray="1,4" stroke-linecap="round" opacity=".9" transform="rotate(90 306 276.04)">
            <use fill="#000" filter="url(#a)" xlink:href="#b"/>
            <use stroke="url(#c)" stroke-width="1.5" xlink:href="#b"/>
        </g>
        <g stroke-dasharray="1,4" stroke-linecap="round" opacity=".9">
            <use fill="#000" filter="url(#d)" xlink:href="#e"/>
            <use stroke="url(#c)" stroke-width="1.5" xlink:href="#e"/>
        </g>
        <g stroke-dasharray="1,4" stroke-linecap="round" opacity=".9">
            <use fill="#000" filter="url(#f)" xlink:href="#g"/>
            <use stroke="url(#c)" stroke-width="1.5" xlink:href="#g"/>
        </g>
        <g stroke-dasharray="1,4" stroke-linecap="round" opacity=".9" transform="matrix(-1 0 0 1 612.805 0)">
            <use fill="#000" filter="url(#h)" xlink:href="#i"/>
            <use stroke="url(#c)" stroke-width="1.5" xlink:href="#i"/>
        </g>
        <g filter="url(#j)" transform="translate(240 171)">
            <path fill="#000" d="M3.885 141.033h5.15c1.129 0 2.09.173 2.885.519.795.345 1.446.806 1.953 1.382.507.576.87 1.238 1.089 1.987.218.75.328 1.527.328 2.333v.899c0 .668-.052 1.232-.156 1.693-.103.46-.259.864-.466 1.21a3.88 3.88 0 0 1-.76.916 6.64 6.64 0 0 1-1.037.743c.83.391 1.44.973 1.831 1.745.392.772.588 1.803.588 3.093v1.382c0 2.166-.524 3.825-1.573 4.977-1.048 1.152-2.724 1.728-5.028 1.728H3.885v-24.607zm3.525 21.082h1.52c.715 0 1.274-.104 1.677-.311.403-.208.709-.496.916-.864.207-.369.334-.807.38-1.313.046-.507.07-1.06.07-1.66a11.1 11.1 0 0 0-.105-1.624c-.069-.46-.213-.846-.432-1.157a2.034 2.034 0 0 0-.915-.709c-.392-.161-.91-.242-1.556-.242H7.41v7.88zm0-10.99H9c1.175 0 1.964-.294 2.367-.881.404-.588.605-1.446.605-2.575 0-1.106-.224-1.936-.674-2.489-.449-.552-1.261-.829-2.436-.829H7.41v6.774zm13.341-10.092h3.525v24.607h-3.525v-24.607zm11.302 3.318h-4.078v-3.318h11.682v3.318h-4.078v21.289h-3.526v-21.289zm11.199-3.318h5.288c.967 0 1.82.127 2.557.38.737.254 1.405.703 2.004 1.348a5.27 5.27 0 0 1 1.245 2.264c.23.864.345 2.033.345 3.508 0 1.083-.063 2.01-.19 2.782a5.857 5.857 0 0 1-.812 2.16 5.145 5.145 0 0 1-1.935 1.883c-.807.45-1.867.674-3.18.674h-1.797v9.608h-3.525v-24.607zm3.525 11.682h1.693c.715 0 1.268-.104 1.66-.311.391-.208.679-.49.863-.847.185-.357.294-.79.329-1.296.034-.507.051-1.072.051-1.694 0-.576-.017-1.123-.051-1.641-.035-.519-.139-.968-.311-1.348a1.977 1.977 0 0 0-.813-.899c-.368-.219-.898-.328-1.59-.328h-1.831v8.364zm12.373-5.876c0-.99.173-1.866.519-2.626.345-.76.8-1.388 1.365-1.884a5.884 5.884 0 0 1 1.9-1.123 6.225 6.225 0 0 1 2.126-.38c.714 0 1.423.127 2.126.38a5.884 5.884 0 0 1 1.9 1.123c.565.496 1.02 1.123 1.366 1.884.345.76.518 1.636.518 2.626v12.995c0 1.014-.173 1.895-.518 2.644a5.52 5.52 0 0 1-1.366 1.866 5.884 5.884 0 0 1-1.9 1.123 6.225 6.225 0 0 1-2.126.38 6.225 6.225 0 0 1-2.125-.38 5.884 5.884 0 0 1-1.901-1.123 5.52 5.52 0 0 1-1.365-1.866c-.346-.749-.519-1.63-.519-2.644v-12.995zm3.526 12.995c0 .852.236 1.48.708 1.883a2.499 2.499 0 0 0 1.676.605c.645 0 1.204-.201 1.676-.605.473-.403.709-1.03.709-1.883v-12.995c0-.852-.236-1.48-.709-1.883a2.499 2.499 0 0 0-1.676-.605c-.645 0-1.204.202-1.676.605-.472.403-.708 1.03-.708 1.883v12.995zm13.444-18.8h3.525v11.231h.07l5.149-11.232h3.525l-4.804 9.85 5.703 14.757h-3.733l-4.009-10.921-1.9 3.56v7.361H76.12v-24.607zm16.763 0h10.506v3.317h-6.981v7.223h6.083v3.318h-6.083v7.223h6.981v3.525H92.883v-24.607zm18.352 10.99h2.005c.622 0 1.117-.087 1.486-.26.368-.173.65-.42.846-.743.196-.322.329-.72.398-1.192.069-.473.104-1.02.104-1.642 0-.622-.035-1.17-.104-1.641-.07-.473-.213-.876-.432-1.21a1.953 1.953 0 0 0-.916-.743c-.392-.161-.91-.242-1.555-.242h-1.832v7.672zm-3.525-10.99h5.668c4.147 0 6.22 2.407 6.22 7.222 0 1.429-.224 2.656-.673 3.681-.45 1.025-1.239 1.849-2.368 2.471l3.802 11.232h-3.732l-3.284-10.506h-2.108v10.506h-3.525v-24.607z"/>
            <g fill-rule="nonzero">
                <ellipse cx="61.2" cy="61.44" fill="#FFF" rx="59.288" ry="59.52"/>
                <path fill="url(#k)" d="M122.124 62.553c0 34.12-27.278 61.78-60.924 61.78-33.648 0-60.924-27.66-60.924-61.78C.276 28.432 27.552.77 61.2.77c33.646 0 60.924 27.66 60.924 61.782zm-51.15 56.097l-1.675-9.676c-3.845.685-7.85.876-11.762.568l-.753 9.795a55.89 55.89 0 0 0 14.19-.687zm-16.953-9.522c-.29-.045-.58-.093-.868-.145l-1.672 9.677c.353.061.706.122 1.06.177l1.48-9.709zm22.169 8.33l-2.579-9.468a45.942 45.942 0 0 1-3.443.82l1.86 9.64a54.92 54.92 0 0 0 4.162-.992zm-34.273-12.006a45.605 45.605 0 0 1-3.163-1.615l-4.684 8.599a55.747 55.747 0 0 0 3.823 1.951l4.024-8.935zm-3.934-2.056a46.84 46.84 0 0 1-9.367-7.228l-6.792 7.004a56.502 56.502 0 0 0 11.312 8.732l4.847-8.508zm52.244 7.928l-5.015-8.403c-.25.154-.506.305-.76.455l4.858 8.499c.307-.18.612-.364.917-.55zm14.004-12.163l-7.42-6.317a47.033 47.033 0 0 1-8.644 8.103l5.628 7.996a56.76 56.76 0 0 0 10.436-9.782zm-78.045-5.606c-.193-.226-.385-.452-.574-.681l-7.415 6.32c.228.278.46.553.696.824l7.293-6.463zm81.284 1.296l-7.974-5.579c-.668.982-1.38 1.95-2.12 2.878l7.536 6.172a57.453 57.453 0 0 0 2.558-3.471zM19.236 82.847a47.712 47.712 0 0 1-1.401-3.289L8.8 83.104a57.882 57.882 0 0 0 1.693 3.977l8.742-4.234zm-1.712-4.128a47.41 47.41 0 0 1-2.592-11.632l-9.643.932a57.399 57.399 0 0 0 3.137 14.068l9.098-3.368zm96.83 2.288l-9.167-3.181a34.24 34.24 0 0 1-.295.85l9.104 3.358c.121-.342.24-.685.358-1.027zm2.787-18.454v-.783h-9.945v.783c0 4.012-.25 7.994-1.231 11.84l9.377 2.459a57.935 57.935 0 0 0 1.799-14.3zm-102.411.949a54.016 54.016 0 0 1-.01-.898l-9.687.01c0 .362.004.724.011 1.083l9.686-.195zm102.241-2.73a58.364 58.364 0 0 0-.248-4.324l-9.642.942c.112 1.186.181 2.392.206 3.585l9.684-.203zM17.196 47.328l-9.168-3.17a56.957 56.957 0 0 0-1.225 4.156l9.381 2.45a47.017 47.017 0 0 1 1.012-3.436zm5.68-11.454l-7.981-5.568A57.134 57.134 0 0 0 8.383 43.13l9.107 3.35a47.278 47.278 0 0 1 5.386-10.605zm91.08 7.09c-.123-.342-.249-.68-.378-1.017l-9.033 3.55c.107.28.212.558.312.84l9.099-3.373zm-2.076-4.996a57.116 57.116 0 0 0-7.716-12.105l-7.407 6.33a47.277 47.277 0 0 1 6.387 10.02l8.736-4.245zm-86.325-5.666l-7.423-6.31c-.23.277-.456.556-.68.839l7.54 6.164c.185-.233.372-.464.563-.693zm77.912-7.261a58.19 58.19 0 0 0-2.935-3.15l-6.783 7.012c.84.835 1.657 1.712 2.431 2.61l7.287-6.472zm-66.323-2.828l-5.022-8.4a56.356 56.356 0 0 0-3.568 2.385l5.635 7.99a47.055 47.055 0 0 1 2.955-1.975zm11.597-5.084l-2.59-9.465a55.51 55.51 0 0 0-13.11 5.596l4.863 8.497a45.903 45.903 0 0 1 10.837-4.628zm40.47-3.956c-.31-.18-.62-.358-.933-.533L83.6 21.242c.259.145.516.292.772.443l4.838-8.512zm-4.757-2.482a55.257 55.257 0 0 0-13.597-4.257l-1.655 9.68a45.7 45.7 0 0 1 11.237 3.517l4.015-8.94zM53.05 16.14l-1.685-9.674c-.352.063-.703.13-1.052.199l1.868 9.638c.289-.056.578-.11.87-.163zM69.8 6.259a56.32 56.32 0 0 0-4.245-.496l-.742 9.795c1.172.091 2.356.23 3.515.41l1.472-9.71zm-8.6 14.889c-22.55 0-40.83 18.537-40.83 41.405 0 22.868 18.28 41.405 40.83 41.405 22.55 0 40.832-18.537 40.832-41.405 0-22.868-18.282-41.405-40.832-41.405zm42.284 41.405c0-23.643-18.968-42.879-42.284-42.879-23.315 0-42.284 19.236-42.284 42.879 0 23.643 18.97 42.878 42.284 42.878 23.316 0 42.284-19.235 42.284-42.878zm-2.906 0c0 22.017-17.666 39.932-39.378 39.932-21.714 0-39.378-17.915-39.378-39.932 0-22.018 17.664-39.931 39.378-39.931 21.712 0 39.378 17.913 39.378 39.93z"/>
                <ellipse cx="61.2" cy="62.553" fill="url(#l)" rx="36.017" ry="36.524"/>
                <path fill="#FFF" d="M78.62 56.223c.46-5.507-3.839-8.156-9.586-9.724l1.352-7.512-4.525-.814-1.316 7.313c-1.19-.214-2.41-.41-3.622-.603l1.326-7.361-4.523-.815-1.353 7.509a148.35 148.35 0 0 1-2.886-.48l.003-.023-6.24-1.126-.878 4.883s3.353.537 3.286.59c1.832.33 2.236 1.512 2.242 2.472l-1.54 8.556c.127.024.29.059.473.118-.151-.027-.312-.057-.478-.085l-2.16 11.987c-.185.568-.692 1.436-1.972 1.208.049.062-3.289-.594-3.289-.594l-1.883 5.3 5.889 1.06c1.095.198 2.17.411 3.227.608l-1.365 7.597 4.519.815 1.353-7.516c1.237.25 2.436.475 3.608.686l-1.349 7.481 4.526.814 1.366-7.582c7.687.929 13.36-.049 15.32-7.147 1.58-5.716-.658-8.797-4.788-10.623 2.866-.877 4.935-2.96 5.264-6.992zm-9.254 15.103c-1.019 5.678-10.523 3.3-13.59 2.75l1.813-10.064c3.067.553 12.843 1.393 11.777 7.314zm.452-14.579c-.93 5.165-8.846 3.117-11.4 2.658l1.644-9.13c2.554.46 10.726 1.085 9.756 6.472z"/>
            </g>
        </g>
        <g fill-rule="nonzero">
            <g filter="url(#m)" transform="translate(128 360)">
                <path fill="url(#n)" d="M91.442 90.519c-2.654-5.969-15.61-9.919-24.22-13.627-8.609-3.708-7.432-5.957-7.742-9.032a27.069 27.069 0 0 1-.108-2.782c2.517-2.089 4.687-4.627 6.026-8.082l.106-.267c.33-.876.47-3.416.72-4.348 1.974-.389 3.123-2.484 3.563-4.422.444-.784 1.367-2.717 1.154-4.91-.272-2.823-1.439-4.129-2.75-4.674l.003-.489c0-.496-.008-.991-.02-1.485.371-2.61.693-5.194.693-6.669 0-1.928-.416-5.746-1.725-9.253l.025.022-1.719-3.667-.3-1.476-1.477-.417c-.08-.072-.162-.139-.244-.207.18-.358-1.262-1.406-.022-1.828-.53-.74-3.153-.312-3.153-.312s-.394-2.548-1.03-2.889c-.333.466-1.643.323-2.715.24-4.058-.533-1.552-3.987-5.732-4.373.017-1.635-.017-2.947-.017-2.947s-2.126 1.78-2.909 1.083C47.37 2.065 48.486 0 48.486 0s-3.064.034-3.792 3.081c-.643-.88.102-2.235.61-2.912-3.886 1.315-5.13 4.238-6.683 6.106-.206.248-.776-.866-.705-1.553-1.515.71-2.438 4.801-3.118 5.093-.68.291-2.073-.869-2.172-1.334-1.426.1-4.785 6.967-4.785 6.967l-3.309 3.309s1.674-.125 1.76.479c.084.604-2.456 5.093-2.456 5.093s1.375-.79 1.517-.337c.142.453-.027.153-.04.229l-2 5.332 1.396-.537a65.49 65.49 0 0 0-.249 5.584c0 1.656.065 2.937.167 3.981-1.133.642-2.086 1.951-2.329 4.467-.212 2.193.711 4.126 1.154 4.91.447 1.971 1.63 4.105 3.666 4.441.253.936.667 3.229 1 4.113l.067.17.031.076c1.36 3.502 3.442 6.046 5.925 8.145.01 1.007-.015 2.043-.106 2.956-.309 3.075.596 5.323-8.013 9.032C17.415 80.6 4.458 84.55 1.803 90.519-.852 96.488.21 100 .21 100h92.82c-.002 0 1.07-3.512-1.587-9.481z"/>
                <g fill="#B388FF">
                    <path d="M65.357 77.232l-7.713-2.11A3.477 3.477 0 0 0 56.73 75a3.54 3.54 0 0 0-3.407 2.64l-3.942 14.8c-.245.918-.12 1.88.35 2.709a3.507 3.507 0 0 0 2.135 1.67l7.713 2.109c.298.081.606.123.914.123a3.542 3.542 0 0 0 3.407-2.64l3.941-14.8c.507-1.902-.608-3.866-2.484-4.379zm-2.095 10.83c-1.172 1.4-2.968 2.565-5.337 3.464l-.473.18-.32-.397c-1.602-1.985-2.575-3.908-2.893-5.715a3.607 3.607 0 0 1 .628-2.733 3.198 3.198 0 0 1 2.198-1.319c1.443-.184 2.297.652 2.741 1.319a3.12 3.12 0 0 1 1.358-.33c.602 0 1.163.198 1.668.588a3.26 3.26 0 0 1 1.244 2.262 3.6 3.6 0 0 1-.814 2.681z"/>
                    <path d="M48.185 95.176c-.402-1.035-.41-2.185-.125-3.257l.213-.801a2.862 2.862 0 0 1-.757-.247c-.931-.468-1.574-1.358-1.752-2.459-.154-.947.131-1.898.642-2.707.915-1.45 2.378-2.804 4.357-4.03l.03-.018 1.169-4.388c.17-.642.472-1.217.855-1.722l-5.484-.406c-1.83-.134-3.401 1.273-3.533 3.092l-1.135 15.74c-.133 1.84 1.235 3.445 3.051 3.58l3.661.271c.332.025.508-.397.252-.613a5.023 5.023 0 0 1-1.444-2.035"/>
                    <path d="M41.258 93.87l.134-1.86-3.726-4.378a1.362 1.362 0 0 1-.083-1.652l3.501-5.074c.26-.376.709-.554 1.148-.539l.162-2.238a4.785 4.785 0 0 1 .719-2.198l-5.76.297c-1.822.094-3.222 1.666-3.13 3.51l.787 15.683c.09 1.795 1.615 3.303 3.388 3.253l.08-.003 3.573-.185c.53-.027.784-.663.426-1.06a4.79 4.79 0 0 1-1.219-3.557"/>
                    <path d="M33.606 95.573l-.203-4.044c-.09.035-.176.076-.269.103a2.951 2.951 0 0 1-.822.118c-1.32 0-2.496-.899-2.86-2.184a3.022 3.022 0 0 1 1.132-3.281 2.91 2.91 0 0 1-.157-.424c-.452-1.598.462-3.272 2.04-3.731.15-.044.304-.07.46-.088l-.112-2.231a4.784 4.784 0 0 1 1.21-3.442c.239-.267.504-.5.788-.703l-6.718 1.955c-1.75.51-2.764 2.366-2.262 4.138l4.3 15.17a3.324 3.324 0 0 0 3.177 2.42c.306 0 .61-.043.906-.129l1.004-.292a4.781 4.781 0 0 1-1.614-3.355"/>
                </g>
            </g>
            <g filter="url(#o)" transform="translate(379 360)">
                <path fill="url(#n)" d="M95.765 90.108c-2.77-6.228-16.288-10.349-25.27-14.218-8.982-3.869-7.755-6.215-8.078-9.423l-.018-.193c3.221-.934 8.496-3.068 11.226-7.129 3.862-5.747 2.826-13.188 3.065-17.112.24-3.923.428-12.793-1.261-19.623-1.688-6.83-3.837-13.2-7.83-16.736-3.993-3.536-7.179-3.284-9.119-2.713-.156-.578-.574-1.52-1.691-1.967-1.672-.669-10.671-2.61-19.165 1.886-8.494 4.496-12.042 13.497-14.178 21.761-2.136 8.264-3.233 17.265-1.255 27.533 1.746 9.062 9.652 12.286 13.752 13.343-.018.326-.041.645-.072.951-.323 3.208.622 5.554-8.36 9.423-8.982 3.869-22.5 7.99-25.27 14.218C-.529 96.336.578 100 .578 100h96.841c-.001 0 1.116-3.664-1.654-9.892z"/>
                <g fill="#B388FF">
                    <path d="M68.357 77.232l-7.713-2.11A3.477 3.477 0 0 0 59.73 75a3.54 3.54 0 0 0-3.407 2.64l-3.942 14.8c-.245.918-.12 1.88.35 2.709a3.507 3.507 0 0 0 2.135 1.67l7.713 2.109c.298.081.606.123.914.123a3.542 3.542 0 0 0 3.407-2.64l3.941-14.8c.507-1.902-.608-3.866-2.484-4.379zm-2.095 10.83c-1.172 1.4-2.968 2.565-5.337 3.464l-.473.18-.32-.397c-1.602-1.985-2.575-3.908-2.893-5.715a3.607 3.607 0 0 1 .628-2.733 3.198 3.198 0 0 1 2.198-1.319c1.443-.184 2.297.652 2.741 1.319a3.12 3.12 0 0 1 1.358-.33c.602 0 1.163.198 1.668.588a3.26 3.26 0 0 1 1.244 2.262 3.6 3.6 0 0 1-.814 2.681z"/>
                    <path d="M51.185 95.176c-.402-1.035-.41-2.185-.125-3.257l.213-.801a2.862 2.862 0 0 1-.757-.247c-.931-.468-1.574-1.358-1.752-2.459-.154-.947.131-1.898.642-2.707.915-1.45 2.378-2.804 4.357-4.03l.03-.018 1.169-4.388c.17-.642.472-1.217.855-1.722l-5.484-.406c-1.83-.134-3.401 1.273-3.533 3.092l-1.135 15.74c-.133 1.84 1.235 3.445 3.051 3.58l3.661.271c.332.025.508-.397.252-.613a5.023 5.023 0 0 1-1.444-2.035"/>
                    <path d="M44.258 93.87l.134-1.86-3.726-4.378a1.362 1.362 0 0 1-.083-1.652l3.501-5.074c.26-.376.709-.554 1.148-.539l.162-2.238a4.785 4.785 0 0 1 .719-2.198l-5.76.297c-1.822.094-3.222 1.666-3.13 3.51l.787 15.683c.09 1.795 1.615 3.303 3.388 3.253l.08-.003 3.573-.185c.53-.027.784-.663.426-1.06a4.79 4.79 0 0 1-1.219-3.557"/>
                    <path d="M36.606 95.573l-.203-4.044c-.09.035-.176.076-.269.103a2.951 2.951 0 0 1-.822.118c-1.32 0-2.496-.899-2.86-2.184a3.022 3.022 0 0 1 1.132-3.281 2.91 2.91 0 0 1-.157-.424c-.452-1.598.462-3.272 2.04-3.731.15-.044.304-.07.46-.088l-.112-2.231a4.784 4.784 0 0 1 1.21-3.442c.239-.267.504-.5.788-.703l-6.718 1.955c-1.75.51-2.764 2.366-2.262 4.138l4.3 15.17a3.324 3.324 0 0 0 3.177 2.42c.306 0 .61-.043.906-.129l1.004-.292a4.781 4.781 0 0 1-1.614-3.355"/>
                </g>
            </g>
            <g filter="url(#p)" transform="translate(16 173)">
                <path fill="url(#n)" d="M93.85 90.27c-2.725-6.126-16.022-10.18-24.858-13.986-8.835-3.806-7.628-6.114-7.946-9.27-.092-.915-.118-1.952-.11-2.962 2.66-2.535 4.845-5.839 6.303-9.603l.109-.274c.338-.899.64-1.837.898-2.793 2.026-.4 3.206-2.55 3.656-4.539.456-.805 1.402-2.788 1.185-5.039-.215-2.224-.971-3.528-1.92-4.268.46-1.985.704-4.061.704-6.199 0-9.83-5.144-18.36-12.68-22.623C58.984 3.872 54.169 0 48.255 0s-10.73 3.872-10.936 8.714c-7.537 4.263-12.68 12.793-12.68 22.623 0 1.98.213 3.904.608 5.754-1.27.605-2.371 1.95-2.638 4.713-.217 2.251.73 4.235 1.185 5.039.459 2.023 1.672 4.213 3.763 4.558.26.961.564 1.905.907 2.811.022.059.046.117.069.175l.03.078c1.493 3.843 3.74 7.208 6.482 9.762.004.955-.024 1.925-.111 2.787-.317 3.156.61 5.464-8.224 9.27-8.836 3.806-22.134 7.86-24.86 13.986C-.873 96.395.216 100 .216 100h95.262s1.098-3.605-1.627-9.73z"/>
                <g fill="#B388FF">
                    <path d="M66.357 77.232l-7.713-2.11A3.477 3.477 0 0 0 57.73 75a3.54 3.54 0 0 0-3.407 2.64l-3.942 14.8c-.245.918-.12 1.88.35 2.709a3.507 3.507 0 0 0 2.135 1.67l7.713 2.109c.298.081.606.123.914.123a3.542 3.542 0 0 0 3.407-2.64l3.941-14.8c.507-1.902-.608-3.866-2.484-4.379zm-2.095 10.83c-1.172 1.4-2.968 2.565-5.337 3.464l-.473.18-.32-.397c-1.602-1.985-2.575-3.908-2.893-5.715a3.607 3.607 0 0 1 .628-2.733 3.198 3.198 0 0 1 2.198-1.319c1.443-.184 2.297.652 2.741 1.319a3.12 3.12 0 0 1 1.358-.33c.602 0 1.163.198 1.668.588a3.26 3.26 0 0 1 1.244 2.262 3.6 3.6 0 0 1-.814 2.681z"/>
                    <path d="M49.185 95.176c-.402-1.035-.41-2.185-.125-3.257l.213-.801a2.862 2.862 0 0 1-.757-.247c-.931-.468-1.574-1.358-1.752-2.459-.154-.947.131-1.898.642-2.707.915-1.45 2.378-2.804 4.357-4.03l.03-.018 1.169-4.388c.17-.642.472-1.217.855-1.722l-5.484-.406c-1.83-.134-3.401 1.273-3.533 3.092l-1.135 15.74c-.133 1.84 1.235 3.445 3.051 3.58l3.661.271c.332.025.508-.397.252-.613a5.023 5.023 0 0 1-1.444-2.035"/>
                    <path d="M42.258 93.87l.134-1.86-3.726-4.378a1.362 1.362 0 0 1-.083-1.652l3.501-5.074c.26-.376.709-.554 1.148-.539l.162-2.238a4.785 4.785 0 0 1 .719-2.198l-5.76.297c-1.822.094-3.222 1.666-3.13 3.51l.787 15.683c.09 1.795 1.615 3.303 3.388 3.253l.08-.003 3.573-.185c.53-.027.784-.663.426-1.06a4.79 4.79 0 0 1-1.219-3.557"/>
                    <path d="M34.606 95.573l-.203-4.044c-.09.035-.176.076-.269.103a2.951 2.951 0 0 1-.822.118c-1.32 0-2.496-.899-2.86-2.184a3.022 3.022 0 0 1 1.132-3.281 2.91 2.91 0 0 1-.157-.424c-.452-1.598.462-3.272 2.04-3.731.15-.044.304-.07.46-.088l-.112-2.231a4.784 4.784 0 0 1 1.21-3.442c.239-.267.504-.5.788-.703l-6.718 1.955c-1.75.51-2.764 2.366-2.262 4.138l4.3 15.17a3.324 3.324 0 0 0 3.177 2.42c.306 0 .61-.043.906-.129l1.004-.292a4.781 4.781 0 0 1-1.614-3.355"/>
                </g>
            </g>
            <g filter="url(#q)" transform="translate(491 173)">
                <path fill="url(#n)" d="M95.42 90.107c-2.77-6.229-16.29-10.35-25.274-14.22-8.983-3.87-7.756-6.216-8.079-9.425a21.953 21.953 0 0 1-.085-1.232c2.661-2.25 5.091-4.997 6.382-8.33 0 0 .086-.214.11-.279.344-.914.65-3.281.912-4.254 2.06-.406 3.26-2.592 3.718-4.614.463-.818 1.426-2.835 1.205-5.124-.284-2.946-1.502-4.308-2.87-4.877l.003-.405c.27-2.85.303-6.325-.324-11.492-.149-.389.311-.755.814-1.174-.919-.741-1.235-3.314-.183-5.565l-1.79-.527 1.264-.842-1.158-.632 1.158-.21-1.79-1.053 1.158-.316c-2.232-1.997-3.166-2.99-3.264-5.581l-1.369.947c-.247-1.893-.509-1.505-1.053-3.58-.21.351-.42.702-.632 1.053C60.051 1.846 55.823 1.984 50.174 0c1.451 1.734.974 2.489-.21 2.316-8.355-2.791-8.843 4.168-14.11 3.264l.21 2.106-1.686-.632.316 1.158-2.106-.211.842 1.685-2-.526.736 1.895-2.843-.527 2.527 2.212-2-.105 1.263 1.475c-6.458 1.16-6.147 14.209-5.148 22.423-.003.236-.008.471-.008.707l.003.469c-1.41.544-2.682 1.899-2.973 4.919-.22 2.289.742 4.305 1.205 5.124.466 2.056 1.7 4.284 3.826 4.634.264.977.574 3.067.922 3.989l.07.178.032.079c1.29 3.319 3.83 6.173 6.565 8.5-.018.459-.046.907-.089 1.329-.323 3.209.622 5.555-8.362 9.425-8.983 3.87-22.503 7.992-25.274 14.22C-.888 96.335.218 100 .218 100h96.856s1.117-3.665-1.654-9.893z"/>
                <g fill="#B388FF">
                    <path d="M67.357 77.232l-7.713-2.11A3.477 3.477 0 0 0 58.73 75a3.54 3.54 0 0 0-3.407 2.64l-3.942 14.8c-.245.918-.12 1.88.35 2.709a3.507 3.507 0 0 0 2.135 1.67l7.713 2.109c.298.081.606.123.914.123a3.542 3.542 0 0 0 3.407-2.64l3.941-14.8c.507-1.902-.608-3.866-2.484-4.379zm-2.095 10.83c-1.172 1.4-2.968 2.565-5.337 3.464l-.473.18-.32-.397c-1.602-1.985-2.575-3.908-2.893-5.715a3.607 3.607 0 0 1 .628-2.733 3.198 3.198 0 0 1 2.198-1.319c1.443-.184 2.297.652 2.741 1.319a3.12 3.12 0 0 1 1.358-.33c.602 0 1.163.198 1.668.588a3.26 3.26 0 0 1 1.244 2.262 3.6 3.6 0 0 1-.814 2.681z"/>
                    <path d="M50.185 95.176c-.402-1.035-.41-2.185-.125-3.257l.213-.801a2.862 2.862 0 0 1-.757-.247c-.931-.468-1.574-1.358-1.752-2.459-.154-.947.131-1.898.642-2.707.915-1.45 2.378-2.804 4.357-4.03l.03-.018 1.169-4.388c.17-.642.472-1.217.855-1.722l-5.484-.406c-1.83-.134-3.401 1.273-3.533 3.092l-1.135 15.74c-.133 1.84 1.235 3.445 3.051 3.58l3.661.271c.332.025.508-.397.252-.613a5.023 5.023 0 0 1-1.444-2.035"/>
                    <path d="M43.258 93.87l.134-1.86-3.726-4.378a1.362 1.362 0 0 1-.083-1.652l3.501-5.074c.26-.376.709-.554 1.148-.539l.162-2.238a4.785 4.785 0 0 1 .719-2.198l-5.76.297c-1.822.094-3.222 1.666-3.13 3.51l.787 15.683c.09 1.795 1.615 3.303 3.388 3.253l.08-.003 3.573-.185c.53-.027.784-.663.426-1.06a4.79 4.79 0 0 1-1.219-3.557"/>
                    <path d="M35.606 95.573l-.203-4.044c-.09.035-.176.076-.269.103a2.951 2.951 0 0 1-.822.118c-1.32 0-2.496-.899-2.86-2.184a3.022 3.022 0 0 1 1.132-3.281 2.91 2.91 0 0 1-.157-.424c-.452-1.598.462-3.272 2.04-3.731.15-.044.304-.07.46-.088l-.112-2.231a4.784 4.784 0 0 1 1.21-3.442c.239-.267.504-.5.788-.703l-6.718 1.955c-1.75.51-2.764 2.366-2.262 4.138l4.3 15.17a3.324 3.324 0 0 0 3.177 2.42c.306 0 .61-.043.906-.129l1.004-.292a4.781 4.781 0 0 1-1.614-3.355"/>
                </g>
            </g>
            <g filter="url(#r)" transform="translate(125 7)">
                <path fill="url(#n)" d="M96.865 89.957c-2.812-6.323-16.537-10.507-25.656-14.435-9.12-3.928-7.873-6.31-8.201-9.567a24.47 24.47 0 0 1-.104-1.778c2.774-2.804 4.948-6.626 6.496-10.621 0 0 .087-.217.112-.283.349-.928.66-1.896.926-2.883 2.09-.412 3.308-2.632 3.774-4.684.47-.831 1.447-2.878 1.223-5.201-.226-2.337-1.031-3.69-2.035-4.446.146-1.073.229-2.032.229-2.855 0-4.127 1.654-16.804-2.832-21.47-2.378-2.474-4.656-5.048-7.876-6.947l.35-1.398-3.477-.088c-.06-.023.002-.638.186-1.847l-3.1.966L57.85 0l-4.755 1.938a32.775 32.775 0 0 0-1.675-.073c-6.945-.115-12.931 2.522-17.193 6.259-1.473.713-4.062 1.943-4.062 1.943l.973 1.328c-.04.051-1.3.609-3.781 1.673l1.997 1.18c-.045.096-.09.192-.132.29l-3.123 2.499 2.316-.331c-2.183 6.904-2.316 16.975-2.316 17.852 0 .127.04.484.112 1.013-1.373.588-2.59 1.97-2.875 4.933-.224 2.323.753 4.371 1.223 5.201.473 2.088 1.726 4.349 3.883 4.704.268.992.582 1.965.936 2.902 1.685 4.335 3.92 8.231 6.777 11.046a23.082 23.082 0 0 1-.1 1.597c-.327 3.257.632 5.639-8.487 9.567-9.12 3.929-22.844 8.113-25.656 14.436C-.902 96.28.22 100 .22 100h98.322s1.134-3.72-1.678-10.043z"/>
                <g fill="#B388FF">
                    <path d="M68.357 77.232l-7.713-2.11A3.477 3.477 0 0 0 59.73 75a3.54 3.54 0 0 0-3.407 2.64l-3.942 14.8c-.245.918-.12 1.88.35 2.709a3.507 3.507 0 0 0 2.135 1.67l7.713 2.109c.298.081.606.123.914.123a3.542 3.542 0 0 0 3.407-2.64l3.941-14.8c.507-1.902-.608-3.866-2.484-4.379zm-2.095 10.83c-1.172 1.4-2.968 2.565-5.337 3.464l-.473.18-.32-.397c-1.602-1.985-2.575-3.908-2.893-5.715a3.607 3.607 0 0 1 .628-2.733 3.198 3.198 0 0 1 2.198-1.319c1.443-.184 2.297.652 2.741 1.319a3.12 3.12 0 0 1 1.358-.33c.602 0 1.163.198 1.668.588a3.26 3.26 0 0 1 1.244 2.262 3.6 3.6 0 0 1-.814 2.681z"/>
                    <path d="M51.185 95.176c-.402-1.035-.41-2.185-.125-3.257l.213-.801a2.862 2.862 0 0 1-.757-.247c-.931-.468-1.574-1.358-1.752-2.459-.154-.947.131-1.898.642-2.707.915-1.45 2.378-2.804 4.357-4.03l.03-.018 1.169-4.388c.17-.642.472-1.217.855-1.722l-5.484-.406c-1.83-.134-3.401 1.273-3.533 3.092l-1.135 15.74c-.133 1.84 1.235 3.445 3.051 3.58l3.661.271c.332.025.508-.397.252-.613a5.023 5.023 0 0 1-1.444-2.035"/>
                    <path d="M44.258 93.87l.134-1.86-3.726-4.378a1.362 1.362 0 0 1-.083-1.652l3.501-5.074c.26-.376.709-.554 1.148-.539l.162-2.238a4.785 4.785 0 0 1 .719-2.198l-5.76.297c-1.822.094-3.222 1.666-3.13 3.51l.787 15.683c.09 1.795 1.615 3.303 3.388 3.253l.08-.003 3.573-.185c.53-.027.784-.663.426-1.06a4.79 4.79 0 0 1-1.219-3.557"/>
                    <path d="M36.606 95.573l-.203-4.044c-.09.035-.176.076-.269.103a2.951 2.951 0 0 1-.822.118c-1.32 0-2.496-.899-2.86-2.184a3.022 3.022 0 0 1 1.132-3.281 2.91 2.91 0 0 1-.157-.424c-.452-1.598.462-3.272 2.04-3.731.15-.044.304-.07.46-.088l-.112-2.231a4.784 4.784 0 0 1 1.21-3.442c.239-.267.504-.5.788-.703l-6.718 1.955c-1.75.51-2.764 2.366-2.262 4.138l4.3 15.17a3.324 3.324 0 0 0 3.177 2.42c.306 0 .61-.043.906-.129l1.004-.292a4.781 4.781 0 0 1-1.614-3.355"/>
                </g>
            </g>
            <g filter="url(#s)" transform="translate(380 7)">
                <path fill="url(#n)" d="M92.76 90.383c-2.693-6.055-15.836-10.062-24.569-13.824-8.733-3.762-7.54-6.043-7.853-9.162a26.647 26.647 0 0 1-.11-2.614c1.905-1.999 3.56-4.504 4.872-7.152 1.636-.929 3.605-1.463 4.915-2.774 1.461-1.461 1.956-3.74 3.11-5.464 1.144-1.71 3.066-3.035 3.863-4.958.784-1.891.37-4.183.776-6.238.394-1.994 1.662-3.952 1.662-6.063 0-2.111-1.268-4.068-1.662-6.062-.407-2.055.008-4.347-.776-6.238-.798-1.924-2.72-3.248-3.864-4.958-1.154-1.723-1.648-4.002-3.109-5.464-1.46-1.461-3.74-1.955-5.463-3.109-1.71-1.145-3.035-3.067-4.959-3.864-1.89-.784-4.183-.37-6.238-.776C51.36 1.268 49.402 0 47.292 0s-4.068 1.268-6.062 1.663c-2.055.406-4.348-.008-6.238.776-1.924.797-3.248 2.72-4.958 3.864-1.723 1.153-4.002 1.648-5.463 3.109-1.46 1.461-1.956 3.741-3.109 5.464-1.145 1.71-3.067 3.034-3.865 4.958-.784 1.891-.369 4.183-.776 6.238-.394 1.994-1.662 3.952-1.662 6.062 0 2.11 1.268 4.068 1.662 6.063.407 2.055-.008 4.347.776 6.238.798 1.924 2.72 3.249 3.865 4.959 1.154 1.723 1.648 4.002 3.11 5.463 1.31 1.311 3.28 1.845 4.914 2.774 1.376 2.777 3.13 5.401 5.151 7.444a25.522 25.522 0 0 1-.109 2.323c-.314 3.119.604 5.4-8.129 9.162-8.733 3.762-21.876 7.769-24.569 13.824C-.864 96.437.212 100 .212 100h94.155c.001 0 1.086-3.563-1.607-9.617z"/>
                <g fill="#B388FF">
                    <path d="M66.357 77.232l-7.713-2.11A3.477 3.477 0 0 0 57.73 75a3.54 3.54 0 0 0-3.407 2.64l-3.942 14.8c-.245.918-.12 1.88.35 2.709a3.507 3.507 0 0 0 2.135 1.67l7.713 2.109c.298.081.606.123.914.123a3.542 3.542 0 0 0 3.407-2.64l3.941-14.8c.507-1.902-.608-3.866-2.484-4.379zm-2.095 10.83c-1.172 1.4-2.968 2.565-5.337 3.464l-.473.18-.32-.397c-1.602-1.985-2.575-3.908-2.893-5.715a3.607 3.607 0 0 1 .628-2.733 3.198 3.198 0 0 1 2.198-1.319c1.443-.184 2.297.652 2.741 1.319a3.12 3.12 0 0 1 1.358-.33c.602 0 1.163.198 1.668.588a3.26 3.26 0 0 1 1.244 2.262 3.6 3.6 0 0 1-.814 2.681z"/>
                    <path d="M49.185 95.176c-.402-1.035-.41-2.185-.125-3.257l.213-.801a2.862 2.862 0 0 1-.757-.247c-.931-.468-1.574-1.358-1.752-2.459-.154-.947.131-1.898.642-2.707.915-1.45 2.378-2.804 4.357-4.03l.03-.018 1.169-4.388c.17-.642.472-1.217.855-1.722l-5.484-.406c-1.83-.134-3.401 1.273-3.533 3.092l-1.135 15.74c-.133 1.84 1.235 3.445 3.051 3.58l3.661.271c.332.025.508-.397.252-.613a5.023 5.023 0 0 1-1.444-2.035"/>
                    <path d="M42.258 93.87l.134-1.86-3.726-4.378a1.362 1.362 0 0 1-.083-1.652l3.501-5.074c.26-.376.709-.554 1.148-.539l.162-2.238a4.785 4.785 0 0 1 .719-2.198l-5.76.297c-1.822.094-3.222 1.666-3.13 3.51l.787 15.683c.09 1.795 1.615 3.303 3.388 3.253l.08-.003 3.573-.185c.53-.027.784-.663.426-1.06a4.79 4.79 0 0 1-1.219-3.557"/>
                    <path d="M34.606 95.573l-.203-4.044c-.09.035-.176.076-.269.103a2.951 2.951 0 0 1-.822.118c-1.32 0-2.496-.899-2.86-2.184a3.022 3.022 0 0 1 1.132-3.281 2.91 2.91 0 0 1-.157-.424c-.452-1.598.462-3.272 2.04-3.731.15-.044.304-.07.46-.088l-.112-2.231a4.784 4.784 0 0 1 1.21-3.442c.239-.267.504-.5.788-.703l-6.718 1.955c-1.75.51-2.764 2.366-2.262 4.138l4.3 15.17a3.324 3.324 0 0 0 3.177 2.42c.306 0 .61-.043.906-.129l1.004-.292a4.781 4.781 0 0 1-1.614-3.355"/>
                </g>
            </g>
        </g>
    </g>
</svg>
